<?xml version="1.0" encoding="utf-8"?>
<!-- Generator: Adobe Illustrator 25.2.0, SVG Export Plug-In . SVG Version: 6.00 Build 0)  -->
<svg version="1.1" id="Layer_1" xmlns="http://www.w3.org/2000/svg" xmlns:xlink="http://www.w3.org/1999/xlink" x="0px" y="0px"
	 viewBox="0 0 150 150" style="enable-background:new 0 0 150 150;" xml:space="preserve">
<g>
	<g>
		
			<ellipse transform="matrix(1 -2.777714e-03 2.777714e-03 1 -0.2092 0.2086)" style="fill:#F9C7AC;" cx="75" cy="75.42" rx="72.26" ry="72.26"/>
	</g>
	<g>
		<g>
			<polygon style="fill:#E2A27F;" points="139.59,83.8 116.35,56.29 81.37,83.63 			"/>
		</g>
		<g>
			<polygon style="fill:#F1B996;" points="110.55,83.71 74.14,49.83 37.73,83.71 			"/>
		</g>
		<g>
			<polygon style="fill:#E2A27F;" points="68.63,83.71 33.68,65.4 10.41,83.71 			"/>
		</g>
	</g>
	<g>
		<path style="fill:#FC8781;" d="M3.24,83.8c4.15,35.98,34.69,63.88,71.76,63.88c37.07,0,67.61-27.91,71.76-63.88H3.24z"/>
	</g>
	<g>
		<path style="fill:#FF9794;" d="M145.76,90.03c0.42-2.05,0.76-4.13,1.01-6.23H3.24c0.24,2.11,0.59,4.18,1.01,6.23H145.76z"/>
	</g>
	<g>
		<path style="fill:#ED6E64;" d="M6.73,99.04c9.79,28.31,36.65,48.64,68.28,48.64c31.63,0,58.49-20.33,68.28-48.64H6.73z"/>
	</g>
	<g>
		<path style="fill:#DD5D57;" d="M16.65,117.97c13.13,18,34.36,29.71,58.35,29.71c23.99,0,45.22-11.71,58.35-29.71H16.65z"/>
	</g>
	<g>
		<path style="fill:#FFFFFF;" d="M51.17,29.02h-5.09c-0.64,0-1.17-0.52-1.17-1.17s0.52-1.17,1.17-1.17h4.06
			c0.54-2.29,2.65-3.95,5.11-3.87c0.75-1.29,2.09-2.12,3.61-2.18c1.02-1.64,2.82-2.66,4.79-2.66c2.38,0,4.48,1.49,5.29,3.66
			c2.36,0.33,4.26,2.13,4.75,4.44h7.28c0.64,0,1.17,0.52,1.17,1.17s-0.52,1.17-1.17,1.17h-8.32c-0.64,0-1.17-0.52-1.17-1.17
			c0-1.84-1.5-3.33-3.33-3.33c-0.31,0.07-0.55,0-0.81-0.17c-0.26-0.17-0.36-0.46-0.42-0.77c-0.3-1.55-1.67-2.67-3.26-2.67
			c-1.32,0-2.51,0.78-3.04,1.99c-0.21,0.47-0.67,0.76-1.21,0.69c-1.03-0.13-2.03,0.45-2.34,1.45c-0.18,0.59-0.8,0.95-1.41,0.78
			c-0.19-0.05-0.4-0.08-0.62-0.08c-1.49,0-2.71,1.22-2.71,2.71C52.33,28.5,51.81,29.02,51.17,29.02z"/>
	</g>
	<g>
		<path style="fill:#FFFFFF;" d="M107.8,51.07h-3.34c-0.64,0-1.17-0.52-1.17-1.17c0-0.64,0.52-1.17,1.17-1.17h2.36
			c0.48-1.45,1.84-2.51,3.44-2.55c0.54-0.79,1.4-1.31,2.37-1.41c0.76-1.09,2.01-1.76,3.37-1.76c1.65,0,3.11,0.99,3.76,2.44
			c1.5,0.3,2.71,1.42,3.14,2.87h4.46c0.64,0,1.17,0.52,1.17,1.17c0,0.64-0.52,1.17-1.17,1.17h-5.46c-0.64,0-1.17-0.52-1.17-1.17
			c0-0.98-0.8-1.78-1.78-1.78c-0.3,0.07-0.53,0-0.79-0.18c-0.26-0.17-0.35-0.45-0.41-0.76c-0.16-0.83-0.89-1.43-1.74-1.43
			c-0.71,0-1.34,0.42-1.62,1.07c-0.21,0.47-0.69,0.76-1.22,0.69c-0.6-0.04-0.97,0.26-1.1,0.67c-0.18,0.6-0.8,0.95-1.41,0.78
			c-0.72-0.2-1.68,0.47-1.68,1.34C108.97,50.55,108.45,51.07,107.8,51.07z"/>
	</g>
	<g>
		<path style="fill:#FFFFFF;" d="M20.82,59.55h-3c-0.64,0-1.17-0.52-1.17-1.17c0-0.64,0.52-1.17,1.17-1.17h2.04
			c0.46-1.29,1.67-2.22,3.11-2.28c0.49-0.69,1.26-1.16,2.12-1.26c0.71-0.98,1.85-1.59,3.09-1.59c1.5,0,2.84,0.89,3.45,2.21
			c1.33,0.29,2.41,1.28,2.82,2.56h3.92c0.64,0,1.17,0.52,1.17,1.17s-0.52,1.17-1.17,1.17h-4.9c-0.64,0-1.17-0.52-1.17-1.17
			c0-0.82-0.66-1.48-1.48-1.48c-0.31,0.07-0.52,0.01-0.79-0.16c-0.27-0.17-0.34-0.46-0.4-0.77c-0.14-0.69-0.74-1.18-1.45-1.18
			c-0.59,0-1.12,0.35-1.35,0.88c-0.2,0.47-0.66,0.76-1.2,0.69c-0.44-0.12-0.77,0.2-0.87,0.52c-0.19,0.6-0.81,0.95-1.43,0.78
			c-0.93-0.04-1.34,0.48-1.34,1.09C21.99,59.03,21.47,59.55,20.82,59.55z"/>
	</g>
	<g>
		<g>
			<path style="fill:#F98D5D;" d="M92.55,27.07c0,3.52,2.87,6.39,6.41,6.39c3.54,0,6.41-2.87,6.41-6.39c0-3.54-2.87-6.41-6.41-6.41
				C95.42,20.66,92.55,23.53,92.55,27.07z"/>
		</g>
		<g>
			<path d="M75,1C34.18,1,0.99,34.19,0.99,74.99C0.99,115.81,34.18,149,75,149c40.79,0,74.01-33.19,74.01-74.01
				C149.01,34.19,115.79,1,75,1z M107.59,82.54c-7.62,0-31.06,0-38.67,0l-18.07-9.46l23.29-21.66
				C77.57,54.61,61.73,39.88,107.59,82.54z M111.02,82.56L98.96,71.35l17.23-13.45l20.89,24.73L111.02,82.56z M63.9,82.54
				c-6.46,0-44.96,0-50.12,0l20.02-15.76C36.89,68.39,22.66,60.95,63.9,82.54z M144.79,84.97c-0.61,4.45-1.65,8.76-3.12,12.91H8.33
				c-1.47-4.15-2.52-8.46-3.12-12.91H144.79z M131.74,116.81H18.26c-3.75-5.06-6.83-10.63-9.09-16.6h131.66
				C138.57,106.18,135.49,111.75,131.74,116.81z M75,145.5c-22.19,0-42.01-10.3-54.92-26.36h109.84
				C117.01,135.2,97.19,145.5,75,145.5z M75,4.5c38.88,0,70.52,31.61,70.52,70.49c0,2.59-0.14,5.13-0.42,7.65h-4.97l-22.89-27.09
				c-0.4-0.49-1.12-0.56-1.61-0.16L97.24,69.74L74.93,48.97c-0.44-0.42-1.14-0.42-1.58,0L48.68,71.93l-14.45-7.58
				c-0.42-0.21-0.91-0.16-1.26,0.12L9.89,82.63H4.9c-0.28-2.52-0.42-5.06-0.42-7.65C4.48,36.11,36.12,4.5,75,4.5z"/>
			<path d="M98.96,34.61c4.17,0,7.58-3.38,7.58-7.55c0-4.17-3.4-7.58-7.58-7.58c-4.17,0-7.58,3.4-7.58,7.58
				C91.39,31.23,94.79,34.61,98.96,34.61z M98.96,21.82c2.89,0,5.24,2.35,5.24,5.24c0,2.89-2.35,5.22-5.24,5.22
				c-2.89,0-5.24-2.33-5.24-5.22C93.72,24.17,96.07,21.82,98.96,21.82z"/>
		</g>
	</g>
</g>
</svg>
