<?xml version="1.0" encoding="utf-8"?>
<!-- Generator: Adobe Illustrator 25.2.0, SVG Export Plug-In . SVG Version: 6.00 Build 0)  -->
<svg version="1.1" id="Layer_1" xmlns="http://www.w3.org/2000/svg" xmlns:xlink="http://www.w3.org/1999/xlink" x="0px" y="0px"
	 viewBox="0 0 150 150" style="enable-background:new 0 0 150 150;" xml:space="preserve">
<g>
	<g>
		<circle style="fill:#ACE8D2;" cx="75.13" cy="74.94" r="73.1"/>
	</g>
	<g>
		<path style="fill:#FFFFFF;" d="M126.61,37.51h-3.37c-0.3,0-0.54-0.24-0.54-0.54c0-1.12-0.91-2.02-2.02-2.02
			c-0.17,0-0.32,0.02-0.46,0.06c-0.28,0.08-0.58-0.08-0.66-0.36c-0.24-0.77-1.05-1.22-1.79-1.12c-0.24,0.03-0.47-0.1-0.56-0.32
			c-0.39-0.89-1.26-1.46-2.22-1.46c-1.16,0-2.16,0.82-2.38,1.95c-0.03,0.15-0.12,0.27-0.24,0.35c-0.13,0.08-0.28,0.11-0.42,0.07
			c-1.27,0.01-2.36,1.1-2.36,2.45c0,0.3-0.24,0.54-0.54,0.54h-5.5c-0.3,0-0.54-0.24-0.54-0.54c0-0.3,0.24-0.54,0.54-0.54h5
			c0.24-1.57,1.52-2.8,3.12-2.96c0.47-1.41,1.8-2.4,3.33-2.4c1.26,0,2.42,0.68,3.04,1.76c0,0,0.01,0,0.01,0
			c1.02,0,1.93,0.57,2.38,1.45c0.09-0.01,0.18-0.01,0.27-0.01c1.53,0,2.8,1.11,3.05,2.57h2.87c0.3,0,0.54,0.24,0.54,0.54
			C127.15,37.27,126.91,37.51,126.61,37.51z"/>
	</g>
	<g>
		<path style="fill:#FFFFFF;" d="M55.71,36.81h-3.37c-0.3,0-0.54-0.24-0.54-0.54c0-1.12-0.91-2.02-2.02-2.02
			c-0.17,0-0.32,0.02-0.47,0.06c-0.27,0.08-0.57-0.09-0.65-0.36c-0.24-0.77-1.05-1.23-1.79-1.12c-0.23,0.02-0.47-0.1-0.56-0.32
			c-0.38-0.88-1.26-1.46-2.22-1.46c-1.16,0-2.16,0.82-2.38,1.95c-0.03,0.15-0.12,0.27-0.24,0.35c-0.13,0.08-0.28,0.11-0.42,0.07
			c-1.27,0.01-2.36,1.1-2.36,2.44c0,0.3-0.24,0.54-0.54,0.54h-5.5c-0.3,0-0.54-0.24-0.54-0.54c0-0.3,0.24-0.54,0.54-0.54h5
			c0.24-1.57,1.52-2.79,3.12-2.95c0.47-1.41,1.8-2.4,3.33-2.4c1.26,0,2.42,0.68,3.04,1.76c0,0,0,0,0,0c1.02,0,1.93,0.57,2.39,1.46
			c0.09-0.01,0.18-0.01,0.27-0.01c1.53,0,2.8,1.11,3.05,2.57h2.88c0.3,0,0.54,0.24,0.54,0.54C56.25,36.57,56.01,36.81,55.71,36.81z"
			/>
	</g>
	<g>
		<path style="fill:#FFFFFF;" d="M106.47,75.67c-6.06,10.73-19.74,14.48-30.52,8.37c-0.38-0.21-0.78-0.42-1.13-0.66
			c-2.81,2.22-6.06,3.7-9.46,4.39c-4.32,7.45-13.11,10.8-21.08,8.56c-0.14,1.65-0.64,3.3-1.51,4.83c-3.3,5.85-10.78,7.9-16.6,4.57
			c-2.26-1.27-3.96-3.18-5-5.4c-0.61,0.97-1.32,1.89-2.08,2.74c-2.38,2.71-5.35,4.74-8.63,5.99c-5.4-10.19-8.44-21.81-8.44-34.12
			c0-15.99,5.14-30.77,13.84-42.83c7.33-1.84,15.35-0.94,22.47,3.07c4.76,2.71,8.54,6.49,11.13,10.85c6.7-3.82,15.21-4.1,22.4-0.02
			c0.47,0.28,0.94,0.57,1.42,0.87c6.91-5.31,16.63-6.3,24.71-1.72c6.11,3.47,10,9.36,11.06,15.78
			C109.89,65.82,109.11,71.03,106.47,75.67z"/>
	</g>
	<g>
		<path style="fill:#FFFFFF;" d="M148.24,74.94c0,3.3-0.21,6.58-0.66,9.76c0,0.02,0,0.02,0,0.02c-1.53,2.81-3.68,5.24-6.18,7.1
			c-0.71,8.61-7.22,15.4-15.38,16.79c0.59,1.56,0.85,3.25,0.73,5.02c-0.5,6.7-6.34,11.74-13.04,11.27c-2.59-0.19-4.93-1.2-6.82-2.74
			c-1.49,11.65-11.84,20.21-23.68,19.36c-8.63-0.61-15.75-6.06-18.91-13.51c-3.3,1.51-6.98,2.24-10.87,1.96
			c-11.79-0.85-20.82-10.75-20.63-22.45c-1.25,0.24-2.5,0.33-3.8,0.24c-3.94-0.28-7.43-2.05-9.9-4.69c-1.11-1.16-2-2.5-2.69-3.99
			c-5.94-4.24-9.57-11.37-9.03-19.17c0.87-11.96,11.3-20.96,23.28-20.09c4.29,0.31,8.21,1.82,11.41,4.24
			c2.92-4.36,8.04-7.05,13.68-6.65c5.99,0.42,10.89,4.29,12.95,9.5c6.08-7.31,15.47-11.7,25.7-10.97c5.45,0.4,10.45,2.17,14.67,4.98
			c0.02,0.02,0.05,0.02,0.07,0.05c4.39-6.34,11.96-10.23,20.19-9.65c0.57,0.02,1.11,0.09,1.67,0.16c2.07-4.08,5.38-7.43,9.39-9.55
			C145.41,51.86,148.24,63.08,148.24,74.94z"/>
	</g>
	<g>
		<path style="fill:#80C46E;" d="M142.65,102.93c-10.97,26.48-37.05,45.11-67.52,45.11c-30.7,0-57-18.91-67.8-45.75
			c-3.42-8.44-5.31-17.69-5.31-27.36c0-4.65,0.42-9.17,1.25-13.58c3.54,0.35,7.03,0.9,10.45,1.6c14.64,3.02,27.87,8.73,40.58,14.72
			c8.58,4.03,17.07,8.23,25.94,11.91c4.27,1.79,8.65,3.44,13.16,4.91C108.88,99.52,125.65,102.06,142.65,102.93z"/>
	</g>
	<g>
		<path style="fill:#94D182;" d="M142.65,102.93c-2.15,5.21-4.91,10.12-8.18,14.64c-15.42-2.71-30.61-6.93-44.66-13.28
			c-4.34-1.93-8.54-4.06-12.64-6.32c-8.51-4.62-16.67-9.74-24.93-14.69c-12.19-7.36-24.9-14.48-38.98-19.08
			c-3.28-1.06-6.6-1.98-10-2.71c0-0.05,0.02-0.09,0.02-0.14c3.54,0.35,7.03,0.9,10.45,1.6c14.64,3.02,27.87,8.73,40.58,14.72
			c8.58,4.03,17.07,8.23,25.94,11.91c4.27,1.79,8.65,3.44,13.16,4.91C108.88,99.52,125.65,102.06,142.65,102.93z"/>
	</g>
	<g>
		<path style="fill:#94D182;" d="M3.25,61.5c-0.19,1.06-0.38,2.12-0.52,3.18c0.12-1.08,0.31-2.15,0.5-3.18H3.25z"/>
	</g>
	<g>
		<path style="fill:#80C46E;" d="M148.21,74.94c0,9.9-1.98,19.36-5.57,27.99c-10.97,26.48-37.05,45.11-67.52,45.11
			c-30.7,0-57-18.91-67.8-45.75c4.5,0.47,9.03,0.78,13.58,0.92c17.05,0.52,34.43-1.65,49.97-8.73c3.21-1.46,6.32-3.11,9.36-4.91
			c6.32-3.66,12.38-7.88,18.49-11.91c9.06-5.99,18.46-11.7,28.91-14.72c6.23-1.79,12.88-2.52,19.27-1.75
			C147.77,65.67,148.21,70.25,148.21,74.94z"/>
	</g>
	<g>
		<path style="fill:#71B25F;" d="M146.94,61.38c-6.44,0.02-12.92,1.58-18.87,4.15c-10,4.29-18.61,11.13-26.84,18.23
			c-5.57,4.76-11.04,9.72-16.86,14.13c-2.78,2.17-5.66,4.2-8.65,6.04c-14.55,8.96-31.51,13.3-48.48,14.93
			c-3.35,0.31-6.7,0.54-10.05,0.68c-4.01-5.24-7.36-11.01-9.86-17.24c4.5,0.47,9.03,0.78,13.58,0.92
			c17.05,0.52,34.43-1.65,49.97-8.73c3.21-1.46,6.32-3.11,9.36-4.91c6.32-3.66,12.38-7.88,18.49-11.91
			c9.06-5.99,18.46-11.7,28.91-14.72c6.23-1.79,12.88-2.52,19.27-1.75C146.92,61.27,146.94,61.34,146.94,61.38z"/>
	</g>
	<g>
		<path style="fill:#FFFFFF;" d="M93.75,19.73H88.9c-0.3,0-0.54-0.24-0.54-0.54c0-1.74-1.41-3.15-3.15-3.15
			c-0.26,0-0.51,0.03-0.73,0.09c-0.29,0.07-0.57-0.08-0.66-0.36c-0.38-1.21-1.63-1.94-2.83-1.77c-0.25,0.03-0.47-0.1-0.57-0.32
			c-0.59-1.36-1.93-2.24-3.42-2.24c-1.78,0-3.32,1.26-3.66,3c-0.03,0.15-0.12,0.28-0.25,0.36c-0.13,0.08-0.28,0.1-0.43,0.06
			c-2.01,0.01-3.68,1.69-3.68,3.75c0,0.3-0.24,0.54-0.54,0.54h-7.92c-0.3,0-0.54-0.24-0.54-0.54c0-0.3,0.24-0.54,0.54-0.54h7.41
			c0.26-2.3,2.13-4.11,4.46-4.27c0.6-2.02,2.47-3.44,4.61-3.44c1.78,0,3.4,0.98,4.23,2.53c1.5-0.03,2.83,0.78,3.44,2.11
			c0.17-0.02,0.35-0.03,0.53-0.03c2.15,0,3.93,1.61,4.19,3.69h4.34c0.3,0,0.54,0.24,0.54,0.54C94.29,19.49,94.05,19.73,93.75,19.73z
			"/>
	</g>
	<path d="M75.12,0.07c-41.28,0-74.86,33.59-74.86,74.87s33.58,74.87,74.86,74.87c41.29,0,74.88-33.59,74.88-74.87
		S116.41,0.07,75.12,0.07z M75.12,146.28c-11.59,0-22.53-2.8-32.21-7.72c62.68-18.75,62.62-66.41,102.56-75.42
		c0.64,3.84,1,7.79,1,11.81C146.46,114.27,114.46,146.28,75.12,146.28z M77.61,89.71c-21.36,11.99-44.57,13.88-68.76,11.53
		C5.6,93.1,3.8,84.23,3.8,74.94c0-4.16,0.38-8.24,1.07-12.21C31.87,65.91,53.28,79.33,77.61,89.71z M140.2,62.16
		c-38.59,13.21-37.75,57.14-100.27,74.79c-13.24-7.55-23.84-19.2-30.05-33.23C87.95,110.77,97.73,63.61,140.2,62.16z M144.85,59.9
		c-25.31-1.77-45,16.86-64.69,28.36c-6.61-2.76-13.11-5.85-19.4-8.84c-13.42-6.38-26.32-12.48-40.93-16.24
		c3.21-1.63,6.89-2.46,10.74-2.18c3.96,0.28,7.69,1.67,10.78,4.01c0.26,0.2,0.59,0.28,0.91,0.22c0.32-0.05,0.6-0.24,0.78-0.51
		c6.22-9.27,20.44-7.8,24.55,2.63c0.15,0.39,0.5,0.67,0.91,0.73c0.4,0.07,0.82-0.09,1.09-0.41c9.8-11.79,26.68-13.82,38.8-5.77
		c0.02,0.02,0.04,0.03,0.06,0.04c0.23,0.16,0.52,0.23,0.8,0.2c0.34-0.04,0.64-0.22,0.84-0.5c4.27-6.17,11.63-9.68,19.17-9.14
		c1.44,0.05,2.26,0.52,2.77-0.48c1.67-3.28,4.24-6.08,7.32-8.08C141.8,48.97,143.65,54.32,144.85,59.9z M69.01,64.79
		C63.42,54.37,49,53.28,41.81,62.43c-3.25-2.19-7.05-3.49-11.06-3.78c-5.22-0.38-10.16,1.06-14.23,3.74
		c-2.68-0.61-5.27-1.26-11.22-1.96c2.09-10.09,6.33-19.39,12.2-27.44c6.9-1.4,14.05-0.29,20.28,3.22
		c10.06,5.73,9.97,12.16,12.3,10.85c6.54-3.74,14.68-3.74,21.21-0.03c0.46,0.27,0.92,0.55,1.38,0.85c0.42,0.27,0.96,0.25,1.36-0.06
		c11.78-9.05,29.01-3.49,33.24,10.73C94.07,51.45,78.56,54.58,69.01,64.79z M75.12,3.61c27.41,0,51.24,15.54,63.19,38.26
		c-3.28,2.09-6.08,4.96-7.97,8.36c-0.32-0.03-0.62-0.06-0.93-0.07c-7.54-0.53-14.89,2.62-19.74,8.28
		C105.35,42.5,86.5,35.97,73.24,45.45c-0.26-0.16-0.51-0.31-0.78-0.47c-6.95-3.94-15.49-4.11-22.57-0.52
		c-6.39-9.9-18.1-15.64-30.32-14.2C32.65,14.03,52.69,3.61,75.12,3.61z"/>
</g>
</svg>
