<?xml version="1.0" encoding="utf-8"?>
<!-- Generator: Adobe Illustrator 25.2.0, SVG Export Plug-In . SVG Version: 6.00 Build 0)  -->
<svg version="1.1" id="Layer_1" xmlns="http://www.w3.org/2000/svg" xmlns:xlink="http://www.w3.org/1999/xlink" x="0px" y="0px"
	 viewBox="0 0 150 150" style="enable-background:new 0 0 150 150;" xml:space="preserve">
<g>
	<circle style="fill:#D7F7FF;" cx="75" cy="75" r="72.66"/>
	<g>
		<path style="fill:#FFFFFF;" d="M142.99,75.28c0.66,2.02,0.98,4.17,0.84,6.45c-0.56,9.7-8.91,17.09-18.56,16.52
			c-2.44-0.14-4.76-0.8-6.84-1.83c-2.25,2.41-5.18,4.08-8.48,4.73c-3.3,7.64-11.09,12.73-19.87,12.21
			c-9.19-0.54-16.62-7.05-18.66-15.59c-3.45,3.14-8.13,4.95-13.15,4.64c-9.89-0.59-17.46-9.07-16.9-18.96
			c0.09-1.45,0.35-2.84,0.77-4.17c-0.21-0.05-0.42-0.14-0.61-0.21c0.05,0.4,0.05,0.84,0.02,1.27c-0.33,5.84-5.32,10.29-11.16,9.96
			c-2.77-0.16-5.18-1.36-6.94-3.21c-2.41,1.1-5.13,1.62-7.95,1.45c-5.34-0.3-10.01-3.05-12.89-7.08c-0.19-2.13-0.28-4.29-0.28-6.47
			c0-5.27,0.56-10.43,1.64-15.4c1.78-8.25,4.97-15.98,9.28-22.95c1.15-0.28,2.37-0.37,3.63-0.3c5.81,0.33,10.5,4.52,11.67,9.89
			c0.19-0.02,0.35,0,0.52,0c4.85,0.28,9.02,2.74,11.67,6.4c1.85-0.73,3.91-1.08,6.05-0.96c3.7,0.21,6.91,1.8,9.28,4.22
			c2.58-2.13,5.93-3.33,9.49-3.12c7.36,0.42,13.05,6.73,12.75,14.06c2.18-1.01,4.57-1.48,7.1-1.34c0.54,0.05,1.03,0.09,1.57,0.16
			c2.58-4.31,7.41-7.05,12.77-6.73c0.42,0.02,0.87,0.07,1.31,0.14c1.73-6.63,8.02-11.34,15.14-10.92c2.67,0.14,5.11,1.01,7.22,2.39
			c2.46-6.12,8.16-10.52,14.84-11.25c5.55,9.8,8.88,20.98,9.33,32.91c0.02,0.59,0.02,1.15,0.02,1.71
			C146.18,74.57,144.61,75.04,142.99,75.28z"/>
	</g>
	<g>
		<path style="fill:#80C46E;" d="M85.45,115.49c-4.41,14.81-26.34,21.94-52.66,18.63c-2.88-2.06-5.65-4.34-8.2-6.82
			C10.87,114.11,2.34,95.55,2.34,74.99c0-5.27,0.56-10.43,1.64-15.4c8.74,0.09,18.28,1.43,28.03,4.17c0.63,0.14,1.24,0.33,1.88,0.52
			c3.02,0.89,5.98,1.9,8.81,3c10.01,3.84,18.8,8.79,25.8,14.34C81.77,92.1,88.69,104.62,85.45,115.49z"/>
	</g>
	<g>
		<path style="fill:#94D182;" d="M85.45,115.49c-1.38,4.64-4.5,8.53-8.93,11.58c0.09-0.14,0.16-0.28,0.23-0.45
			c4.73-10.31-0.35-23.67-12-35.91c-6.16-6.49-14.18-12.63-23.53-17.84c-2.65-1.5-5.44-2.91-8.32-4.22
			c-0.59-0.26-1.17-0.54-1.78-0.77c-9.26-4.08-18.52-6.75-27.16-8.06c-0.02,0.05-0.05,0.12-0.05,0.16c0.02-0.14,0.05-0.26,0.07-0.4
			c8.74,0.09,18.28,1.43,28.03,4.17c0.63,0.14,1.24,0.33,1.88,0.52c3.02,0.89,5.98,1.9,8.81,3c10.01,3.84,18.8,8.79,25.8,14.34
			C81.77,92.1,88.69,104.62,85.45,115.49z"/>
	</g>
	<g>
		<path style="fill:#FFECCD;" d="M70.94,121.71h-40.9c-0.19-1.12-0.42-2.25-0.59-3.4c-1.36-8.32-1.71-16.69-1.57-24.87
			c0.16-8.16,1.2-16.2,2.79-23.95c0.4-1.92,0.84-3.82,1.34-5.72c0.63,0.14,1.24,0.33,1.88,0.52c3.02,0.89,5.98,1.9,8.81,3
			c0.16,0.75,0.33,1.48,0.49,2.2c1.66,7.01,3.82,13.76,6.68,20.11c2.81,6.35,5.98,12.4,9.8,17.91
			C63,112.66,66.96,117.32,70.94,121.71z"/>
	</g>
	<g>
		<path style="fill:#80C46E;" d="M147.66,74.99c0,17.48-6.16,33.49-16.43,46.01c-8.23,10.05-19.1,17.86-31.57,22.36
			c-7.69,2.77-16.01,4.29-24.66,4.29c-0.73,0-1.45,0-2.18-0.02c-0.45-0.02-0.89-0.05-1.34-0.07c-0.77-0.02-1.55-0.07-2.32-0.14
			c-0.82-0.07-1.62-0.14-2.44-0.23c-1.22-0.14-2.41-0.3-3.61-0.49c-0.61-0.09-1.22-0.21-1.83-0.33c-0.3-0.07-0.61-0.12-0.94-0.19
			c-0.63-0.12-1.24-0.26-1.88-0.4c-0.54-0.14-1.1-0.28-1.64-0.42c-0.75-0.19-1.52-0.4-2.27-0.63c-0.63-0.16-1.22-0.35-1.83-0.54
			c-1.15-0.38-2.3-0.77-3.42-1.22c-0.7-0.26-1.41-0.52-2.09-0.82c-1.85-0.75-3.66-1.59-5.41-2.48c-0.7-0.38-1.38-0.75-2.06-1.13
			c-0.82-0.45-1.62-0.91-2.41-1.41c-1.57-0.94-3.07-1.95-4.55-3c-0.73-0.52-1.43-1.05-2.13-1.59c-0.63-0.47-1.27-0.98-1.87-1.48
			c-1.45-1.2-2.84-2.44-4.2-3.75c2.55-14.51,15.7-29.72,35.23-41.09c2.44-1.41,4.97-2.77,7.59-4.05c0.35-0.19,0.73-0.35,1.1-0.54
			c5.25-2.53,10.87-4.78,16.8-6.68c23.16-7.43,45.77-7.97,62.3-2.74C147.63,73.12,147.66,74.06,147.66,74.99z"/>
	</g>
	<g>
		<path style="fill:#71B25F;" d="M147.61,72.21v0.02c-16.99-3.4-39.4-0.42-61.62,9.47c-5.7,2.53-11.04,5.39-15.98,8.46
			c-0.35,0.23-0.7,0.45-1.03,0.66c-2.46,1.57-4.85,3.21-7.1,4.85c-15.54,11.48-26.13,25.22-29.48,38.16
			c-0.59-0.42-1.17-0.84-1.73-1.29c-0.63-0.47-1.27-0.98-1.87-1.48c-1.45-1.2-2.84-2.44-4.2-3.75c2.55-14.51,15.7-29.72,35.23-41.09
			c2.44-1.41,4.97-2.77,7.59-4.05c0.35-0.19,0.73-0.35,1.1-0.54c5.25-2.53,10.87-4.78,16.8-6.68
			C108.47,67.52,131.09,66.98,147.61,72.21z"/>
	</g>
	<g>
		<path style="fill:#FFFFFF;" d="M87.07,24.11h-5.01c-0.65,0-1.17-0.52-1.17-1.17c0-1.46-1.19-2.65-2.64-2.65
			c-0.22,0-0.42,0.03-0.6,0.07c-0.62,0.17-1.23-0.19-1.42-0.79c-0.3-0.97-1.29-1.52-2.28-1.41c-0.51,0.07-1.02-0.22-1.22-0.7
			c-0.51-1.18-1.68-1.95-2.97-1.95c-1.55,0-2.88,1.1-3.18,2.61c-0.06,0.31-0.25,0.59-0.52,0.76c-0.27,0.18-0.6,0.22-0.91,0.15
			c-1.6,0.03-3.06,1.49-3.06,3.28c0,0.65-0.52,1.17-1.17,1.17h-8.2c-0.65,0-1.17-0.52-1.17-1.17c0-0.65,0.52-1.17,1.17-1.17h7.15
			c0.49-2.27,2.35-4.04,4.67-4.37c0.81-2.13,2.88-3.6,5.23-3.6c1.95,0,3.72,1.01,4.73,2.62c1.5,0.07,2.82,0.88,3.56,2.15
			c2.43-0.04,4.5,1.57,5.04,3.82h3.98c0.65,0,1.17,0.52,1.17,1.17S87.72,24.11,87.07,24.11z"/>
	</g>
	<g>
		<path style="fill:#FFFFFF;" d="M105.31,47.25h-3.96c-0.65,0-1.17-0.52-1.17-1.17c0-1.02-0.83-1.85-1.84-1.85
			c-0.16,0-0.29,0.02-0.41,0.05c-0.61,0.17-1.24-0.18-1.43-0.79c-0.2-0.65-0.89-1.02-1.53-0.94c-0.53,0.07-1.01-0.22-1.22-0.7
			c-0.37-0.84-1.2-1.39-2.12-1.39c-1.1,0-2.06,0.78-2.27,1.86c-0.06,0.3-0.24,0.57-0.5,0.75c-0.26,0.17-0.58,0.23-0.88,0.17
			c-1.13,0.02-2.17,1.06-2.17,2.34c0,0.65-0.52,1.17-1.17,1.17h-6.47c-0.65,0-1.17-0.52-1.17-1.17s0.52-1.17,1.17-1.17h5.45
			c0.46-1.75,1.91-3.11,3.71-3.43c0.71-1.71,2.4-2.87,4.31-2.87c1.58,0,3.02,0.79,3.87,2.08c1.17,0.09,2.19,0.72,2.81,1.68
			c0.01,0,0.01,0,0.02,0c1.9,0,3.51,1.28,4.02,3.02h2.95c0.65,0,1.17,0.52,1.17,1.17S105.95,47.25,105.31,47.25z"/>
	</g>
	<g>
		
			<ellipse transform="matrix(0.9239 -0.3827 0.3827 0.9239 -2.6135 42.7473)" style="fill:#FFD37E;" cx="106.15" cy="27.94" rx="7.44" ry="7.44"/>
	</g>
	<g>
		<path style="fill:#FFECCD;" d="M131.23,121c-2.72,3.3-5.7,6.38-8.95,9.16c-0.75,0.63-1.52,1.29-2.32,1.9
			c-4.66,3.68-9.77,6.8-15.28,9.28c-0.45,0.19-0.87,0.38-1.29,0.54c-0.47,0.21-0.94,0.4-1.41,0.59c-0.77,0.3-1.55,0.61-2.32,0.89
			c-1.36-4.45-2.95-8.95-4.99-13.27c-2.67-6.16-6.14-12.02-10.05-17.77c-3.89-5.77-8.51-11.18-13.57-16.29
			c-3.47-3.47-7.22-6.82-11.23-9.82c2.44-1.41,4.97-2.77,7.59-4.05c3.42,0.91,6.84,2.02,10.24,3.23
			c7.41,2.74,14.79,6.09,21.82,10.29c7.01,4.15,13.95,8.88,20.3,14.44C123.8,113.48,127.59,117.13,131.23,121z"/>
	</g>
	<g>
		<path d="M75,0C33.65,0,0,33.65,0,75s33.65,75,75,75s75-33.65,75-75S116.35,0,75,0z M16.83,37.52c5.15,0.29,9.5,3.98,10.59,8.97
			c0.13,0.59,1.01,1,1.59,0.92c8.91,0.52,10.14,7.13,12.17,6.32c4.69-1.84,10.28-0.88,14.06,2.99c1.66,1.68,3.01-3.15,10.26-2.77
			c6.7,0.38,11.92,6.15,11.65,12.84c-0.02,0.41,0.18,0.79,0.52,1.02c1.33,0.88,2.68-1.84,9.17-0.98c0.46,0.06,0.92-0.16,1.16-0.56
			c2.45-4.09,6.98-6.43,11.71-6.16c0.96,0.05,2.19,0.5,2.51-0.73c2.32-8.86,12.79-12.95,20.58-7.85c0.62,0.41,1.46,0.14,1.73-0.54
			c2.08-5.18,6.54-8.91,11.89-10.15c4.93,8.82,8,18.81,8.71,29.44c-23.91-6.41-53.7-0.83-76.48,9.99
			c-15.84-12.32-39.3-20.87-62-21.72c1.82-7.56,4.86-14.64,8.91-21.03C15.97,37.5,16.39,37.49,16.83,37.52z M75,145.31
			c-18.95,0-36.16-7.55-48.82-19.78c3.24-13.28,15.58-27.26,33.55-37.89c16.07,12.26,30.88,31.55,38.1,53.85
			C90.66,143.95,82.99,145.31,75,145.31z M32.86,65.21c3.12,0.91,5.46,1.66,8.84,2.95c0.37,1.27,1.71,10.14,7.8,23.42
			c-8.39,6.16-15.1,13.07-19.67,20.16C28.13,95.84,29.12,80.25,32.86,65.21z M145.31,75c0,16.35-5.62,31.4-15.02,43.35
			C113.45,101,92.58,88.4,70.7,81.91c22.36-10.36,51.44-15.65,74.56-9.16C145.28,73.5,145.31,74.24,145.31,75z M51.44,90.19
			c-5.01-10.95-6.7-19.6-7.1-20.99c8.21,3.34,15.72,7.52,21.95,12.22C61.12,84,56.54,86.62,51.44,90.19z M61.95,86.38
			c1.73-0.97,3.84-2.09,5.59-2.96c21.46,5.82,43.55,18.44,61.28,36.77c-7.63,9.08-17.52,16.2-28.78,20.5
			C92.84,118.5,78.22,99.1,61.95,86.38z M6.12,60.85c7.97,0.26,16.18,1.53,24.49,3.77c-4.14,16.62-4.96,33.84-2.76,50.43
			c-1.56,2.85-2.76,5.71-3.58,8.55C7.66,106.28,1.64,82.69,6.12,60.85z M75,4.69c25.5,0,47.88,13.65,60.2,34.03
			c-5.35,1.45-9.84,5.11-12.29,10.15c-8.64-4.7-19.59-0.33-22.67,8.93c-5.3-0.45-10.7,1.92-13.84,6.62
			c-2.35-0.24-4.53-0.09-6.94,0.71c-0.91-11.4-13.99-17.44-23.3-10.77c-4.16-3.71-9.86-4.77-15-3.11c-2.85-3.54-7-5.74-11.68-6.15
			c-1.6-5.52-6.57-9.52-12.41-9.9C29.78,16.78,51,4.69,75,4.69z"/>
		<path d="M106.15,36.56c4.75,0,8.62-3.87,8.62-8.62c0-4.75-3.87-8.62-8.62-8.62c-4.75,0-8.62,3.87-8.62,8.62
			C97.53,32.69,101.39,36.56,106.15,36.56z M106.15,21.67c3.46,0,6.27,2.82,6.27,6.27s-2.81,6.27-6.27,6.27s-6.27-2.81-6.27-6.27
			S102.69,21.67,106.15,21.67z"/>
	</g>
</g>
</svg>
