<?xml version="1.0" encoding="utf-8"?>
<!-- Generator: Adobe Illustrator 25.2.0, SVG Export Plug-In . SVG Version: 6.00 Build 0)  -->
<svg version="1.1" id="Layer_1" xmlns="http://www.w3.org/2000/svg" xmlns:xlink="http://www.w3.org/1999/xlink" x="0px" y="0px"
	 viewBox="0 0 150 150" style="enable-background:new 0 0 150 150;" xml:space="preserve">
<g>
	<g>
		<circle style="fill:#D7F7FF;" cx="75.01" cy="75" r="73.23"/>
	</g>
	<g>
		<path style="fill:#EFC16F;" d="M148.25,75.01c0,10.58-2.24,20.6-6.26,29.67H8.04c-4.02-9.07-6.26-19.09-6.26-29.67
			c0-2.29,0.09-4.56,0.31-6.8c7.23-1.37,17.79-4.63,28.61-10.58c3.05-1.68,6.28-3.54,9.66-5.46c1.46-0.8,2.95-1.63,4.46-2.46
			c0.24-0.12,0.47-0.26,0.71-0.38c0.71-0.4,1.44-0.78,2.17-1.18c3-1.58,6.09-3.14,9.26-4.58c0.99-0.45,2.03-0.9,3.05-1.35
			c0.66-0.28,1.32-0.57,2.01-0.83c0.57-0.21,1.13-0.45,1.7-0.66c1.7-0.64,3.43-1.23,5.15-1.77c0.02-0.02,0.05-0.02,0.07-0.02
			c1.11-0.33,2.24-0.66,3.38-0.94c1.44-0.38,2.88-0.71,4.32-0.94c1.44-0.24,2.86-0.45,4.3-0.59c0.57-0.05,1.16-0.09,1.72-0.12
			c0.83-0.07,1.65-0.09,2.48-0.09c14.43,0,46.92,17.15,61.92,25.51C147.85,66.05,148.25,70.5,148.25,75.01z"/>
	</g>
	<g style="opacity:0.15;">
		<path d="M148.25,75.01c0,10.58-2.24,20.6-6.26,29.67H72.87c0,0,1.98-1.02,13.65-22.56c11.65-21.57-13.21-9.26-16.06-21.36
			c-2.86-12.1,7.7-12.1,12.09-16.7c3.95-4.16,0.78-7.16,0.12-7.72c0.83-0.07,1.65-0.09,2.48-0.09c14.43,0,46.92,17.15,61.92,25.51
			C147.85,66.05,148.25,70.5,148.25,75.01z"/>
	</g>
	<g>
		<path style="fill:#FFE1B0;" d="M8.07,104.69c11.39,25.65,37.07,43.54,66.94,43.54c29.87,0,55.55-17.89,66.94-43.54H8.07z"/>
	</g>
	<g>
		<path style="fill:#FFE1B0;" d="M22.24,125.7c13.31,13.87,32.02,22.53,52.77,22.53c20.75,0,39.45-8.65,52.77-22.53H22.24z"/>
	</g>
	<path d="M75.01,0C33.65,0,0,33.64,0,75s33.65,75,75.01,75c41.35,0,74.99-33.64,74.99-75S116.36,0,75.01,0z M23.56,124.52
		c-2.59-2.69-4.98-5.59-7.13-8.66h117.15c-2.15,3.07-4.53,5.97-7.13,8.66H23.56z M14.85,113.49c-1.57-2.45-3.01-4.99-4.28-7.63
		h128.88c-1.27,2.64-2.71,5.18-4.28,7.63H14.85z M124.06,126.88c-12.81,12.12-30.07,19.58-49.05,19.58
		c-18.99,0-36.26-7.46-49.07-19.58H124.06z M146.46,75c0,10.13-2.13,19.76-5.94,28.5H75.37c2.45-3.45,6.68-10.66,12.18-20.83
		C99.71,60.18,74.05,70.86,71.6,60.5c-1.82-7.69,2.07-9.75,6.58-12.13c4.74-2.51,9.51-6.22,6.95-10.94
		c0.72,0.26,11.71-2.14,60.14,24.69C146.04,66.3,146.46,70.6,146.46,75z M82.27,37.55c1.42,1.2,1.79,3.21-0.57,5.69
		c-4.05,4.25-15.46,4.83-12.39,17.81c3.25,13.76,27.27-0.03,16.17,20.5c-9.38,17.35-12.43,21.24-13.02,21.95H9.49
		C5.67,94.76,3.54,85.13,3.54,75c0-2,0.1-3.98,0.27-5.94C35.21,62.37,54.02,39.29,82.27,37.55z M75.01,3.54
		c33.92,0,62.37,23.77,69.63,55.53c-17.59-9.67-45.97-24.01-59.49-24.01c-28.41,0-50.48,24.67-81.09,31.53
		C8.23,31.14,38.45,3.54,75.01,3.54z"/>
	<g>
		<path style="fill:#FFFFFF;" d="M93.67,18.79h-5.44c-0.3,0-0.54-0.24-0.54-0.54c0-1.99-1.61-3.61-3.6-3.61
			c-0.31,0-0.58,0.03-0.84,0.1c-0.29,0.07-0.57-0.09-0.66-0.36c-0.43-1.39-1.86-2.24-3.26-2.04c-0.25,0.02-0.47-0.1-0.57-0.32
			c-0.67-1.55-2.2-2.55-3.89-2.55c-2.03,0-3.78,1.44-4.17,3.42c-0.03,0.15-0.12,0.27-0.24,0.35c-0.13,0.08-0.27,0.1-0.42,0.07
			c-2.33,0.01-4.24,1.92-4.24,4.27c0,0.3-0.24,0.54-0.54,0.54h-8.9c-0.3,0-0.54-0.24-0.54-0.54s0.24-0.54,0.54-0.54h8.38
			c0.26-2.59,2.38-4.64,4.99-4.8c0.64-2.26,2.73-3.86,5.13-3.86c1.99,0,3.8,1.11,4.72,2.85c1.63-0.1,3.19,0.87,3.86,2.37
			c0.2-0.03,0.41-0.04,0.64-0.04c2.4,0,4.38,1.82,4.65,4.15h4.93c0.3,0,0.54,0.24,0.54,0.54C94.21,18.55,93.97,18.79,93.67,18.79z"
			/>
	</g>
	<g>
		<path style="fill:#FFFFFF;" d="M50.9,36.78h-2.64c-0.3,0-0.54-0.24-0.54-0.54c0-0.81-0.66-1.47-1.47-1.47
			c-0.12,0-0.23,0.01-0.33,0.04c-0.29,0.08-0.58-0.08-0.66-0.36c-0.17-0.55-0.73-0.87-1.29-0.8c-0.23,0.02-0.46-0.11-0.55-0.32
			c-0.28-0.65-0.93-1.07-1.64-1.07c-0.85,0-1.59,0.6-1.75,1.43c-0.03,0.15-0.12,0.29-0.26,0.36c-0.13,0.08-0.3,0.09-0.44,0.05
			c-0.87,0.02-1.67,0.83-1.67,1.82c0,0.3-0.24,0.54-0.54,0.54h-4.32c-0.3,0-0.54-0.24-0.54-0.54c0-0.3,0.24-0.54,0.54-0.54h3.83
			c0.23-1.21,1.22-2.15,2.46-2.31c0.4-1.12,1.48-1.89,2.7-1.89c1.01,0,1.94,0.53,2.45,1.38c0.79,0.02,1.5,0.46,1.88,1.14
			c1.25-0.04,2.38,0.81,2.64,2.01h2.16c0.3,0,0.54,0.24,0.54,0.54C51.44,36.53,51.2,36.78,50.9,36.78z"/>
	</g>
	<g>
		<path style="fill:#FFFFFF;" d="M124.35,29.64h-2.2c-0.3,0-0.54-0.24-0.54-0.54c0-0.63-0.51-1.14-1.13-1.14
			c-0.09,0-0.18,0.01-0.25,0.03c-0.29,0.08-0.58-0.09-0.66-0.36c-0.13-0.41-0.56-0.66-0.97-0.6c-0.23,0.02-0.47-0.1-0.57-0.32
			c-0.22-0.51-0.72-0.84-1.28-0.84c-0.66,0-1.24,0.47-1.37,1.12c-0.03,0.15-0.12,0.29-0.26,0.36c-0.13,0.08-0.3,0.09-0.44,0.05
			c-0.64,0.02-1.27,0.65-1.27,1.43c0,0.3-0.24,0.54-0.54,0.54h-3.6c-0.3,0-0.54-0.24-0.54-0.54c0-0.3,0.24-0.54,0.54-0.54h3.12
			c0.22-0.99,1.04-1.77,2.06-1.92c0.36-0.94,1.28-1.58,2.31-1.58c0.86,0,1.64,0.44,2.09,1.15c0.66,0.03,1.23,0.39,1.56,0.94
			c0.03,0,0.05,0,0.07,0c1.04,0,1.91,0.72,2.15,1.68h1.73c0.3,0,0.54,0.24,0.54,0.54C124.89,29.4,124.65,29.64,124.35,29.64z"/>
	</g>
</g>
</svg>
