<?xml version="1.0" encoding="utf-8"?>
<!-- Generator: Adobe Illustrator 25.2.0, SVG Export Plug-In . SVG Version: 6.00 Build 0)  -->
<svg version="1.1" id="Layer_1" xmlns="http://www.w3.org/2000/svg" xmlns:xlink="http://www.w3.org/1999/xlink" x="0px" y="0px"
	 viewBox="0 0 150 150" style="enable-background:new 0 0 150 150;" xml:space="preserve">
<g>
	<g>
		<path style="fill:#D7F7FF;" d="M148.23,75.01c0,40.46-32.79,73.2-73.23,73.2c-40.44,0-73.23-32.74-73.23-73.2
			c0-30.9,19.13-57.33,46.2-68.08c8.36-3.33,17.48-5.15,27.02-5.15c8.36,0,16.39,1.39,23.86,3.97
			C127.59,15.64,148.23,42.93,148.23,75.01z"/>
	</g>
	<g>
		<path style="fill:#FFFFFF;" d="M107.67,17.65c0.07,1.13-0.33,2.15-1.06,2.88c-0.66,0.66-1.58,1.06-2.6,1.06H47.49
			c-1.96,0-3.71-1.46-3.83-3.4c-0.07-1.13,0.35-2.13,1.06-2.86c0.69-0.66,1.58-1.06,2.6-1.06h5.6c2.01,0,3.66-1.65,3.66-3.66
			c0-2.03-1.65-3.68-3.66-3.68h-4.94c8.36-3.33,17.48-5.15,27.02-5.15c8.36,0,16.39,1.39,23.86,3.97c-0.02,0.05-0.05,0.07-0.09,0.12
			c-0.66,0.66-1.58,1.06-2.6,1.06H84.03c-2.03,0-3.66,1.65-3.66,3.68c0,2.01,1.63,3.66,3.66,3.66h19.8
			C105.78,14.27,107.53,15.71,107.67,17.65z"/>
	</g>
	<g>
		<polygon style="fill:#ED6E64;" points="123.45,39.51 127.91,61.43 123.45,100.35 82.81,101.7 71.24,101.7 71.24,75.38 82.81,69.4 
			82.81,61.43 91.17,61.43 91.17,52.67 99.95,54.68 99.95,42.52 109.92,47.48 113.23,39.51 		"/>
	</g>
	<g>
		<path style="fill:#ED6E64;" d="M6.81,101.69c10.67,27.25,37.18,46.53,68.2,46.53c31.02,0,57.53-19.28,68.2-46.53H6.81z"/>
	</g>
	<g style="opacity:0.05;">
		<path d="M143.2,101.7c-10.65,27.24-37.18,46.51-68.2,46.51c-21.78,0-41.36-9.52-54.78-24.61c12.94,11.55,30,18.57,48.71,18.57
			c28.65,0,53.48-16.46,65.48-40.46H143.2z"/>
	</g>
	<g>
		<path style="fill:#FFFFFF;" d="M53.74,45.51c0.05,0.65-0.19,1.23-0.61,1.65c-0.38,0.39-0.91,0.62-1.49,0.62h-7
			c-1.17,0-2.11,0.95-2.11,2.11l0,0c0,1.17,0.95,2.11,2.11,2.11h11.42c1.13,0,2.13,0.83,2.21,1.96c0.05,0.65-0.19,1.23-0.61,1.65
			c-0.38,0.39-0.91,0.62-1.49,0.62h-32.6c-1.13,0-2.13-0.84-2.2-1.97c-0.04-0.65,0.2-1.23,0.62-1.64c0.39-0.39,0.91-0.62,1.49-0.62
			h3.22c1.17,0,2.11-0.95,2.11-2.11l0,0c0-1.17-0.95-2.11-2.11-2.11H16.61c-1.13,0-2.13-0.84-2.2-1.97
			c-0.04-0.65,0.2-1.23,0.62-1.64c0.39-0.39,0.91-0.62,1.49-0.62h35.01C52.66,43.55,53.66,44.38,53.74,45.51z"/>
	</g>
	<path style="fill:#FFFFFF;" d="M82.36,38.82c0,4.47-3.62,8.09-8.09,8.09c-4.47,0-8.09-3.62-8.09-8.09c0-4.47,3.62-8.09,8.09-8.09
		C78.74,30.73,82.36,34.35,82.36,38.82z"/>
	<g>
		<g>
			<path style="fill:#ED6E64;" d="M74.93,101.7c0.07-0.03,0.14-0.06,0.2-0.09c8.87-4.04,18.64-7.06,28.82-8.88
				c6.83-1.22,14.22-1.89,20.78-0.03c6.29,1.78,10.82,5.54,15.7,9H74.93z"/>
		</g>
		<g>
			<path d="M75,0C33.66,0,0,33.64,0,75s33.66,75,75,75c41.36,0,75-33.64,75-75S116.36,0,75,0z M84.02,15.45h19.8
				c1.42,0,2.57,1.02,2.67,2.29c0.09,1.48-1,2.67-2.48,2.67H47.48c-1.37,0-2.58-1.02-2.65-2.29c-0.08-1.47,1.05-2.67,2.48-2.67h5.6
				c2.67,0,4.84-2.17,4.84-4.84c0-1.84-1.02-3.45-2.53-4.28C61.51,4.51,68.15,3.54,75,3.54c6.07,0,11.98,0.76,17.62,2.2h-8.6
				c-2.67,0-4.84,2.2-4.84,4.87C79.18,13.28,81.35,15.45,84.02,15.45z M49.91,8.1h3c1.37,0,2.48,1.13,2.48,2.5
				c0,1.35-1.13,2.48-2.48,2.48h-5.6c-2.7,0-4.99,2.24-4.84,5.17c0.17,2.53,2.36,4.51,5.01,4.51h56.53c2.68,0,4.84-2.07,4.84-4.84
				v-0.35c-0.19-2.53-2.39-4.49-5.03-4.49h-19.8c-1.37,0-2.48-1.11-2.48-2.48s1.11-2.5,2.48-2.5h12.14c0.83,0,1.61-0.19,2.29-0.59
				c27.92,9.73,48,36.31,48,67.49c0,8.98-1.68,17.6-4.72,25.51h-0.92c-4.24-2.93-8.76-6.82-15.19-8.76l3.47-30.19
				c0-0.12,0-0.24-0.02-0.35l-4.44-21.92c-0.12-0.57-0.61-0.94-1.16-0.94h-10.25c-0.47,0-0.9,0.28-1.09,0.71l-2.83,6.8l-8.83-4.39
				c-0.35-0.17-0.8-0.17-1.13,0.07c-0.35,0.21-0.57,0.59-0.57,0.99V53.2l-7.32-1.65c-0.35-0.09-0.71,0-0.99,0.21
				C90.17,51.99,90,52.32,90,52.68v7.58h-7.2c-0.64,0-1.18,0.52-1.18,1.18v7.25L70.7,74.33c-0.39,0.2-0.64,0.61-0.64,1.05v25.13
				H8.27C5.22,92.6,3.54,83.98,3.54,75C3.54,44.43,22.84,18.28,49.91,8.1z M92.36,90.19c0-2.86,0,11.71,0.01-36.02l7.32,1.65
				c0.35,0.09,0.71,0,0.99-0.21c0.28-0.24,0.45-0.57,0.45-0.92V44.43l7.39,3.69l-3.57,13.8c-0.09,0.38,0,0.78,0.24,1.06l7.58,8.93
				l-6.76,11.53c-0.09,0.19-0.14,0.4-0.14,0.61v7.16c-7.56,1.22-14.89,3.09-21.9,5.58c0-11.78,0-21.69,0-34.16h6.02v27.57
				C89.99,91.75,92.36,91.75,92.36,90.19z M80.72,100.51c9.42-3.62,17.8-5.76,25.16-6.9c14.47-2.72,21.55,0.15,30.9,6.9
				C118.11,100.51,91.45,100.51,80.72,100.51z M123.33,91.13c-5.13-1.09-10.54-0.85-15.09-0.26v-6.52l6.99-11.98
				c0.26-0.45,0.21-0.99-0.12-1.37l-7.72-9.09c0.06-0.24,3.9-15.03,3.66-14.13l2.98-7.09h8.48l4.2,20.79L123.33,91.13z M81.61,97.63
				c-2.36,0.9-4.65,1.87-6.92,2.88c-0.24,0-2.51,0-2.27,0V76.1l9.19-4.75V97.63z M140.79,102.87c-1.42,3.33-3.07,6.54-4.96,9.59
				H14.17c-1.89-3.05-3.54-6.26-4.96-9.59C29.79,102.87,127.98,102.87,140.79,102.87z M120.05,130.42H29.95
				c-5.48-4.46-10.3-9.71-14.27-15.59h118.63C130.35,120.71,125.53,125.95,120.05,130.42z M33.02,132.78h83.95
				c-11.79,8.6-26.29,13.68-41.98,13.68C59.32,146.46,44.81,141.38,33.02,132.78z"/>
			<path d="M16.61,48.97h10.09c0.52,0,0.94,0.4,0.94,0.92c0,0.52-0.43,0.94-0.94,0.94h-3.21c-1.97,0-3.4,1.59-3.31,3.52
				c0.12,1.72,1.61,3.07,3.38,3.07h32.6c1.91,0,3.43-1.61,3.28-3.54c-0.12-1.72-1.61-3.05-3.38-3.05H44.65
				c-0.52,0-0.94-0.43-0.94-0.94c0-0.52,0.43-0.92,0.94-0.92h6.99c0.87,0,1.72-0.35,2.34-0.97c1.1-1.14,0.9-2.34,0.94-2.57
				c-0.12-1.72-1.61-3.05-3.38-3.05H16.51c-1.94,0-3.42,1.62-3.28,3.52C13.35,47.62,14.83,48.97,16.61,48.97z M16.51,44.74h35.03
				c0.52,0,0.99,0.38,1.02,0.85c0.05,0.6-0.44,1.02-0.92,1.02h-6.99c-1.82,0-3.31,1.46-3.31,3.28s1.49,3.31,3.31,3.31h11.41
				c0.52,0,0.99,0.38,1.04,0.85c0.04,0.55-0.43,1.02-0.94,1.02h-32.6c-0.52,0-0.99-0.4-1.02-0.87c-0.04-0.5,0.35-0.99,0.94-0.99
				h3.21c1.82,0,3.31-1.49,3.31-3.31s-1.49-3.28-3.31-3.28H16.61c-0.52,0-0.99-0.4-1.02-0.87C15.54,45.17,15.96,44.74,16.51,44.74z"
				/>
			<path d="M74.27,48.09c5.13,0,9.28-4.16,9.28-9.28c0-5.1-4.16-9.26-9.28-9.26c-5.1,0-9.26,4.16-9.26,9.26
				C65.01,43.94,69.17,48.09,74.27,48.09z M74.27,31.91c3.8,0,6.92,3.09,6.92,6.9c0,3.8-3.12,6.92-6.92,6.92
				c-3.8,0-6.9-3.12-6.9-6.92C67.37,35.01,70.46,31.91,74.27,31.91z"/>
		</g>
	</g>
</g>
</svg>
