<?xml version="1.0" encoding="utf-8"?>
<!-- Generator: Adobe Illustrator 23.0.1, SVG Export Plug-In . SVG Version: 6.00 Build 0)  -->
<svg version="1.1" xmlns="http://www.w3.org/2000/svg" xmlns:xlink="http://www.w3.org/1999/xlink" x="0px" y="0px"
	 viewBox="0 0 500 500" style="enable-background:new 0 0 500 500;" xml:space="preserve">
<style type="text/css">
	.st0{fill:none;stroke:#263238;stroke-linecap:round;stroke-linejoin:round;stroke-miterlimit:10;}
	.st1{opacity:0.5;clip-path:url(#XMLID_6_);fill-opacity:0.7;}
	.st2{fill:#757575;stroke:#263238;stroke-linecap:round;stroke-linejoin:round;stroke-miterlimit:10;}
	.st3{opacity:0.3;clip-path:url(#XMLID_7_);fill-opacity:0.7;}
	.st4{fill:#FFFFFF;stroke:#263238;stroke-linecap:round;stroke-linejoin:round;stroke-miterlimit:10;}
	.st5{fill:#263238;}
	.st6{opacity:0.2;}
	.st7{fill:none;stroke:#FFFFFF;stroke-linecap:round;stroke-linejoin:round;stroke-miterlimit:10;}
	.st8{fill:#8342EA;stroke:#263238;stroke-linecap:round;stroke-linejoin:round;stroke-miterlimit:10;}
	.st9{opacity:0.3;clip-path:url(#XMLID_8_);fill-opacity:0.7;}
	.st10{fill:#BFBFBF;stroke:#263238;stroke-linecap:round;stroke-linejoin:round;stroke-miterlimit:10;}
	.st11{opacity:0.3;clip-path:url(#XMLID_11_);fill-opacity:0.7;}
	.st12{fill:#671CC9;stroke:#263238;stroke-linecap:round;stroke-linejoin:round;stroke-miterlimit:10;}
	.st13{opacity:0.2;fill-opacity:0.7;stroke:#263238;stroke-miterlimit:10;}
</style>
<g id="Floor">
	<g>
		<path class="st0" d="M76.7,438.7C141,439,206,439,270,439c2,0,3-2,4-3c5-8,10-15,17-21c6,0,12,0,17-2c9-4,18-5,27-9
			c6-3,14-7,14-14c1-5,6-7,9-10c1-1,1-2,2-3c2-2,4-4,6-4c7,1,14,2,21,2c3.3,1.1,9.4,4.2,12.6,2.6c1.9-0.9,7-7.9,7.3-9.6
			c0.9-4.9,5.8-7.7,10.2-9.9c1.1-0.6,2.6-1.1,3.6-0.3c0.9,0.7,0.9,2,1.5,2.9c1.1,1.5,3.4,1.4,5.2,0.9c1.8-0.5,3.9-1.2,5.5-0.2
			c1.2,0.7,1.7,2,2.5,3.1c1.1,1.5,2.8,2.6,4.6,3c0.6,0.1,1.3,0.3,1.7,0.8"/>
		<path class="st0" d="M389.3,394.3c4.3,0.3,10.5-2.5,10.5-2.3s7.5,1.2,7.5,1.2s9.9,2.8,11.5,1.1c1.6-1.7,6.7-0.5,10.7-0.9
			s8.1,2.9,8.1,2.9s7.1,6.1,8,6.3c0.9,0.3,8.1,2.4,10.8,4.3"/>
		<path class="st0" d="M270,439h17c0,0,11-5.7,16.6-5c5.6,0.6,10.5,4.7,10.5,4.7h9.7l11.9,1.5h7.9"/>
		<path class="st0" d="M383.7,414.2c-2.4-2.6-12.3-3.2-13.7-5.7c-1.4-2.5-10.1,3.2-11.3,2.3c-1.2-0.9-7.4,0.7-8.5,3.7
			c-1,3-0.5,3.5-4.5,5"/>
		<path class="st0" d="M447.2,379.1c-1.5-1.4-4-1.4-5.5-0.1c-0.2,0.2-0.5,0.4-0.7,0.6c-0.7,0.4-1.5,0.3-2.3,0.3
			c-1.8,0-3.5,0.7-4.9,1.8c-0.5,0.4-0.9,0.8-1.4,0.9c-0.3,0.1-0.6,0.1-1,0.1c-0.9,0.1-1.7,0.4-2.4,0.9"/>
		<path class="st0" d="M394.5,439.4c4.3,1.9,9.7,0.2,13-3.2c2.6-2.8,4.7-6.9,8.5-7.1c1,0,2,0.2,3,0.2c2.2,0,4.3-1.2,6.4-2
			c2.1-0.8,4.7-1.2,6.4,0.3c1.1,1,1.6,2.6,2.8,3.4c1.2,0.8,2.8,0.7,4.2,1c1.4,0.3,3,1.4,2.7,2.9"/>
	</g>
</g>
<g id="Background_Simple">
</g>
<g id="Clouds">
	<g>
		<g>
			<path id="XMLID_14_" class="st0" d="M72.3,151.3H54.7c0,0,1.8-4.4,15.5-2.9c0,0,6.8-7.8,16.8-7.8c0,0,0.3-6.1,7.1-7.4
				c6.8-1.3,8.1,4.8,8.1,4.8s5-2.7,11.8,0c6.8,2.7,5.4,10.5,5.4,10.5s19.5-0.6,22.8,2.9h-10"/>
			<line class="st0" x1="75.4" y1="151.3" x2="78.3" y2="151.3"/>
			<line class="st0" x1="94.6" y1="151.3" x2="121.6" y2="151.3"/>
		</g>
		<g>
			<path id="XMLID_13_" class="st0" d="M222.8,249.7H197c0,0,1.5-3.7,13.2-2.5c0,0,5.8-6.7,14.3-6.7c0,0,0.3-5.2,6.1-6.3
				c5.8-1.1,6.9,4.1,6.9,4.1s4.3-2.3,10.1,0c5.8,2.3,4.6,8.9,4.6,8.9s16.6-0.5,19.5,2.5h-6.2"/>
			<line class="st0" x1="228.9" y1="249.5" x2="232.5" y2="249.5"/>
		</g>
		<g>
			<path id="XMLID_12_" class="st0" d="M220.9,75.8h-25.8c0,0,1.5-3.7,13.2-2.5c0,0,5.8-6.7,14.3-6.7c0,0,0.3-5.2,6.1-6.3
				c5.8-1.1,6.9,4.1,6.9,4.1s4.3-2.3,10.1,0c5.8,2.3,4.6,8.9,4.6,8.9s16.6-0.5,19.5,2.5h-6.2"/>
			<line class="st0" x1="227" y1="75.6" x2="230.7" y2="75.6"/>
		</g>
		<g>
			<path id="XMLID_10_" class="st0" d="M139.9,296.8H75.6c4.8-5.1,32.8-4.2,32.8-4.2s-2-11.2,7.7-15c9.7-3.8,16.9,0,16.9,0
				s1.9-8.7,11.7-6.8c9.8,1.9,10.3,10.6,10.3,10.6c14.3,0,24.1,11.3,24.1,11.3c19.7-2.1,22.3,4.2,22.3,4.2h-7.2"/>
			<line class="st0" x1="188.8" y1="296.8" x2="186" y2="296.8"/>
			<line class="st0" x1="151.1" y1="296.8" x2="160.5" y2="296.8"/>
		</g>
		<g>
			<path id="XMLID_9_" class="st0" d="M360.5,142.3h-77c0,0,3.2-7.9,27.9-5.2c0,0,12.3-14.1,30.3-14.1c0,0,0.6-11,12.9-13.3
				c12.3-2.4,14.6,8.6,14.6,8.6s9.1-4.8,21.2,0c12.2,4.8,9.7,18.8,9.7,18.8s35.1-1.1,41.1,5.3h-17.8"/>
			<line class="st0" x1="367.8" y1="142.3" x2="375" y2="142.3"/>
		</g>
	</g>
</g>
<g id="Buildings">
	<g>
		<g>
			<path id="XMLID_560_" class="st0" d="M382,316.4h61.4c0,0-2.5-6.3-22.3-4.2c0,0-9.8-11.3-24.1-11.3c0,0-0.5-8.7-10.3-10.6
				c-9.8-1.9-11.7,6.8-11.7,6.8s-7.2-3.8-16.9,0c-9.7,3.8-7.7,15-7.7,15s-28-0.9-32.8,4.2h18.6"/>
			<line class="st0" x1="341.2" y1="316.4" x2="350.3" y2="316.4"/>
		</g>
		<polyline class="st0" points="255.9,340.3 255.9,291.9 263.8,291.9 263.8,311.4 271.7,311.4 271.7,340.6 		"/>
		<polyline class="st0" points="287,311 287,265.7 303,265.7 303,246 333.6,246 333.6,253 341.2,253 341.2,299.1 		"/>
		<polyline class="st0" points="375,281.6 375,236.3 385.3,236.3 385.3,215.8 389.3,215.8 389.3,180.5 392.6,180.5 392.6,197.5 
			400.9,205.7 400.9,226.2 410.3,226.2 410.3,271.2 418.8,271.2 418.8,283.6 		"/>
		<polyline class="st0" points="345.8,275 353.6,275 353.6,225.7 359.9,225.7 359.9,155 362.3,155 362.3,202.5 367.8,202.5 
			367.8,252 371.8,252 		"/>
		<polyline class="st0" points="283.5,283.6 276.8,283.6 276.8,269 273.3,269 273.3,283.6 268.4,283.6 268.4,305.6 		"/>
		<polyline class="st0" points="295.8,260.7 295.8,226.2 306.6,226.2 306.6,197.5 310.3,197.5 310.3,226.2 317.6,226.2 317.6,241.3 
					"/>
		<polyline class="st0" points="306.7,265.7 323.9,265.7 323.9,304.2 		"/>
		<polyline class="st0" points="299.4,338.1 299.4,315.3 279.9,315.3 279.9,363.6 		"/>
		<polyline class="st0" points="263.8,350.8 263.8,344.3 243.9,344.3 243.9,396.5 238.6,396.5 		"/>
		<line class="st0" x1="389.3" y1="251.5" x2="402.8" y2="251.5"/>
		<line class="st0" x1="389.3" y1="258.6" x2="402.8" y2="258.6"/>
		<line class="st0" x1="389.3" y1="266.5" x2="401.7" y2="266.5"/>
		<line class="st0" x1="328.5" y1="249.7" x2="310.3" y2="249.7"/>
		<line class="st0" x1="293.2" y1="274" x2="314.1" y2="274"/>
		<line class="st0" x1="293.2" y1="278.5" x2="314.1" y2="278.5"/>
		<line class="st0" x1="293.2" y1="283.6" x2="314.1" y2="283.6"/>
		<line class="st0" x1="358.8" y1="235.2" x2="358.8" y2="281.6"/>
		<line class="st0" x1="362.3" y1="235.2" x2="362.3" y2="281.6"/>
	</g>
</g>
<g id="Character">
	<g>
		<g>
			<defs>
				<path id="XMLID_4_" d="M122.4,165.7c0,0,10.6-9.7,17.9-8.5c1.2,0.2-5,12.1-5,12.1L122.4,165.7z"/>
			</defs>
			<use xlink:href="#XMLID_4_"  style="overflow:visible;fill:#8342EA;"/>
			<clipPath id="XMLID_6_">
				<use xlink:href="#XMLID_4_"  style="overflow:visible;"/>
			</clipPath>
			<path class="st1" d="M122.4,165.7c0,0,10.6-9.7,17.9-8.5c1.2,0.2-5,12.1-5,12.1L122.4,165.7z"/>
			
				<use xlink:href="#XMLID_4_"  style="overflow:visible;fill:none;stroke:#263238;stroke-linecap:round;stroke-linejoin:round;stroke-miterlimit:10;"/>
		</g>
		<path class="st2" d="M219.1,207.9c0,0,0.4,31.8,1.6,37.1s4.7,11.2,4.7,11.2s-3.4,69.6-2.3,72.8c1.1,3.2,5.9,25.3,5.9,25.3
			l5.5,84.4h-2c0,0-7.5-79.6-7.5-82c0-2.4-5.9-23.1-5.9-23.1s-0.8-69.1,0-73s-4.6-14.3-4.6-14.3s0.1-31.9-1.6-35.1
			C212.9,211.1,216.3,208.2,219.1,207.9z"/>
		<g>
			<g>
				<defs>
					<path id="XMLID_3_" d="M140.2,244.9c0,0-10.7,18.1-7.3,34c0,0-4.1,54.8-5.7,58.3c-1.6,3.6-12.3,19.3-15.5,42.2
						c-3.2,22.9-9,41-9,41H117c0,0,21.3-67.5,25.7-71c4.4-3.6,12.4-27.1,18.1-48.2c0,0,7.7,37.4,10.7,44.5
						c3.1,7.1,0.5,27.7,4.9,40.9c4.3,13,4,33.9,4,33.9s14.9,3.7,14.7,0c-0.9-25.5,4.1-47.5-2.2-70.2c-3-10.6,3-72.4-7.9-105.4H140.2
						z"/>
				</defs>
				<use xlink:href="#XMLID_3_"  style="overflow:visible;fill:#BFBFBF;"/>
				<clipPath id="XMLID_7_">
					<use xlink:href="#XMLID_3_"  style="overflow:visible;"/>
				</clipPath>
				<path class="st3" d="M160.5,296.8c0,0.7,0.1,2.5,0.2,4.8c-5.7,21-13.7,44.3-18,47.8c-4.4,3.6-25.7,71-25.7,71h-14.3
					c0,0,5.7-18.1,9-41c3.3-22.9,14-38.6,15.5-42.2c1.6-3.6,5.7-58.3,5.7-58.3c-0.9-4.2-0.8-8.5-0.2-12.6c0.8,5.4,4,12.2,15,13.9
					c0,0-2.4-6.2,1.8-12.6c0,0-2.1,11.2,6.9,16.5c0.4,0.2,0.3,1.8,0.3,1.8S160.4,294.2,160.5,296.8z"/>
				<path class="st3" d="M186.3,249.5c-3.7,2.2-11.6,4.8-28.4,4.1c0,0-4.1,3.1-6.8,8.2l-1.6-1.3c0,0-7.7,4.4-16.1,2.2
					c2.2-9.9,6.9-17.8,6.9-17.8H185C185.4,246.4,185.9,247.9,186.3,249.5z"/>
				
					<use xlink:href="#XMLID_3_"  style="overflow:visible;fill:none;stroke:#263238;stroke-linecap:round;stroke-linejoin:round;stroke-miterlimit:10;"/>
			</g>
			<path class="st0" d="M152.3,259c0,0-7.4,14.1,0.6,22.5c0,0,10.2,9.5,21.1,7.3"/>
			<path class="st0" d="M160.8,301.2c0,0-1-7.7-2.9-11c-1.9-3.3-1.3-4.2-1.3-4.2s-8.7,2.7-14.3,0.6"/>
			<path class="st0" d="M132.9,279c0,0,5.8,6.1,14.8,5.2"/>
		</g>
		<path class="st4" d="M152.3,161.2c0.8-0.3,40.7-3.3,42.7-7.4c0,0-2.4-4-4.4-11.8c-3.9-15.3-11.9-26.6-11.9-26.6l10-1.8
			c6,16.9,20.2,31.8,19.9,47.5c0,0-21.6,14.7-43.6,17.1C158.7,178.8,152.3,161.2,152.3,161.2z"/>
		<g>
			<path class="st4" d="M165.6,150.1c-1.7-0.2-2.9,0.1-3.9,0.8c-4.1,2.5-3.3,9.8-3.3,9.8l-18.1-3.4c3.9-5.7,2.9-18.9,2.9-18.9
				c16.9-15.9,21-1.3,22,7C165.5,147.7,165.5,149.5,165.6,150.1z"/>
			<path class="st5" d="M165.6,150.1c-1.7-0.2-2.9,0.1-3.9,0.8c-2.2-3.5-2.5-7.1-2.7-7.9l6.3,2.4
				C165.5,147.7,165.5,149.5,165.6,150.1z"/>
			<path class="st5" d="M133.8,111.2c0,0-1.5-9.1,13.6-10.4c15.1-1.3,29,2.8,29,13.8s-9.1,33.8-27.3,23.6S133.8,111.2,133.8,111.2z"
				/>
			<path class="st4" d="M142.6,139.6c-1.6-2-5.7-9.2-6.3-11.9c-4.1-16.8,5.1-18.1,12-21.5c13-6.5,24.9,6.7,23.9,18.3
				s4.5,10.3,4.2,11.9c-0.2,1.4-3.7,2.7-3.7,2.7s-0.1,1.5,0.1,3l-0.9,0.8c-0.5,2.2-1.5,7.8-2.2,8c-1.5,0.4-9.6-2.4-11-5.4"/>
			<path class="st5" d="M170.9,129.4c-0.1,0.8-0.6,1.5-1.1,1.4c-0.5-0.1-0.8-0.8-0.7-1.7c0.1-0.8,0.6-1.5,1.1-1.4
				C170.7,127.8,171,128.6,170.9,129.4z"/>
			<path class="st0" d="M171.5,122.8c0,0-2.2-0.4-4.4,1.9"/>
			<path class="st5" d="M167,106.2c-6-4.6-39.5-9.3-33.9,17.1c-0.7,3.3,1.5,8.8,9,17.8c0,0,3.6-2.8,7.5-0.4c0,0,2.4-7.3,6.4-8.9
				c0.9-0.4,1.6-1,2.3-1.7c10.7-2.7,12.1-12.8,11.9-16.4C170.9,112.7,172,110,167,106.2z"/>
			<path class="st5" d="M140.2,107c0,0-8.7-9.8-19.4-4.3c-10.7,5.5-7.8,20.7-1.9,29c5.9,8.2-1.3,14.9,1,19.4
				c2.3,4.5,7.1,2.7,7.1,2.7s-2.5-1.3-2.9-4.5c-0.4-3.2,6.1-4.8,6.1-13.9c0-9.2-2.1-17.4,5.5-13.6C143.4,125.5,140.2,107,140.2,107z
				"/>
			<path class="st0" d="M171.9,142.9c0,0-3.3,0.2-4.8-1.2"/>
			<g class="st6">
				<path class="st7" d="M140.2,107c0,0,5.2,6.6-1,12.1"/>
				<path class="st7" d="M167,106.2c0,0,8,8.7-8,18.5"/>
				<path class="st7" d="M164,104.7c0,0,3.1,3-4,8.9c-7.1,5.9-12.4,7.4-17.7,7.1"/>
				<path class="st7" d="M137.9,112.1c0,0-4.6-7.5-11.9-2.4c-7.3,5.1-5.7,12.2-1.8,20.4c4,8.1,1.3,13.5,1.3,13.5"/>
				<path class="st7" d="M124,103.5c0,0-9,0.3-8.3,12c0.7,11.8,4.9,11.7,5.8,17.3"/>
				<path class="st7" d="M148.4,130.1c0,0-9,2-12.4-5.4"/>
			</g>
			<path class="st4" d="M157.1,131.2c0,0-1.5-5.4-5.4-3.6c-3.9,1.8-0.5,7,1.5,9.5c1.9,2.5,4.1,0.4,4.4-0.7"/>
		</g>
		<path class="st5" d="M139,154.4l-0.4,3.1c-15.4,14.4-5.2,48.3,4.5,70l-6.2,19.5c0,0,26.4,8.8,50.5,1.9l-2.3-22.9l-2.6-18
			c0,0,2.2-6.1,2.6-18C185.4,178.2,163,147.7,139,154.4z"/>
		<g>
			<path class="st4" d="M183,118.5c0,0-4,2.1-5.7,1.6c0,0-8.6,0.5-8.9-3.1c0,0,4.4-0.5,7.4-4.7c1.4-2,13.9-2,13.1,2.2
				c-0.3,1.6-1.3,2.5-2.3,3.1"/>
			<path class="st4" d="M175.8,112.2c1.8-0.3,0.9,0.6,2.2,0.5c1.3-0.1,1.4-0.9,2.3,0.3c0.9,1.2,1.9,0,2.9,0.4"/>
			<path class="st4" d="M177.3,120c0.1-1,3.6-2.9,4.5-4.1"/>
			<path class="st4" d="M174.3,120c-1.1-1.3,1.4-1.9,3.8-4.3"/>
			<path class="st4" d="M171.4,119.5c-1.4-1.4-0.8-1.8,1.3-2.8c2.1-1,3-2.3,3-2.3"/>
		</g>
		<path class="st8" d="M174.9,412.3c0,0,8.9-2.9,16.1-0.3l2.2,8.5l4.8-8.2c0,0-1.6,10.3,0,13.4c1.6,3.2,11.2,4.6,12.8,6.7
			c1.6,2.1,2.1,6.2,2.1,6.2h-37.3l2.9-12.9L174.9,412.3z"/>
		<g>
			<defs>
				<path id="XMLID_2_" d="M100.6,412.3c0,0,7-2.9,14.1-0.3l-0.7,8.5l8.7-8.2c0,0-5.5,10.3-3.9,13.4c1.6,3.2,11.2,4.6,12.8,6.7
					c1.6,2.1,2.1,6.2,2.1,6.2H96.4l3.9-12.9L100.6,412.3z"/>
			</defs>
			<use xlink:href="#XMLID_2_"  style="overflow:visible;fill:#8342EA;"/>
			<clipPath id="XMLID_8_">
				<use xlink:href="#XMLID_2_"  style="overflow:visible;"/>
			</clipPath>
			<path class="st9" d="M100.6,412.3c0,0,7-2.9,14.1-0.3l-0.7,8.5l8.7-8.2c0,0-5.5,10.3-3.9,13.4c1.6,3.2,11.2,4.6,12.8,6.7
				c1.6,2.1,2.1,6.2,2.1,6.2H96.4l3.9-12.9L100.6,412.3z"/>
			
				<use xlink:href="#XMLID_2_"  style="overflow:visible;fill:none;stroke:#263238;stroke-linecap:round;stroke-linejoin:round;stroke-miterlimit:10;"/>
		</g>
		<g>
			<path class="st10" d="M175.6,220.4c0,0,5.4-7.2,6.4-11.2l1.1,3.5c0,0-2.9,8-7.5,12.2V220.4z"/>
			<path class="st8" d="M154.2,223.8c0,0,7.5,2.8,12.9,1.1c5.3-1.8,9.3-6.1,9.3-6.1l1.7,3.2c0,0-12,21-23.9,17.8"/>
			<g>
				<defs>
					<path id="XMLID_1_" d="M155,251.5c-3.9,10.3-41.9,7.9-49.3,2.1c-1.6-1.3-3.1-3.8-4.5-6.9c-2.5-5.8-4.3-14-5.2-20.8c0,0,0,0,0,0
						c-0.2-1.8-0.4-3.6-0.5-5.2c-0.2-3.5,0.1-6.2,0.8-7.1c3-3.8,6.3-7.5,6.3-7.5s-5.8-31.2,0-34.2c0,0,7.2-4.5,15.6-6s22.6-5.7,29,3
						c0.3,0.4,0.6,0.9,0.8,1.5C154.1,183.2,158.8,241.6,155,251.5z"/>
				</defs>
				<use xlink:href="#XMLID_1_"  style="overflow:visible;fill:#8342EA;"/>
				<clipPath id="XMLID_11_">
					<use xlink:href="#XMLID_1_"  style="overflow:visible;"/>
				</clipPath>
				<path class="st11" d="M155,251.5c-3.9,10.3-41.9,7.9-49.3,2.1c-1.6-1.3-3.1-3.8-4.5-6.9c-2.1-7.1-4-15.3-5.2-20.8c0,0,0,0,0,0
					c-0.8-3.4-1.2-5.8-1.3-6c0,0.1,0.2,0.4,0.8,0.8c1.8,1.3,7.4,3.7,25,4.8c0,0-12.8,3.6-22.8-0.8c0,0,3.4,20.7,7.1,24.8
					c3.7,4.1,20.4,7.5,24.4,5.3c3.9-2.3,1.3-23.3,2.1-25.4c0.8-2.2,4-3.9,4.2-4.6c0.2-0.7,0.9-10.8,0.9-10.8s-24.7-5.1-31.5-4.9
					c-6.9,0.2,2.9-4.7,9.8-3.9s20.6,3.7,20.9,3.9c0.3,0.2-2.9-30.2-6.4-34.7c-3.5-4.5,4.5-4.3,6.4,2.9c1.8,7,6.4,32.4,6.8,34.1
					c-0.1-1.4-1-16.3-1.9-21.9c-0.9-5.8-0.9-13.5,0.1-14.3c1-0.8,6.1-2.8,6.6-3.9c0.1-0.3,0.5-0.6,1-0.9
					C154.1,183.2,158.8,241.6,155,251.5z"/>
				
					<use xlink:href="#XMLID_1_"  style="overflow:visible;fill:none;stroke:#263238;stroke-linecap:round;stroke-linejoin:round;stroke-miterlimit:10;"/>
			</g>
			<path class="st8" d="M135.2,165.6c0,0-3.7-3.4-9.3-4.2c-5.5-0.8-10.3,6.7-10.3,6.7h2.6c0,0,3.6-6.9,10.7-0.8"/>
			<path class="st0" d="M108.9,170.9c0,0,14.6-1.2,19.4,2.6c4.7,3.8,7.2,34.4,7.2,34.4s-21.9-6.1-28.2-2.9"/>
			<path class="st0" d="M104.4,198c0,0-4-14-1.6-17.6c2.4-3.6,17.4-3,20.2,0c2.8,3,3,19.8,3,19.8s-12.9-2.9-18.6-2"/>
			<path class="st0" d="M97.3,221.9c0.8,1,28.6,5.9,33.4,2.8"/>
			<path class="st0" d="M98.5,216.6c2-1.6,22,2.4,26.1,2.6c4.2,0.2,11.5-4.4,11.9-5.1c0,0,5.5,29.9,3.8,35.6
				c-1.6,5.7-6.2,6.7-6.2,6.7"/>
			<path class="st0" d="M103.6,247.6c0,0,1.2,6.7,25.7,8.7"/>
			<path class="st0" d="M143.4,222.7c1-0.4,8.1-1.1,10.7-2.8c0,0,0.4,5.3,0,10.1c0,0-7.7,3-9.1,2.4s-1.9-4.9-1.9-4.9"/>
			<path class="st0" d="M152.9,230.5c0,0,0.6,12.7,0,14.5c-0.6,1.7-7.6,4.3-8.4,4.1s-2.2-12.5-2.2-12.5"/>
			<path class="st0" d="M127.3,169.3c0,0,7.2,0,9.8,4.7c2.6,4.7,5.5,32.2,6,33.8"/>
			<path class="st8" d="M140.3,166c0,0,16-8.8,24.4-6.1c8.4,2.7,11.8,11.2,11.8,11.2s-2.9-7.9-10.8-7.4c-8,0.5-19.4,8.4-19.4,8.4"/>
		</g>
		<path class="st5" d="M165.6,163.7c0,0,9-0.7,11.8,3.5c2.8,4.2,0,15.2,0,15.2s2.4,2.8-1.7,4.8c-4.1,2-15.1,3.1-17.7-0.9
			C155.3,182.3,156.7,165.3,165.6,163.7z"/>
		<path class="st4" d="M176.7,183.1c0,0-9.5,34.4-6.4,37.8c0,0,4.1,0,11.9,2c17.9,4.5,28,1.2,28,1.2l-1.9,9.9
			c-17.9-0.5-35.2,2.8-49.7-3.1c0,0-5.9-25.4-0.2-46.8c0,0,1.7-2.1,6.6-2.8C172,180.5,176.7,183.1,176.7,183.1z"/>
		<path class="st4" d="M207.4,234.1c3.4,2.2,8.3-1.3,12.9-0.8c4.6,0.4,2.4-12.6,2.4-12.6s-5.7-2.7-7.4-3.3c-1.7-0.6-4.2,3.2-9.4,8"
			/>
		<path class="st7" d="M140.9,157.3c0,0,7.2-0.8,15,1.1"/>
		<path class="st7" d="M157.6,185.7c0,0-1.5-2.3,0-3.3c0,0-4.5-3.4-3.8-7"/>
		<path class="st7" d="M178.5,177.9l-0.4,4.4c0,0,2.2,1.4-1.7,3.3"/>
		<path class="st7" d="M180.4,209.2c0,0-4.7,3.6-7.5,3"/>
		<path class="st7" d="M160.8,243.8c0,0,11.3,6.6,23.3,3.9"/>
		<path class="st0" d="M216.6,221.9c0,0,4.5,0.6,6.3,1.3"/>
		<path class="st0" d="M216.6,226.1c0,0,5.1,0,6.5,0.1"/>
		<path class="st0" d="M216.6,229.4c0,0,6.4-0.2,6.3,0.5"/>
		<path class="st0" d="M99.6,434.2c0,0,10.1-1,15.4,1.2"/>
		<path class="st0" d="M102,424.8c0,0,5.5-1.3,8.5,0"/>
		<path class="st0" d="M118.8,425.7c0,0,1.4,2.5,1,4.3"/>
		<path class="st0" d="M131.6,432.4c0,0-4.5,0.4-7.3,0"/>
		<path class="st0" d="M198,425.7c0,0,3.7,4.3,3.7,5.5"/>
		<path class="st0" d="M210.8,432.4c0,0-3.5,0.6-5.3,0.2"/>
		<path class="st0" d="M178.2,435.4c0,0,11.3-1.8,18,0"/>
		<path class="st0" d="M180.9,425.7c0,0,5.5,0.2,7.9-1.2"/>
		<path class="st0" d="M156.4,295.3c0,0-6.1,36.7-14,45.4c0,0-10.3,28.4-14.4,36c-4.1,7.5-9.1,31.8-9.1,31.8"/>
		<path class="st0" d="M127.3,337.3c0,0,3.8-5.5,8,0"/>
		<path class="st0" d="M175.2,343c0,0,1.8-9.7,9.7-1.8"/>
		<path class="st0" d="M184.9,253c0,0,4.7,20.1,3.9,31.2c0,0,2.6,41.5,1.8,53.1"/>
		<path class="st0" d="M195,153.8c0,0,4.9,2.5,7.8,0.3"/>
	</g>
</g>
<g id="Plants">
	<g>
		<path class="st8" d="M394.9,337.3c0,0,15.1,1.2,15.7,12.3C410.6,349.5,395.4,356.6,394.9,337.3z"/>
		<path class="st8" d="M424.7,340c0,0,8.4-11.4,22-5.5C446.7,334.5,438.4,348.2,424.7,340z"/>
		<path class="st8" d="M445.5,304.1c0,0,2.4,21.9-17.5,15.9C428.1,320,434.4,303.9,445.5,304.1z"/>
		<path class="st8" d="M421.1,291.9c0,0,15.7,8.5,4.2,21.4C425.3,313.3,414.2,304.1,421.1,291.9z"/>
		<path class="st8" d="M401.7,311.5c0,0,17.1-1.7,17.1,14.1C418.8,325.6,401.7,326.3,401.7,311.5z"/>
		<path class="st0" d="M417.9,372.2c0,0-7.8-16.4-0.3-33.1s10-30.7,6.1-40.6"/>
		<path class="st0" d="M407.4,315.7c0,0,10.3,4.1,13.8,14.6"/>
		<path class="st0" d="M440.1,312.9c0,0-5.9,8.1-16,7.2"/>
		<path class="st0" d="M440.1,336.8c0,0-16.4,4.7-23,3.2"/>
		<path class="st0" d="M399.8,342.3c0,0,7.3,8.1,14.7,7.9"/>
	</g>
	<g>
		<path class="st8" d="M299.2,394.3c0,0-13.1,3.2-12.1,13.1C287.1,407.4,301.5,411.4,299.2,394.3z"/>
		<path class="st8" d="M273.3,401c0,0-9-8.8-20.2-1.7C253.2,399.2,262.4,410.2,273.3,401z"/>
		<path class="st8" d="M249.8,372.3c0,0,1,19.6,17.7,11.5C267.5,383.8,259.6,370.5,249.8,372.3z"/>
		<path class="st8" d="M269.6,358.1c0,0-12.7,9.7-0.6,19.4C269,377.6,277.4,367.9,269.6,358.1z"/>
		<path class="st8" d="M289.5,372.6c0,0-15.3,0.9-13.1,14.9C276.4,387.5,291.6,385.6,289.5,372.6z"/>
		<path class="st0" d="M283.9,428.3c0,0,4.5-15.5-4.4-29.2c-9-13.6-13.2-25.6-11.2-34.9"/>
		<path class="st0" d="M285.1,377.1c0,0-8.5,5.1-10,14.9"/>
		<path class="st0" d="M255.9,379.3c0,0,6.4,6.3,15.1,4.1"/>
		<path class="st0" d="M259.3,400.4c0,0,15.1,1.8,20.7-0.5"/>
		<path class="st0" d="M295.5,399.4c0,0-5.3,8.1-11.8,9.1"/>
	</g>
	<g>
		<path class="st12" d="M365.6,409.4c0,0-2.1-22.1,2.2-42.6c4.3-20.5-4-22.9-7.4-17.3c-3.4,5.6-4.5,24.2-4.5,24.2
			s-1.7-18.8-4.7-28.4c-4.3-14.1-9-24.8-15.2-21.6c-7.2,3.7,9.5,29,12.8,58.7c0,0-13.5-13.9-19.9-26.8s-14.3-5.1-8.5,6.5
			c5.8,11.6,19.4,15.8,27,28.1c0,0-18.9-11.2-22.7-4.4c-2.1,3.8,5.5,4.6,8.9,5.5c16.6,4,24.3,21.3,24.3,21.3L365.6,409.4z"/>
		<path class="st13" d="M365.6,409.4c0,0-2.1-22.1,2.2-42.6c4.3-20.5-4-22.9-7.4-17.3c-3.4,5.6-4.5,24.2-4.5,24.2
			s-1.7-18.8-4.7-28.4c-4.3-14.1-9-24.8-15.2-21.6c-7.2,3.7,9.5,29,12.8,58.7c0,0-13.5-13.9-19.9-26.8s-14.3-5.1-8.5,6.5
			c5.8,11.6,19.4,15.8,27,28.1c0,0-18.9-11.2-22.7-4.4c-2.1,3.8,5.5,4.6,8.9,5.5c16.6,4,24.3,21.3,24.3,21.3L365.6,409.4z"/>
	</g>
	<g>
		<path class="st8" d="M371.6,413.8c0,0,1.1-20.1-6.2-36.8c-7.3-16.7-0.8-18,3.1-13.8c3.9,4.2,6.9,25.8,6.9,25.8s3.5-19.3,1.9-32.7
			c-1.6-13.4-1.5-20.9,4-20.9c7,0,5.4,32.7-0.3,52.4c0,0,9-14.3,12.1-26.4c3.2-12.2,11.3-6.9,8.4,4c-2.8,10.9-13.7,17-17.9,28.8
			c0,0,14-13,18.5-7.9c2.5,2.9-3.9,5-6.6,6.3c-13.4,6.4-16.9,22.5-16.9,22.5L371.6,413.8z"/>
		<path class="st0" d="M369.1,376.1c6.2,14.1,6.6,34.6,6.6,34.6s8.2-40.8,6.1-58"/>
		<path class="st0" d="M396,368.1c0,0-9.2,19.3-17.5,26.7"/>
		<path class="st0" d="M396,388.9c0,0-15.5,10-19.3,16.1"/>
	</g>
	<g>
		<path class="st8" d="M355.3,412.5c0,0-11.8-16.3-14.6-34.3c-2.8-18-9-15.6-10.1-9.9c-1.1,5.6,8.1,25.4,8.1,25.4
			s-13.4-14.4-19.3-26.5c-5.9-12.1-10.1-18.4-14.7-15.4c-5.9,3.8,13.2,30.5,28.5,43.9c0,0-15.3-7.2-24.5-15.7
			c-9.3-8.5-13.2,0.3-4.9,7.9c8.3,7.7,20.7,6.9,30.7,14.6c0,0-18.8-3.3-19.9,3.4c-0.6,3.8,5.9,2.1,9,1.7c14.8-1.8,26.4,9.8,26.4,9.8
			L355.3,412.5z"/>
		<path class="st0" d="M337.1,379.5c2.4,15.2,13.1,32.7,13.1,32.7s-28.9-29.9-36.5-45.5"/>
		<path class="st0" d="M310,387.2c0,0,18.1,11.3,29.2,13"/>
		<path class="st0" d="M321.3,404.8c0,0,18.4,0,24.9,3.1"/>
	</g>
</g>
</svg>
