<?xml version="1.0" encoding="utf-8"?>
<!-- Generator: Adobe Illustrator 25.2.0, SVG Export Plug-In . SVG Version: 6.00 Build 0)  -->
<svg version="1.1" xmlns="http://www.w3.org/2000/svg" xmlns:xlink="http://www.w3.org/1999/xlink" x="0px" y="0px"
	 viewBox="0 0 750 500" style="enable-background:new 0 0 750 500;" xml:space="preserve">
<g id="Background_Simple">
	<g>
		<path style="fill:#B8A9F7;" d="M661.34,427.12c33.51-52.55,42.11-118.88,32.53-179.7c-1.84-11.69-4.55-23.11-8.04-34.21
			c-23.49-74.52-83.88-134.17-155.36-165.62c-68.18-30-154.38-44.82-218.99,1.35c-42.54,30.4-66.64,79.12-105.58,113.22
			c-19.36,16.95-40.55,22.46-63.59,32.59C86.17,219.46,39.18,267.11,35.32,329.97c-2.25,36.53,6.67,69.14,23.26,97.15H661.34z"/>
		<path style="opacity:0.8;fill:#FFFFFF;" d="M661.34,427.12c33.51-52.55,42.11-118.88,32.53-179.7
			c-1.84-11.69-4.55-23.11-8.04-34.21c-23.49-74.52-83.88-134.17-155.36-165.62c-68.18-30-154.38-44.82-218.99,1.35
			c-42.54,30.4-66.64,79.12-105.58,113.22c-19.36,16.95-40.55,22.46-63.59,32.59C86.17,219.46,39.18,267.11,35.32,329.97
			c-2.25,36.53,6.67,69.14,23.26,97.15H661.34z"/>
	</g>
</g>
<g id="Clouds">
	<g>
		<path style="fill:none;stroke:#B2B2B2;stroke-linecap:round;stroke-linejoin:round;stroke-miterlimit:10;" d="M390.54,82.35
			c-0.23-0.7-0.47-1.41-0.72-2.12c-9.41-26.17-53.2-27.98-53.2,4.19c0,6.2-14.87,0-20.45,8.05c-5.58,8.05,0.62,13.01-6.82,15.49
			c-7.43,2.48-8.05-3.72-17.35-3.1c-9.29,0.62-8.05,9.29-11.15,11.77c-3.1,2.48-3.1,1.24-9.91,1.86c-6.82,0.62-8.05,5.58-8.05,5.58
			h162.94c0,0,6.2-18.59-4.96-25.4c-11.15-6.82-11.15,2.48-19.83-1.24C393.89,94.36,392.55,88.53,390.54,82.35z"/>
		<path style="fill:none;stroke:#B2B2B2;stroke-linecap:round;stroke-linejoin:round;stroke-miterlimit:10;" d="M396.18,117.29
			c0,0,3.38-10.43-4.91-18.1c-8.28-7.67-16.88-3.38-19.33,0c-2.45,3.38-2.45,9.82-6.44,10.43c-3.99,0.61-3.07-6.75-11.66-4.91
			c-8.59,1.84-5.22,10.43-9.21,12.27c-3.99,1.84-3.99-4.91-9.51-2.76c-5.52,2.15-5.22,6.14-5.22,6.14"/>
		<path style="fill:none;stroke:#B2B2B2;stroke-linecap:round;stroke-linejoin:round;stroke-miterlimit:10;" d="M352.11,96.44
			c0,0-6.83-5.47-15.72-1.37c-8.88,4.1-4.78,12.64-8.88,14.69c-4.1,2.05-6.15-0.34-11.27,2.05c-5.12,2.39-4.78,5.81-4.78,5.81"/>
	</g>
	<g>
		<path style="fill:none;stroke:#B2B2B2;stroke-linecap:round;stroke-linejoin:round;stroke-miterlimit:10;" d="M273.06,140.48
			c-0.1-0.31-0.2-0.61-0.31-0.92c-4.1-11.39-23.15-12.17-23.15,1.82c0,2.7-6.47,0-8.9,3.5c-2.43,3.5,0.27,5.66-2.96,6.74
			c-3.23,1.08-3.5-1.62-7.55-1.35c-4.04,0.27-3.5,4.04-4.85,5.12c-1.35,1.08-1.35,0.54-4.31,0.81s-3.5,2.43-3.5,2.43h70.89
			c0,0,2.7-8.09-2.16-11.05s-4.85,1.08-8.63-0.54C274.51,145.71,273.93,143.17,273.06,140.48z"/>
		<path style="fill:none;stroke:#B2B2B2;stroke-linecap:round;stroke-linejoin:round;stroke-miterlimit:10;" d="M275.51,155.68
			c0,0,1.47-4.54-2.14-7.88c-3.6-3.34-7.34-1.47-8.41,0c-1.07,1.47-1.07,4.27-2.8,4.54s-1.33-2.94-5.07-2.14
			c-3.74,0.8-2.27,4.54-4.01,5.34c-1.74,0.8-1.74-2.14-4.14-1.2c-2.4,0.93-2.27,2.67-2.27,2.67"/>
		<path style="fill:none;stroke:#B2B2B2;stroke-linecap:round;stroke-linejoin:round;stroke-miterlimit:10;" d="M256.33,146.61
			c0,0-2.97-2.38-6.84-0.59c-3.86,1.78-2.08,5.5-3.86,6.39s-2.68-0.15-4.9,0.89c-2.23,1.04-2.08,2.53-2.08,2.53"/>
	</g>
	<g>
		<path style="fill:none;stroke:#B2B2B2;stroke-linecap:round;stroke-linejoin:round;stroke-miterlimit:10;" d="M648.12,140.48
			c-0.1-0.31-0.2-0.61-0.31-0.92c-4.1-11.39-23.15-12.17-23.15,1.82c0,2.7-6.47,0-8.9,3.5c-2.43,3.5,0.27,5.66-2.96,6.74
			c-3.23,1.08-3.5-1.62-7.55-1.35c-4.04,0.27-3.5,4.04-4.85,5.12c-1.35,1.08-1.35,0.54-4.31,0.81c-2.96,0.27-3.5,2.43-3.5,2.43
			h70.89c0,0,2.7-8.09-2.16-11.05c-4.85-2.96-4.85,1.08-8.63-0.54C649.58,145.71,648.99,143.17,648.12,140.48z"/>
		<path style="fill:none;stroke:#B2B2B2;stroke-linecap:round;stroke-linejoin:round;stroke-miterlimit:10;" d="M650.57,155.68
			c0,0,1.47-4.54-2.14-7.88c-3.6-3.34-7.34-1.47-8.41,0c-1.07,1.47-1.07,4.27-2.8,4.54c-1.74,0.27-1.34-2.94-5.07-2.14
			c-3.74,0.8-2.27,4.54-4.01,5.34c-1.74,0.8-1.74-2.14-4.14-1.2c-2.4,0.93-2.27,2.67-2.27,2.67"/>
		<path style="fill:none;stroke:#B2B2B2;stroke-linecap:round;stroke-linejoin:round;stroke-miterlimit:10;" d="M631.4,146.61
			c0,0-2.97-2.38-6.84-0.59c-3.86,1.78-2.08,5.5-3.86,6.39c-1.78,0.89-2.68-0.15-4.9,0.89c-2.23,1.04-2.08,2.53-2.08,2.53"/>
	</g>
</g>
<g id="Plants">
	<g>
		<path style="fill:#263238;" d="M110.18,392.7c1.28,0.56,4.42,0.49,4.42,0.49c0.03,0-0.67-2.05-0.73-2.18
			c-0.69-1.44-2.86-3.82-4.63-3.58c-1.28,0.17-1.98,1.45-1.7,2.65C107.83,391.32,109.09,392.23,110.18,392.7z"/>
		<path style="fill:#263238;" d="M141.02,425.9c0.51-1.12,0.05-2.51-1.17-2.92c-1.69-0.57-4.28,1.35-5.22,2.64
			c-0.04,0.06-0.36,0.6-0.64,1.1h6.44C140.67,426.47,140.88,426.2,141.02,425.9z"/>
		<path style="fill:#263238;" d="M131.42,417.57c0.86,0.77,3.03,1.51,3.77,1.76c-0.13,0.62-0.26,1.23-0.41,1.82
			c-0.11,0.4-0.2,0.8-0.33,1.19c-0.13,0.4-0.25,0.79-0.38,1.17c-0.27,0.74-0.54,1.5-0.82,2.21c-0.13,0.34-0.26,0.66-0.39,0.99h1.05
			c0.08-0.22,0.16-0.43,0.24-0.65c0.27-0.74,0.52-1.48,0.79-2.28c0.12-0.39,0.23-0.78,0.35-1.18c0.13-0.39,0.21-0.82,0.32-1.24
			c0.23-0.97,0.42-1.96,0.58-2.96c0.65,0.23,2.95,1.04,4.14,0.95c1.19-0.08,2.68-0.52,3.37-1.58c0.67-1.03,0.43-2.47-0.71-3.06
			c-1.59-0.82-4.43,0.69-5.56,1.82c-0.07,0.07-0.79,0.97-1.18,1.47c0.09-0.6,0.19-1.21,0.27-1.82c0.22-1.77,0.39-3.57,0.56-5.37
			c0.05-0.55,0.11-1.1,0.17-1.64c0.23,0.09,2.95,1.1,4.28,1c1.19-0.08,2.68-0.52,3.37-1.58c0.67-1.03,0.43-2.47-0.71-3.06
			c-1.59-0.82-4.43,0.69-5.56,1.82c-0.09,0.08-1.12,1.38-1.37,1.72c0.13-1.21,0.27-2.41,0.45-3.59c0.25-1.63,0.59-3.21,1.03-4.72
			c0.11,0.04,2.94,1.11,4.31,1.01c1.19-0.08,2.68-0.52,3.37-1.58c0.67-1.03,0.43-2.47-0.71-3.06c-1.59-0.82-4.43,0.69-5.56,1.82
			c-0.09,0.09-1.2,1.48-1.39,1.75c0.03-0.09,0.04-0.19,0.07-0.27c0.49-1.6,1.17-3.1,1.87-4.46c0.41-0.8,0.84-1.53,1.28-2.24
			c0.51,0.25,2.84,1.38,4.08,1.43c1.19,0.05,2.72-0.22,3.52-1.2c0.78-0.95,0.7-2.41-0.37-3.12c-1.49-0.99-4.48,0.2-5.73,1.19
			c-0.07,0.05-0.7,0.68-1.15,1.14c0.2-0.32,0.4-0.65,0.6-0.95c0.75-1.13,1.5-2.11,2.18-2.98c0.39-0.49,0.75-0.92,1.09-1.33
			c0.63-0.01,3.15-0.09,4.26-0.61c1.08-0.51,2.31-1.45,2.57-2.68c0.26-1.21-0.49-2.46-1.77-2.6c-1.78-0.19-3.89,2.24-4.54,3.7
			c-0.06,0.13-0.71,2.2-0.67,2.2c0,0,0.03,0,0.04,0c-0.34,0.38-0.69,0.79-1.07,1.25c-0.69,0.85-1.47,1.82-2.25,2.94
			c-0.78,1.11-1.59,2.34-2.33,3.71c-0.74,1.37-1.45,2.86-1.99,4.48c-0.01,0.02-0.01,0.04-0.02,0.06c0.01-0.52-0.01-1.99-0.03-2.1
			c-0.21-1.58-1.53-4.52-3.29-4.84c-1.27-0.23-2.34,0.76-2.44,1.99c-0.1,1.26,0.81,2.51,1.7,3.31c1,0.89,3.78,1.76,4.01,1.83
			c-0.5,1.55-0.88,3.18-1.17,4.85c-0.17,0.96-0.31,1.92-0.44,2.9c-0.01-0.45-0.02-0.86-0.02-0.91c-0.21-1.58-1.53-4.52-3.29-4.84
			c-1.27-0.23-2.34,0.76-2.44,1.99c-0.1,1.26,0.81,2.51,1.7,3.31c0.9,0.81,3.26,1.59,3.88,1.79c-0.05,0.37-0.1,0.75-0.14,1.12
			c-0.21,1.79-0.42,3.58-0.68,5.33c-0.09,0.62-0.2,1.22-0.31,1.83c-0.01-0.4-0.02-0.74-0.02-0.79c-0.21-1.58-1.53-4.52-3.29-4.84
			c-1.27-0.23-2.34,0.76-2.44,1.99C129.62,415.52,130.53,416.77,131.42,417.57z"/>
		<path style="fill:#263238;" d="M111.27,401.79c1.33,0.19,4.13-0.62,4.35-0.68c0.44,1.57,1.02,3.14,1.7,4.7
			c0.38,0.89,0.8,1.78,1.23,2.66c-0.26-0.37-0.49-0.71-0.52-0.75c-1.04-1.21-3.77-2.92-5.41-2.23c-1.18,0.5-1.53,1.92-0.94,3
			c0.61,1.11,2.06,1.65,3.24,1.82c1.2,0.17,3.6-0.47,4.23-0.65c0.17,0.34,0.33,0.67,0.5,1.01c0.81,1.61,1.63,3.22,2.38,4.82
			c0.27,0.56,0.51,1.13,0.75,1.69c-0.23-0.33-0.42-0.61-0.45-0.65c-1.04-1.21-3.77-2.92-5.41-2.23c-1.18,0.5-1.53,1.92-0.94,3
			c0.61,1.1,2.06,1.65,3.24,1.82c1.14,0.17,3.36-0.41,4.11-0.62c0.23,0.59,0.46,1.17,0.66,1.75c0.13,0.4,0.27,0.77,0.38,1.18
			c0.11,0.4,0.22,0.8,0.33,1.19c0.18,0.76,0.38,1.55,0.54,2.3c0.12,0.52,0.22,1.02,0.32,1.52c-0.26-0.56-0.78-1.66-0.84-1.74
			c-0.85-1.35-3.28-3.46-5.01-3.02c-1.25,0.32-1.8,1.67-1.38,2.83c0.4,1.09,1.58,1.82,2.65,2.2h5.66c-0.03-0.12-0.05-0.24-0.08-0.37
			c0.21-0.08,1.39-0.56,2.44-1.15c0.48,0.52,1.34,1.08,2.1,1.52h1.65c0.09-0.62,0.19-1.38,0.19-1.46c0.02-1.06-0.35-2.78-1.1-3.99
			c0-0.16,0-0.31-0.03-0.47c-0.2-1.22-1.34-2.12-2.58-1.79c-1.73,0.46-2.82,3.49-2.9,5.08c0,0.09,0.06,1.12,0.11,1.77
			c-0.09-0.38-0.17-0.74-0.26-1.13c-0.18-0.76-0.38-1.52-0.6-2.33c-0.12-0.39-0.24-0.78-0.36-1.18c-0.11-0.4-0.28-0.8-0.42-1.21
			c-0.34-0.93-0.73-1.86-1.15-2.79c0.67-0.16,3.03-0.76,3.98-1.49c0.95-0.73,1.95-1.91,1.94-3.17c-0.01-1.23-1-2.3-2.28-2.16
			c-1.78,0.19-3.32,3.02-3.64,4.58c-0.02,0.1-0.13,1.24-0.17,1.88c-0.25-0.56-0.5-1.11-0.78-1.67c-0.79-1.6-1.65-3.19-2.49-4.79
			c-0.26-0.49-0.51-0.98-0.77-1.47c0.24-0.05,3.06-0.71,4.13-1.53c0.95-0.73,1.95-1.91,1.94-3.17c-0.01-1.23-1-2.3-2.28-2.16
			c-1.78,0.19-3.32,3.02-3.64,4.58c-0.02,0.12-0.17,1.77-0.19,2.19c-0.56-1.08-1.11-2.15-1.6-3.24c-0.69-1.5-1.28-3-1.74-4.5
			c0.11-0.03,3.06-0.7,4.15-1.53c0.95-0.73,1.95-1.91,1.94-3.17c-0.01-1.23-1-2.3-2.28-2.16c-1.78,0.19-3.32,3.02-3.64,4.58
			c-0.03,0.12-0.18,1.9-0.19,2.22c-0.03-0.09-0.07-0.18-0.09-0.27c-0.48-1.61-0.74-3.23-0.9-4.75c-0.1-0.89-0.15-1.74-0.17-2.57
			c0.56-0.07,3.13-0.41,4.19-1.05c1.02-0.62,2.15-1.69,2.28-2.94c0.13-1.23-0.74-2.4-2.03-2.4c-1.79,0-3.63,2.64-4.12,4.16
			c-0.03,0.08-0.21,0.95-0.33,1.59c-0.01-0.38-0.02-0.76-0.02-1.12c0-1.35,0.09-2.59,0.17-3.68c0.05-0.62,0.11-1.18,0.18-1.71
			c0.52-0.36,2.58-1.81,3.22-2.86c0.62-1.02,1.13-2.49,0.66-3.66c-0.45-1.15-1.77-1.79-2.91-1.2c-1.59,0.82-2,4.01-1.74,5.59
			c0.02,0.14,0.62,2.22,0.65,2.2c0,0,0.03-0.02,0.03-0.02c-0.07,0.5-0.14,1.04-0.2,1.64c-0.11,1.1-0.22,2.33-0.25,3.69
			c-0.04,1.35-0.04,2.83,0.1,4.38c0.14,1.56,0.36,3.18,0.81,4.83c0.01,0.02,0.01,0.04,0.02,0.06c-0.28-0.44-1.11-1.65-1.18-1.74
			c-1.04-1.21-3.77-2.92-5.41-2.23c-1.18,0.5-1.53,1.92-0.94,3C108.63,401.07,110.09,401.61,111.27,401.79z"/>
		<path style="fill:#263238;" d="M141.9,393.39c0.03,0.02,0.57-2.08,0.59-2.22c0.22-1.58-0.28-4.76-1.89-5.54
			c-1.16-0.56-2.45,0.11-2.88,1.27c-0.43,1.18,0.12,2.64,0.76,3.64C139.24,391.72,141.9,393.39,141.9,393.39z"/>
	</g>
	<g>
		<path style="fill:#263238;" d="M78.95,405.8c0.79,0.34,2.72,0.3,2.72,0.3c0.02,0-0.41-1.26-0.45-1.34
			c-0.42-0.88-1.76-2.35-2.85-2.2c-0.78,0.11-1.22,0.89-1.04,1.63C77.51,404.94,78.28,405.5,78.95,405.8z"/>
		<path style="fill:#263238;" d="M97.91,426.21c0.31-0.69,0.03-1.54-0.72-1.8c-1.04-0.35-2.63,0.83-3.21,1.62
			c-0.03,0.04-0.22,0.37-0.4,0.68h3.96C97.7,426.57,97.83,426.4,97.91,426.21z"/>
		<path style="fill:#263238;" d="M92.01,421.09c0.53,0.47,1.86,0.93,2.32,1.08c-0.08,0.38-0.16,0.76-0.25,1.12
			c-0.07,0.25-0.12,0.49-0.21,0.73c-0.08,0.24-0.16,0.48-0.23,0.72c-0.17,0.45-0.33,0.92-0.5,1.36c-0.08,0.21-0.16,0.41-0.24,0.61
			h0.65c0.05-0.13,0.1-0.26,0.15-0.4c0.17-0.45,0.32-0.91,0.48-1.4c0.07-0.24,0.14-0.48,0.22-0.73c0.08-0.24,0.13-0.51,0.2-0.76
			c0.14-0.59,0.26-1.2,0.36-1.82c0.4,0.14,1.81,0.64,2.55,0.59c0.73-0.05,1.65-0.32,2.07-0.97c0.41-0.64,0.27-1.52-0.44-1.88
			c-0.98-0.5-2.73,0.42-3.42,1.12c-0.04,0.04-0.49,0.6-0.72,0.9c0.06-0.37,0.12-0.74,0.17-1.12c0.14-1.09,0.24-2.2,0.35-3.3
			c0.03-0.34,0.07-0.67,0.11-1.01c0.14,0.05,1.81,0.68,2.63,0.62c0.73-0.05,1.65-0.32,2.07-0.97c0.41-0.64,0.27-1.52-0.44-1.88
			c-0.98-0.5-2.73,0.42-3.42,1.12c-0.05,0.05-0.69,0.85-0.84,1.06c0.08-0.74,0.16-1.48,0.28-2.21c0.15-1,0.36-1.97,0.63-2.9
			c0.07,0.02,1.81,0.68,2.65,0.62c0.73-0.05,1.65-0.32,2.07-0.97c0.41-0.64,0.27-1.52-0.44-1.88c-0.98-0.5-2.73,0.42-3.42,1.12
			c-0.05,0.05-0.74,0.91-0.85,1.08c0.02-0.06,0.03-0.11,0.04-0.17c0.3-0.99,0.72-1.9,1.15-2.74c0.25-0.49,0.52-0.94,0.78-1.38
			c0.31,0.16,1.75,0.85,2.51,0.88c0.73,0.03,1.67-0.14,2.16-0.74c0.48-0.59,0.43-1.48-0.23-1.92c-0.92-0.61-2.76,0.12-3.52,0.73
			c-0.04,0.03-0.43,0.42-0.71,0.7c0.12-0.19,0.25-0.4,0.37-0.58c0.46-0.69,0.92-1.3,1.34-1.83c0.24-0.3,0.46-0.57,0.67-0.82
			c0.39-0.01,1.94-0.05,2.62-0.37c0.66-0.31,1.42-0.89,1.58-1.65c0.16-0.74-0.3-1.52-1.09-1.6c-1.09-0.12-2.39,1.38-2.79,2.28
			c-0.03,0.08-0.43,1.35-0.41,1.35c0,0,0.02,0,0.02,0c-0.21,0.23-0.43,0.49-0.66,0.77c-0.43,0.52-0.91,1.12-1.38,1.81
			c-0.48,0.68-0.98,1.44-1.43,2.28c-0.46,0.84-0.89,1.76-1.22,2.75c0,0.01-0.01,0.02-0.01,0.03c0.01-0.32-0.01-1.22-0.02-1.29
			c-0.13-0.97-0.94-2.78-2.02-2.98c-0.78-0.14-1.44,0.47-1.5,1.22c-0.06,0.77,0.5,1.55,1.04,2.03c0.62,0.55,2.33,1.08,2.46,1.13
			c-0.3,0.95-0.54,1.96-0.72,2.98c-0.1,0.59-0.19,1.18-0.27,1.78c0-0.28-0.01-0.53-0.01-0.56c-0.13-0.97-0.94-2.78-2.02-2.98
			c-0.78-0.14-1.44,0.47-1.5,1.22c-0.06,0.77,0.5,1.55,1.04,2.03c0.55,0.5,2,0.98,2.39,1.1c-0.03,0.23-0.06,0.46-0.09,0.69
			c-0.13,1.1-0.26,2.2-0.42,3.28c-0.06,0.38-0.12,0.75-0.19,1.12c0-0.25-0.01-0.46-0.01-0.49c-0.13-0.97-0.94-2.78-2.02-2.98
			c-0.78-0.14-1.44,0.47-1.5,1.22C90.9,419.83,91.46,420.6,92.01,421.09z"/>
		<path style="fill:#263238;" d="M79.62,411.38c0.82,0.12,2.54-0.38,2.68-0.42c0.27,0.96,0.63,1.93,1.04,2.89
			c0.24,0.55,0.49,1.09,0.75,1.64c-0.16-0.23-0.3-0.43-0.32-0.46c-0.64-0.74-2.32-1.8-3.33-1.37c-0.73,0.31-0.94,1.18-0.58,1.85
			c0.37,0.68,1.27,1.02,1.99,1.12c0.74,0.11,2.21-0.29,2.6-0.4c0.1,0.21,0.2,0.42,0.31,0.62c0.5,0.99,1,1.98,1.46,2.96
			c0.16,0.35,0.31,0.69,0.46,1.04c-0.14-0.2-0.26-0.37-0.28-0.4c-0.64-0.74-2.32-1.8-3.33-1.37c-0.73,0.31-0.94,1.18-0.58,1.85
			c0.37,0.68,1.27,1.02,1.99,1.12c0.7,0.1,2.07-0.25,2.53-0.38c0.14,0.36,0.29,0.72,0.41,1.08c0.08,0.24,0.17,0.47,0.23,0.72
			c0.07,0.25,0.14,0.49,0.2,0.73c0.11,0.47,0.23,0.95,0.33,1.41c0.07,0.32,0.13,0.63,0.2,0.93c-0.16-0.35-0.48-1.02-0.52-1.07
			c-0.52-0.83-2.02-2.13-3.08-1.86c-0.77,0.2-1.11,1.02-0.85,1.74c0.25,0.67,0.97,1.12,1.63,1.35h3.48
			c-0.02-0.08-0.03-0.15-0.05-0.23c0.13-0.05,0.86-0.35,1.5-0.71c0.29,0.32,0.82,0.66,1.29,0.93h1.02c0.06-0.38,0.12-0.85,0.12-0.9
			c0.01-0.65-0.22-1.71-0.68-2.46c0-0.1,0-0.19-0.02-0.29c-0.12-0.75-0.82-1.31-1.59-1.1c-1.06,0.28-1.73,2.15-1.79,3.13
			c0,0.06,0.03,0.69,0.07,1.09c-0.05-0.23-0.1-0.46-0.16-0.69c-0.11-0.47-0.24-0.93-0.37-1.44c-0.07-0.24-0.15-0.48-0.22-0.73
			c-0.07-0.24-0.17-0.49-0.26-0.74c-0.21-0.57-0.45-1.15-0.71-1.72c0.41-0.1,1.86-0.47,2.45-0.92c0.58-0.45,1.2-1.18,1.19-1.95
			c-0.01-0.76-0.62-1.42-1.4-1.33c-1.09,0.12-2.04,1.86-2.24,2.82c-0.01,0.06-0.08,0.77-0.11,1.15c-0.16-0.34-0.31-0.68-0.48-1.02
			c-0.49-0.98-1.01-1.96-1.53-2.94c-0.16-0.3-0.31-0.6-0.47-0.9c0.15-0.03,1.88-0.44,2.54-0.94c0.58-0.45,1.2-1.18,1.19-1.95
			c-0.01-0.76-0.62-1.42-1.4-1.33c-1.09,0.12-2.04,1.86-2.24,2.82c-0.01,0.07-0.11,1.09-0.12,1.35c-0.34-0.66-0.68-1.33-0.99-1.99
			c-0.42-0.92-0.79-1.85-1.07-2.77c0.07-0.02,1.88-0.43,2.55-0.94c0.58-0.45,1.2-1.18,1.19-1.95c-0.01-0.76-0.62-1.42-1.4-1.33
			c-1.09,0.12-2.04,1.86-2.24,2.82c-0.02,0.08-0.11,1.17-0.12,1.37c-0.02-0.06-0.04-0.11-0.06-0.16c-0.29-0.99-0.45-1.98-0.56-2.92
			c-0.06-0.55-0.09-1.07-0.11-1.58c0.35-0.04,1.93-0.25,2.58-0.65c0.63-0.38,1.32-1.04,1.4-1.81c0.08-0.76-0.46-1.48-1.25-1.48
			c-1.1,0-2.23,1.62-2.53,2.56c-0.02,0.05-0.13,0.59-0.2,0.98c0-0.23-0.01-0.47-0.01-0.69c0-0.83,0.05-1.59,0.11-2.26
			c0.03-0.38,0.07-0.73,0.11-1.05c0.32-0.22,1.59-1.12,1.98-1.76c0.38-0.63,0.69-1.53,0.41-2.25c-0.28-0.71-1.09-1.1-1.79-0.74
			c-0.98,0.5-1.23,2.47-1.07,3.44c0.01,0.08,0.38,1.37,0.4,1.35c0,0,0.02-0.01,0.02-0.01c-0.04,0.31-0.09,0.64-0.12,1.01
			c-0.07,0.67-0.14,1.44-0.16,2.27c-0.02,0.83-0.02,1.74,0.06,2.69c0.08,0.96,0.22,1.96,0.5,2.97c0,0.01,0.01,0.02,0.01,0.03
			c-0.17-0.27-0.68-1.01-0.73-1.07c-0.64-0.74-2.32-1.8-3.33-1.37c-0.73,0.31-0.94,1.18-0.58,1.85
			C78,410.94,78.89,411.28,79.62,411.38z"/>
		<path style="fill:#263238;" d="M98.45,406.22c0.02,0.01,0.35-1.28,0.36-1.37c0.14-0.97-0.17-2.93-1.16-3.41
			c-0.71-0.34-1.51,0.07-1.77,0.78c-0.27,0.73,0.07,1.62,0.47,2.24C96.82,405.19,98.45,406.22,98.45,406.22z"/>
	</g>
	<g>
		<path style="fill:#263238;" d="M601.88,405.8c0.79,0.34,2.72,0.3,2.72,0.3c0.02,0-0.41-1.26-0.45-1.34
			c-0.42-0.88-1.76-2.35-2.85-2.2c-0.78,0.11-1.22,0.89-1.04,1.63C600.43,404.94,601.21,405.5,601.88,405.8z"/>
		<path style="fill:#263238;" d="M620.84,426.21c0.31-0.69,0.03-1.54-0.72-1.8c-1.04-0.35-2.63,0.83-3.21,1.62
			c-0.03,0.04-0.22,0.37-0.4,0.68h3.96C620.63,426.57,620.75,426.4,620.84,426.21z"/>
		<path style="fill:#263238;" d="M614.94,421.09c0.53,0.47,1.86,0.93,2.32,1.08c-0.08,0.38-0.16,0.76-0.25,1.12
			c-0.07,0.25-0.12,0.49-0.21,0.73c-0.08,0.24-0.16,0.48-0.23,0.72c-0.17,0.45-0.33,0.92-0.5,1.36c-0.08,0.21-0.16,0.41-0.24,0.61
			h0.65c0.05-0.13,0.1-0.26,0.15-0.4c0.17-0.45,0.32-0.91,0.48-1.4c0.07-0.24,0.14-0.48,0.22-0.73c0.08-0.24,0.13-0.51,0.2-0.76
			c0.14-0.59,0.26-1.2,0.36-1.82c0.4,0.14,1.81,0.64,2.55,0.59c0.73-0.05,1.65-0.32,2.07-0.97c0.41-0.64,0.27-1.52-0.44-1.88
			c-0.98-0.5-2.73,0.42-3.42,1.12c-0.04,0.04-0.49,0.6-0.72,0.9c0.06-0.37,0.12-0.74,0.17-1.12c0.14-1.09,0.24-2.2,0.35-3.3
			c0.03-0.34,0.07-0.67,0.1-1.01c0.14,0.05,1.81,0.68,2.64,0.62c0.73-0.05,1.65-0.32,2.07-0.97c0.41-0.64,0.27-1.52-0.44-1.88
			c-0.98-0.5-2.73,0.42-3.42,1.12c-0.05,0.05-0.69,0.85-0.84,1.06c0.08-0.74,0.16-1.48,0.28-2.21c0.15-1,0.36-1.97,0.63-2.9
			c0.07,0.02,1.81,0.68,2.65,0.62c0.73-0.05,1.65-0.32,2.07-0.97c0.41-0.64,0.27-1.52-0.44-1.88c-0.98-0.5-2.73,0.42-3.42,1.12
			c-0.05,0.05-0.74,0.91-0.85,1.08c0.02-0.06,0.03-0.11,0.04-0.17c0.3-0.99,0.72-1.9,1.15-2.74c0.25-0.49,0.52-0.94,0.78-1.38
			c0.31,0.16,1.75,0.85,2.51,0.88c0.73,0.03,1.67-0.14,2.16-0.74c0.48-0.59,0.43-1.48-0.23-1.92c-0.92-0.61-2.76,0.12-3.52,0.73
			c-0.04,0.03-0.43,0.42-0.71,0.7c0.12-0.19,0.25-0.4,0.37-0.58c0.46-0.69,0.92-1.3,1.34-1.83c0.24-0.3,0.46-0.57,0.67-0.82
			c0.39-0.01,1.94-0.05,2.62-0.37c0.66-0.31,1.42-0.89,1.58-1.65c0.16-0.74-0.3-1.52-1.09-1.6c-1.09-0.12-2.39,1.38-2.79,2.28
			c-0.03,0.08-0.43,1.35-0.41,1.35c0,0,0.02,0,0.02,0c-0.21,0.23-0.43,0.49-0.66,0.77c-0.43,0.52-0.91,1.12-1.38,1.81
			c-0.48,0.68-0.98,1.44-1.43,2.28c-0.46,0.84-0.89,1.76-1.22,2.75c0,0.01-0.01,0.02-0.01,0.03c0.01-0.32-0.01-1.22-0.02-1.29
			c-0.13-0.97-0.94-2.78-2.02-2.98c-0.78-0.14-1.44,0.47-1.5,1.22c-0.06,0.77,0.5,1.55,1.04,2.03c0.62,0.55,2.33,1.08,2.46,1.13
			c-0.3,0.95-0.54,1.96-0.72,2.98c-0.11,0.59-0.19,1.18-0.27,1.78c0-0.28-0.01-0.53-0.01-0.56c-0.13-0.97-0.94-2.78-2.02-2.98
			c-0.78-0.14-1.44,0.47-1.5,1.22c-0.06,0.77,0.5,1.55,1.04,2.03c0.55,0.5,2,0.98,2.39,1.1c-0.03,0.23-0.06,0.46-0.09,0.69
			c-0.13,1.1-0.26,2.2-0.42,3.28c-0.06,0.38-0.12,0.75-0.19,1.12c0-0.25-0.01-0.46-0.01-0.49c-0.13-0.97-0.94-2.78-2.02-2.98
			c-0.78-0.14-1.44,0.47-1.5,1.22C613.83,419.83,614.39,420.6,614.94,421.09z"/>
		<path style="fill:#263238;" d="M602.54,411.38c0.82,0.12,2.54-0.38,2.68-0.42c0.27,0.96,0.63,1.93,1.04,2.89
			c0.24,0.55,0.49,1.09,0.76,1.64c-0.16-0.23-0.3-0.43-0.32-0.46c-0.64-0.74-2.32-1.8-3.33-1.37c-0.73,0.31-0.94,1.18-0.58,1.85
			c0.37,0.68,1.27,1.02,1.99,1.12c0.74,0.11,2.21-0.29,2.6-0.4c0.1,0.21,0.2,0.42,0.31,0.62c0.5,0.99,1,1.98,1.46,2.96
			c0.16,0.35,0.31,0.69,0.46,1.04c-0.14-0.2-0.26-0.37-0.28-0.4c-0.64-0.74-2.32-1.8-3.33-1.37c-0.73,0.31-0.94,1.18-0.58,1.85
			c0.37,0.68,1.27,1.02,1.99,1.12c0.7,0.1,2.07-0.25,2.53-0.38c0.14,0.36,0.29,0.72,0.41,1.08c0.08,0.24,0.17,0.47,0.23,0.72
			c0.07,0.25,0.14,0.49,0.2,0.73c0.11,0.47,0.23,0.95,0.33,1.41c0.07,0.32,0.13,0.63,0.2,0.93c-0.16-0.35-0.48-1.02-0.52-1.07
			c-0.52-0.83-2.02-2.13-3.08-1.86c-0.77,0.2-1.11,1.02-0.85,1.74c0.25,0.67,0.97,1.12,1.63,1.35h3.48
			c-0.02-0.08-0.03-0.15-0.05-0.23c0.13-0.05,0.86-0.35,1.5-0.71c0.29,0.32,0.82,0.66,1.29,0.93h1.02c0.06-0.38,0.12-0.85,0.12-0.9
			c0.02-0.65-0.22-1.71-0.68-2.46c0-0.1,0-0.19-0.02-0.29c-0.12-0.75-0.82-1.31-1.59-1.1c-1.06,0.28-1.73,2.15-1.79,3.13
			c0,0.06,0.03,0.69,0.07,1.09c-0.05-0.23-0.1-0.46-0.16-0.69c-0.11-0.47-0.24-0.93-0.37-1.44c-0.07-0.24-0.15-0.48-0.22-0.73
			c-0.07-0.24-0.17-0.49-0.26-0.74c-0.21-0.57-0.45-1.15-0.71-1.72c0.41-0.1,1.86-0.47,2.45-0.92c0.58-0.45,1.2-1.18,1.19-1.95
			c-0.01-0.76-0.62-1.42-1.4-1.33c-1.09,0.12-2.04,1.86-2.24,2.82c-0.01,0.06-0.08,0.77-0.11,1.15c-0.16-0.34-0.31-0.68-0.48-1.02
			c-0.49-0.98-1.01-1.96-1.53-2.94c-0.16-0.3-0.31-0.6-0.47-0.9c0.15-0.03,1.88-0.44,2.54-0.94c0.58-0.45,1.2-1.18,1.19-1.95
			c-0.01-0.76-0.62-1.42-1.4-1.33c-1.09,0.12-2.04,1.86-2.24,2.82c-0.01,0.07-0.11,1.09-0.12,1.35c-0.34-0.66-0.68-1.33-0.99-1.99
			c-0.42-0.92-0.79-1.85-1.07-2.77c0.07-0.02,1.88-0.43,2.55-0.94c0.58-0.45,1.2-1.18,1.19-1.95c-0.01-0.76-0.62-1.42-1.4-1.33
			c-1.09,0.12-2.04,1.86-2.24,2.82c-0.02,0.08-0.11,1.17-0.12,1.37c-0.02-0.06-0.04-0.11-0.06-0.16c-0.29-0.99-0.45-1.98-0.56-2.92
			c-0.06-0.55-0.09-1.07-0.11-1.58c0.35-0.04,1.93-0.25,2.58-0.65c0.63-0.38,1.32-1.04,1.4-1.81c0.08-0.76-0.46-1.48-1.25-1.48
			c-1.1,0-2.23,1.62-2.53,2.56c-0.02,0.05-0.13,0.59-0.2,0.98c0-0.23-0.01-0.47-0.01-0.69c0-0.83,0.05-1.59,0.11-2.26
			c0.03-0.38,0.07-0.73,0.11-1.05c0.32-0.22,1.59-1.12,1.98-1.76c0.38-0.63,0.69-1.53,0.41-2.25c-0.28-0.71-1.09-1.1-1.79-0.74
			c-0.98,0.5-1.23,2.47-1.07,3.44c0.01,0.08,0.38,1.37,0.4,1.35c0,0,0.02-0.01,0.02-0.01c-0.04,0.31-0.09,0.64-0.12,1.01
			c-0.07,0.67-0.14,1.44-0.16,2.27c-0.02,0.83-0.02,1.74,0.06,2.69c0.09,0.96,0.22,1.96,0.5,2.97c0,0.01,0.01,0.02,0.01,0.03
			c-0.17-0.27-0.68-1.01-0.73-1.07c-0.64-0.74-2.32-1.8-3.33-1.37c-0.73,0.31-0.94,1.18-0.58,1.85
			C600.92,410.94,601.82,411.28,602.54,411.38z"/>
		<path style="fill:#263238;" d="M621.38,406.22c0.02,0.01,0.35-1.28,0.36-1.37c0.14-0.97-0.17-2.93-1.16-3.41
			c-0.71-0.34-1.51,0.07-1.77,0.78c-0.27,0.73,0.07,1.62,0.47,2.24C619.75,405.19,621.38,406.22,621.38,406.22z"/>
	</g>
</g>
<g id="Trees">
	<g>
		<path style="fill:#7444E4;" d="M69.38,161.26c0,0,44.73,4.43,67.4,32.15c0,0,23.95-32.12,66.97-31.46
			c12.48-15.05,19.99-34.37,20-55.44c0.02-48.01-38.89-86.95-86.91-86.97c-48.01-0.02-86.95,38.89-86.97,86.91
			c-0.01,20.81,7.3,39.92,19.5,54.89L69.38,161.26z"/>
		<path style="opacity:0.4;fill:#FFFFFF;" d="M69.38,161.26c0,0,44.73,4.43,67.4,32.15c0,0,23.95-32.12,66.97-31.46
			c12.48-15.05,19.99-34.37,20-55.44c0.02-48.01-38.89-86.95-86.91-86.97c-48.01-0.02-86.95,38.89-86.97,86.91
			c-0.01,20.81,7.3,39.92,19.5,54.89L69.38,161.26z"/>
		<path style="fill:#263238;" d="M179.84,110.97c0,0-26.74,6.34-41.49,27.84l-0.84-31.27l0.06,0.42c0,0,15.1-27.18,42.28-35.48
			c0,0-27.98,6.64-42.49,29.36l-2.05-42.1l-0.64,60.34C120.44,98.46,94.53,92.1,94.53,92.1c22.89,7.25,36.89,28.87,40.09,34.25
			l-0.21,31.1c-14.27-21.31-39.88-27.61-39.88-27.61c22.34,7.08,36.22,27.84,39.84,33.83l-0.58,263.54h7.55l-1.83-245.39
			c4.87-7.38,18.81-25.78,40.33-32.36c0,0-25.57,6.06-40.49,26.44l-0.84-31.03C142.18,138.98,156.58,118.08,179.84,110.97z"/>
		<path style="fill:#263238;" d="M179.84,110.97c0,0-26.74,6.34-41.49,27.84l-0.84-31.27l0.06,0.42c0,0,15.1-27.18,42.28-35.48
			c0,0-27.98,6.64-42.49,29.36l-2.05-42.1l-0.64,60.34C120.44,98.46,94.53,92.1,94.53,92.1c22.89,7.25,36.89,28.87,40.09,34.25
			l-0.21,31.1c-14.27-21.31-39.88-27.61-39.88-27.61c22.34,7.08,36.22,27.84,39.84,33.83l-0.58,263.54h7.55l-1.83-245.39
			c4.87-7.38,18.81-25.78,40.33-32.36c0,0-25.57,6.06-40.49,26.44l-0.84-31.03C142.18,138.98,156.58,118.08,179.84,110.97z"/>
	</g>
	<g>
		<path style="fill:#7444E4;" d="M35.13,304.65c0,0,36.47,3.61,54.95,26.22c0,0,19.53-26.19,54.6-25.65
			c10.18-12.27,16.3-28.02,16.31-45.21c0.01-39.15-31.71-70.9-70.86-70.91c-39.15-0.01-70.9,31.71-70.91,70.86
			c-0.01,16.97,5.96,32.55,15.9,44.75L35.13,304.65z"/>
		<path style="opacity:0.4;fill:#FFFFFF;" d="M35.13,304.65c0,0,36.47,3.61,54.95,26.22c0,0,19.53-26.19,54.6-25.65
			c10.18-12.27,16.3-28.02,16.31-45.21c0.01-39.15-31.71-70.9-70.86-70.91c-39.15-0.01-70.9,31.71-70.91,70.86
			c-0.01,16.97,5.96,32.55,15.9,44.75L35.13,304.65z"/>
		<path style="fill:#263238;" d="M55.63,279.04c18.22,5.77,29.53,22.7,32.48,27.59l-0.27,120.49h5.24L92.3,321.43
			c3.97-6.01,15.34-21.02,32.89-26.38c0,0-20.85,4.94-33.02,21.56l-0.68-25.3c3-4.81,14.74-21.85,33.7-27.65
			c0,0-21.8,5.17-33.83,22.7l-0.69-25.5l0.05,0.34c0,0,12.31-22.16,34.47-28.93c0,0-22.81,5.41-34.64,23.94l-1.67-34.32l-0.52,49.2
			c-11.59-17.62-32.72-22.81-32.72-22.81c18.66,5.91,30.08,23.54,32.69,27.93l-0.17,25.36C76.51,284.18,55.63,279.04,55.63,279.04z"
			/>
		<path style="fill:#263238;" d="M55.63,279.04c18.22,5.77,29.53,22.7,32.48,27.59l-0.27,120.49h5.24L92.3,321.43
			c3.97-6.01,15.34-21.02,32.89-26.38c0,0-20.85,4.94-33.02,21.56l-0.68-25.3c3-4.81,14.74-21.85,33.7-27.65
			c0,0-21.8,5.17-33.83,22.7l-0.69-25.5l0.05,0.34c0,0,12.31-22.16,34.47-28.93c0,0-22.81,5.41-34.64,23.94l-1.67-34.32l-0.52,49.2
			c-11.59-17.62-32.72-22.81-32.72-22.81c18.66,5.91,30.08,23.54,32.69,27.93l-0.17,25.36C76.51,284.18,55.63,279.04,55.63,279.04z"
			/>
	</g>
	<g>
		<path style="fill:#7444E4;" d="M560.36,304.65c0,0,36.47,3.61,54.95,26.22c0,0,19.53-26.19,54.6-25.65
			c10.18-12.27,16.3-28.02,16.31-45.21c0.01-39.15-31.71-70.9-70.86-70.91c-39.15-0.01-70.9,31.71-70.91,70.86
			c-0.01,16.97,5.96,32.55,15.9,44.75L560.36,304.65z"/>
		<path style="opacity:0.4;fill:#FFFFFF;" d="M560.36,304.65c0,0,36.47,3.61,54.95,26.22c0,0,19.53-26.19,54.6-25.65
			c10.18-12.27,16.3-28.02,16.31-45.21c0.01-39.15-31.71-70.9-70.86-70.91c-39.15-0.01-70.9,31.71-70.91,70.86
			c-0.01,16.97,5.96,32.55,15.9,44.75L560.36,304.65z"/>
		<path style="fill:#263238;" d="M580.87,279.04c18.22,5.77,29.53,22.7,32.48,27.59l-0.27,120.49h5.24l-0.79-105.69
			c3.97-6.01,15.34-21.02,32.89-26.38c0,0-20.85,4.94-33.02,21.56l-0.68-25.3c3-4.81,14.74-21.85,33.7-27.65
			c0,0-21.8,5.17-33.83,22.7l-0.69-25.5l0.05,0.34c0,0,12.31-22.16,34.47-28.93c0,0-22.82,5.41-34.64,23.94l-1.67-34.32l-0.52,49.2
			c-11.59-17.62-32.72-22.81-32.72-22.81c18.66,5.91,30.08,23.54,32.69,27.93l-0.17,25.36
			C601.75,284.18,580.87,279.04,580.87,279.04z"/>
		<path style="fill:#263238;" d="M580.87,279.04c18.22,5.77,29.53,22.7,32.48,27.59l-0.27,120.49h5.24l-0.79-105.69
			c3.97-6.01,15.34-21.02,32.89-26.38c0,0-20.85,4.94-33.02,21.56l-0.68-25.3c3-4.81,14.74-21.85,33.7-27.65
			c0,0-21.8,5.17-33.83,22.7l-0.69-25.5l0.05,0.34c0,0,12.31-22.16,34.47-28.93c0,0-22.82,5.41-34.64,23.94l-1.67-34.32l-0.52,49.2
			c-11.59-17.62-32.72-22.81-32.72-22.81c18.66,5.91,30.08,23.54,32.69,27.93l-0.17,25.36
			C601.75,284.18,580.87,279.04,580.87,279.04z"/>
	</g>
</g>
<g id="Arrows">
</g>
<g id="Sun">
	<g>
		
			<ellipse transform="matrix(0.9791 -0.2036 0.2036 0.9791 -7.0785 114.761)" style="fill:#7444E4;stroke:#263238;stroke-miterlimit:10;" cx="554.28" cy="91.79" rx="32.56" ry="32.56"/>
		<line style="fill:none;stroke:#263238;stroke-miterlimit:10;" x1="554.28" y1="35.13" x2="554.28" y2="50.76"/>
		<line style="fill:none;stroke:#263238;stroke-miterlimit:10;" x1="554.28" y1="132.81" x2="554.28" y2="148.44"/>
		<line style="fill:none;stroke:#263238;stroke-miterlimit:10;" x1="610.93" y1="91.79" x2="595.3" y2="91.79"/>
		<line style="fill:none;stroke:#263238;stroke-miterlimit:10;" x1="513.25" y1="91.79" x2="497.62" y2="91.79"/>
		<line style="fill:none;stroke:#263238;stroke-miterlimit:10;" x1="594.34" y1="51.72" x2="583.29" y2="62.78"/>
		<line style="fill:none;stroke:#263238;stroke-miterlimit:10;" x1="525.27" y1="120.8" x2="514.21" y2="131.85"/>
		<line style="fill:none;stroke:#263238;stroke-miterlimit:10;" x1="514.21" y1="51.72" x2="525.27" y2="62.78"/>
		<line style="fill:none;stroke:#263238;stroke-miterlimit:10;" x1="583.29" y1="120.8" x2="594.34" y2="131.85"/>
	</g>
</g>
<g id="House">
	<g>
		<rect x="160.74" y="319.61" style="fill:#FFFFFF;" width="416.16" height="107.07"/>
		<rect x="160.74" y="319.61" style="opacity:0.31;" width="416.16" height="19.06"/>
		
			<rect x="160.74" y="319.61" style="fill:none;stroke:#263238;stroke-linecap:round;stroke-linejoin:round;stroke-miterlimit:10;" width="416.16" height="107.07"/>
		
			<rect x="156.48" y="319.61" style="fill:#FFFFFF;stroke:#263238;stroke-linecap:round;stroke-linejoin:round;stroke-miterlimit:10;" width="424.69" height="4.9"/>
		<polygon style="fill:#263238;stroke:#263238;stroke-linecap:round;stroke-linejoin:round;stroke-miterlimit:10;" points="
			582.29,319.69 151.93,319.69 187.79,196.73 546.43,196.73 		"/>
		<g>
			<g>
				<polygon style="fill:#7444E4;stroke:#FFFFFF;stroke-miterlimit:10;" points="238.39,300.26 173.68,300.26 198.31,208.91 
					255.1,209.15 				"/>
				<line style="fill:#92E3A9;stroke:#FFFFFF;stroke-miterlimit:10;" x1="212.29" y1="209.09" x2="189.69" y2="300.1"/>
				<line style="fill:#92E3A9;stroke:#FFFFFF;stroke-miterlimit:10;" x1="226.97" y1="209.15" x2="206.41" y2="300.1"/>
				<line style="fill:#92E3A9;stroke:#FFFFFF;stroke-miterlimit:10;" x1="241.63" y1="209.21" x2="223.1" y2="300.1"/>
				<line style="fill:#92E3A9;stroke:#FFFFFF;stroke-miterlimit:10;" x1="194.99" y1="221.58" x2="253.21" y2="221.79"/>
				<line style="fill:#92E3A9;stroke:#FFFFFF;stroke-miterlimit:10;" x1="191.08" y1="236.09" x2="250.56" y2="236.26"/>
				<line style="fill:#92E3A9;stroke:#FFFFFF;stroke-miterlimit:10;" x1="186.99" y1="251.24" x2="247.8" y2="251.37"/>
				<line style="fill:#92E3A9;stroke:#FFFFFF;stroke-miterlimit:10;" x1="182.73" y1="267.07" x2="244.92" y2="267.17"/>
				<line style="fill:#92E3A9;stroke:#FFFFFF;stroke-miterlimit:10;" x1="178.26" y1="283.64" x2="241.9" y2="283.69"/>
			</g>
			<polygon style="fill:#7444E4;stroke:#FFFFFF;stroke-miterlimit:10;" points="313.98,300.26 249.72,300.26 265.05,209.19 
				321.49,209.42 			"/>
			<line style="fill:#92E3A9;stroke:#FFFFFF;stroke-miterlimit:10;" x1="278.96" y1="209.37" x2="265.6" y2="300.1"/>
			<line style="fill:#92E3A9;stroke:#FFFFFF;stroke-miterlimit:10;" x1="293.55" y1="209.43" x2="282.21" y2="300.1"/>
			<line style="fill:#92E3A9;stroke:#FFFFFF;stroke-miterlimit:10;" x1="308.12" y1="209.49" x2="298.79" y2="300.1"/>
			<line style="fill:#92E3A9;stroke:#FFFFFF;stroke-miterlimit:10;" x1="263.01" y1="221.82" x2="320.88" y2="222.03"/>
			<line style="fill:#92E3A9;stroke:#FFFFFF;stroke-miterlimit:10;" x1="260.58" y1="236.29" x2="319.69" y2="236.46"/>
			<line style="fill:#92E3A9;stroke:#FFFFFF;stroke-miterlimit:10;" x1="258.04" y1="251.4" x2="318.45" y2="251.53"/>
			<line style="fill:#92E3A9;stroke:#FFFFFF;stroke-miterlimit:10;" x1="255.39" y1="267.18" x2="317.16" y2="267.28"/>
			<line style="fill:#92E3A9;stroke:#FFFFFF;stroke-miterlimit:10;" x1="252.61" y1="283.7" x2="315.81" y2="283.75"/>
		</g>
		<g>
			<g>
				<polygon style="fill:#7444E4;stroke:#FFFFFF;stroke-miterlimit:10;" points="494.77,300.26 559.47,300.26 534.84,208.91 
					478.06,209.15 				"/>
				<line style="fill:#92E3A9;stroke:#FFFFFF;stroke-miterlimit:10;" x1="520.86" y1="209.09" x2="543.46" y2="300.1"/>
				<line style="fill:#92E3A9;stroke:#FFFFFF;stroke-miterlimit:10;" x1="506.18" y1="209.15" x2="526.74" y2="300.1"/>
				<line style="fill:#92E3A9;stroke:#FFFFFF;stroke-miterlimit:10;" x1="491.53" y1="209.21" x2="510.05" y2="300.1"/>
				<line style="fill:#92E3A9;stroke:#FFFFFF;stroke-miterlimit:10;" x1="538.17" y1="221.58" x2="479.94" y2="221.79"/>
				<line style="fill:#92E3A9;stroke:#FFFFFF;stroke-miterlimit:10;" x1="542.08" y1="236.09" x2="482.59" y2="236.26"/>
				<line style="fill:#92E3A9;stroke:#FFFFFF;stroke-miterlimit:10;" x1="546.16" y1="251.24" x2="485.35" y2="251.37"/>
				<line style="fill:#92E3A9;stroke:#FFFFFF;stroke-miterlimit:10;" x1="550.43" y1="267.07" x2="488.24" y2="267.17"/>
				<line style="fill:#92E3A9;stroke:#FFFFFF;stroke-miterlimit:10;" x1="554.89" y1="283.64" x2="491.26" y2="283.69"/>
			</g>
			<polygon style="fill:#7444E4;stroke:#FFFFFF;stroke-miterlimit:10;" points="419.17,300.26 483.43,300.26 468.1,209.19 
				411.66,209.42 			"/>
			<line style="fill:#92E3A9;stroke:#FFFFFF;stroke-miterlimit:10;" x1="454.2" y1="209.37" x2="467.55" y2="300.1"/>
			<line style="fill:#92E3A9;stroke:#FFFFFF;stroke-miterlimit:10;" x1="439.61" y1="209.43" x2="450.95" y2="300.1"/>
			<line style="fill:#92E3A9;stroke:#FFFFFF;stroke-miterlimit:10;" x1="425.04" y1="209.49" x2="434.37" y2="300.1"/>
			<line style="fill:#92E3A9;stroke:#FFFFFF;stroke-miterlimit:10;" x1="470.14" y1="221.82" x2="412.28" y2="222.03"/>
			<line style="fill:#92E3A9;stroke:#FFFFFF;stroke-miterlimit:10;" x1="472.57" y1="236.29" x2="413.46" y2="236.46"/>
			<line style="fill:#92E3A9;stroke:#FFFFFF;stroke-miterlimit:10;" x1="475.11" y1="251.4" x2="414.7" y2="251.53"/>
			<line style="fill:#92E3A9;stroke:#FFFFFF;stroke-miterlimit:10;" x1="477.77" y1="267.18" x2="415.99" y2="267.28"/>
			<line style="fill:#92E3A9;stroke:#FFFFFF;stroke-miterlimit:10;" x1="480.54" y1="283.7" x2="417.34" y2="283.75"/>
		</g>
		<g>
			<rect x="336.77" y="338.66" style="fill:#CCCCCC;" width="8.05" height="13.93"/>
			<rect x="336.77" y="355.52" style="fill:#CCCCCC;" width="8.05" height="12.47"/>
			<rect x="336.77" y="370.91" style="fill:#CCCCCC;" width="8.05" height="12.47"/>
			<rect x="336.77" y="386.31" style="fill:#CCCCCC;" width="8.05" height="15.99"/>
			<rect x="325.03" y="386.31" style="fill:#CCCCCC;" width="9.69" height="15.99"/>
			<rect x="325.03" y="370.91" style="fill:#CCCCCC;" width="9.69" height="12.47"/>
			<rect x="325.03" y="355.52" style="fill:#CCCCCC;" width="9.69" height="12.47"/>
			<rect x="325.03" y="338.66" style="fill:#CCCCCC;" width="9.69" height="13.93"/>
		</g>
		<g>
			<rect x="403.54" y="338.66" style="fill:#CCCCCC;" width="8.05" height="13.93"/>
			<rect x="403.54" y="355.52" style="fill:#CCCCCC;" width="8.05" height="12.47"/>
			<rect x="403.54" y="370.91" style="fill:#CCCCCC;" width="8.05" height="12.47"/>
			<rect x="403.54" y="386.31" style="fill:#CCCCCC;" width="8.05" height="15.99"/>
			<rect x="391.8" y="386.31" style="fill:#CCCCCC;" width="9.69" height="15.99"/>
			<rect x="391.8" y="370.91" style="fill:#CCCCCC;" width="9.69" height="12.47"/>
			<rect x="391.8" y="355.52" style="fill:#CCCCCC;" width="9.69" height="12.47"/>
			<rect x="391.8" y="338.66" style="fill:#CCCCCC;" width="9.69" height="13.93"/>
		</g>
		<g>
			
				<rect x="347.61" y="337.98" style="fill:#7444E4;stroke:#263238;stroke-linecap:round;stroke-linejoin:round;stroke-miterlimit:10;" width="41.75" height="79.98"/>
			
				<rect x="353.67" y="342.7" style="fill:none;stroke:#263238;stroke-width:0.5;stroke-linecap:round;stroke-linejoin:round;stroke-miterlimit:10;" width="30.3" height="39.06"/>
			
				<rect x="353.67" y="396.57" style="fill:none;stroke:#263238;stroke-width:0.5;stroke-linecap:round;stroke-linejoin:round;stroke-miterlimit:10;" width="30.3" height="16.16"/>
			
				<rect x="353.67" y="386.47" style="fill:none;stroke:#263238;stroke-width:0.5;stroke-linecap:round;stroke-linejoin:round;stroke-miterlimit:10;" width="30.3" height="6.06"/>
			<rect x="348.67" y="376.93" style="fill:#263238;" width="3.79" height="12.8"/>
		</g>
		<g>
			
				<circle style="fill:none;stroke:#263238;stroke-linecap:round;stroke-linejoin:round;stroke-miterlimit:10;" cx="369.16" cy="325.84" r="7.02"/>
			<g>
				
					<polygon style="fill:#FFFFFF;stroke:#263238;stroke-width:2;stroke-linecap:round;stroke-linejoin:round;stroke-miterlimit:10;" points="
					371.9,338.67 366.4,338.67 365.33,331.89 372.97,331.89 				"/>
				<polygon style="fill:#FFFFFF;stroke:#263238;stroke-linecap:round;stroke-linejoin:round;stroke-miterlimit:10;" points="
					371.36,326.51 366.93,326.51 364.63,331.88 373.66,331.88 				"/>
				
					<rect x="368.05" y="323.84" style="fill:#263238;stroke:#263238;stroke-linecap:round;stroke-linejoin:round;stroke-miterlimit:10;" width="2.2" height="2.61"/>
			</g>
		</g>
		<g>
			<g>
				<path style="fill:#FFFFFF;stroke:#263238;stroke-linecap:round;stroke-linejoin:round;stroke-miterlimit:10;" d="M330.93,327.81
					l10.75-3.38c16.19-5.1,33.58-5.26,49.87-0.47l13.11,3.85h21.39v-25.77l-59.5-70.45l-58.38,70.45v25.77H330.93z"/>
				<g>
					
						<rect x="308.17" y="417.26" style="fill:#263238;stroke:#263238;stroke-linecap:round;stroke-linejoin:round;stroke-miterlimit:10;" width="117.88" height="9.43"/>
					<g>
						
							<line style="fill:none;stroke:#B0B0B0;stroke-linecap:round;stroke-linejoin:round;stroke-miterlimit:10;" x1="332.05" y1="418.22" x2="332.05" y2="425.6"/>
						
							<line style="fill:none;stroke:#B0B0B0;stroke-linecap:round;stroke-linejoin:round;stroke-miterlimit:10;" x1="338.15" y1="418.22" x2="338.15" y2="425.6"/>
						
							<line style="fill:none;stroke:#B0B0B0;stroke-linecap:round;stroke-linejoin:round;stroke-miterlimit:10;" x1="344.24" y1="418.22" x2="344.24" y2="425.6"/>
						
							<line style="fill:none;stroke:#B0B0B0;stroke-linecap:round;stroke-linejoin:round;stroke-miterlimit:10;" x1="350.34" y1="418.22" x2="350.34" y2="425.6"/>
						
							<line style="fill:none;stroke:#B0B0B0;stroke-linecap:round;stroke-linejoin:round;stroke-miterlimit:10;" x1="356.44" y1="418.22" x2="356.44" y2="425.6"/>
						
							<line style="fill:none;stroke:#B0B0B0;stroke-linecap:round;stroke-linejoin:round;stroke-miterlimit:10;" x1="362.54" y1="418.22" x2="362.54" y2="425.6"/>
						
							<line style="fill:none;stroke:#B0B0B0;stroke-linecap:round;stroke-linejoin:round;stroke-miterlimit:10;" x1="368.63" y1="418.22" x2="368.63" y2="425.6"/>
						
							<line style="fill:none;stroke:#B0B0B0;stroke-linecap:round;stroke-linejoin:round;stroke-miterlimit:10;" x1="374.73" y1="418.22" x2="374.73" y2="425.6"/>
						
							<line style="fill:none;stroke:#B0B0B0;stroke-linecap:round;stroke-linejoin:round;stroke-miterlimit:10;" x1="380.83" y1="418.22" x2="380.83" y2="425.6"/>
						
							<line style="fill:none;stroke:#B0B0B0;stroke-linecap:round;stroke-linejoin:round;stroke-miterlimit:10;" x1="386.93" y1="418.22" x2="386.93" y2="425.6"/>
						
							<line style="fill:none;stroke:#B0B0B0;stroke-linecap:round;stroke-linejoin:round;stroke-miterlimit:10;" x1="393.03" y1="418.22" x2="393.03" y2="425.6"/>
						
							<line style="fill:none;stroke:#B0B0B0;stroke-linecap:round;stroke-linejoin:round;stroke-miterlimit:10;" x1="399.12" y1="418.22" x2="399.12" y2="425.6"/>
						
							<line style="fill:none;stroke:#B0B0B0;stroke-linecap:round;stroke-linejoin:round;stroke-miterlimit:10;" x1="405.22" y1="418.22" x2="405.22" y2="425.6"/>
					</g>
				</g>
			</g>
			<polygon style="fill:#FFFFFF;stroke:#263238;stroke-linecap:round;stroke-linejoin:round;stroke-miterlimit:10;" points="
				367.11,222.5 295.05,314.21 329.81,314.21 329.81,305.21 312.17,305.21 367.11,237.46 422.05,305.21 404.51,305.21 
				404.51,314.21 439.17,314.21 			"/>
			
				<rect x="295.05" y="314.21" style="fill:#FFFFFF;stroke:#263238;stroke-linecap:round;stroke-linejoin:round;stroke-miterlimit:10;" width="34.71" height="8.29"/>
			<g>
				
					<rect x="300.78" y="336.05" style="fill:#FFFFFF;stroke:#263238;stroke-linecap:round;stroke-linejoin:round;stroke-miterlimit:10;" width="10.31" height="84.68"/>
				
					<rect x="300.19" y="332.96" style="fill:#FFFFFF;stroke:#263238;stroke-linecap:round;stroke-linejoin:round;stroke-miterlimit:10;" width="11.49" height="3.2"/>
				
					<rect x="299.4" y="322.61" style="fill:#FFFFFF;stroke:#263238;stroke-linecap:round;stroke-linejoin:round;stroke-miterlimit:10;" width="13.07" height="10.53"/>
				
					<rect x="300.19" y="413.07" transform="matrix(-1 -1.224647e-16 1.224647e-16 -1 611.8724 829.3371)" style="fill:#FFFFFF;stroke:#263238;stroke-linecap:round;stroke-linejoin:round;stroke-miterlimit:10;" width="11.49" height="3.2"/>
				
					<rect x="299.4" y="416.09" transform="matrix(-1 -1.224647e-16 1.224647e-16 -1 611.8724 842.7086)" style="fill:#FFFFFF;stroke:#263238;stroke-linecap:round;stroke-linejoin:round;stroke-miterlimit:10;" width="13.07" height="10.53"/>
			</g>
			<g>
				
					<rect x="316.14" y="336.05" style="fill:#FFFFFF;stroke:#263238;stroke-linecap:round;stroke-linejoin:round;stroke-miterlimit:10;" width="10.31" height="84.68"/>
				
					<rect x="315.56" y="332.96" style="fill:#FFFFFF;stroke:#263238;stroke-linecap:round;stroke-linejoin:round;stroke-miterlimit:10;" width="11.49" height="3.2"/>
				
					<rect x="314.77" y="322.61" style="fill:#FFFFFF;stroke:#263238;stroke-linecap:round;stroke-linejoin:round;stroke-miterlimit:10;" width="13.07" height="10.53"/>
				
					<rect x="315.56" y="413.07" transform="matrix(-1 -1.224647e-16 1.224647e-16 -1 642.6019 829.3371)" style="fill:#FFFFFF;stroke:#263238;stroke-linecap:round;stroke-linejoin:round;stroke-miterlimit:10;" width="11.49" height="3.2"/>
				
					<rect x="314.77" y="416.09" transform="matrix(-1 -1.224647e-16 1.224647e-16 -1 642.602 842.7086)" style="fill:#FFFFFF;stroke:#263238;stroke-linecap:round;stroke-linejoin:round;stroke-miterlimit:10;" width="13.07" height="10.53"/>
			</g>
			
				<rect x="404.45" y="314.21" style="fill:#FFFFFF;stroke:#263238;stroke-linecap:round;stroke-linejoin:round;stroke-miterlimit:10;" width="34.71" height="8.29"/>
			<g>
				
					<rect x="410.18" y="336.05" style="fill:#FFFFFF;stroke:#263238;stroke-linecap:round;stroke-linejoin:round;stroke-miterlimit:10;" width="10.31" height="84.68"/>
				
					<rect x="409.59" y="332.96" style="fill:#FFFFFF;stroke:#263238;stroke-linecap:round;stroke-linejoin:round;stroke-miterlimit:10;" width="11.49" height="3.2"/>
				
					<rect x="408.8" y="322.61" style="fill:#FFFFFF;stroke:#263238;stroke-linecap:round;stroke-linejoin:round;stroke-miterlimit:10;" width="13.07" height="10.53"/>
				
					<rect x="409.59" y="413.07" transform="matrix(-1 -1.224647e-16 1.224647e-16 -1 830.6715 829.3371)" style="fill:#FFFFFF;stroke:#263238;stroke-linecap:round;stroke-linejoin:round;stroke-miterlimit:10;" width="11.49" height="3.2"/>
				
					<rect x="408.8" y="416.09" transform="matrix(-1 -1.224647e-16 1.224647e-16 -1 830.6714 842.7086)" style="fill:#FFFFFF;stroke:#263238;stroke-linecap:round;stroke-linejoin:round;stroke-miterlimit:10;" width="13.07" height="10.53"/>
			</g>
			<g>
				
					<rect x="425.54" y="336.05" style="fill:#FFFFFF;stroke:#263238;stroke-linecap:round;stroke-linejoin:round;stroke-miterlimit:10;" width="10.31" height="84.68"/>
				
					<rect x="424.96" y="332.96" style="fill:#FFFFFF;stroke:#263238;stroke-linecap:round;stroke-linejoin:round;stroke-miterlimit:10;" width="11.49" height="3.2"/>
				
					<rect x="424.16" y="322.61" style="fill:#FFFFFF;stroke:#263238;stroke-linecap:round;stroke-linejoin:round;stroke-miterlimit:10;" width="13.07" height="10.53"/>
				
					<rect x="424.96" y="413.07" transform="matrix(-1 -1.224647e-16 1.224647e-16 -1 861.4012 829.3371)" style="fill:#FFFFFF;stroke:#263238;stroke-linecap:round;stroke-linejoin:round;stroke-miterlimit:10;" width="11.49" height="3.2"/>
				
					<rect x="424.16" y="416.09" transform="matrix(-1 -1.224647e-16 1.224647e-16 -1 861.4011 842.7086)" style="fill:#FFFFFF;stroke:#263238;stroke-linecap:round;stroke-linejoin:round;stroke-miterlimit:10;" width="13.07" height="10.53"/>
			</g>
		</g>
		<g>
			<g>
				<rect x="195.35" y="370.91" style="fill:#CCCCCC;" width="9.9" height="12.47"/>
				<rect x="185.25" y="338.66" style="fill:#CCCCCC;" width="8.05" height="13.93"/>
				<rect x="185.25" y="355.52" style="fill:#CCCCCC;" width="8.05" height="12.47"/>
				<rect x="195.35" y="355.52" style="fill:#CCCCCC;" width="9.9" height="12.47"/>
				<rect x="185.25" y="370.91" style="fill:#CCCCCC;" width="8.05" height="12.47"/>
				<rect x="195.35" y="338.66" style="fill:#CCCCCC;" width="9.9" height="13.93"/>
				<rect x="185.25" y="386.31" style="fill:#CCCCCC;" width="8.05" height="15.99"/>
				<rect x="195.35" y="386.31" style="fill:#CCCCCC;" width="9.9" height="15.99"/>
				<rect x="173.5" y="386.31" style="fill:#CCCCCC;" width="9.69" height="15.99"/>
				<rect x="173.5" y="370.91" style="fill:#CCCCCC;" width="9.69" height="12.47"/>
				<rect x="173.5" y="355.52" style="fill:#CCCCCC;" width="9.69" height="12.47"/>
				<rect x="173.5" y="338.66" style="fill:#CCCCCC;" width="9.69" height="13.93"/>
			</g>
			<g>
				<rect x="233.38" y="370.91" style="fill:#CCCCCC;" width="9.9" height="12.47"/>
				<rect x="223.28" y="338.66" style="fill:#CCCCCC;" width="8.05" height="13.93"/>
				<rect x="223.28" y="355.52" style="fill:#CCCCCC;" width="8.05" height="12.47"/>
				<rect x="233.38" y="355.52" style="fill:#CCCCCC;" width="9.9" height="12.47"/>
				<rect x="223.28" y="370.91" style="fill:#CCCCCC;" width="8.05" height="12.47"/>
				<rect x="233.38" y="338.66" style="fill:#CCCCCC;" width="9.9" height="13.93"/>
				<rect x="223.28" y="386.31" style="fill:#CCCCCC;" width="8.05" height="15.99"/>
				<rect x="233.38" y="386.31" style="fill:#CCCCCC;" width="9.9" height="15.99"/>
				<rect x="211.54" y="386.31" style="fill:#CCCCCC;" width="9.69" height="15.99"/>
				<rect x="211.54" y="370.91" style="fill:#CCCCCC;" width="9.69" height="12.47"/>
				<rect x="211.54" y="355.52" style="fill:#CCCCCC;" width="9.69" height="12.47"/>
				<rect x="211.54" y="338.66" style="fill:#CCCCCC;" width="9.69" height="13.93"/>
			</g>
			<g>
				<rect x="271.42" y="370.91" style="fill:#CCCCCC;" width="9.9" height="12.47"/>
				<rect x="261.31" y="338.66" style="fill:#CCCCCC;" width="8.05" height="13.93"/>
				<rect x="261.31" y="355.52" style="fill:#CCCCCC;" width="8.05" height="12.47"/>
				<rect x="271.42" y="355.52" style="fill:#CCCCCC;" width="9.9" height="12.47"/>
				<rect x="261.31" y="370.91" style="fill:#CCCCCC;" width="8.05" height="12.47"/>
				<rect x="271.42" y="338.66" style="fill:#CCCCCC;" width="9.9" height="13.93"/>
				<rect x="261.31" y="386.31" style="fill:#CCCCCC;" width="8.05" height="15.99"/>
				<rect x="271.42" y="386.31" style="fill:#CCCCCC;" width="9.9" height="15.99"/>
				<rect x="249.57" y="386.31" style="fill:#CCCCCC;" width="9.69" height="15.99"/>
				<rect x="249.57" y="370.91" style="fill:#CCCCCC;" width="9.69" height="12.47"/>
				<rect x="249.57" y="355.52" style="fill:#CCCCCC;" width="9.69" height="12.47"/>
				<rect x="249.57" y="338.66" style="fill:#CCCCCC;" width="9.69" height="13.93"/>
			</g>
			
				<rect x="168.49" y="331.92" style="fill:none;stroke:#263238;stroke-linecap:round;stroke-linejoin:round;stroke-miterlimit:10;" width="117.17" height="75.42"/>
		</g>
		<g>
			<g>
				<rect x="478.51" y="370.91" style="fill:#CCCCCC;" width="9.9" height="12.47"/>
				<rect x="468.41" y="338.66" style="fill:#CCCCCC;" width="8.05" height="13.93"/>
				<rect x="468.41" y="355.52" style="fill:#CCCCCC;" width="8.05" height="12.47"/>
				<rect x="478.51" y="355.52" style="fill:#CCCCCC;" width="9.9" height="12.47"/>
				<rect x="468.41" y="370.91" style="fill:#CCCCCC;" width="8.05" height="12.47"/>
				<rect x="478.51" y="338.66" style="fill:#CCCCCC;" width="9.9" height="13.93"/>
				<rect x="468.41" y="386.31" style="fill:#CCCCCC;" width="8.05" height="15.99"/>
				<rect x="478.51" y="386.31" style="fill:#CCCCCC;" width="9.9" height="15.99"/>
				<rect x="456.67" y="386.31" style="fill:#CCCCCC;" width="9.69" height="15.99"/>
				<rect x="456.67" y="370.91" style="fill:#CCCCCC;" width="9.69" height="12.47"/>
				<rect x="456.67" y="355.52" style="fill:#CCCCCC;" width="9.69" height="12.47"/>
				<rect x="456.67" y="338.66" style="fill:#CCCCCC;" width="9.69" height="13.93"/>
			</g>
			<g>
				<rect x="516.54" y="370.91" style="fill:#CCCCCC;" width="9.9" height="12.47"/>
				<rect x="506.44" y="338.66" style="fill:#CCCCCC;" width="8.05" height="13.93"/>
				<rect x="506.44" y="355.52" style="fill:#CCCCCC;" width="8.05" height="12.47"/>
				<rect x="516.54" y="355.52" style="fill:#CCCCCC;" width="9.9" height="12.47"/>
				<rect x="506.44" y="370.91" style="fill:#CCCCCC;" width="8.05" height="12.47"/>
				<rect x="516.54" y="338.66" style="fill:#CCCCCC;" width="9.9" height="13.93"/>
				<rect x="506.44" y="386.31" style="fill:#CCCCCC;" width="8.05" height="15.99"/>
				<rect x="516.54" y="386.31" style="fill:#CCCCCC;" width="9.9" height="15.99"/>
				<rect x="494.7" y="386.31" style="fill:#CCCCCC;" width="9.69" height="15.99"/>
				<rect x="494.7" y="370.91" style="fill:#CCCCCC;" width="9.69" height="12.47"/>
				<rect x="494.7" y="355.52" style="fill:#CCCCCC;" width="9.69" height="12.47"/>
				<rect x="494.7" y="338.66" style="fill:#CCCCCC;" width="9.69" height="13.93"/>
			</g>
			<g>
				<rect x="554.58" y="370.91" style="fill:#CCCCCC;" width="9.9" height="12.47"/>
				<rect x="544.48" y="338.66" style="fill:#CCCCCC;" width="8.05" height="13.93"/>
				<rect x="544.48" y="355.52" style="fill:#CCCCCC;" width="8.05" height="12.47"/>
				<rect x="554.58" y="355.52" style="fill:#CCCCCC;" width="9.9" height="12.47"/>
				<rect x="544.48" y="370.91" style="fill:#CCCCCC;" width="8.05" height="12.47"/>
				<rect x="554.58" y="338.66" style="fill:#CCCCCC;" width="9.9" height="13.93"/>
				<rect x="544.48" y="386.31" style="fill:#CCCCCC;" width="8.05" height="15.99"/>
				<rect x="554.58" y="386.31" style="fill:#CCCCCC;" width="9.9" height="15.99"/>
				<rect x="532.74" y="386.31" style="fill:#CCCCCC;" width="9.69" height="15.99"/>
				<rect x="532.74" y="370.91" style="fill:#CCCCCC;" width="9.69" height="12.47"/>
				<rect x="532.74" y="355.52" style="fill:#CCCCCC;" width="9.69" height="12.47"/>
				<rect x="532.74" y="338.66" style="fill:#CCCCCC;" width="9.69" height="13.93"/>
			</g>
			
				<rect x="451.65" y="331.92" style="fill:none;stroke:#263238;stroke-linecap:round;stroke-linejoin:round;stroke-miterlimit:10;" width="117.17" height="75.42"/>
		</g>
	</g>
</g>
<g id="Floor_1_">
	<g>
		
			<line style="fill:none;stroke:#263238;stroke-linecap:round;stroke-linejoin:round;stroke-miterlimit:10;" x1="704.99" y1="427.22" x2="712.76" y2="427.22"/>
		
			<line style="fill:none;stroke:#263238;stroke-linecap:round;stroke-linejoin:round;stroke-miterlimit:10;" x1="41.04" y1="427.22" x2="694.29" y2="427.22"/>
		
			<line style="fill:none;stroke:#263238;stroke-linecap:round;stroke-linejoin:round;stroke-miterlimit:10;" x1="25.49" y1="427.22" x2="32.29" y2="427.22"/>
	</g>
</g>
<g id="Character">
	<g>
		<g>
			<path style="fill:#263238;stroke:#263238;stroke-miterlimit:10;" d="M628.97,346.32c0,0-1.67,38.61-1.46,60.52
				c0.21,21.91,2.92,58.51,2.92,58.51l-1.88,3.55l0.21,5.22l12.1,3.55l0.83-4.38c0,0,2.09-1.67,2.09-2.71
				c0-1.04-0.21-6.68-0.21-8.35c0-1.67,6.89-79.31,6.89-79.31l2.92-0.21l13.36,85.36l-2.71,1.67l3.76,7.3l6.26-2.09l6.68,0.42
				c0,0,1.88-4.59,1.88-5.43s-2.3-1.88-2.3-3.34s-2.3-89.19-2.3-89.19l-3.97-31.1H628.97z"/>
			<path style="fill:#FFFFFF;stroke:#263238;stroke-miterlimit:10;" d="M628.76,474.11l-6.89,5.43c0,0-8.77,3.34-8.56,4.8
				c0.21,1.46,1.88,1.67,3.13,1.67s24.84,0,24.84,0l-0.42-8.35L628.76,474.11z"/>
			<path style="fill:#FFFFFF;stroke:#263238;stroke-miterlimit:10;" d="M667.79,477.03c0,0,2.71,8.77,3.55,9.81
				c0.83,1.04,8.56,4.38,10.64,3.76c2.09-0.63,4.38-3.55,3.55-6.47c-0.83-2.92-4.8-8.77-4.8-8.77l-6.68-0.42L667.79,477.03z"/>
		</g>
		<path style="fill:#FFFFFF;stroke:#263238;stroke-miterlimit:10;" d="M651.1,270.77l-10.43,1.46c0,0-4.59,11.69-6.26,31.1
			c-1.67,19.41-0.21,43.62-0.21,43.62h35.48c0,0,9.18-51.76,6.26-60.31c-2.92-8.56-7.72-13.57-7.72-13.57L651.1,270.77z"/>
		<g>
			<path style="fill:#7444E4;stroke:#263238;stroke-miterlimit:10;" d="M642.33,278.7c0,0-4.8,15.86-4.8,29.64
				c0,13.77,2.09,63.86,2.09,63.86l-19.2-3.97l4.59-32.77l-2.09-35.06l-16.07,16.9l-12-6.81c0,0,26.61-36.18,27.44-36.39
				c0.83-0.21,23.72-4.61,23.72-4.61L642.33,278.7z"/>
			<g>
				<polyline style="fill:none;stroke:#263238;stroke-miterlimit:10;" points="621.76,288.46 622.92,300.4 618.75,287.46 				"/>
				<line style="fill:none;stroke:#263238;stroke-miterlimit:10;" x1="621.25" y1="283.29" x2="621.5" y2="285.86"/>
			</g>
		</g>
		<g>
			<path style="fill:#7444E4;stroke:#263238;stroke-miterlimit:10;" d="M666.53,270.06c0,0,23.62,5.95,24.45,6.16
				c0.83,0.21,26.47,47.13,26.47,47.13l-11.48,5.01l-21.27-26.22l-4.4,37.9l5.63,29.01l-24.84,1.88l-2.09-29.64l4.38-64.07
				L666.53,270.06z"/>
			<polyline style="fill:none;stroke:#263238;stroke-miterlimit:10;" points="681.48,292.47 684.71,302.15 679.6,295.96 			"/>
		</g>
		<g>
			<path style="fill:#263238;stroke:#263238;stroke-miterlimit:10;" d="M644.73,232.69c0,0-3.88-2.77-3.51-4.06
				c0.37-1.29,8.87-6.28,10.16-6.84c1.29-0.55,16.81,2.77,19.4,4.43c2.59,1.66,5.36,11.45,5.73,16.07
				c0.37,4.62-11.08,13.67-11.08,13.67l-7.39,0.18l0.92-5.54l-7.57-1.48l1.29-6.28l-6.84-7.57l1.85-4.25L644.73,232.69z"/>
			<path style="fill:#FFFFFF;stroke:#263238;stroke-miterlimit:10;" d="M647.18,265.82l-6.27,8.16c0,0-3.21,8.46-2.48,8.02
				c0.73-0.44,4.67-4.23,4.67-4.23l9.39,5.71l10.87-5.42l5.39,5.83c0,0,1.17-16.48,0.29-17.79c-0.87-1.31-5.54-2.33-6.71-2.48
				C661.17,263.49,647.18,265.82,647.18,265.82z"/>
			<path style="fill:#FFFFFF;stroke:#263238;stroke-miterlimit:10;" d="M646.94,228.62c0,0-8.13,8.68-7.2,10.53
				c0.92,1.85,1.11,3.14,1.11,3.14s-6.47,5.73-5.54,6.84c0.92,1.11,3.51,2.59,3.51,2.59s-1.11,7.76,0,9.61
				c1.11,1.85,7.21,0.74,7.21,0.74s4.25,22.91,6.47,21.43c2.22-1.48,12.75-15.15,12.56-16.81c-0.18-1.66,0.37-10.16,0.37-10.71
				c0-0.55-3.69-0.18-3.69-0.18s4.8-7.02,2.96-9.05c-1.85-2.03-5.54-1.48-6.84-0.55c-1.29,0.92-2.03,2.03-2.03,2.03l-2.03-0.55
				c0,0,1.48-3.33,1.66-4.25c0.18-0.92-4.25-5.36-4.06-6.1c0.04-0.15,0.29-0.48,0.66-0.91c1.47-1.71,4.88-5,4.88-5L646.94,228.62z"
				/>
			<path style="fill:#263238;" d="M644.48,243.87c-0.08,0.9-0.46,1.61-0.84,1.57c-0.38-0.04-0.62-0.8-0.53-1.7s0.46-1.61,0.84-1.57
				C644.33,242.21,644.57,242.97,644.48,243.87z"/>
			<path style="fill:none;stroke:#263238;stroke-miterlimit:10;" d="M642.36,239.46c0,0,2.34-1.7,3.93,0.53"/>
			<path style="fill:none;stroke:#263238;stroke-miterlimit:10;" d="M640.02,253.37c0,0,4.46,0.32,6.69-2.34"/>
			<polygon style="fill:#263238;stroke:#263238;stroke-miterlimit:10;" points="646.02,262.06 652.77,261.12 647.14,267.59 			"/>
		</g>
		<polygon style="fill:#FFFFFF;stroke:#263238;stroke-miterlimit:10;" points="607.57,340.75 612.4,336.14 607.22,332.57 		"/>
		<polygon style="fill:#FFFFFF;stroke:#263238;stroke-miterlimit:10;" points="609.87,323.59 613.68,327.99 610.79,338.1 
			605.89,334.11 		"/>
		<path style="fill:#7444E4;stroke:#263238;stroke-miterlimit:10;" d="M599.43,304.04c0,0-6.04,7.41-7.02,9.78
			c-0.97,2.36,15.16,26.94,15.16,26.94l3.92-15.55l-2.88-8.64l1.32-4.99l-6.5-2.49"/>
		<path style="fill:#FFFFFF;stroke:#263238;stroke-miterlimit:10;" d="M613.21,327.73l8.11-1.13c0,0,5.84,5.28,6.12,5.98
			c0.28,0.69,0.14,1.25-0.14,2.22c-0.28,0.97-1.11,1.67-1.11,1.67s-2.22,5.42-2.64,6.12c-0.42,0.7-2.92,0.42-3.89,0.28
			c-0.97-0.14-8.86-4.77-8.86-4.77L613.21,327.73z"/>
		<polygon style="fill:#FFFFFF;stroke:#263238;stroke-miterlimit:10;" points="692.88,328.55 690.79,331.19 694.14,339.86 
			698.58,337.31 		"/>
		<path style="fill:#7444E4;stroke:#263238;stroke-miterlimit:10;" d="M704.6,315.76l-13.11,12.65l8.9,11.26
			c0,0,17.83-14.6,16.86-16.96c-0.97-2.36-5.14-8.2-5.14-8.2"/>
		<path style="fill:#FFFFFF;stroke:#263238;stroke-miterlimit:10;" d="M690.79,331.19l-7.65-1.39c0,0-5.84,5.28-6.12,5.98
			c-0.28,0.7-0.14,1.25,0.14,2.22c0.28,0.97,1.11,1.67,1.11,1.67s2.22,5.42,2.64,6.12c0.42,0.7,2.92,0.42,3.89,0.28
			c0.97-0.14,8.53-8.12,8.53-8.12L690.79,331.19z"/>
	</g>
	<g id="Text">
	</g>
</g>
</svg>
