<?xml version="1.0" encoding="utf-8"?>
<!-- Generator: Adobe Illustrator 25.2.0, SVG Export Plug-In . SVG Version: 6.00 Build 0)  -->
<svg version="1.1" xmlns="http://www.w3.org/2000/svg" xmlns:xlink="http://www.w3.org/1999/xlink" x="0px" y="0px"
	 viewBox="0 0 750 500" style="enable-background:new 0 0 750 500;" xml:space="preserve">
<g id="Background_Simple">
</g>
<g id="Clouds">
</g>
<g id="Plants">
</g>
<g id="Trees">
</g>
<g id="Arrows">
</g>
<g id="Sun">
</g>
<g id="House">
</g>
<g id="Floor_1_">
</g>
<g id="Character">
	<g id="Text_1_">
	</g>
	<g>
		<path style="fill:#BAA4FF;" d="M721.88,326.75c19.7-112.4-67.9-221.83-176.15-257.92c-1.38-0.46-2.78-0.91-4.18-1.36
			c-112.25-35.49-154.98,33.31-208.58,70.97c-53.59,37.66-135.5-7.05-220.89,19.55C12.14,189.14-14.76,352.88,82.39,415.1
			c64.46,41.28,127.46,41.28,247.68,20.28s191.2,42,317.21-6.52C696.37,409.97,715.55,362.88,721.88,326.75z"/>
		<path style="opacity:0.8;fill:#FFFFFF;" d="M721.88,326.75c19.7-112.4-67.9-221.83-176.15-257.92c-1.38-0.46-2.78-0.91-4.18-1.36
			c-112.25-35.49-154.98,33.31-208.58,70.97c-53.59,37.66-135.5-7.05-220.89,19.55C12.14,189.14-14.76,352.88,82.39,415.1
			c64.46,41.28,127.46,41.28,247.68,20.28s191.2,42,317.21-6.52C696.37,409.97,715.55,362.88,721.88,326.75z"/>
	</g>
	<g>
		<path style="fill:none;stroke:#263238;stroke-miterlimit:10;" d="M112.13,142.64c0.29-0.91-0.36-2.68-0.6-3.21
			c-1.24-2.76-4.3-4-7.2-3.76c-1.05,0.09-2.14,0.34-3.15,0.03c-1.26-0.39-2.11-1.56-2.73-2.73c-1.18-2.23-2.53-4.19-4.29-6.03
			c-2.61-2.72-6.14-4.73-10.02-4.59c-10.44,0.36-9.36,9-12.24,11.52c-1.6,1.4-2.76-0.59-4.12-1.28c-1.8-0.91-3.8-0.75-5.37,0.57
			c-1.49,1.26-2.37,3.07-3.55,4.63c-1.17,1.56-2.93,2.96-4.86,2.75c-1.62-0.18-2.91-1.43-4.46-1.95c-1.77-0.6-3.77-0.16-5.39,0.79
			c-1.41,0.83-2.57,2.01-3.62,3.27H112.13z"/>
		<path style="fill:none;stroke:#263238;stroke-miterlimit:10;" d="M709.62,142.64c0.29-0.91-0.36-2.68-0.6-3.21
			c-1.24-2.76-4.3-4-7.2-3.76c-1.05,0.09-2.14,0.34-3.15,0.03c-1.26-0.39-2.11-1.56-2.73-2.73c-1.18-2.23-2.53-4.19-4.29-6.03
			c-2.61-2.72-6.14-4.73-10.02-4.59c-10.44,0.36-9.36,9-12.24,11.52c-1.6,1.4-2.76-0.59-4.12-1.28c-1.8-0.91-3.8-0.75-5.37,0.57
			c-1.49,1.26-2.37,3.07-3.55,4.63c-1.17,1.56-2.93,2.96-4.86,2.75c-1.62-0.18-2.91-1.43-4.46-1.95c-1.77-0.6-3.77-0.16-5.39,0.79
			c-1.41,0.83-2.57,2.01-3.62,3.27H709.62z"/>
		<path style="fill:none;stroke:#263238;stroke-miterlimit:10;" d="M224.79,76.43c0.45-1.4-0.56-4.11-0.93-4.93
			c-1.9-4.23-6.6-6.14-11.05-5.78c-1.62,0.13-3.28,0.52-4.83,0.04c-1.94-0.59-3.24-2.39-4.19-4.18c-1.81-3.43-3.89-6.44-6.59-9.25
			c-4.01-4.18-9.42-7.26-15.38-7.05c-16.02,0.55-14.37,13.81-18.78,17.68c-2.46,2.15-4.23-0.91-6.32-1.96
			c-2.77-1.39-5.84-1.15-8.25,0.87c-2.29,1.93-3.64,4.72-5.44,7.11c-1.8,2.39-4.49,4.55-7.47,4.23c-2.49-0.27-4.47-2.2-6.85-3
			c-2.72-0.91-5.79-0.24-8.27,1.21c-2.16,1.27-3.94,3.09-5.56,5.01H224.79z"/>
		<path style="fill:none;stroke:#263238;stroke-miterlimit:10;" d="M628.18,76.43c0.45-1.4-0.56-4.11-0.93-4.93
			c-1.9-4.23-6.6-6.14-11.05-5.78c-1.62,0.13-3.28,0.52-4.83,0.04c-1.94-0.59-3.24-2.39-4.19-4.18c-1.81-3.43-3.89-6.44-6.59-9.25
			c-4.01-4.18-9.42-7.26-15.38-7.05c-16.02,0.55-14.37,13.81-18.78,17.68c-2.46,2.15-4.23-0.91-6.32-1.96
			c-2.77-1.39-5.84-1.15-8.25,0.87c-2.29,1.93-3.64,4.72-5.44,7.11c-1.8,2.39-4.49,4.55-7.47,4.23c-2.49-0.27-4.47-2.2-6.85-3
			c-2.72-0.91-5.79-0.24-8.27,1.21c-2.16,1.27-3.94,3.09-5.56,5.01H628.18z"/>
		<path style="fill:none;stroke:#263238;stroke-miterlimit:10;" d="M446.15,102.68c0.29-0.91-0.36-2.68-0.6-3.21
			c-1.24-2.76-4.3-4-7.2-3.76c-1.05,0.09-2.14,0.34-3.15,0.03c-1.26-0.39-2.11-1.56-2.73-2.73c-1.18-2.23-2.53-4.19-4.29-6.03
			c-2.61-2.72-6.14-4.73-10.02-4.59c-10.44,0.36-9.36,9-12.24,11.52c-1.6,1.4-2.76-0.59-4.12-1.28c-1.8-0.91-3.8-0.75-5.37,0.57
			c-1.49,1.26-2.37,3.07-3.55,4.63c-1.17,1.56-2.93,2.96-4.86,2.75c-1.62-0.18-2.91-1.43-4.46-1.95c-1.77-0.6-3.77-0.16-5.39,0.79
			c-1.41,0.83-2.57,2.01-3.62,3.27H446.15z"/>
	</g>
	<g>
		<g>
			<g>
				<path style="fill:#7444E4;" d="M197.47,217.02c0,36.74-31.44,66.53-70.21,66.53s-70.21-29.79-70.21-66.53
					c0-36.74,31.44-89.93,70.21-89.93S197.47,180.27,197.47,217.02z"/>
				<path style="opacity:0.28;fill:#FFFFFF;" d="M197.47,217.02c0,36.74-31.44,66.53-70.21,66.53s-70.21-29.79-70.21-66.53
					c0-36.74,31.44-89.93,70.21-89.93S197.47,180.27,197.47,217.02z"/>
			</g>
			<polygon style="fill:#787878;" points="121.29,295.15 122.4,273.1 101.14,241.05 122.38,264.7 122.38,240.08 110.79,202.43 
				123.34,232.36 124.66,191.23 126.72,236.7 127.21,245.39 161,214.02 128.65,252.15 128.17,264.7 142.17,253.12 156.17,231.88 
				146.29,251.8 168.24,250.7 144.58,254.31 129.14,269.28 130.1,295.11 			"/>
		</g>
		<g>
			<g>
				<path style="fill:#7444E4;" d="M316.61,250.87c0,20.82-17.82,37.71-39.79,37.71c-21.98,0-39.79-16.88-39.79-37.71
					s17.82-50.97,39.79-50.97C298.79,199.9,316.61,230.04,316.61,250.87z"/>
				<path style="opacity:0.28;fill:#FFFFFF;" d="M316.61,250.87c0,20.82-17.82,37.71-39.79,37.71c-21.98,0-39.79-16.88-39.79-37.71
					s17.82-50.97,39.79-50.97C298.79,199.9,316.61,230.04,316.61,250.87z"/>
			</g>
			<polygon style="fill:#787878;" points="273.43,295.15 274.06,282.65 262.01,264.49 274.05,277.89 274.05,263.94 267.49,242.6 
				274.6,259.56 273.78,240.14 276.51,262.02 276.79,266.95 295.94,249.17 277.61,270.78 277.33,277.89 285.27,271.33 293.2,259.29 
				287.61,270.58 300.04,269.96 286.64,272 277.88,280.48 278.43,295.13 			"/>
		</g>
		<g>
			<g>
				<path style="fill:#7444E4;" d="M282.85,164.14c0,36.74-31.44,66.53-70.21,66.53s-70.21-29.79-70.21-66.53
					c0-36.74,31.44-89.93,70.21-89.93S282.85,127.4,282.85,164.14z"/>
				<path style="opacity:0.5;fill:#FFFFFF;" d="M282.85,164.14c0,36.74-31.44,66.53-70.21,66.53s-70.21-29.79-70.21-66.53
					c0-36.74,31.44-89.93,70.21-89.93S282.85,127.4,282.85,164.14z"/>
			</g>
			<polygon style="fill:#787878;" points="206.67,294.71 207.78,220.22 186.52,188.17 207.76,211.82 207.76,187.21 196.18,149.55 
				208.73,179.48 210.91,130.55 212.11,183.83 212.59,192.52 246.38,161.14 214.04,199.27 213.56,211.82 227.55,200.24 241.55,179 
				231.68,198.92 253.62,197.83 229.97,201.43 214.52,216.4 215.49,294.68 			"/>
		</g>
		<g>
			<g>
				<path style="fill:#7444E4;" d="M397.98,192.63c0,28.73-24.58,52.01-54.89,52.01c-30.32,0-54.89-23.29-54.89-52.01
					s24.58-70.31,54.89-70.31C373.4,122.31,397.98,163.9,397.98,192.63z"/>
				<path style="opacity:0.5;fill:#FFFFFF;" d="M397.98,192.63c0,28.73-24.58,52.01-54.89,52.01c-30.32,0-54.89-23.29-54.89-52.01
					s24.58-70.31,54.89-70.31C373.4,122.31,397.98,163.9,397.98,192.63z"/>
			</g>
			<polygon style="fill:#787878;" points="348.54,294.71 347.67,236.48 364.29,211.42 347.68,229.91 347.68,210.66 356.74,181.22 
				346.93,204.62 346.13,158.29 344.29,208.02 343.91,214.81 317.49,190.28 342.78,220.1 343.15,229.91 332.21,220.85 
				321.26,204.25 328.98,219.82 311.83,218.96 330.32,221.79 342.4,233.48 341.64,294.69 			"/>
		</g>
		<g>
			<g>
				<path style="fill:#7444E4;" d="M506.07,217.02c0,36.74-31.44,66.53-70.21,66.53c-38.78,0-70.21-29.79-70.21-66.53
					c0-36.74,31.44-89.93,70.21-89.93C474.63,127.08,506.07,180.27,506.07,217.02z"/>
				<path style="opacity:0.28;fill:#FFFFFF;" d="M506.07,217.02c0,36.74-31.44,66.53-70.21,66.53c-38.78,0-70.21-29.79-70.21-66.53
					c0-36.74,31.44-89.93,70.21-89.93C474.63,127.08,506.07,180.27,506.07,217.02z"/>
			</g>
			<polygon style="fill:#787878;" points="429.88,295.15 430.99,273.1 409.73,241.05 430.97,264.7 430.97,240.08 419.39,202.43 
				431.94,232.36 433.25,191.23 435.32,236.7 435.8,245.39 469.59,214.02 437.25,252.15 436.77,264.7 450.76,253.12 464.76,231.88 
				454.89,251.8 476.83,250.7 453.18,254.31 437.73,269.28 438.7,295.11 			"/>
		</g>
		<g>
			<g>
				<path style="fill:#7444E4;" d="M625.2,250.87c0,20.82-17.82,37.71-39.79,37.71c-21.98,0-39.79-16.88-39.79-37.71
					s17.82-50.97,39.79-50.97C607.39,199.9,625.2,230.04,625.2,250.87z"/>
				<path style="opacity:0.28;fill:#FFFFFF;" d="M625.2,250.87c0,20.82-17.82,37.71-39.79,37.71c-21.98,0-39.79-16.88-39.79-37.71
					s17.82-50.97,39.79-50.97C607.39,199.9,625.2,230.04,625.2,250.87z"/>
			</g>
			<polygon style="fill:#787878;" points="582.03,295.15 582.66,282.65 570.61,264.49 582.65,277.89 582.65,263.94 576.08,242.6 
				583.19,259.56 582.37,240.14 585.11,262.02 585.38,266.95 604.53,249.17 586.2,270.78 585.93,277.89 593.86,271.33 601.8,259.29 
				596.2,270.58 608.64,269.96 595.23,272 586.48,280.48 587.02,295.13 			"/>
		</g>
		<g>
			<g>
				<path style="fill:#7444E4;" d="M591.45,164.14c0,36.74-31.44,66.53-70.21,66.53s-70.21-29.79-70.21-66.53
					c0-36.74,31.44-89.93,70.21-89.93S591.45,127.4,591.45,164.14z"/>
				<path style="opacity:0.5;fill:#FFFFFF;" d="M591.45,164.14c0,36.74-31.44,66.53-70.21,66.53s-70.21-29.79-70.21-66.53
					c0-36.74,31.44-89.93,70.21-89.93S591.45,127.4,591.45,164.14z"/>
			</g>
			<polygon style="fill:#787878;" points="515.26,294.71 516.37,220.22 495.12,188.17 516.36,211.82 516.36,187.21 504.77,149.55 
				517.32,179.48 519.5,130.55 520.7,183.83 521.18,192.52 554.97,161.14 522.63,199.27 522.15,211.82 536.15,200.24 550.15,179 
				540.27,198.92 562.21,197.83 538.56,201.43 523.11,216.4 524.08,294.68 			"/>
		</g>
		<g>
			<g>
				<path style="fill:#7444E4;" d="M706.57,192.63c0,28.73-24.58,52.01-54.89,52.01c-30.32,0-54.89-23.29-54.89-52.01
					s24.58-70.31,54.89-70.31C682,122.31,706.57,163.9,706.57,192.63z"/>
				<path style="opacity:0.5;fill:#FFFFFF;" d="M706.57,192.63c0,28.73-24.58,52.01-54.89,52.01c-30.32,0-54.89-23.29-54.89-52.01
					s24.58-70.31,54.89-70.31C682,122.31,706.57,163.9,706.57,192.63z"/>
			</g>
			<polygon style="fill:#787878;" points="657.13,294.71 656.26,236.48 672.88,211.42 656.28,229.91 656.28,210.66 665.33,181.22 
				655.52,204.62 654.73,158.29 652.88,208.02 652.5,214.81 626.08,190.28 651.37,220.1 651.75,229.91 640.8,220.85 629.86,204.25 
				637.58,219.82 620.42,218.96 638.92,221.79 650.99,233.48 650.24,294.69 			"/>
		</g>
	</g>
	<path style="fill:#A1A1A1;" d="M723.48,294.7c0,0-3.74-1.19-5.14-1.98c-1.4-0.79-4.21,0-7.48,0c-3.27,0-9.82-12.67-24.31-10.3
		c-14.5,2.38-16.83,9.5-18.7,6.34c-1.87-3.17-6.08-6.73-17.82-7.18s-10.23,7.97-16.78,9.16c-6.55,1.19-4.21-1.58-10.75-5.54
		c-6.55-3.96-16.83,1.98-21.98-0.4c-5.14-2.38-7.01-10.3-20.57-9.9c-13.56,0.4-18.7,13.86-18.7,13.86s-7.01-0.79-10.29-3.17
		c-3.27-2.38-11.22,2.38-15.9,4.75c-4.68,2.38-7.48,0-15.9-2.38c-8.42-2.38-4.21,1.58-10.75,1.98c-6.55,0.4-4.68-3.17-14.96-7.52
		c-10.29-4.36-15.43,1.58-21.98,5.15c-6.55,3.56-9.82-6.73-20.57-8.71c-10.75-1.98-11.69,9.11-23.38,10.3s-13.56-13.46-24.78-12.28
		c-11.22,1.19-10.29,8.71-14.03,11.48c-3.74,2.77-10.75-1.98-16.37-1.19c-0.32,0.05-0.64,0.12-0.96,0.21
		c-3.93-3.13-9.44-6.24-17.27-4.96c-14.5,2.38-16.83,9.5-18.7,6.34c-1.87-3.17-6.08-6.73-17.82-7.18
		c-11.75-0.45-10.23,7.97-16.78,9.16c-6.55,1.19-4.21-1.58-10.75-5.54c-6.55-3.96-16.83,1.98-21.98-0.4
		c-5.14-2.38-7.01-10.3-20.57-9.9c-13.56,0.4-18.7,13.86-18.7,13.86s-5.6-2.33-10.29-3.17c-3.98-0.71-11.22,2.38-15.9,4.75
		c-4.68,2.38-3.32-1.53-11.74-3.91c-8.42-2.38-8.37,3.12-14.91,3.51c-6.55,0.4-4.68-3.17-14.96-7.52
		c-10.29-4.36-15.43,1.58-21.98,5.15c-6.55,3.56-9.82-6.73-20.57-8.71c-10.75-1.98-11.69,9.11-23.38,10.3s-13.56-13.46-24.78-12.28
		c-11.22,1.19-10.29,8.71-14.03,11.48c-3.74,2.77-10.75-1.98-16.37-1.19c-5.61,0.79-10.75,8.32-10.75,8.32l332.99-0.73
		c-0.34,0.45-0.53,0.73-0.53,0.73L723.48,294.7z"/>
	<g>
		<g>
			<g>
				
					<line style="fill:none;stroke:#263238;stroke-linecap:round;stroke-linejoin:round;stroke-miterlimit:10;" x1="85.98" y1="303.85" x2="177.9" y2="303.85"/>
				
					<line style="fill:none;stroke:#263238;stroke-linecap:round;stroke-linejoin:round;stroke-miterlimit:10;" x1="156.01" y1="308.95" x2="184.46" y2="308.95"/>
				
					<line style="fill:none;stroke:#263238;stroke-linecap:round;stroke-linejoin:round;stroke-miterlimit:10;" x1="136.32" y1="317.71" x2="49.5" y2="317.71"/>
				
					<line style="fill:none;stroke:#263238;stroke-linecap:round;stroke-linejoin:round;stroke-miterlimit:10;" x1="85.98" y1="310.41" x2="109.32" y2="310.41"/>
				
					<line style="fill:none;stroke:#263238;stroke-linecap:round;stroke-linejoin:round;stroke-miterlimit:10;" x1="124.64" y1="326.46" x2="155.28" y2="326.46"/>
				
					<line style="fill:none;stroke:#263238;stroke-linecap:round;stroke-linejoin:round;stroke-miterlimit:10;" x1="103.49" y1="326.46" x2="79.41" y2="326.46"/>
				
					<line style="fill:none;stroke:#263238;stroke-linecap:round;stroke-linejoin:round;stroke-miterlimit:10;" x1="74.31" y1="301.66" x2="61.18" y2="301.66"/>
				
					<line style="fill:none;stroke:#263238;stroke-linecap:round;stroke-linejoin:round;stroke-miterlimit:10;" x1="206.35" y1="303.12" x2="231.15" y2="303.12"/>
				
					<line style="fill:none;stroke:#263238;stroke-linecap:round;stroke-linejoin:round;stroke-miterlimit:10;" x1="228.23" y1="311.87" x2="201.97" y2="311.87"/>
			</g>
			<g>
				
					<line style="fill:none;stroke:#263238;stroke-linecap:round;stroke-linejoin:round;stroke-miterlimit:10;" x1="288.78" y1="303.85" x2="380.7" y2="303.85"/>
				
					<line style="fill:none;stroke:#263238;stroke-linecap:round;stroke-linejoin:round;stroke-miterlimit:10;" x1="358.81" y1="308.95" x2="387.26" y2="308.95"/>
				
					<line style="fill:none;stroke:#263238;stroke-linecap:round;stroke-linejoin:round;stroke-miterlimit:10;" x1="339.12" y1="317.71" x2="252.31" y2="317.71"/>
				
					<line style="fill:none;stroke:#263238;stroke-linecap:round;stroke-linejoin:round;stroke-miterlimit:10;" x1="288.78" y1="310.41" x2="312.13" y2="310.41"/>
				
					<line style="fill:none;stroke:#263238;stroke-linecap:round;stroke-linejoin:round;stroke-miterlimit:10;" x1="327.45" y1="326.46" x2="358.08" y2="326.46"/>
				
					<line style="fill:none;stroke:#263238;stroke-linecap:round;stroke-linejoin:round;stroke-miterlimit:10;" x1="306.29" y1="326.46" x2="282.22" y2="326.46"/>
				
					<line style="fill:none;stroke:#263238;stroke-linecap:round;stroke-linejoin:round;stroke-miterlimit:10;" x1="277.11" y1="301.66" x2="263.98" y2="301.66"/>
				
					<line style="fill:none;stroke:#263238;stroke-linecap:round;stroke-linejoin:round;stroke-miterlimit:10;" x1="409.15" y1="303.12" x2="433.95" y2="303.12"/>
				
					<line style="fill:none;stroke:#263238;stroke-linecap:round;stroke-linejoin:round;stroke-miterlimit:10;" x1="431.03" y1="311.87" x2="404.77" y2="311.87"/>
			</g>
			<g>
				
					<line style="fill:none;stroke:#263238;stroke-linecap:round;stroke-linejoin:round;stroke-miterlimit:10;" x1="491.58" y1="303.85" x2="583.5" y2="303.85"/>
				
					<line style="fill:none;stroke:#263238;stroke-linecap:round;stroke-linejoin:round;stroke-miterlimit:10;" x1="561.62" y1="308.95" x2="590.07" y2="308.95"/>
				
					<line style="fill:none;stroke:#263238;stroke-linecap:round;stroke-linejoin:round;stroke-miterlimit:10;" x1="541.92" y1="317.71" x2="455.11" y2="317.71"/>
				
					<line style="fill:none;stroke:#263238;stroke-linecap:round;stroke-linejoin:round;stroke-miterlimit:10;" x1="491.58" y1="310.41" x2="514.93" y2="310.41"/>
				
					<line style="fill:none;stroke:#263238;stroke-linecap:round;stroke-linejoin:round;stroke-miterlimit:10;" x1="530.25" y1="326.46" x2="560.89" y2="326.46"/>
				
					<line style="fill:none;stroke:#263238;stroke-linecap:round;stroke-linejoin:round;stroke-miterlimit:10;" x1="509.09" y1="326.46" x2="485.02" y2="326.46"/>
				
					<line style="fill:none;stroke:#263238;stroke-linecap:round;stroke-linejoin:round;stroke-miterlimit:10;" x1="479.91" y1="301.66" x2="466.78" y2="301.66"/>
				
					<line style="fill:none;stroke:#263238;stroke-linecap:round;stroke-linejoin:round;stroke-miterlimit:10;" x1="611.95" y1="303.12" x2="636.75" y2="303.12"/>
				
					<line style="fill:none;stroke:#263238;stroke-linecap:round;stroke-linejoin:round;stroke-miterlimit:10;" x1="633.84" y1="311.87" x2="607.57" y2="311.87"/>
			</g>
			<g>
				
					<line style="fill:none;stroke:#263238;stroke-linecap:round;stroke-linejoin:round;stroke-miterlimit:10;" x1="668.85" y1="317.71" x2="591.53" y2="317.71"/>
				
					<line style="fill:none;stroke:#263238;stroke-linecap:round;stroke-linejoin:round;stroke-miterlimit:10;" x1="694.39" y1="310.41" x2="717.73" y2="310.41"/>
				
					<line style="fill:none;stroke:#263238;stroke-linecap:round;stroke-linejoin:round;stroke-miterlimit:10;" x1="642.59" y1="326.46" x2="673.23" y2="326.46"/>
				
					<line style="fill:none;stroke:#263238;stroke-linecap:round;stroke-linejoin:round;stroke-miterlimit:10;" x1="711.89" y1="326.46" x2="687.82" y2="326.46"/>
				
					<line style="fill:none;stroke:#263238;stroke-linecap:round;stroke-linejoin:round;stroke-miterlimit:10;" x1="682.71" y1="301.66" x2="669.58" y2="301.66"/>
			</g>
		</g>
		<g>
			<g>
				
					<line style="fill:none;stroke:#263238;stroke-linecap:round;stroke-linejoin:round;stroke-miterlimit:10;" x1="85.98" y1="387.07" x2="177.9" y2="387.07"/>
				
					<line style="fill:none;stroke:#263238;stroke-linecap:round;stroke-linejoin:round;stroke-miterlimit:10;" x1="156.01" y1="397.44" x2="184.46" y2="397.44"/>
				
					<line style="fill:none;stroke:#263238;stroke-linecap:round;stroke-linejoin:round;stroke-miterlimit:10;" x1="136.32" y1="415.2" x2="49.5" y2="415.2"/>
				
					<line style="fill:none;stroke:#263238;stroke-linecap:round;stroke-linejoin:round;stroke-miterlimit:10;" x1="85.98" y1="400.4" x2="109.32" y2="400.4"/>
				
					<line style="fill:none;stroke:#263238;stroke-linecap:round;stroke-linejoin:round;stroke-miterlimit:10;" x1="124.64" y1="432.97" x2="155.28" y2="432.97"/>
				
					<line style="fill:none;stroke:#263238;stroke-linecap:round;stroke-linejoin:round;stroke-miterlimit:10;" x1="103.49" y1="432.97" x2="79.41" y2="432.97"/>
				
					<line style="fill:none;stroke:#263238;stroke-linecap:round;stroke-linejoin:round;stroke-miterlimit:10;" x1="74.31" y1="382.63" x2="61.18" y2="382.63"/>
				
					<line style="fill:none;stroke:#263238;stroke-linecap:round;stroke-linejoin:round;stroke-miterlimit:10;" x1="206.35" y1="385.59" x2="231.15" y2="385.59"/>
				
					<line style="fill:none;stroke:#263238;stroke-linecap:round;stroke-linejoin:round;stroke-miterlimit:10;" x1="228.23" y1="403.36" x2="201.97" y2="403.36"/>
			</g>
			<g>
				
					<line style="fill:none;stroke:#263238;stroke-linecap:round;stroke-linejoin:round;stroke-miterlimit:10;" x1="288.78" y1="387.07" x2="380.7" y2="387.07"/>
				
					<line style="fill:none;stroke:#263238;stroke-linecap:round;stroke-linejoin:round;stroke-miterlimit:10;" x1="358.81" y1="397.44" x2="387.26" y2="397.44"/>
				
					<line style="fill:none;stroke:#263238;stroke-linecap:round;stroke-linejoin:round;stroke-miterlimit:10;" x1="339.12" y1="415.2" x2="252.31" y2="415.2"/>
				
					<line style="fill:none;stroke:#263238;stroke-linecap:round;stroke-linejoin:round;stroke-miterlimit:10;" x1="288.78" y1="400.4" x2="312.13" y2="400.4"/>
				
					<line style="fill:none;stroke:#263238;stroke-linecap:round;stroke-linejoin:round;stroke-miterlimit:10;" x1="327.45" y1="432.97" x2="358.08" y2="432.97"/>
				
					<line style="fill:none;stroke:#263238;stroke-linecap:round;stroke-linejoin:round;stroke-miterlimit:10;" x1="306.29" y1="432.97" x2="282.22" y2="432.97"/>
				
					<line style="fill:none;stroke:#263238;stroke-linecap:round;stroke-linejoin:round;stroke-miterlimit:10;" x1="277.11" y1="382.63" x2="263.98" y2="382.63"/>
				
					<line style="fill:none;stroke:#263238;stroke-linecap:round;stroke-linejoin:round;stroke-miterlimit:10;" x1="409.15" y1="385.59" x2="433.95" y2="385.59"/>
				
					<line style="fill:none;stroke:#263238;stroke-linecap:round;stroke-linejoin:round;stroke-miterlimit:10;" x1="431.03" y1="403.36" x2="404.77" y2="403.36"/>
			</g>
			<g>
				
					<line style="fill:none;stroke:#263238;stroke-linecap:round;stroke-linejoin:round;stroke-miterlimit:10;" x1="491.58" y1="387.07" x2="583.5" y2="387.07"/>
				
					<line style="fill:none;stroke:#263238;stroke-linecap:round;stroke-linejoin:round;stroke-miterlimit:10;" x1="561.62" y1="397.44" x2="590.07" y2="397.44"/>
				
					<line style="fill:none;stroke:#263238;stroke-linecap:round;stroke-linejoin:round;stroke-miterlimit:10;" x1="541.92" y1="415.2" x2="455.11" y2="415.2"/>
				
					<line style="fill:none;stroke:#263238;stroke-linecap:round;stroke-linejoin:round;stroke-miterlimit:10;" x1="491.58" y1="400.4" x2="514.93" y2="400.4"/>
				
					<line style="fill:none;stroke:#263238;stroke-linecap:round;stroke-linejoin:round;stroke-miterlimit:10;" x1="530.25" y1="432.97" x2="560.89" y2="432.97"/>
				
					<line style="fill:none;stroke:#263238;stroke-linecap:round;stroke-linejoin:round;stroke-miterlimit:10;" x1="509.09" y1="432.97" x2="485.02" y2="432.97"/>
				
					<line style="fill:none;stroke:#263238;stroke-linecap:round;stroke-linejoin:round;stroke-miterlimit:10;" x1="479.91" y1="382.63" x2="466.78" y2="382.63"/>
				
					<line style="fill:none;stroke:#263238;stroke-linecap:round;stroke-linejoin:round;stroke-miterlimit:10;" x1="611.95" y1="385.59" x2="636.75" y2="385.59"/>
				
					<line style="fill:none;stroke:#263238;stroke-linecap:round;stroke-linejoin:round;stroke-miterlimit:10;" x1="633.84" y1="403.36" x2="607.57" y2="403.36"/>
			</g>
			<g>
				
					<line style="fill:none;stroke:#263238;stroke-linecap:round;stroke-linejoin:round;stroke-miterlimit:10;" x1="668.85" y1="415.2" x2="591.53" y2="415.2"/>
				
					<line style="fill:none;stroke:#263238;stroke-linecap:round;stroke-linejoin:round;stroke-miterlimit:10;" x1="694.39" y1="400.4" x2="717.73" y2="400.4"/>
				
					<line style="fill:none;stroke:#263238;stroke-linecap:round;stroke-linejoin:round;stroke-miterlimit:10;" x1="642.59" y1="432.97" x2="673.23" y2="432.97"/>
				
					<line style="fill:none;stroke:#263238;stroke-linecap:round;stroke-linejoin:round;stroke-miterlimit:10;" x1="711.89" y1="432.97" x2="687.82" y2="432.97"/>
				
					<line style="fill:none;stroke:#263238;stroke-linecap:round;stroke-linejoin:round;stroke-miterlimit:10;" x1="682.71" y1="382.63" x2="669.58" y2="382.63"/>
			</g>
		</g>
		
			<line style="fill:none;stroke:#263238;stroke-linecap:round;stroke-linejoin:round;stroke-miterlimit:10;" x1="15.95" y1="295.23" x2="732.32" y2="295.23"/>
	</g>
	<g>
		<g>
			<path style="fill:#FFFFFF;stroke:#263238;stroke-linecap:round;stroke-linejoin:round;stroke-miterlimit:10;" d="M283.42,266.13
				c0.19-0.09,0.39-0.14,0.6-0.16c1.59-0.15,8.87-0.71,13.81,1.03c4.93,1.74,9.1,3.05,10,3.32c0.12,0.04,0.24,0.06,0.37,0.07
				l14.49,1.3c0.26,0.02,0.52-0.01,0.77-0.1c1.52-0.55,7.35-2.6,10.8-3.18c3.99-0.67,21.99,3.1,26.57,3.37
				c4.58,0.27,4.19,0.09,7.25,0.4l2.78,0.28c0.18,0.02,0.36,0.01,0.54-0.03c1.37-0.28,7.57-1.55,9.59-2.28
				c1.33-0.48,2.93-0.31,4.03-0.09c0.78,0.16,1.35,0.8,1.43,1.59c0.18,1.7,0.51,4.61,0.8,5.4c0.41,1.13-0.34,1.53-2.79,2.92
				c-0.2,0.12-0.41,0.23-0.61,0.33c-0.86,0.44-1.13,1.42-0.86,2.34c0,0.01,0.01,0.02,0.01,0.03c0.21,0.95-0.34,1.53-1.1,1.74
				c-0.76,0.21-4.19-0.09-6.29-0.04c-2.1,0.05-5.62-4.06-6.61-5.56c-0.99-1.5-13.27,1.51-13.27,1.51l-9.89,2.28
				c0,0-9.85,2.52-15.97,1.52c-5.39-0.88-8.85-1.51-9.6-1.65c-0.11-0.02-0.21-0.03-0.32-0.03l-21.19-0.06
				c-0.12,0-0.24-0.01-0.35-0.04l-16.97-3.41c-0.46-0.09-0.86-0.36-1.13-0.74C278.91,276.26,275.25,269.87,283.42,266.13z"/>
			<g>
				<path style="fill:none;stroke:#263238;stroke-linecap:round;stroke-linejoin:round;stroke-miterlimit:10;" d="M382.34,271.79
					c0,0,2.32,5.43,2.22,6.82c-0.1,1.39-0.1,1.39-0.1,1.39"/>
				
					<line style="fill:none;stroke:#263238;stroke-linecap:round;stroke-linejoin:round;stroke-miterlimit:10;" x1="385.03" y1="270.09" x2="386.95" y2="276.07"/>
				
					<line style="fill:none;stroke:#263238;stroke-linecap:round;stroke-linejoin:round;stroke-miterlimit:10;" x1="382.82" y1="280.52" x2="380.3" y2="281.33"/>
			</g>
			<g>
				<path style="fill:#737373;stroke:#263238;stroke-linecap:round;stroke-linejoin:round;stroke-miterlimit:10;" d="M370.26,289.15
					c-0.62,0-1.22-0.29-1.6-0.84c-0.6-0.88-0.38-2.09,0.5-2.69l8.95-7.49c0.88-0.6,2.09-0.38,2.69,0.5c0.6,0.88,0.38,2.09-0.5,2.69
					l-8.95,7.49C371.01,289.04,370.63,289.15,370.26,289.15z"/>
			</g>
			<g>
				<path style="fill:#FFFFFF;stroke:#263238;stroke-linecap:round;stroke-linejoin:round;stroke-miterlimit:10;" d="M297.06,231.8
					c0,0,1.04,5.21,0.69,6.6c-0.35,1.39-0.52,3.48-0.52,3.48s5.73,4.52,5.04,5.91c-0.69,1.39-3.82,2.61-3.82,2.61
					s0.46,2.08,0.63,2.6c0.17,0.52-0.35,2.43-0.35,2.43s1.8,3.48,1.45,5.04c-0.35,1.56-1.91,2.09-3.65,2.78
					c-1.74,0.69-4.87,0.52-6.26,0.17c-1.39-0.35-1.39-0.35-1.39-0.35l-1.39,10.6l-23.8-3.82c0,0,3.48-6.95,3.65-7.99
					c0.17-1.04,0-14.6,0-14.6s-3.82-0.52-6.26-6.43c-2.43-5.91-1.91-8.51,0-10.77c1.91-2.26,2.95-0.7,4-4
					c1.04-3.3,1.39-5.73,4.87-5.73s4.17,2.43,6.26,1.04c2.09-1.39,1.91-4.52,5.73-4c3.82,0.52,4.17,2.95,5.56,2.26
					c1.39-0.7,1.04-2.09,3.3-2.43c2.26-0.35,4.52,2.26,5.04,2.95c0.52,0.69,1.56-1.56,3.3,0c1.74,1.56,1.91,3.82,1.91,5.04
					c0,1.22,1.91-1.39,2.43,2.95C304.01,232.5,297.06,231.8,297.06,231.8z"/>
				
					<line style="fill:none;stroke:#263238;stroke-linecap:round;stroke-linejoin:round;stroke-miterlimit:10;" x1="282.97" y1="268.83" x2="277.38" y2="260.9"/>
				<path style="fill:none;stroke:#263238;stroke-linecap:round;stroke-linejoin:round;stroke-miterlimit:10;" d="M296.48,240.63
					c0,0-1.17-4.43-4.89-0.7"/>
				<path style="fill:#263238;stroke:#263238;stroke-linecap:round;stroke-linejoin:round;stroke-miterlimit:10;" d="M296.54,263.25
					c1.74-0.7,3.3-1.22,3.65-2.78c0.35-1.56-1.45-5.04-1.45-5.04s-0.32-4.9-0.29-5.04c-0.63,0-3.58,2.96-4.24,3.49
					c-1.74,1.39,0.76,4.85-3.75,2.94c-4.52-1.91-9.38-2.61-10.6-8.69c-1.22-6.08-1.56-7.12,0.17-9.73c1.74-2.61,4.17-1.56,5.04-3.13
					s-0.87-2.26,1.39-4c2.26-1.74,10.6,0.52,10.6,0.52s6.95,0.69,6.43-3.65c-0.52-4.34-2.43-1.74-2.43-2.95
					c0-1.22-0.17-3.48-1.91-5.04c-1.74-1.56-2.78,0.7-3.3,0c-0.52-0.7-2.78-3.3-5.04-2.95c-2.26,0.35-1.91,1.74-3.3,2.43
					c-1.39,0.7-1.74-1.74-5.56-2.26c-3.82-0.52-3.65,2.61-5.73,4c-2.08,1.39-2.78-1.04-6.26-1.04s-3.82,2.43-4.87,5.73
					c-1.04,3.3-2.09,1.74-4,4c-1.91,2.26-2.43,4.87,0,10.77c2.43,5.91,6.26,6.43,6.26,6.43s0.06,4.67,0.07,8.74
					c0.82,0.12,1.55,0.18,2.01,0.12c1.56-0.17,5.21-3.3,4.69-3.48c-0.52-0.17-4.69-3.48-3.65-7.65c1.04-4.17,3.48-3.48,4.52-0.52
					c1.04,2.95,2.09,11.12,4.34,14.94c2.26,3.82,9.56,3.65,9.56,3.65s0,0,1.39,0.35C291.67,263.77,294.8,263.95,296.54,263.25z"/>
				<path style="fill:#263238;" d="M295.15,242.75c0,1.06-0.39,1.91-0.87,1.91c-0.48,0-0.87-0.86-0.87-1.91s0.39-1.91,0.87-1.91
					C294.76,240.84,295.15,241.69,295.15,242.75z"/>
			</g>
			<path style="fill:#FFFFFF;stroke:#263238;stroke-linecap:round;stroke-linejoin:round;stroke-miterlimit:10;" d="M292.89,274.89
				c0,0-11.29-8.86-21.02-8.86c-9.73,0-15.12,5.91-18.59,12.51c-3.48,6.6-9.38,20.5-9.56,42.4c-0.17,21.89,9.13,36.59,13.21,39.09
				c4.28,2.64,15.64,5.39,26.24,2.08c10.23-3.19,17.9-7.99,22.76-13.03c7.34-7.6,20.28-20.47,20.28-20.47s2.79,7.47,6.11,10.63
				c3.32,3.16,10.49,8.34,10.49,8.34s17.02,16.09,17.56,17.24s0.47,2.92,4.07,3.39c3.6,0.48,8.02-3.75,9.2-5.18
				c1.18-1.42,5.11-4.34,7.82-8.3s3.95-7.15,2.99-8.75c-0.96-1.6-3.51,0.04-5.55,1.6c-2.04,1.56-9.05,4.98-11.14,5.14
				c-2.09,0.16-3.91-0.25-3.91-0.25s-5.83-5.57-9.08-11.56c-3.25-5.99-10.53-17.31-13.13-22.53c-2.6-5.21-5.71-10.34-8.96-11.93
				c-3.25-1.59-6.71-1.21-9.29,0.26c-2.58,1.47-26.49,12.13-31.36,15.08c-4.87,2.95-5.73,3.65-5.73,3.65s1.04-1.04,0-3.3
				c-1.04-2.26,0-5.04,0-5.04s5.73-8.86,7.99-14.07c2.26-5.21,2.78-10.43,2.78-10.43s16.33-0.35,20.5,1.04
				c4.17,1.39,10.6,1.22,15.64-0.52c5.04-1.74,22.41-3.48,22.41-3.48s1.56,2.61,3.48,3.3c1.91,0.69,4,0.35,4.87,0.52
				c0.87,0.17,0.87,0.17,0.87,0.17l0.17,1.91c2.08,0.87,1.39,1.39,3.13,0c1.74-1.39,2.78-2.43,4.17-3.13
				c1.39-0.7,2.26-2.26,2.08-3.3c-0.17-1.04,0.17-4.69-0.87-5.39c-1.04-0.7-15.64-1.39-15.64-1.39s-24.5-4.87-29.02-4.87
				c-4.52,0-11.29,1.56-11.29,1.56L292.89,274.89z"/>
			<g>
				<path style="fill:none;stroke:#263238;stroke-linecap:round;stroke-linejoin:round;stroke-miterlimit:10;" d="M367.43,287.02
					c0,0,0.95,3.65,0.95,4.6s0.92,3.13-0.25,3.94"/>
				<path style="fill:none;stroke:#263238;stroke-linecap:round;stroke-linejoin:round;stroke-miterlimit:10;" d="M369.16,285.62
					c0,0,1.01,2.33,2.07,4.58c1.06,2.25,0,2.7,0,2.7"/>
				<path style="fill:none;stroke:#263238;stroke-linecap:round;stroke-linejoin:round;stroke-miterlimit:10;" d="M372.35,284.48
					c0,0,2.22,4.6,1.59,6.51"/>
			</g>
			<path style="fill:none;stroke:#263238;stroke-linecap:round;stroke-linejoin:round;stroke-miterlimit:10;" d="M281.34,286.77
				c0,0,6.99-4.89,9.79-7.46"/>
			<path style="fill:none;stroke:#263238;stroke-linecap:round;stroke-linejoin:round;stroke-miterlimit:10;" d="M312.33,288.17
				c0,0,2.8,1.17,5.13,1.17c2.33,0,10.02-3.73,10.02-3.73"/>
			<path style="fill:none;stroke:#263238;stroke-linecap:round;stroke-linejoin:round;stroke-miterlimit:10;" d="M271.52,291.57
				l8.86-2.61c0,0,7.3,3.48,10.6,3.48s6.08,0.17,6.08,0.17"/>
			<path style="fill:#7444E4;stroke:#263238;stroke-linecap:round;stroke-linejoin:round;stroke-miterlimit:10;" d="M305.92,349.09
				c3.03-3.13,6.81-7.23,10.21-10.96c-4.6-11.87-8.41-19.05-10.72-22.9c-5.97,2.76-11.41,5.38-13.38,6.58
				c-4.87,2.95-5.73,3.65-5.73,3.65s1.04-1.04,0-3.3c-1.04-2.26,0-5.04,0-5.04s5.73-8.86,7.99-14.07c2.01-4.64,2.64-9.28,2.76-10.24
				l-6.06-0.36l-4.34-0.52c0,0-2.08,5.21-9.56,9.9c-7.47,4.69-23.28-4.52-21.72-18.94c0.64-5.89,1.94-9.48,3.26-11.68
				c-2.2,2.1-3.94,4.66-5.35,7.34c-3.48,6.6-9.38,20.5-9.56,42.4c-0.17,21.89,9.14,36.59,13.21,39.09
				c4.28,2.64,15.64,5.39,26.24,2.08C293.39,358.93,301.06,354.13,305.92,349.09z"/>
			<g>
				<path style="fill:none;stroke:#263238;stroke-linecap:round;stroke-linejoin:round;stroke-miterlimit:10;" d="M286.29,325.46
					c0,0,0.22-0.24,0.36-0.7L286.29,325.46z"/>
				<path style="fill:#263238;stroke:#263238;stroke-linecap:round;stroke-linejoin:round;stroke-miterlimit:10;" d="M316.13,338.13
					c-4.6-11.87-8.41-19.05-10.72-22.9c-5.97,2.76-11.41,5.38-13.38,6.58c-4.87,2.95-5.73,3.65-5.73,3.65s-10.08,1.91-20.5,6.43
					c-10.38,4.5-14.21,4.52-18.19,12.93c3,8.41,7.01,13.8,9.33,15.22c4.28,2.64,15.64,5.39,26.24,2.08
					c10.23-3.19,17.9-7.99,22.76-13.03C308.95,345.95,312.73,341.86,316.13,338.13z"/>
			</g>
			<path style="fill:#FFFFFF;stroke:#263238;stroke-linecap:round;stroke-linejoin:round;stroke-miterlimit:10;" d="M257.44,333.28
				c-0.52,1.74-0.7,2.78-0.7,2.78l6.78-2.78c0,0-1.22-2.43-1.04-3.65c0.17-1.22,1.56-3.65,1.56-3.65s-1.39,0.35-1.56-0.7
				c-0.17-1.04,2.08-1.91,2.95-4.17c0.87-2.26,0-1.04-0.87-2.26s-0.17-1.04,0.7-6.78c0.52-3.44,0.79-7.68,0.92-10.54
				c-1.91-0.9-3.75-2.17-5.37-3.76c-0.17,4.14-0.45,12.41-0.07,14.47c0.52,2.78,0.52,6.08-0.52,6.6c-1.04,0.52-2.78,1.39-2.43,2.61
				s2.43,2.78,2.43,2.78s-4.87,3.48-3.82,4.69c1.04,1.22,2.26,0.87,2.26,0.87s-0.52,2.08-0.87,2.78
				C257.44,333.28,257.97,331.54,257.44,333.28z"/>
		</g>
		<g>
			<g>
				<path style="fill:#B0B0B0;stroke:#263238;stroke-linecap:round;stroke-linejoin:round;stroke-miterlimit:10;" d="M437.13,265.33
					c0,0,9.42-2.9,16.88-1.66c7.46,1.24,11.4,5.8,11.4,5.8l21.55,2.28c0,0,13.47-2.69,16.58-2.69c3.11,0,13.26,2.49,18.86,4.15
					c5.6,1.66,14.09,2.9,15.34,2.9c1.24,0,6.84-1.04,8.08-1.24c1.24-0.21,4.15,3.11,4.97,4.35c0.83,1.24,1.04,1.24,0.21,3.11
					c-0.83,1.87-1.66,1.87-2.28,3.11c-0.62,1.24-1.45,2.49-3.52,2.9c-2.07,0.41-1.66-0.21-3.94-1.45
					c-2.28-1.24-31.5-4.97-35.03-5.18c-3.52-0.21-16.58,0-33.99,2.28c-17.41,2.28-34.61-2.49-34.61-2.49s0-3.52-7.67-8.5
					C422.31,268.02,437.13,265.33,437.13,265.33z"/>
				<g>
					<path style="fill:none;stroke:#263238;stroke-linecap:round;stroke-linejoin:round;stroke-miterlimit:10;" d="M544.24,279.05
						c0,0,3.14,5.96,3.29,6.43c0.16,0.47-0.31,1.88-0.31,1.88"/>
					<path style="fill:none;stroke:#263238;stroke-linecap:round;stroke-linejoin:round;stroke-miterlimit:10;" d="M545.5,276.7
						c0,0,3.45,5.18,3.45,5.96c0,0.78-0.22,2.77-0.22,2.77"/>
					<path style="fill:none;stroke:#263238;stroke-linecap:round;stroke-linejoin:round;stroke-miterlimit:10;" d="M548.64,276.7
						c0,0,1.25,3.29,1.41,4.08c0.16,0.78,0,3.14,0,3.14"/>
				</g>
			</g>
			<g>
				<path style="fill:#B0B0B0;stroke:#263238;stroke-linecap:round;stroke-linejoin:round;stroke-miterlimit:10;" d="M425.02,257.54
					c0,0,3.84-6.77,3.84-8.12c0-1.35-3.38-11.06-3.84-14.67c-0.45-3.61,4.29-11.96,7.45-13.99c3.16-2.03,13.31-2.03,17.6-0.45
					c4.29,1.58,7.9,6.77,9.48,11.28c1.58,4.51-0.23,9.25-0.23,9.25s4.96,5.19,4.51,6.32c-0.45,1.13-3.38,2.26-3.38,2.26
					s-2.26,8.8-3.16,11.06s-3.38,3.16-5.64,2.48c-2.26-0.68-5.64-1.81-5.64-1.81s-2.03,4.51-2.48,5.87s-0.68,2.26-0.68,2.26
					l-27.98-0.9L425.02,257.54z"/>
				<polygon style="fill:#263238;stroke:#263238;stroke-linecap:round;stroke-linejoin:round;stroke-miterlimit:10;" points="
					446.01,261.15 441.65,257.88 440.95,265.33 443.53,267.01 				"/>
				<path style="fill:none;stroke:#263238;stroke-linecap:round;stroke-linejoin:round;stroke-miterlimit:10;" d="M441.04,244.22
					c0,0-4.06-5.19-6.32-0.68s0.23,5.87,1.81,7c1.58,1.13,5.42,0.23,5.42,0.23s-1.58,3.38-0.68,4.06"/>
				<path style="fill:none;stroke:#263238;stroke-linecap:round;stroke-linejoin:round;stroke-miterlimit:10;" d="M452.69,236.67
					c0,0,4.08-0.35,5.86,1.78"/>
				<path style="fill:#263238;" d="M457.13,241.91c0,1.03-0.4,1.86-0.89,1.86c-0.49,0-0.89-0.83-0.89-1.86
					c0-1.03,0.4-1.86,0.89-1.86C456.73,240.04,457.13,240.88,457.13,241.91z"/>
			</g>
			<path style="fill:#B0B0B0;stroke:#263238;stroke-linecap:round;stroke-linejoin:round;stroke-miterlimit:10;" d="M459.62,274.45
				c0,0-12.16-8.21-22.49-9.12c-10.33-0.91-18.27-1.73-28.3,8.91c-10.03,10.64-16.08,19.05-15.47,40.93
				c0.61,21.88,11.55,31,19.76,36.17c8.21,5.17,14.89,7.6,28.57,3.04s27.96-11.85,33.43-18.54s8.62-10.56,8.62-10.56
				s0.27,10.37,8.02,18.16c7.74,7.79,11.93,8.96,17.83,12.06c5.9,3.1,15.94,13.16,17.7,14.18c1.76,1.02,4.72-2.45,8.03-6.81
				c3.31-4.36,8.39-12.58,9.5-15.86c1.12-3.28-0.99-3.72-3.17-2.94c-2.18,0.78-12.07,8.09-14.27,9.17c-2.2,1.08-2.2,1.08-2.2,1.08
				s-12.89-13.28-16.17-19.27c-3.29-5.99-14.38-28.6-17.58-30.93c-3.21-2.33-15.58,0.93-21.05,3.06
				c-5.47,2.13-15.02,2.21-31.13,13.45c0,0-0.61-3.65,2.74-9.12c3.34-5.47,8.81-19.15,8.81-19.15s13.98,0.3,19.15-0.91
				c5.17-1.22,8.21-2.74,8.21-2.74s9.73,0.61,16.41,0.61c6.69,0,24.92-2.13,24.92-2.13l2.13,0.91c0,0,3.95,3.95,5.77,4.86
				c1.82,0.91,3.95-0.3,3.95-0.3s-1.22,3.34,1.52,3.65c2.74,0.3,4.56-2.43,5.77-3.04c1.22-0.61,3.95-0.61,3.95-3.04
				c0-2.43-0.91-6.38-1.82-6.99c-0.91-0.61-8.51-1.82-13.37-2.43s-25.53-6.38-31-6.08c-5.47,0.3-11.25,2.43-11.25,2.43
				L459.62,274.45z"/>
			<g>
				<path style="fill:none;stroke:#263238;stroke-linecap:round;stroke-linejoin:round;stroke-miterlimit:10;" d="M534.99,287.68
					c0,0,1.57,3.29,1.57,4.23c0,0.94-0.78,3.45-0.78,3.45"/>
				<path style="fill:none;stroke:#263238;stroke-linecap:round;stroke-linejoin:round;stroke-miterlimit:10;" d="M536.72,285.48
					c0,0,1.88,3.76,2.35,4.55c0.47,0.78-0.42,3.26-0.42,3.26"/>
				<path style="fill:none;stroke:#263238;stroke-linecap:round;stroke-linejoin:round;stroke-miterlimit:10;" d="M538.91,283.6
					c0,0,2.35,3.14,2.51,4.86c0.16,1.72-0.31,3.92-0.31,3.92"/>
			</g>
			<path style="fill:#7444E4;stroke:#263238;stroke-linecap:round;stroke-linejoin:round;stroke-miterlimit:10;" d="M456.71,329.58
				c-2.39-6.12-2.3-13.73-2.07-17.52c-4.3,1.77-9.39,4.41-15.38,8.59c0,0-0.61-3.65,2.74-9.12c3.34-5.47,8.81-19.15,8.81-19.15
				s-19.8,16.27-28.92,14.4c-9.12-1.87-18.45-16.37-8.7-29.64c5.23-7.12,10.69-10.59,14.63-12.29c-6.3,0.21-12.16,2.14-18.98,9.38
				c-10.03,10.64-16.08,19.05-15.47,40.93c0.61,21.88,11.55,31,19.76,36.17c8.21,5.17,14.89,7.6,28.57,3.04
				c8.93-2.98,18.11-7.12,24.93-11.5C463.09,339.44,458.6,334.41,456.71,329.58z"/>
			<path style="fill:#FFFFFF;stroke:#263238;stroke-linecap:round;stroke-linejoin:round;stroke-miterlimit:10;" d="M415.67,330.41
				l3.52-1.66l-0.83-2.07c0,0,2.69-1.66,1.66-3.52c-1.04-1.87-2.28-0.62-2.28-1.45c0-0.83,2.49-1.66,1.66-4.56
				c-0.83-2.9-2.07-2.28-1.66-5.39c0.23-1.72,0.96-4.07,1.58-5.83c-1.24-0.57-2.45-1.36-3.58-2.33c-1.31,3.91-3.47,10.6-3.18,11.47
				c0.41,1.24,2.07,2.28,1.87,3.94c-0.21,1.66-3.32,4.77-2.9,6.01c0.41,1.24,3.94,0.83,3.94,0.83s-1.24,1.87-1.66,2.9L415.67,330.41
				z"/>
			<path style="fill:none;stroke:#263238;stroke-linecap:round;stroke-linejoin:round;stroke-miterlimit:10;" d="M450.81,292.38
				l-11.72-1.97c0,0-10.98,6.43-17,8.29"/>
			<path style="fill:none;stroke:#263238;stroke-linecap:round;stroke-linejoin:round;stroke-miterlimit:10;" d="M442.62,286.26
				c0,0,9.33-2.69,13.26-8.08"/>
			<path style="fill:none;stroke:#263238;stroke-linecap:round;stroke-linejoin:round;stroke-miterlimit:10;" d="M489.04,282.94
				c0.62-0.21,3.32-0.41,7.25-2.49c3.94-2.07,9.12-2.49,9.12-2.49"/>
			<path style="fill:none;stroke:#263238;stroke-linecap:round;stroke-linejoin:round;stroke-miterlimit:10;" d="M486.76,283.77
				c0,0-6.01,2.9-7.67,2.9s-3.94-0.83-3.94-0.83"/>
			<path style="fill:#263238;stroke:#263238;stroke-linecap:round;stroke-linejoin:round;stroke-miterlimit:10;" d="M441.69,354.38
				c8.93-2.98,18.11-7.12,24.93-11.5c-3.53-3.44-8.03-8.47-9.91-13.3c-2.39-6.12-2.3-13.73-2.07-17.52
				c-4.3,1.77-9.39,4.41-15.38,8.59c0,0-3.48,1.89-5.55,2.3c-2.07,0.41-4.15,0.21-13.47,4.35c-9.22,4.1-13.77,8.2-15.48,17.5
				c2.78,2.79,5.72,4.88,8.37,6.55C421.33,356.51,428.01,358.94,441.69,354.38z"/>
		</g>
		<g>
			<path style="fill:#FFFFFF;stroke:#263238;stroke-linecap:round;stroke-linejoin:round;stroke-miterlimit:10;" d="M699.45,357.71
				L598,353.43l-9.47-7.07l-193.54-2.49h-47.04l-172.33,0.33l-12.94,6.98l-119.2,6.53c0,0-2.25,5.62,4.5,6.75
				c6.75,1.12,101.23,6.75,101.23,6.75l459.22,0.54c0,0,79.76-6.16,86.51-7.29C701.7,363.34,699.45,357.71,699.45,357.71z"/>
			<path style="fill:#263238;stroke:#263238;stroke-linecap:round;stroke-linejoin:round;stroke-miterlimit:10;" d="M175.62,344.2
				c0,0,22.5-14.43,25.87-14.99c3.37-0.56,18.56,14.62,18.56,14.62L175.62,344.2z"/>
		</g>
		<g>
			<g>
				<g>
					<path style="fill:#737373;stroke:#263238;stroke-linecap:round;stroke-linejoin:round;stroke-miterlimit:10;" d="
						M444.16,360.33c-0.58,0-1.16-0.26-1.54-0.76c-0.65-0.85-0.48-2.07,0.37-2.71l87.63-66.7c0.85-0.65,2.07-0.48,2.71,0.37
						c0.65,0.85,0.48,2.07-0.37,2.71l-87.62,66.7C444.98,360.2,444.57,360.33,444.16,360.33z"/>
				</g>
				<g>
					<polygon style="fill:none;stroke:#263238;stroke-linecap:round;stroke-linejoin:round;stroke-miterlimit:10;" points="
						464.88,348.07 552.76,345.57 556.67,345.93 459.19,352.69 					"/>
					<polygon style="fill:none;stroke:#263238;stroke-linecap:round;stroke-linejoin:round;stroke-miterlimit:10;" points="
						459.19,352.69 455.99,355.54 556.67,345.93 					"/>
				</g>
				<g>
					<path style="fill:#FFFFFF;stroke:#263238;stroke-linecap:round;stroke-linejoin:round;stroke-miterlimit:10;" d="
						M445.81,361.97c-1.46,0-2.9-0.66-3.85-1.91c-1.62-2.13-1.21-5.16,0.92-6.78l27.07-20.61c2.13-1.62,5.16-1.21,6.78,0.92
						c1.62,2.13,1.21,5.16-0.92,6.78l-27.07,20.61C447.87,361.65,446.83,361.97,445.81,361.97z"/>
				</g>
				<path style="fill:#263238;stroke:#263238;stroke-linecap:round;stroke-linejoin:round;stroke-miterlimit:10;" d="M454.57,344.86
					c0,0,5.69,2.85,4.62,7.83l5.69-4.62c0,0-1.07-4.62-6.05-7.12L454.57,344.86z"/>
			</g>
			<g>
				<path style="fill:#737373;stroke:#263238;stroke-linecap:round;stroke-linejoin:round;stroke-miterlimit:10;" d="M445.7,357.22
					c-0.65-0.85-1.86-1.02-2.71-0.37l-42.31,32.2h6.39l38.26-29.12C446.18,359.28,446.34,358.07,445.7,357.22z"/>
			</g>
		</g>
		<g>
			<g>
				<g>
					<path style="fill:#737373;stroke:#263238;stroke-linecap:round;stroke-linejoin:round;stroke-miterlimit:10;" d="
						M275.86,360.33c-0.58,0-1.16-0.26-1.54-0.76c-0.65-0.85-0.48-2.07,0.37-2.71l87.63-66.7c0.85-0.65,2.07-0.48,2.71,0.37
						c0.65,0.85,0.48,2.07-0.37,2.71l-87.62,66.7C276.68,360.2,276.27,360.33,275.86,360.33z"/>
				</g>
				<g>
					<polygon style="fill:none;stroke:#263238;stroke-linecap:round;stroke-linejoin:round;stroke-miterlimit:10;" points="
						296.96,348.07 383.41,343.8 391.95,343.8 291.27,352.69 					"/>
					<polygon style="fill:none;stroke:#263238;stroke-linecap:round;stroke-linejoin:round;stroke-miterlimit:10;" points="
						291.27,352.69 288.07,355.54 391.95,343.8 					"/>
				</g>
				<g>
					<path style="fill:#FFFFFF;stroke:#263238;stroke-linecap:round;stroke-linejoin:round;stroke-miterlimit:10;" d="
						M277.52,361.97c-1.46,0-2.9-0.66-3.85-1.91c-1.62-2.13-1.21-5.16,0.92-6.78l27.07-20.61c2.13-1.62,5.16-1.21,6.78,0.92
						c1.62,2.13,1.21,5.16-0.92,6.78l-27.07,20.61C279.57,361.65,278.54,361.97,277.52,361.97z"/>
				</g>
				<path style="fill:#263238;stroke:#263238;stroke-linecap:round;stroke-linejoin:round;stroke-miterlimit:10;" d="M286.64,344.86
					c0,0,5.69,2.85,4.62,7.83l5.69-4.62c0,0-1.07-4.62-6.05-7.12L286.64,344.86z"/>
			</g>
			<g>
				<path style="fill:#737373;stroke:#263238;stroke-linecap:round;stroke-linejoin:round;stroke-miterlimit:10;" d="M238.78,389.05
					l38.26-29.12c0.85-0.65,1.02-1.86,0.37-2.71c-0.65-0.85-1.86-1.02-2.71-0.37l-42.31,32.2H238.78z"/>
			</g>
		</g>
	</g>
</g>
</svg>
