<?xml version="1.0" encoding="utf-8"?>
<!-- Generator: Adobe Illustrator 25.2.0, SVG Export Plug-In . SVG Version: 6.00 Build 0)  -->
<svg version="1.1" id="Layer_1" xmlns="http://www.w3.org/2000/svg" xmlns:xlink="http://www.w3.org/1999/xlink" x="0px" y="0px"
	 viewBox="0 0 500 500" style="enable-background:new 0 0 500 500;" xml:space="preserve">
<style type="text/css">
	.st0{fill:#8342EA;}
	.st1{opacity:0.7;fill:#FFFFFF;}
	.st2{opacity:0.3;}
	.st3{fill:none;stroke:#000000;stroke-miterlimit:10;}
	.st4{fill:#8342EA;stroke:#1A2E35;stroke-miterlimit:10;}
	.st5{fill:none;stroke:#1A2E35;stroke-miterlimit:10;}
	.st6{fill:#CCCCCC;stroke:#1A2E35;stroke-miterlimit:10;}
	.st7{fill:#1A2E35;stroke:#1A2E35;stroke-miterlimit:10;}
	.st8{fill:#1A2E35;}
	.st9{fill:#FFFFFF;stroke:#1A2E35;stroke-miterlimit:10;}
	.st10{fill:none;stroke:#1A2E35;stroke-linecap:round;stroke-miterlimit:10;}
</style>
<g id="Background_Simple">
</g>
<g id="Graphics">
</g>
<g id="Shadow_4">
</g>
<g id="Shadow_3">
</g>
<g id="Shadow_2">
</g>
<g id="Shadow_1">
</g>
<g id="Character_4">
</g>
<g id="Character_2_1_">
</g>
<g id="Character_1">
</g>
<g id="Text">
</g>
<g>
	<path class="st0" d="M321.2,64.4c0,0-77.2-29.5-151.6,13.6C95.2,121.1,58.9,208.7,27.6,278.9c-31.3,70.2-11.1,142.6,47,176.6
		c58.1,34,96.2-13.7,176.8-14.5c80.5-0.8,102.4,11.5,168.4-33.9c66-45.4,76-155.5,21.7-238.2C387.1,86.2,321.2,64.4,321.2,64.4z"/>
	<path class="st1" d="M321.2,64.4c0,0-77.2-29.5-151.6,13.6C95.2,121.1,58.9,208.7,27.6,278.9c-31.3,70.2-11.1,142.6,47,176.6
		c58.1,34,96.2-13.7,176.8-14.5c80.5-0.8,102.4,11.5,168.4-33.9c66-45.4,76-155.5,21.7-238.2C387.1,86.2,321.2,64.4,321.2,64.4z"/>
</g>
<g class="st2">
	<rect x="45.3" y="48.3" class="st3" width="171.9" height="216.8"/>
	<path class="st3" d="M45.3,219.3c12.5-15,29.2-31.4,51.2-46.9c41-28.8,87.7-42.9,120.7-64.3"/>
	<path class="st3" d="M45.3,164.9c25.5-14.4,56.3-34.3,80.7-57.7c27.1-26,34.4-46,35.2-58.9"/>
	<path class="st3" d="M90.3,265.1c17-37.9,49.3-103.4,57.5-74.4c6.3,22.3-3,52.2-12.4,74.4"/>
	<path class="st3" d="M88.6,48.3C74.9,63.1,61.1,83,74.7,92.5c18.3,12.8,42.3-15.8,54.7-44.2"/>
	<circle class="st3" cx="180.3" cy="85.1" r="22.1"/>
	<circle class="st3" cx="69.5" cy="121.6" r="11.6"/>
	<ellipse transform="matrix(0.9732 -0.2298 0.2298 0.9732 -48.9204 24.649)" class="st3" cx="81.4" cy="222.4" rx="18" ry="18"/>
</g>
<g class="st2">
	<g>
		<line class="st3" x1="346.6" y1="194.3" x2="350.2" y2="194.3"/>
		<line class="st3" x1="445.6" y1="194.3" x2="350.2" y2="194.3"/>
		<line class="st3" x1="449.2" y1="194.3" x2="445.6" y2="194.3"/>
		<line class="st3" x1="346.6" y1="194.3" x2="251.2" y2="194.3"/>
		<polyline class="st3" points="449.2,194.3 473.3,194.3 473.3,185.1 225.4,185.1 225.4,194.3 247.6,194.3 		"/>
		<line class="st3" x1="247.6" y1="194.3" x2="251.2" y2="194.3"/>
		<line class="st3" x1="445.6" y1="260.6" x2="350.2" y2="260.6"/>
		<line class="st3" x1="445.6" y1="269.8" x2="350.2" y2="269.8"/>
		<line class="st3" x1="346.6" y1="260.6" x2="251.2" y2="260.6"/>
		<line class="st3" x1="346.6" y1="269.8" x2="251.2" y2="269.8"/>
		<polyline class="st3" points="247.6,260.6 225.4,260.6 225.4,269.8 247.6,269.8 		"/>
		<polyline class="st3" points="449.2,269.8 473.3,269.8 473.3,260.6 449.2,260.6 		"/>
		<line class="st3" x1="251.2" y1="336.1" x2="346.6" y2="336.1"/>
		<line class="st3" x1="251.2" y1="345.3" x2="346.6" y2="345.3"/>
		<line class="st3" x1="445.6" y1="336.1" x2="350.2" y2="336.1"/>
		<line class="st3" x1="445.6" y1="345.3" x2="350.2" y2="345.3"/>
		<polyline class="st3" points="449.2,345.3 473.3,345.3 473.3,336.1 449.2,336.1 		"/>
		<polyline class="st3" points="247.6,336.1 225.4,336.1 225.4,345.3 247.6,345.3 		"/>
		<polyline class="st3" points="449.2,420.8 473.3,420.8 473.3,411.6 449.2,411.6 		"/>
		<line class="st3" x1="350.2" y1="411.6" x2="445.6" y2="411.6"/>
		<line class="st3" x1="251.2" y1="411.6" x2="346.6" y2="411.6"/>
		<line class="st3" x1="251.2" y1="420.8" x2="346.6" y2="420.8"/>
		<polyline class="st3" points="247.6,411.6 225.4,411.6 225.4,420.8 247.6,420.8 		"/>
		<line class="st3" x1="350.2" y1="420.8" x2="445.6" y2="420.8"/>
		<line class="st3" x1="445.6" y1="420.8" x2="445.6" y2="411.6"/>
		<line class="st3" x1="449.2" y1="411.6" x2="449.2" y2="420.8"/>
		<line class="st3" x1="449.2" y1="336.1" x2="449.2" y2="345.3"/>
		<line class="st3" x1="449.2" y1="411.6" x2="449.2" y2="345.3"/>
		<polyline class="st3" points="445.6,420.8 445.6,447.2 449.2,447.2 449.2,420.8 		"/>
		<line class="st3" x1="449.2" y1="260.6" x2="449.2" y2="269.8"/>
		<line class="st3" x1="449.2" y1="336.1" x2="449.2" y2="269.8"/>
		<line class="st3" x1="449.2" y1="194.3" x2="449.2" y2="260.6"/>
		<polyline class="st3" points="449.2,194.3 449.2,194.2 445.6,194.2 445.6,194.3 		"/>
		<line class="st3" x1="445.6" y1="260.6" x2="445.6" y2="194.3"/>
		<line class="st3" x1="445.6" y1="411.6" x2="445.6" y2="345.3"/>
		<line class="st3" x1="445.6" y1="345.3" x2="445.6" y2="336.1"/>
		<line class="st3" x1="445.6" y1="260.6" x2="445.6" y2="269.8"/>
		<line class="st3" x1="445.6" y1="336.1" x2="445.6" y2="269.8"/>
		<line class="st3" x1="346.6" y1="336.1" x2="346.6" y2="269.8"/>
		<line class="st3" x1="346.6" y1="411.6" x2="346.6" y2="345.3"/>
		<line class="st3" x1="350.2" y1="345.3" x2="350.2" y2="336.1"/>
		<line class="st3" x1="350.2" y1="411.6" x2="350.2" y2="345.3"/>
		<line class="st3" x1="346.6" y1="336.1" x2="346.6" y2="345.3"/>
		<line class="st3" x1="350.2" y1="269.8" x2="350.2" y2="336.1"/>
		<line class="st3" x1="350.2" y1="194.3" x2="350.2" y2="260.6"/>
		<line class="st3" x1="346.6" y1="194.3" x2="346.6" y2="260.6"/>
		<line class="st3" x1="350.2" y1="420.8" x2="350.2" y2="411.6"/>
		<line class="st3" x1="350.2" y1="269.8" x2="350.2" y2="260.6"/>
		<line class="st3" x1="346.6" y1="260.6" x2="346.6" y2="269.8"/>
		<polyline class="st3" points="350.2,194.3 350.2,194.2 346.6,194.2 346.6,194.3 		"/>
		<polyline class="st3" points="346.6,420.8 346.6,447.2 350.2,447.2 350.2,420.8 		"/>
		<line class="st3" x1="346.6" y1="420.8" x2="346.6" y2="411.6"/>
		<line class="st3" x1="247.6" y1="269.8" x2="247.6" y2="336.1"/>
		<line class="st3" x1="247.6" y1="194.3" x2="247.6" y2="260.6"/>
		<line class="st3" x1="247.6" y1="345.3" x2="247.6" y2="411.6"/>
		<line class="st3" x1="251.2" y1="260.6" x2="251.2" y2="269.8"/>
		<polyline class="st3" points="247.6,420.8 247.6,447.2 251.2,447.2 251.2,420.8 		"/>
		<polyline class="st3" points="251.2,194.3 251.2,194.2 247.6,194.2 247.6,194.3 		"/>
		<line class="st3" x1="251.2" y1="269.8" x2="251.2" y2="336.1"/>
		<line class="st3" x1="251.2" y1="194.3" x2="251.2" y2="260.6"/>
		<line class="st3" x1="251.2" y1="336.1" x2="251.2" y2="345.3"/>
		<line class="st3" x1="251.2" y1="345.3" x2="251.2" y2="411.6"/>
		<line class="st3" x1="251.2" y1="420.8" x2="251.2" y2="411.6"/>
		<line class="st3" x1="247.6" y1="420.8" x2="247.6" y2="411.6"/>
		<line class="st3" x1="247.6" y1="269.8" x2="247.6" y2="260.6"/>
		<line class="st3" x1="247.6" y1="345.3" x2="247.6" y2="336.1"/>
	</g>
	<g>
		<circle class="st3" cx="404.9" cy="230" r="30"/>
		
			<ellipse transform="matrix(0.177 -0.9842 0.9842 0.177 106.8664 587.8035)" class="st3" cx="404.9" cy="230" rx="13.9" ry="13.9"/>
	</g>
	<g>
		<circle class="st3" cx="283.7" cy="381.3" r="30"/>
		<circle class="st3" cx="283.7" cy="381.3" r="13.9"/>
	</g>
	<circle class="st3" cx="395.2" cy="389.4" r="22.5"/>
	
		<ellipse transform="matrix(0.2308 -0.973 0.973 0.2308 -74.8879 684.0364)" class="st3" cx="395.2" cy="389.4" rx="10.4" ry="10.4"/>
	<g>
		<path class="st3" d="M369.4,336.3H387c8.2-4.4,14-14.7,14-26.7c0-8.9-3.2-16.9-8.2-22.3h-29.1c-5,5.3-8.2,13.3-8.2,22.3
			C355.4,321.6,361.2,331.9,369.4,336.3z"/>
		<line class="st3" x1="356.5" y1="302.9" x2="366.5" y2="302.9"/>
		<line class="st3" x1="370.4" y1="302.9" x2="376" y2="302.9"/>
		<line class="st3" x1="369.9" y1="316.8" x2="399.9" y2="316.8"/>
		<line class="st3" x1="380.4" y1="321.2" x2="372.7" y2="321.2"/>
		<line class="st3" x1="392.7" y1="294" x2="382.1" y2="294"/>
	</g>
	<g>
		<path class="st3" d="M416.5,336.3h12.6c5.9-3.1,10.1-10.6,10.1-19.2c0-6.4-2.3-12.2-5.9-16h-21c-3.6,3.8-5.9,9.6-5.9,16
			C406.4,325.7,410.5,333.1,416.5,336.3z"/>
		<line class="st3" x1="407.2" y1="312.2" x2="414.4" y2="312.2"/>
		<line class="st3" x1="417.2" y1="312.2" x2="421.2" y2="312.2"/>
		<line class="st3" x1="416.8" y1="322.2" x2="438.4" y2="322.2"/>
		<line class="st3" x1="424.4" y1="325.4" x2="418.8" y2="325.4"/>
		<line class="st3" x1="433.2" y1="305.8" x2="425.6" y2="305.8"/>
	</g>
	<polyline class="st3" points="417.2,301.2 411,291.2 417.2,295.1 416,281.2 421.1,290.6 422.2,272.8 426.1,292.9 431.1,281.7 
		429.4,294 433.3,287.3 430.5,300.7 	"/>
	<g>
		<rect x="302.6" y="215.5" class="st3" width="12.2" height="45.1"/>
		<rect x="302.6" y="215.5" class="st3" width="12.2" height="45.1"/>
		<rect x="302.6" y="215.5" class="st3" width="12.2" height="11.5"/>
	</g>
	<g>
		<rect x="434.8" y="140.1" class="st3" width="12.2" height="45.1"/>
		<rect x="434.8" y="140.1" class="st3" width="12.2" height="45.1"/>
		<rect x="434.8" y="140.1" class="st3" width="12.2" height="11.5"/>
	</g>
	<g>
		<rect x="418.2" y="148.4" class="st3" width="10" height="36.8"/>
		<rect x="418.2" y="148.4" class="st3" width="10" height="36.8"/>
		<rect x="418.2" y="148.4" class="st3" width="10" height="9.4"/>
	</g>
	<g>
		<rect x="285.4" y="215.5" class="st3" width="12.2" height="45.1"/>
		<rect x="285.4" y="215.5" class="st3" width="12.2" height="45.1"/>
		<rect x="285.4" y="215.5" class="st3" width="12.2" height="11.5"/>
	</g>
	<g>
		<rect x="268.2" y="215.5" class="st3" width="12.2" height="45.1"/>
		<rect x="268.2" y="215.5" class="st3" width="12.2" height="45.1"/>
		<rect x="268.2" y="215.5" class="st3" width="12.2" height="11.5"/>
	</g>
	<g>
		<path class="st3" d="M271.2,125.8c0,0-5,2.7-6.6,5.8c-1.5,3.1,1.9,20.1,2.3,21.3c0.4,1.2,8.5-0.4,8.5-0.4s0.8,2.7-0.8,4.6
			c-1.5,1.9-5.4,4.6-8.1,7.7c-2.7,3.1-3.5,11.2-3.5,11.2h9.7v4.6H261v3.9h32.4v-4.3h-12.1v-4.3h10.1c0,0,0.8-11.2-1.2-14.3
			c-1.9-3.1-4.3-3.9-4.3-3.9v-5.4v-4.6c0,0,3.1-9.3,3.5-12.8c0.4-3.5-3.5-8.1-7-9.7C279,123.9,271.2,125.8,271.2,125.8z"/>
		<path class="st3" d="M284.8,128.3c0,0-10.3,1.1-11.5,4c-1.1,2.9,2.9,12.6,2,14.9c-0.9,2.3-6.6,5.2-7.5,5.5"/>
		<path class="st3" d="M275.5,152.5l7.6-1.9l-0.6,8.3c0,0-3.4,3.7-4.6,7.7c-1.1,4-1.7,8.6-1.7,8.6h3.2"/>
	</g>
</g>
<g>
	<path class="st4" d="M172.4,248.6l2.2,17.9c0,0-52.4,26.1-53.2,28.5c-0.8,2.4-13,101.3-13,105.7c0,4.3,4.9,14.1,10.6,17.4
		c5.7,3.3,18.7,6.2,18.7,6.2l3.8-0.8v23.6h135l-6.2-75l4.3-50.5c0,0,45.1,20.1,48.9,20.6c3.8,0.5,12.8-3.8,15.2-6.5
		c2.4-2.7,6-19.6,6.5-23.4c0.5-3.8-4.9-10.3-4.9-10.3s-54.6-32.9-56-34.2c-1.4-1.4-11.4-6.2-14.1-6.5c-2.7-0.3-51.3-6-51.3-6
		s0-9.5-0.3-10.3C218.3,244.3,172.4,248.6,172.4,248.6z"/>
	<path class="st5" d="M315.5,307.9c1.5-1.2,3.2-2.5,5.2-3.7"/>
	<path class="st5" d="M305.2,325.9c0,0-0.2-7.1,6.8-14.8"/>
	<path class="st5" d="M313.3,333.3c0,0-5.2-4.1-3.7-14"/>
	<path class="st6" d="M194.4,309.5c14.7,5.7,26.6-9.2,29.3-23.1c1.8-9.2,1.7-22.4,1.4-30.2c-3.8-0.4-6.3-0.7-6.3-0.7s0-9.5-0.3-10.3
		c-0.3-0.8-46.2,3.5-46.2,3.5l2.2,17.9c0,0-2.4,1.2-6.2,3.1C171.5,278,182.1,304.7,194.4,309.5z"/>
	<line class="st5" x1="174.6" y1="266.6" x2="175.9" y2="278.4"/>
	<line class="st5" x1="218.8" y1="255.4" x2="220.5" y2="269.5"/>
	<g>
		<path class="st6" d="M165.4,153.4c0,0-19.2,13.7-20.7,21.4c-1.5,7.7,11.2,52.7,13.9,57.6c2.6,4.8,18.8,27.5,21.5,30.3
			c2.7,2.7,14.2,6.5,21.5,4.6c7.3-1.9,14.1-8.2,15.6-12.9c1.5-4.6,4.5-30.4,4.1-36.1c-0.4-5.8-1.1-17-1.2-18
			c-0.1-1-6.1-32.8-12-41.7C202.2,149.6,177.1,148.2,165.4,153.4z"/>
		<path class="st6" d="M151.4,210.3c0,0-7.1-5-6.7,4.2c0.4,9.2,12.4,14.2,12.4,14.2L151.4,210.3z"/>
		<path class="st6" d="M219.1,196c0,0,4-4.7,5.7-0.7c1.7,4-0.4,12.8-1.3,15.7s-2.5,5.7-2.5,5.7L219.1,196z"/>
		<path class="st5" d="M193.3,214.3l-1.3-7c0,0,6.9-7.4,15.2-5.6"/>
		<path class="st5" d="M174.2,209.7c0,0-4.7-2.6-12.4,2.3"/>
		<path class="st5" d="M184.1,233.7c0,0-0.8,4.5,0.9,5.5s4.2,0.1,5.3,0.7c1.1,0.7,3.2,1.8,4.7,0.6c1.4-1.2,3-3.2,3-3.2
			s3.1-1,2.7-3.7c-0.3-2.7-1.2-3.6-1.2-3.6"/>
		<path class="st5" d="M184.8,247.2c0,0,9.6,2.4,17.9-3.2"/>
		<path class="st7" d="M220.7,208.7l-1-3.2l-1.1,17.2l-8,16.3c0,0-5.2,0-7.3,0.3c-2.2,0.3-6.6,1.4-6.6,1.4s8,0.2,9.5,1.4
			c1.5,1.2,2.2,3.7,2.6,6.6c0.4,2.9-0.2,8.2-1.2,9.9c-1,1.7-5,5-7.5,5.7c-2.5,0.7-5.7,0.3-7.5,0.3c-1.8,0-5.9-0.9-7.4-2.1
			c-1.5-1.2-5.6-9.9-5.7-12.4c-0.1-2.6,1.7-4.4,1.7-4.4l8.7-3.8c0,0-8.9,0.7-11.1,1.8c-2.3,1.1-3.8,1.7-3.8,1.7
			s-13.5-14.1-14.1-14.8c-0.6-0.6-6.9-14-8.4-17.3c2.6,9.4,5.1,17.2,6.1,19c2.6,4.8,18.8,27.5,21.5,30.3c2.7,2.7,14.2,6.5,21.5,4.6
			c7.3-1.9,14.1-8.2,15.6-12.9c1.5-4.6,4.5-30.4,4.1-36.1C221.1,215.6,220.9,212,220.7,208.7z"/>
		<path class="st8" d="M204.2,215.4c0.2,1.7-0.4,3.2-1.4,3.4c-1,0.1-1.9-1.2-2.1-2.9c-0.2-1.7,0.4-3.2,1.4-3.4
			C203,212.3,204,213.6,204.2,215.4z"/>
		<path class="st8" d="M174.9,219.7c0.2,1.7-0.4,3.2-1.4,3.4c-1,0.1-1.9-1.2-2.1-2.9c-0.2-1.7,0.4-3.2,1.4-3.4
			C173.7,216.7,174.6,218,174.9,219.7z"/>
	</g>
	<path class="st9" d="M228.2,256.5l-3.6-0.3l16.3,73.1l-68.7,8.1l-2.3-68.6l-8.1,3.8l-1.5,118.9l-8-5.8l3.6,14.8
		c0,0-0.8,14.8-5.4,18.1c-4.6,3.3-9,5-9,5v23.6h135l-6.2-75l-38.5-115.3C230.4,256.8,229.3,256.6,228.2,256.5z"/>
	<line class="st5" x1="274.5" y1="321.7" x2="279.1" y2="288"/>
	<line class="st5" x1="283.1" y1="295.6" x2="284.9" y2="291.5"/>
	<line class="st5" x1="276.2" y1="311.9" x2="281.3" y2="299.9"/>
	<line class="st5" x1="144.6" y1="306.7" x2="161" y2="330.9"/>
	<line class="st5" x1="139.3" y1="298.9" x2="141.4" y2="302"/>
	<line class="st5" x1="132.2" y1="321.4" x2="151.8" y2="329.8"/>
	<g>
		<path class="st6" d="M176.9,336.9c0,0,2.8-5.4,3.9-7.7c1.1-2.4,6.2-4.9,6.2-8.4c0-3.4-8.1-3-13.2,4c-5.1,7-1.4,11.1-1.4,11.1
			L176.9,336.9z"/>
		<g>
			<path class="st6" d="M146.1,331.6l-6.4,24.5c0,0-25.2,29.6-25.6,31.1s-2.4,14.6,9.5,21.5c11.8,6.9,17.7,2.8,20.5,1.6
				c2.8-1.2,9.7-27.8,10.1-28.6s7.1-25,7.1-25l9.9-13.4L146.1,331.6z"/>
			<g>
				<polyline class="st10" points="177.4,321.3 184.4,311.3 190.4,312.6 				"/>
				<line class="st10" x1="133.9" y1="383.5" x2="145.9" y2="366.4"/>
				<g>
					<path class="st9" d="M145.9,369.2c-0.6,0-1.1-0.2-1.6-0.5c-1.3-0.9-1.6-2.6-0.7-3.9l31.5-45c0.9-1.3,2.6-1.6,3.9-0.7
						c1.3,0.9,1.6,2.6,0.7,3.9l-31.5,45C147.7,368.7,146.8,369.2,145.9,369.2z"/>
				</g>
			</g>
			<g>
				<path class="st6" d="M160.7,311.1c0,0-5.9,3.5-6.2,5.4s8.2,14.1,8.9,15.3c0.7,1.2,6.4,12.6,9.2,12.4c2.7-0.2,5.7-3,5.9-4.5
					c0.2-1.5-3-13.4-3.5-15.1c-0.4-1.3-6.8-9-10-12.9C164,310.6,162.2,310.3,160.7,311.1L160.7,311.1z"/>
				<path class="st6" d="M154.6,319.3c0,0-7.2,4.2-7.4,7.7c-0.2,3.5,5.2,10.1,8.4,13.4c3.2,3.2,8.9,6.2,10.6,6.4
					c1.7,0.2,4.5-1.2,4.5-2.5s-11.1-18.6-11.1-18.6L154.6,319.3z"/>
				<path class="st6" d="M147.1,327c0,0-5.2,5.9-4.2,11.1c1,5.2,5.9,8.9,9.2,10.1c3.2,1.2,7.4,3.5,9.4,2.2c2-1.2,4.7-3.7,4.7-3.7
					s-8.9-4.5-10.6-6.4C153.8,338.4,147.1,327,147.1,327z"/>
				<path class="st6" d="M144.1,341.8c0,0-0.6,8,0.1,9c0.7,1,7.7,4.5,9.9,4.4c2.2-0.1,3.2-1,4.2-1.3c1-0.3,3.2-3.4,3.2-3.4
					s-8.5-1.5-9.4-2.2c-0.9-0.7-3.7-2.5-4.1-2.9C147.6,344.9,144.1,341.8,144.1,341.8z"/>
			</g>
		</g>
	</g>
	<g>
		<g>
			<path class="st6" d="M377.1,279.2l-9.7,10.1c0,0-20.6,44.8-21.8,45.9c-1.2,1.1-10.3,13.8-22.3,7.2c-12-6.6-9.7-22.3-10.1-25.3
				c-0.4-3,16.2-18.4,16.7-19.1c0.5-0.7,23.5-22.5,23.5-22.5l5.5-19.9L377.1,279.2z"/>
			<path class="st6" d="M371.6,251.6c0,0-6.9-2.5-10.8-4.5c-4-2-9.9,0-11.9,0.4c-2,0.4-10.1-4.1-10.4,0.2c-0.3,4.3,4,6.5,6.1,6.6
				c2.2,0.2,9.4,1.1,9.4,1.1l6.5,6.8L371.6,251.6z"/>
			<path class="st6" d="M383.7,246.8c0,0,3.8,5.7,3.1,7.6c-0.7,1.9-13.6,9-14.8,9.8c-1.2,0.8-11.4,8.4-13.7,7
				c-2.3-1.4-3.8-5.2-3.3-6.6c0.4-1.4,8.6-10.6,9.8-12c0.9-1,10.1-5.1,14.7-7.1C381,244.8,382.8,245.4,383.7,246.8L383.7,246.8z"/>
			<path class="st6" d="M383.1,256.9c0,0,4.6,7,3.2,10.2c-1.3,3.2-9.2,6.8-13.5,8.2c-4.3,1.4-10.7,1.6-12.4,1
				c-1.7-0.5-3.4-3.1-2.9-4.2c0.6-1.1,18.2-11.7,18.2-11.7L383.1,256.9z"/>
			<path class="st6" d="M386.3,267c0,0,2,7.6-1.2,11.8c-3.2,4.2-9.3,5.3-12.7,5c-3.4-0.3-8.2-0.2-9.4-2.2c-1.2-2-2.6-5.4-2.6-5.4
				s10,0,12.4-1C375.2,274.3,386.3,267,386.3,267z"/>
			<path class="st6" d="M382.4,281.7c0,0-3,7.4-4.1,8c-1.1,0.6-8.9,0.6-10.8-0.5c-1.9-1.1-2.4-2.3-3.2-3.1c-0.8-0.7-1.3-4.5-1.3-4.5
				s8.3,2.5,9.4,2.2c1.1-0.3,4.4-0.6,5-0.8C377.9,282.9,382.4,281.7,382.4,281.7z"/>
		</g>
	</g>
</g>
<g>
	<path class="st4" d="M368.8,264.1c-0.2-1.5-7-16.2-8-18.2c-1-2-4.2-7.7-5.2-9c-1-1.2-5.2-13.4-7-16.9c-1.7-3.5-3.5-6.2-4.5-7.2
		c-1-1-16.9-23.7-17.7-25.2c-0.7-1.5-3-11.7-3-11.7s9.7-11.2,11-12.7c1.2-1.5,3.2-7.5,3-11c-0.2-3.5-6.2-13.9-8-15.4
		c-1.7-1.5-13.9-5.2-17.7-5c-3.7,0.2-12,5-12,5s-8,10.2-7.7,11.8c0.3,1.6,0.2,3.1,0.2,3.1s-8,5.8-7.7,6.3c0.3,0.5,3.9,5,3.9,5
		s-2.2,2-2,3c0.2,0.9,0.6,2.2,0.6,2.2s-0.2,0.8-0.2,1.4c0,0.6,0.2,2.7,0.2,2.7s-3.6,2.5-3.3,4.1c0.3,1.6,1.4,3.9,1.4,3.9l11.6,0.9
		l4.5,11.4c0,0-18.6,4.5-20.7,9.2c-2,4.7-7.8,17.2-7.8,18.6c0,1.4,0,1.4,0,1.4s-12.1,14.9-12.7,16.9c-0.6,2-1.6,3.8-1.6,3.8
		s-8.3,10.5-8.9,11.3c-0.6,0.8-4.2,5-4.4,5.5c-0.2,0.5-14.9,28.7-14.9,29.3c0,0.6-3.3,6.7-3.9,7.5c-0.6,0.8-13.9,8.5-13.9,8.5
		l-3.1,6.4l-3.1,4.1l-6,4.7l-1.4,1.3l-0.6,3.1l-0.9,3.4l-4.1,9.2v110.2h153.4V317.9l-5.2-4.2l-6.2-2.2l-2.2-2
		c0,0,22.4-19.9,25.4-23.4c3-3.5,8-14.9,9.7-17.2C369.8,266.6,369,265.6,368.8,264.1z M271.9,285.8l-16.2-1.2l-2,2.5l-4.5,7.2
		l-4.5,2l-6.5-2c0,0,9-11.5,9.7-12c0.7-0.5,15.9-11,16.7-12c0.7-1,6-17.4,6-17.4s2.5-2.5,3.5-3.5c1-1,9-6.7,9-6.7l0.7,23.9
		L271.9,285.8z M338.2,286.6c-3,7.2-10.5,19.7-10.5,19.7s-4.5-0.7-5.2-0.7c-0.7,0-4.5-0.7-4.5-0.7l7.5-31.1l15.4-19.9l10.7,11.5
		C351.6,265.1,341.1,279.3,338.2,286.6z"/>
	<line class="st5" x1="283.1" y1="242.7" x2="299.3" y2="231"/>
	<path class="st5" d="M291.6,239.7c0,0,3,17.9,7.5,23.2"/>
	<path class="st5" d="M317.7,265.4c0,0,7.5-10.5,9.5-16.9"/>
	<path class="st5" d="M324.5,196.9c0,0,2.5,5.2,2.5,14.7"/>
	<line class="st5" x1="340.9" y1="253.7" x2="346.9" y2="241.2"/>
	<polygon class="st5" points="296.8,181.3 307.5,178.7 300.3,191.2 	"/>
	<path class="st5" d="M302,153.3l-4.7-0.2v2.5c0,0,2.5,0.2,3.2,0c0.7-0.2,5.2-2,5.2-2l-3.7-4.5l-6.7-0.2"/>
	<path class="st5" d="M313.5,160.8c0,0-8.2,2.7-9,3.5c-0.7,0.7-2.7,5.2-4,6.5c-1.2,1.2-2.7,2-2.7,2"/>
	<path class="st5" d="M308.5,136.6c0,0,4,1,6.2,1.2c2.2,0.2,5.2,0.5,5.2,0.5"/>
	<path class="st5" d="M315.7,141.9c0,0,1.7,1,3.2,1.2"/>
	<path class="st5" d="M320,145.3c0,0,2.5,2.2,5,2"/>
	<path class="st5" d="M317,148.3c0,0,0.7,1.7,3.5,1.7"/>
	<path class="st5" d="M323.5,151.1c0,0,2.5,1.5,4.7,1.2"/>
	<path class="st5" d="M315.5,154.8c0,0,2.7,2.7,5.2,2.5"/>
	<path class="st5" d="M321.2,161.3c0,0,4.7-4,6-1c1.2,3,0,9.2-2.7,10.5c-2.7,1.2-6.5,0.2-6.5,0.2"/>
	<path class="st5" d="M286.1,205.6c0,0,3.7,2.7,5.2,2.5c1.5-0.2,3.2-1.7,3.2-1.7"/>
	<path class="st5" d="M296.6,208.8c0,0,1,1.7,2.7,1.5c1.7-0.2,3.5-2,3.5-2"/>
	<path class="st5" d="M310,220.3c2.7,1.7,5.2,0,5.2,0"/>
	<path class="st5" d="M256.7,256.7c0,0,2,5.2,5.2,3.5c3.2-1.7,8.7-7.2,8.7-7.2"/>
	<path class="st5" d="M302.5,246.7c0,0,1.7,2.7,4,2.7c2.2,0,3.7-1,3.7-1"/>
	<path class="st5" d="M309.3,256.4c0,0,1.7,2,3.2,0.7"/>
	<path class="st5" d="M293.3,268.1c0,0,0.2,3,2.7,1.5"/>
	<path class="st5" d="M299.6,279.3c0,0-7.5-4.7-9.7-4c-2.2,0.7-20.4,16.2-20.4,16.2"/>
	<polyline class="st5" points="265.4,290.3 261.7,291.8 291.1,321.7 304.5,318.7 310,308 314.7,306.2 	"/>
	<polyline class="st5" points="256.7,287 253,302.2 259.5,314.9 273.2,326.4 	"/>
	<polyline class="st5" points="244.8,296.3 245.5,313.9 250,324.2 281.4,326.9 	"/>
	<path class="st5" d="M223.1,298.8c0,0-1.2,2.2-1.7,3c-0.5,0.7-4.7,10-5.2,11.5c-0.5,1.5,4,9,4.2,11c0.2,2,7,7.7,7,7.7l8.5-1
		l16.9-2.7l22.7,7l14.9,4.7l22.4-4.5l21.7,1.7c0,0,2.7-6.5,3.5-6.7c0.7-0.2,8.7-12.5,8.7-12.5"/>
	<polyline class="st5" points="332.9,309.5 324.5,320.2 331.2,327.1 337.4,324.2 	"/>
	<path class="st5" d="M348.4,251.4c0,0,2.5,2.5,4.7,0"/>
	<path class="st5" d="M356.1,255.7c0,0,2.5,1,4.5,0"/>
	<path class="st5" d="M279.4,223.3c0,0,0.7,1.7,2.7,0.7c2-1,3.7-2,3.7-2"/>
	<path class="st5" d="M284.9,218.8c0,0,2.7,2.5,5.2,0.5"/>
	<path class="st5" d="M247.8,263.1c0,0,2,1.7,4.5,0.2"/>
	<polyline class="st5" points="241,272.9 252.2,266.6 257.2,263.1 	"/>
	<line class="st5" x1="312.8" y1="335.4" x2="312.8" y2="447.1"/>
</g>
<line class="st5" x1="34.9" y1="447.2" x2="479.8" y2="447.2"/>
</svg>
