<?xml version="1.0" encoding="utf-8"?>
<!-- Generator: Adobe Illustrator 25.2.0, SVG Export Plug-In . SVG Version: 6.00 Build 0)  -->
<svg version="1.1" id="Layer_1" xmlns="http://www.w3.org/2000/svg" xmlns:xlink="http://www.w3.org/1999/xlink" x="0px" y="0px"
	 viewBox="0 0 500 500" style="enable-background:new 0 0 500 500;" xml:space="preserve">
<style type="text/css">
	.st0{fill:#8342EA;}
	.st1{opacity:0.7;fill:#FFFFFF;}
	.st2{fill:#CFCFCF;stroke:#1A2E35;stroke-linecap:round;stroke-linejoin:round;stroke-miterlimit:10;}
	.st3{fill:#FFFFFF;stroke:#1A2E35;stroke-linecap:round;stroke-linejoin:round;stroke-miterlimit:10;}
	.st4{fill:none;stroke:#1A2E35;stroke-linecap:round;stroke-linejoin:round;stroke-miterlimit:10;}
	.st5{fill:#1A2E35;stroke:#1A2E35;stroke-linecap:round;stroke-linejoin:round;stroke-miterlimit:10;}
	.st6{fill:#1A2E35;}
	.st7{fill:#9C9C9C;stroke:#1A2E35;stroke-linecap:round;stroke-linejoin:round;stroke-miterlimit:10;}
	.st8{fill:#8342EA;stroke:#1A2E35;stroke-linecap:round;stroke-linejoin:round;stroke-miterlimit:10;}
</style>
<g id="Background_Simple">
</g>
<g id="Graphics">
</g>
<g id="Shadow_4">
</g>
<g id="Shadow_3">
</g>
<g id="Shadow_2">
</g>
<g id="Shadow_1">
</g>
<g id="Character_4">
</g>
<g id="Character_2_1_">
</g>
<g id="Character_1">
</g>
<g id="Text">
</g>
<g>
	<path class="st0" d="M376.7,90.2c-5.5-4-11.2-7.8-17-11.7c-28-18.7-60.1-37.7-93.8-42.1c-5.7-0.7-11.4-1-17.1-0.3
		c-22.3,2.5-44.4,19-62.2,31.6c-27.5,19.5-53.3,41.8-76.7,66.2c-20.4,21.1-41.3,44.8-53.2,72.2c-15.4,35.6,8.1,77.6,28.7,106.4
		c40.1,56,95.7,99.7,165.5,105.9c84.3,7.5,160.5-58.6,189.2-135.8c17-45.9,18.2-101.4-11.2-142.5
		C414.2,119.7,396.3,104.3,376.7,90.2z"/>
	<path class="st1" d="M376.7,90.2c-5.5-4-11.2-7.8-17-11.7c-28-18.7-60.1-37.7-93.8-42.1c-5.7-0.7-11.4-1-17.1-0.3
		c-22.3,2.5-44.4,19-62.2,31.6c-27.5,19.5-53.3,41.8-76.7,66.2c-20.4,21.1-41.3,44.8-53.2,72.2c-15.4,35.6,8.1,77.6,28.7,106.4
		c40.1,56,95.7,99.7,165.5,105.9c84.3,7.5,160.5-58.6,189.2-135.8c17-45.9,18.2-101.4-11.2-142.5
		C414.2,119.7,396.3,104.3,376.7,90.2z"/>
</g>
<g>
	<path class="st2" d="M107.4,342.9H65.7c-16,0-29,13-29,29v28.8h99.7V372C136.4,355.9,123.4,342.9,107.4,342.9z"/>
	<path class="st2" d="M215.4,342.9h-41.7c-16,0-29,13-29,29v28.8h99.7V372C244.4,355.9,231.4,342.9,215.4,342.9z"/>
	<path class="st2" d="M323.5,342.9h-41.7c-16,0-29,13-29,29v28.8h99.7V372C352.5,355.9,339.5,342.9,323.5,342.9z"/>
	<path class="st2" d="M431.5,342.9h-41.7c-16,0-29,13-29,29v28.8h99.7V372C460.5,355.9,447.6,342.9,431.5,342.9z"/>
</g>
<g>
	<path class="st3" d="M242.4,234.3l-1.4,16.4c0,0,8,7.1,11.8,7.1c3.8,0,11.8-6.9,12.4-7.4c0.6-0.5-1.5-15.7-1.5-15.7
		S251.9,239.3,242.4,234.3z"/>
	<g>
		<path class="st4" d="M236.2,216.5c0,0-2.5-3.4-4,0.6c-1.5,4,1.5,7.7,2.9,8.8c1.4,1.1,2.5,1.5,2.5,1.5L236.2,216.5z"/>
		<path class="st3" d="M270.2,216.5c0,0,2.5-3.4,4,0.6c1.5,4-1.5,7.7-2.9,8.8c-1.4,1.1-2.5,1.5-2.5,1.5L270.2,216.5z"/>
		<path class="st5" d="M261.6,190.5c0,0-3.5-4.5-10-5.1c-6.4-0.6-9.5,4.5-10,4.9c-0.5,0.5-8.3,6.3-8.9,11.4
			c-0.6,5.1,2.9,12.9,3.2,13.5c0.3,0.6,1.5,2.9,1.5,1.4c0-1.5,0-10.7,0.3-12.9s5.5-8.3,5.5-8.3s6,3.2,10,2.5c4-0.8,5.5-1.7,6-1.8
			c0.5-0.2,5.7,5.1,6.9,6c1.2,0.9,2.5,14.4,3.5,14.6c1.1,0.2,2-0.3,2.1-2.9c0.2-2.6,0.3-9.4-0.6-14.3
			C270.3,194.5,267.4,189.9,261.6,190.5z"/>
		<g>
			<path class="st3" d="M242.5,193.1c0,0-6,6.3-6.4,10.3c-0.5,4-0.2,18.6,1.7,25c1.8,6.4,9.2,15.5,14.6,16.1
				c5.4,0.6,10.6-5.5,14.7-11.1c4.1-5.5,3.2-22.3,2.6-27c-0.6-4.8-6.1-9.5-7.5-10.9c-1.4-1.4-2.5-2.1-4.5-1.4
				c-2,0.8-4.8,2.6-7.5,1.8C247.4,195.3,242.5,193.1,242.5,193.1z"/>
			<polyline class="st4" points="255.5,202.2 258,211.5 253.7,214.6 			"/>
			<path class="st6" d="M247.8,207.1c0,1.1-0.4,2-1,2c-0.6,0-1-0.9-1-2c0-1.1,0.4-2,1-2C247.4,205.1,247.8,206,247.8,207.1z"/>
			<path class="st6" d="M261.3,207.1c0,1.1-0.4,2-1,2c-0.6,0-1-0.9-1-2c0-1.1,0.4-2,1-2C260.9,205.1,261.3,206,261.3,207.1z"/>
			<path class="st4" d="M242.8,202.8c0,0,1.7-3.1,6.9-1.1"/>
			<path class="st4" d="M257.5,201.4c0,0,3.4-2.1,6.8,0.5"/>
			<g>
				<path class="st4" d="M244.6,216.1c0,0,3.8,4.1,8.8,3.8c4.9-0.3,10.3-3.2,10.3-3.2"/>
				<path class="st5" d="M246.7,218.3c0,0,1.8,7.2,5.8,8.3c4,1.1,7.2-8.1,7.2-8.1s-3.5,1.7-6.4,1.5
					C250.4,219.8,246.7,218.3,246.7,218.3z"/>
				<line class="st4" x1="245.7" y1="215.1" x2="243.1" y2="217.5"/>
				<line class="st4" x1="262.7" y1="215.1" x2="264.6" y2="218.3"/>
				<path class="st3" d="M256.5,224.7c-3-1.2-5.3-0.7-6.7,0c0.8,0.9,1.7,1.7,2.8,2C254,227,255.4,226,256.5,224.7z"/>
			</g>
		</g>
	</g>
	<g>
		<g>
			<g>
				<g>
					<g>
						<path class="st3" d="M335.5,156.9c0,0-16,25.1-20.2,31c-4.2,5.9-10.8,19.2-10.8,19.2l-12.3,20.7l-27,22.7
							c0,0-9.2,7.1-12.4,7.4c-3.3,0.3-11.8-7.1-11.8-7.1s-16.4-13.9-20.1-18.6c-3.7-4.7-13.5-18.9-17.2-25.8s-36.4-51.6-36.4-51.6
							l-3.4,11.3c0,0,11.3,33.4,18,43.3c6.6,9.8,13,16.5,13,16.5s11.8,26.3,15.2,31.7c3.4,5.4,4.7,9.6,4.7,9.6s6.1,46.2,6.4,48.7
							c0.2,2.5-4.7,55.3-4.7,55.3l-6.9,69.5l35.1,0.1l5.3-41.2h6.6l5.4,40.6l0.1,0.7l33.6,0.1l-7.3-72.5l-4.7-49.9l6.4-50.9
							c0,0,13.5-24.6,14.3-25.8c0.7-1.2,18.9-27.5,22.9-41.6c3.9-14,14.8-38.9,14.8-38.9L335.5,156.9z"/>
						<g>
							<line class="st4" x1="222.6" y1="370.2" x2="237.5" y2="382.5"/>
							<line class="st4" x1="224.9" y1="375.9" x2="238.4" y2="386.1"/>
							<line class="st4" x1="280.8" y1="372.3" x2="266.6" y2="383.9"/>
							<line class="st4" x1="272.8" y1="381.6" x2="260.9" y2="390.1"/>
						</g>
					</g>
					<path class="st6" d="M176,166.7l-5.3,14.9l12.1-5.4C180.4,172.8,178.1,169.6,176,166.7z"/>
				</g>
				<path class="st6" d="M327.7,169l6,12.1c1.7-4.5,3.5-8.8,4.9-12.2l-7.1-5.9C330.5,164.7,329.2,166.8,327.7,169z"/>
			</g>
		</g>
		<path class="st5" d="M303,244c-4.3-2.9-9.5-7.4-13.7-13.8l-24,20.2c0,0-9.2,7.1-12.4,7.4c-3.3,0.3-11.8-7.1-11.8-7.1
			s-16.4-13.9-20.1-18.6c-0.6-0.8-1.4-1.8-2.3-3.1l-14.7,16.3c2.5,5.3,4.9,10.1,6.2,12.1c3.4,5.4,4.7,9.6,4.7,9.6s6.1,46.2,6.4,48.7
			c0.2,2-2.9,35.7-4.1,49.5c9,1.5,37.1,5.4,71.1,0.8l-4.5-47.6l6.4-50.9C290,267.5,299.5,250.4,303,244z"/>
	</g>
	<path class="st7" d="M239.3,248.7c0,0,6.7,28.4,14.3,47c7.6,18.6,8.3,19.2,8.3,19.2l3.8-1c0,0,3.4-41.1,3.7-48.9
		c0.3-7.9-0.8-16.6-0.8-16.6l-3.3,1.9c0,0,0.7,39.4-2.6,54.9c0,0-2,1.7-8.4-16.6c-6.5-18.3-11-35.7-11-35.7L239.3,248.7z"/>
	
		<rect x="258.7" y="314.2" transform="matrix(0.976 -0.2176 0.2176 0.976 -65.1298 66.0365)" class="st3" width="17.2" height="29"/>
	<g>
		<g>
			<path class="st8" d="M350.8,167.7c-1.3-9.2-0.7-21.3-0.7-21.3c-0.7-5.6-2.3-5.2-15.1-4.9c-10.3,0.3-53.7,2.2-70.2,3
				c-2.9,0.1-5.8,0.1-8.7,0c-15.6-0.6-68.2-2.7-79.1-3c-12.8-0.3-14.4-0.7-15.1,4.9c0,0,0.7,12.1-0.7,21.3
				c-1.3,9.2-16.4,47.2-16.4,47.2l19.3,13.8c0,0,7.5-8.9,9.8-26.9s-0.3-30.5,3.6-33.8c3.2-2.7,53.6-0.3,71.9,0.6
				c4.3,0.2,8.7,0.2,13,0c18.2-0.9,68.6-3.3,71.9-0.6c3.9,3.3,1.3,15.7,3.6,33.8c2.3,18,9.8,26.9,9.8,26.9l19.3-13.8
				C367.2,214.9,352.1,176.9,350.8,167.7z"/>
			<g>
				<path class="st3" d="M357.6,189.5l-19.3,14.3c0.3,1.9,0.6,3.7,1,5.4l20.1-14.5C358.9,193,358.2,191.2,357.6,189.5z"/>
				<path class="st3" d="M362.1,201.6l-20.9,14c0.8,2.2,1.6,4.1,2.3,5.8l21.2-12.9C363.9,206.5,363,204.1,362.1,201.6z"/>
			</g>
		</g>
		<g>
			<path class="st3" d="M171.8,212.8l-20.7-14c-1,2.6-1.9,5.1-2.8,7.3l21,13.7C170.2,217.8,171,215.5,171.8,212.8z"/>
			<path class="st3" d="M174.5,197.8L157,182.5c-0.5,1.6-1.1,3.3-1.7,4.9l18.7,15.2c0-0.3,0.1-0.5,0.1-0.8
				C174.3,200.4,174.4,199.1,174.5,197.8z"/>
		</g>
	</g>
	<g>
		<path class="st3" d="M162.5,143.8c0,0-4.7-1.6-5.4,0.7c-0.7,2.3,4.7,7.9,6.8,6.3C165.9,149.2,162.5,143.8,162.5,143.8z"/>
		<path class="st3" d="M157.8,147.2c0,0-2.1,1.6-1.5,3.2c0.6,1.6,5,4.1,6.1,3.3c1.1-0.9,0.1-2.6,0.1-2.6S157.6,148.5,157.8,147.2z"
			/>
		<path class="st3" d="M156.3,150.4c0,0-0.6,3.7,0.4,4.5c1,0.9,5,2.6,6,1.8c1-0.7-0.2-3-0.2-3S157.8,152.7,156.3,150.4z"/>
		<path class="st3" d="M156.7,154.9c0,0,0.4,2.2,1.7,3.3c1.3,1.1,4,2.1,4.1,1c0.1-1.1-1.2-2.2-1.2-2.2S157.5,155.3,156.7,154.9z"/>
	</g>
	<g>
		<path class="st3" d="M348.8,143.8c0,0,4.7-1.6,5.4,0.7c0.7,2.3-4.7,7.9-6.8,6.3C345.4,149.2,348.8,143.8,348.8,143.8z"/>
		<path class="st3" d="M353.5,147.2c0,0,2.1,1.6,1.5,3.2c-0.6,1.6-5,4.1-6.1,3.3s-0.1-2.6-0.1-2.6S353.6,148.5,353.5,147.2z"/>
		<path class="st3" d="M355,150.4c0,0,0.6,3.7-0.4,4.5c-1,0.9-5,2.6-6,1.8c-1-0.7,0.2-3,0.2-3S353.5,152.7,355,150.4z"/>
		<path class="st3" d="M354.6,154.9c0,0-0.4,2.2-1.7,3.3c-1.3,1.1-4,2.1-4.1,1c-0.1-1.1,1.2-2.2,1.2-2.2S353.8,155.3,354.6,154.9z"
			/>
	</g>
</g>
<g>
	<path class="st2" d="M103.1,380.9H57.7c-16,0-29,13-29,29v31h103.4v-31C132.2,393.9,119.2,380.9,103.1,380.9z"/>
	<path class="st2" d="M215.3,380.9h-45.4c-16,0-29,13-29,29v31h103.4v-31C244.3,393.9,231.3,380.9,215.3,380.9z"/>
	<path class="st2" d="M327.4,380.9H282c-16,0-29,13-29,29v31h103.4v-31C356.4,393.9,343.4,380.9,327.4,380.9z"/>
	<path class="st2" d="M439.5,380.9h-45.4c-16,0-29,13-29,29v31h103.4v-31C468.5,393.9,455.5,380.9,439.5,380.9z"/>
</g>
<g>
	<path class="st4" d="M289.2,321c0,0-0.5-7.2-0.2-9.5c0.3-2.3,8.5,0.7,10.7,1.5c2.2,0.8-0.3,4.5-2.7,6.2
		C294.7,320.8,291,321.7,289.2,321z"/>
	<g>
		<path class="st3" d="M304.1,291.6c0,0,0.8-16.5,2.5-26.9c1.6-10.4,2.8-19.8,2.8-19.8s4.2-3.3,4.8-4.9c0.6-1.6,0.9-4.3,1.2-4.9
			c0.3-0.6,4.3-6,5.4-7.9c1-1.9,1.5-4.8-0.4-3.9c-1.9,0.9-4,3.6-5.7,5.8c-1.6,2.2-1.8,1.2-2.8,0.9c-1-0.3-1.9-5.4-1.9-6.4
			s0.9-9.5,0.7-11.3c-0.1-1.8-2.7-1.5-3.3,1.2c-0.6,2.7-2.7,11.9-2.7,11.9s-1,2.5-1.6,3.3c-0.6,0.7-7.9,5.1-8.6,7.7
			c-0.7,2.7,1.8,13.5,1.8,13.5s-9.7,24.9-13,31.9s-2.7,23.2-0.9,27.7c1.8,4.5,12.2,5.7,13.2,4.9c1-0.7,6.4-11,7.3-14.6
			C303.7,296.3,304.1,291.6,304.1,291.6z"/>
		<path class="st3" d="M294.3,238.6c0,0-0.4-3.6,0.6-6.3c1-2.7,4-1.9,5.1-0.7c1,1.2,2.8,4.3,3.3,5.7c0.4,1.3,0,3.4-0.7,4
			c-0.7,0.6-3,0.6-4-0.6l-1.3-2.7"/>
		<path class="st3" d="M298.4,230.3c0,0,1.3-3.1,3.3-3c1.9,0.1,5.7,8,5.5,10.3c-0.1,2.2-3.1,2.7-3.1,2.7s0.1-1-0.7-3
			C302.4,235.4,299.1,229.9,298.4,230.3z"/>
		<path class="st3" d="M301.6,227.3c0,0,0.7-3.7,3-1.9c2.2,1.8,5.2,7,5.2,9.4c0,2.4-2.7,2.8-2.7,2.8s-0.3-2.8-1.5-5.2
			C304.5,230,301.6,227.3,301.6,227.3z"/>
		<path class="st4" d="M299.3,247.7c0,0,2.8,1.5,4.8,0.1c1.9-1.3,3.4-3.6,3.4-3.6"/>
		<path class="st8" d="M298.2,268.4c-3.1-0.2-5.9-2.2-7.8-3.9c-2.7,6.8-5.7,14-7.2,17.3c-3.3,7-2.7,23.2-0.9,27.7
			c1.8,4.5,12.2,5.7,13.2,4.9c1-0.7,6.4-11,7.3-14.6c0.9-3.6,1.3-8.3,1.3-8.3s0.8-15.1,2.3-25.5
			C304.3,267.3,301.4,268.7,298.2,268.4z"/>
	</g>
	<g>
		<path class="st3" d="M420.8,291.6c0,0-0.8-16.5-2.5-26.9c-1.6-10.4-2.8-19.8-2.8-19.8s-4.2-3.3-4.8-4.9c-0.6-1.6-0.9-4.3-1.2-4.9
			c-0.3-0.6-4.3-6-5.4-7.9c-1-1.9-1.5-4.8,0.4-3.9c1.9,0.9,4,3.6,5.7,5.8c1.6,2.2,1.8,1.2,2.8,0.9c1-0.3,1.9-5.4,1.9-6.4
			s-0.9-9.5-0.7-11.3c0.1-1.8,2.7-1.5,3.3,1.2c0.6,2.7,2.7,11.9,2.7,11.9s1,2.5,1.6,3.3c0.6,0.7,7.9,5.1,8.6,7.7s-1.8,13.5-1.8,13.5
			s9.7,24.9,13,31.9s2.7,23.2,0.9,27.7s-12.2,5.7-13.2,4.9c-1-0.7-6.4-11-7.3-14.6C421.1,296.3,420.8,291.6,420.8,291.6z"/>
		<path class="st3" d="M430.5,238.6c0,0,0.4-3.6-0.6-6.3c-1-2.7-4-1.9-5.1-0.7c-1,1.2-2.8,4.3-3.3,5.7c-0.4,1.3,0,3.4,0.7,4
			c0.7,0.6,3,0.6,4-0.6l1.3-2.7"/>
		<path class="st3" d="M426.5,230.3c0,0-1.3-3.1-3.3-3c-1.9,0.1-5.7,8-5.5,10.3c0.1,2.2,3.1,2.7,3.1,2.7s-0.1-1,0.7-3
			C422.5,235.4,425.8,229.9,426.5,230.3z"/>
		<path class="st3" d="M423.2,227.3c0,0-0.7-3.7-3-1.9s-5.2,7-5.2,9.4c0,2.4,2.7,2.8,2.7,2.8s0.3-2.8,1.5-5.2
			C420.4,230,423.2,227.3,423.2,227.3z"/>
		<path class="st4" d="M425.6,247.7c0,0-2.8,1.5-4.8,0.1c-1.9-1.3-3.4-3.6-3.4-3.6"/>
		<path class="st3" d="M435.1,320.1c0,0,0.5-7.9,0.2-10.9c-0.4-2.9-6.7,2.7-7.4,4.3C427,315.1,433.3,319.8,435.1,320.1z"/>
		<path class="st8" d="M426.6,268.4c3.1-0.2,5.9-2.2,7.8-3.9c2.7,6.8,5.7,14,7.2,17.3c3.3,7,2.7,23.2,0.9,27.7
			c-1.8,4.5-12.2,5.7-13.2,4.9c-1-0.7-6.4-11-7.3-14.6c-0.9-3.6-1.3-8.3-1.3-8.3s-0.8-15.1-2.3-25.5
			C420.5,267.3,423.5,268.7,426.6,268.4z"/>
	</g>
	<g>
		<path class="st3" d="M314.2,441c0,0-0.2-3.7,3.3-25s12-43.2,12.3-45.6c0.4-2.4-4.8-36.6-4.8-36.6s-2.9-1.8-12.3-5.2
			c-9.4-3.3-23.5-7.5-23.5-7.5s6.6-5.9,8.6-12.1c2-6.3,6.3-17.3,6.3-17.3l8.1,1.3c0,0,9.9-0.2,15.8,0.6c5.9,0.7,16.7,4.6,16.7,4.6
			s9.9,3.7,20.6,5.3c10.7,1.7,12.3-0.2,19.7-4c7.4-3.9,12.1-6.8,18.6-6.6c6.4,0.2,11-0.4,11-0.4l6.1-1.5c0,0,1.1,9,4.4,14.5
			c3.3,5.5,9.9,14.7,9.9,14.7s-26.7,8.6-28.7,10.1c-2,1.5-2.8,2.4-2.8,2.4s-4.2,32.7-4.2,36.1c0,3.3,9.2,32.2,11.8,40.8
			c2.6,8.6,5.9,24.5,6.6,31.1"/>
		<g>
			<line class="st4" x1="338.7" y1="425.2" x2="359.5" y2="437.6"/>
			<line class="st4" x1="395.2" y1="424.4" x2="372.7" y2="436.6"/>
		</g>
	</g>
	<path class="st5" d="M406.4,330.2c2-1.5,28.7-10.1,28.7-10.1s-6.6-9.2-9.9-14.7c-3.3-5.5-4.4-14.5-4.4-14.5l-6.1,1.5
		c0,0-4.6,0.6-11,0.4c-6.4-0.2-11.2,2.8-18.6,6.6c-7.4,3.9-9,5.7-19.7,4c-10.7-1.7-20.6-5.3-20.6-5.3s-10.9-3.9-16.7-4.6
		c-5.9-0.7-15.8-0.6-15.8-0.6l-8.1-1.3c0,0-4.2,11-6.3,17.3c-2,6.3-8.6,12.1-8.6,12.1s14.2,4.2,23.5,7.5c9.4,3.3,12.3,5.2,12.3,5.2
		s5.2,34.2,4.8,36.6c-0.4,2.3-8,22.2-11.8,42.6c7.7,3.7,25.2,10.1,51.7,9.9c21.4-0.2,34.9-5,42.6-9.1c-0.4-1.5-0.8-2.9-1.2-4.2
		c-2.6-8.6-11.8-37.5-11.8-40.8c0-3.3,4.2-36.1,4.2-36.1S404.4,331.7,406.4,330.2z"/>
	<g>
		<path class="st8" d="M378.4,302.1c0,0,1.8,43.8,1.8,60.9c0,17.1,1.8,23.9,1.8,23.9s10.1,0.9,15.1-1.3c5-2.2,9.7-4.2,9.7-4.2
			s-4.2-15.3-9.4-35.9c-5.2-20.6-9.4-32.9-11-38.1c-1.7-5.2-2.9-7.7-2.9-7.7L378.4,302.1z"/>
		<g>
			<path class="st3" d="M380.1,353.3l18.5-3.4c-0.4-1.5-0.7-2.9-1.1-4.4c-0.1-0.6-0.3-1.1-0.4-1.7l-17.1,3.1
				C380,349.1,380.1,351.3,380.1,353.3z"/>
			<path class="st3" d="M401.4,360.5l-21.1,4.1c0,2.6,0.1,4.9,0.2,7l23.1-3C402.9,366.2,402.1,363.5,401.4,360.5z"/>
		</g>
	</g>
	<g>
		<path class="st8" d="M341.8,296c0,0-3.1,26.3-6.1,43.4c-2.9,17.1-10.7,44.5-10.7,44.5s7.2,2,12,2.8c4.8,0.7,10.1,1.5,10.1,1.5
			s3.1-21.7,4.2-45.6c1.1-23.9-3.1-45.6-3.1-45.6L341.8,296z"/>
		<g>
			<path class="st3" d="M333.1,352.2l17.5,2.7c0.2-2.2,0.3-4.4,0.4-6.6l-16.6-2.4C334.1,348,333.6,350.1,333.1,352.2z"/>
			<path class="st3" d="M350,363.1l-18.8-2.5c-0.6,2.4-1.2,4.8-1.8,7.1l19.9,2.3C349.5,367.8,349.7,365.5,350,363.1z"/>
		</g>
	</g>
	<polygon class="st7" points="347.5,303.5 361.9,379.7 365.2,379.7 349.3,303.7 	"/>
	<polygon class="st7" points="365.2,379.7 378.4,302.1 381.7,301.1 368.1,380.2 	"/>
	<path class="st3" d="M347.1,284.4l0.4,19.1c0,0-0.4,4.2,8.5,8.3c8.8,4,14-0.4,16.2-2.4c2.2-2,6.3-7.4,6.3-7.4l-2.8-14.3
		c0,0-12.5,3.1-18.2,2.6C351.7,289.7,347.1,284.4,347.1,284.4z"/>
	<path class="st8" d="M371.6,246.3c0,0-5.7-8.1-12.9-8.6c-7.2-0.6-24.3,18.2-25.8,26.9c-1.5,8.6,2.9,14,4,16.4
		c1.1,2.4-2.2,9.4-3.9,17.1c-1.7,7.7,2,11.6,5.5,16.2c3.5,4.6,3.1,9.9,0.4,8.5c-2.8-1.5-0.9-5.3-2.9-3.7c-2,1.7-6.8,7.7,3.7,12.5
		c10.5,4.8,13.8-8.5,14.7-12.5c0.9-4,0.6-10.3-2.9-15.6c-3.5-5.3-4.8-13.4-4.8-16.4s3.9-23.4,11.8-27.8c7.9-4.4,13.8-1.5,16.4,3.1
		c2.6,4.6,5.2,11,6.6,10.9c1.5-0.2,2.2,1.5,2.8,0.4c0.6-1.1,4-8.5,0-16.7C380.3,248.5,371.6,246.3,371.6,246.3z"/>
	<path class="st3" d="M369.6,245.8c0,0-13.2,4.2-16.7,8.5c-3.5,4.2-6.8,10.5-7.9,13.4c-1.1,2.9-2.4,6.3-2.4,6.3s-3.7-3.5-5,1.8
		c-1.3,5.3,2.2,8.5,4.2,9.2c2,0.7,2,0.7,2,0.7s2.2,3.5,4.4,5.3c2.2,1.8,7.9,7.9,16.4,7.5c8.5-0.4,13.2-7.9,14.5-10.5
		c1.3-2.6,1.3-2.6,1.3-2.6s5.2-4.6,5.5-8.6c0.4-4-2.6-5.9-3.7-6.1c-1.1-0.2-2.2-0.4-2.2-0.4s-1.1-11-5.2-17.7
		C370.9,246.1,369.6,245.8,369.6,245.8z"/>
	<path class="st3" d="M359.3,270.1c0,0,2.4,1.7,4,1.5c1.7-0.2,3.3-1.7,3.3-1.7"/>
	<path class="st6" d="M357.6,275c0,0,5.7,1.8,11.2-0.4c0,0-0.9,7.4-4,8.8C361.7,285,359.8,282.4,357.6,275z"/>
	<g>
		<path class="st5" d="M360.4,261.2c0,0-4.6-1.1-9.6-0.9c-5,0.2-9.9,1.5-9.9,2.6c0,1.1,1.3,2,1.7,3.9c0.4,1.8-0.2,5.3,6.4,5.9
			c6.6,0.6,10.3-2.4,11-6.1C360.8,262.9,360.4,261.2,360.4,261.2z"/>
		<path class="st5" d="M365,261.2c0,0,4.6-1.1,9.6-0.9c5,0.2,9.9,1.5,9.9,2.6c0,1.1-1.3,2-1.7,3.9c-0.4,1.8,0.2,5.3-6.4,5.9
			c-6.6,0.6-10.3-2.4-11-6.1C364.6,262.9,365,261.2,365,261.2z"/>
		<path class="st5" d="M360.4,261.2c0,0,3.1-0.9,4.6,0v2c0,0-1.5-1.1-4.2,0L360.4,261.2z"/>
	</g>
	
		<rect x="355.6" y="378.3" transform="matrix(0.9997 2.285071e-02 -2.285071e-02 0.9997 9.0924 -8.2321)" class="st3" width="18.3" height="30.9"/>
</g>
<g>
	<path class="st4" d="M167.1,246.2c0,0-0.6,2.1,0.4,2.5c1,0.4,2.9,0.8,3.9-0.2c1-1,0.4-2.3,0.4-2.3H167.1z"/>
	<path class="st4" d="M171.9,247.2c0,0,1.2,1.9,3.5,2.1c2.3,0.2,7.2-2.5,7.2-2.5s-8.1-3.9-8.7-3.9S172.3,244.9,171.9,247.2z"/>
	<path class="st5" d="M107.6,441l2-37.3c0,0,14.2,9.8,37.5,6.3c23.3-3.5,32.2-9.4,32.2-9.4l6.8,39.7"/>
	<path class="st3" d="M125.1,289c0,0-27.1,11.6-31.2,16.1c-4.1,4.6-11.4,36.8-11.4,36.8s-5.4,17.6-5,21.5c0.4,3.9,9.5,6.2,17,3.7
		c7.4-2.5,11.6-6.2,11.6-6.2l3.1,20.5l-0.2,25.5c0,0,14.7,9.9,36,7.5c21.3-2.5,32.9-10.6,33.9-11.4c1-0.8,1-0.8,1-0.8
		s-3.9-36.2-3.9-38.7s6.4-48.4,6.8-49c0.4-0.6,17.4,2.3,27.7-0.8c10.3-3.1,12.2-6.8,11.4-12.4c-0.8-5.6-12.4-28.8-18.4-36.8
		c-6-8.1-15.3-23-17.6-25.2c-2.3-2.3-15.3-4.8-17.4-5.6c-2.1-0.8-3.3,1.2-3.5,2.1c-0.2,0.8-0.6,7.2-1.2,8.7
		c-0.6,1.4,3.7,2.5,5.8,2.9c2.1,0.4,3.3-1.9,3.3-1.9s3.1,1.4,5.2,1.4c2.1,0,4.6,0,4.6,0s7.7,17,8.9,23.2c1.2,6.2,3.5,20.5,3.5,20.5
		l-16.3-6.8c0,0-4.3-3.9-10.8-3.3c-6.4,0.6-14.3,5-15.3,5s-7.4,0-7.4,0L125.1,289z"/>
	<path class="st8" d="M190.9,288.7l-12.2-5.1c0,0-4.3-3.9-10.8-3.3c-6.4,0.6-14.3,5-15.3,5c-1,0-7.4,0-7.4,0l-20.1,3.7
		c0,0-27.1,11.6-31.2,16.1c-4.1,4.6-11.4,36.8-11.4,36.8s-0.2,0.6-0.5,1.6l21,5.2l3.1,12.2l3.1,20.5l-0.2,25.5c0,0,14.7,9.9,36,7.5
		c21.3-2.5,32.9-10.6,33.9-11.4c1-0.8,1-0.8,1-0.8s-3.9-36.2-3.9-38.7s6.4-48.4,6.8-49c0.1-0.2,2.1,0,5.1,0.2c-1.6-2.3-3-5.5-3-9.7
		C184.9,297.7,188.9,291.4,190.9,288.7z"/>
	<g>
		<path class="st7" d="M122.6,298.3l0.2-8.3c-1,0.4-2.2,1-3.7,1.6c0.1,7.2,0.6,24.4,3.1,39.8c3.3,20.1,10.3,39.3,10.3,39.3l2.9-0.4
			c0,0-3.7-16.1-7.7-29.2C123.9,328.1,122.6,298.3,122.6,298.3z"/>
		<path class="st7" d="M147.9,332.4c2.9-16.1,4.6-36,4.8-40.8c0.1-2.6,0.2-4.9,0.2-6.4c-0.1,0-0.1,0-0.2,0c-0.4,0-1.7,0-3.1,0
			c0.3,2.8,0.2,9.2-1.8,24.2c-3.7,27.1-12.2,60.8-12.2,60.8l3.5,1C139,371.3,145,348.6,147.9,332.4z"/>
	</g>
	<polyline class="st4" points="172.9,245.3 170,242.2 168.6,244.3 	"/>
	<path class="st4" d="M195.1,290.4c0,0,0.6,8.1,2.3,10.3"/>
	<line class="st4" x1="102.8" y1="347.3" x2="99.1" y2="327.4"/>
	<line class="st4" x1="182.9" y1="314.4" x2="174" y2="314"/>
	
		<rect x="126.6" y="368.8" transform="matrix(0.9933 0.1152 -0.1152 0.9933 45.0545 -13.0261)" class="st3" width="17.2" height="29"/>
	<g>
		<path class="st3" d="M106.1,353.3c0,0-8.5,0.6-9.1,0.6c-0.6,0-9.9-0.6-16.6,1.2s-7.2,12-7.2,14.7c0,2.7,3.3,9.1,10.3,9.7
			c7,0.6,19.7-13.7,20.1-14.3c0.4-0.6,6.2-0.4,7.9-1c1.7-0.6,4.8-2.9,4.8-2.9s0.8,1.9,2.3,1.7c1.4-0.2,12.2-11.2,12.8-13.2
			c0.6-2.1,1.2-2.7-0.4-3.7c-1.7-1-7.5-6-9.7-5.4C118.9,341.3,106.1,353.3,106.1,353.3z"/>
		<path class="st3" d="M131.3,349.8c0,0,3.1-0.4,2.9,1c-0.2,1.4-2.5,5.8-4.8,6.4c-2.3,0.6-2.9-1.7-2.9-1.7L131.3,349.8z"/>
		<path class="st4" d="M112.5,349.7c0,0,1-0.3,1.6,0.9c0.6,1.2,1.5,2.1,1.5,2.1l7,6.4"/>
		<path class="st4" d="M116.5,345.9c0,0,1,0,1.1,0.8c0.1,0.8,0.2,1.3,0.2,1.3l8.8,7.6"/>
		<path class="st4" d="M120.1,342.6c0,0,1.4,0.6,1.6,1.4c0.2,0.8,0.5,1.3,0.5,1.3s7.3,5.7,7.3,6"/>
		<path class="st4" d="M116.2,361.4c0,0,0.7-2,1.1-2.1c0.4-0.1,0.8,0.8,0.8,0.8"/>
	</g>
	<path class="st3" d="M122.6,279.1c0,0-1,12.7,0.4,22.8c0.3,2.5,7.8,6.8,15.1,5.7c7.3-1.2,10.6-8.3,11.2-11.2
		c0.6-2.9-2.5-24.4-2.5-24.4s-1.2,7.3-11.2,9.3C125.7,283.3,122.6,279.1,122.6,279.1z"/>
	<g>
		<path class="st3" d="M116.3,258.2c0,0-2.8-3.1-4.4-1.2c-1.6,1.9-1.1,7.3,2,9.6c3.1,2.3,4.1,1.2,4.1,1.2l-0.4-8.8L116.3,258.2z"/>
		<path class="st5" d="M114.6,238.7c0,0-4.5,6-3.2,9.6c1.3,3.6,4.5,8.4,4.6,8.9c0.1,0.5,1.3,3.2,1.3,3.2l-0.5-19.8
			C116.8,240.5,116.6,237.1,114.6,238.7z"/>
		<path class="st3" d="M149.6,258.2c0,0,2.8-3.1,4.4-1.2c1.6,1.9,1.1,7.3-2,9.6c-3.1,2.3-4.1,1.2-4.1,1.2l0.4-8.8L149.6,258.2z"/>
		<path class="st5" d="M145,234.3c0,0,4.5,0.3,6.1,3.8c1.6,3.4-2,17.2-2.1,18.7c-0.1,1.5-6-22.2-6-22.2S144.2,233.9,145,234.3z"/>
		<path class="st5" d="M145,234.3c0,0-17,4.6-21.7,6.6c-4.6,1.9-12,1.2-13.2-5c-1.2-6.2,14.7-15.1,24-14.7
			C143.4,221.5,148.3,230,145,234.3z"/>
		<path class="st3" d="M145,234.3c0,0,2.9,6.8,3.5,11.8c0.6,5,0.2,18.8,0.2,23.6s-1,11-5.8,14.9c-4.8,3.9-10.8,3.9-15.5,1.5
			c-4.6-2.3-8.7-11-9.2-15.3c-0.6-4.3-2.3-30.4-2.3-30.4s4.1-4.3,14.7-6.8C141.1,231.2,145,234.3,145,234.3z"/>
		<path class="st5" d="M148.8,251.5c-0.2,0-0.3,0-0.3,0l-2.1,14.1c0,0-8.1-5.2-13.7-4.5c-5.6,0.8-11,7.4-12.4,7
			c-1.4-0.4-3.3-15.5-3.3-15.5l-0.3,0.3c0.5,7.4,1.2,15.6,1.5,17.9c0.6,4.3,4.6,13,9.2,15.3c4.6,2.3,10.6,2.3,15.5-1.5
			c4.8-3.9,5.8-10.1,5.8-14.9C148.7,266.1,148.9,257.7,148.8,251.5z"/>
		<path class="st3" d="M130.5,257.7c0,0-1.7,1.9-0.4,2.9c1.4,1,4.1,3.7,5.6,2.3c1.5-1.4,3.1-2.7,2.9-4.1c-0.2-1.4-0.2-1.4-0.2-1.4"
			/>
		<path class="st3" d="M127.4,267.7c0,0,6.8,3.3,13.9-0.4c0,0-1,8.7-6.8,9.7C130.1,277.8,127.4,267.7,127.4,267.7z"/>
		<path class="st4" d="M137.5,250.1c0,0,4.1-3.1,8-2.1"/>
		<path class="st4" d="M129.6,250.5c0,0-3.3-2.9-8.4-1.5"/>
		<path class="st6" d="M128.1,252.9c0,1.1-0.6,2.1-1.3,2.1c-0.7,0-1.3-0.9-1.3-2.1c0-1.1,0.6-2.1,1.3-2.1
			C127.5,250.9,128.1,251.8,128.1,252.9z"/>
		<path class="st6" d="M141.8,252.5c0,1.1-0.6,2.1-1.3,2.1c-0.7,0-1.3-0.9-1.3-2.1c0-1.1,0.6-2.1,1.3-2.1
			C141.2,250.4,141.8,251.3,141.8,252.5z"/>
	</g>
</g>
<line class="st4" x1="16.4" y1="441" x2="480.1" y2="441"/>
<polygon class="st3" points="251.2,99.8 246.4,104.6 251.2,108 "/>
<polygon class="st3" points="292.7,96.2 287.9,91.4 284.5,96.2 "/>
<polygon class="st3" points="280.2,126.6 275.4,121.8 272,126.6 "/>
<polygon class="st3" points="171.7,77.8 166.9,82.6 171.7,86 "/>
<polygon class="st3" points="213.2,74.2 208.4,69.4 205,74.2 "/>
<polygon class="st3" points="200.7,104.6 195.9,99.8 192.5,104.6 "/>
<polygon class="st3" points="378.1,83.3 373.3,88.1 378.1,91.5 "/>
<polygon class="st3" points="419.6,79.6 414.8,74.9 411.4,79.7 "/>
<polygon class="st3" points="407,110.1 402.3,105.3 398.9,110.1 "/>
<polygon class="st3" points="272.3,377.2 267.5,382 272.3,385.4 "/>
<polygon class="st3" points="313.8,373.6 309,368.8 305.6,373.6 "/>
<polygon class="st3" points="301.3,404 296.5,399.2 293.1,404 "/>
<polygon class="st3" points="431.8,304.6 427.1,309.4 431.8,312.8 "/>
<polygon class="st3" points="473.3,301 468.5,296.2 465.1,301 "/>
<polygon class="st3" points="460.8,331.4 456,326.6 452.6,331.4 "/>
<polygon class="st3" points="298.6,61.3 293.8,66 298.6,69.4 "/>
<polygon class="st3" points="340.1,57.6 335.3,52.9 331.9,57.6 "/>
<polygon class="st3" points="327.6,88 322.8,83.3 319.4,88 "/>
<polygon class="st3" points="276.3,201.2 271.5,205.9 276.3,209.3 "/>
<polygon class="st3" points="317.8,197.5 313,192.8 309.6,197.5 "/>
<polygon class="st3" points="305.3,227.9 300.5,223.2 297.1,228 "/>
<polygon class="st3" points="196.8,179.1 192,183.9 196.8,187.3 "/>
<polygon class="st3" points="238.3,175.5 233.5,170.7 230.1,175.5 "/>
<polygon class="st3" points="225.8,205.9 221,201.1 217.6,205.9 "/>
<polygon class="st3" points="145.9,203.5 141.1,208.3 145.9,211.7 "/>
<polygon class="st3" points="187.4,199.9 182.6,195.1 179.2,199.9 "/>
<polygon class="st3" points="174.9,230.3 170.1,225.6 166.7,230.3 "/>
<polygon class="st3" points="66.4,181.5 61.6,186.3 66.4,189.7 "/>
<polygon class="st3" points="107.9,177.9 103.1,173.1 99.7,177.9 "/>
<polygon class="st3" points="95.4,208.3 90.6,203.5 87.2,208.3 "/>
<polygon class="st3" points="129.8,280.9 125,285.7 129.8,289.1 "/>
<polygon class="st3" points="50.3,258.9 45.6,263.7 50.3,267.1 "/>
<polygon class="st3" points="91.8,255.2 87,250.5 83.6,255.3 "/>
<polygon class="st3" points="79.3,285.7 74.5,280.9 71.1,285.7 "/>
<polygon class="st3" points="255.3,341 250.6,345.8 255.3,349.2 "/>
<polygon class="st3" points="175.8,318.9 171.1,323.7 175.8,327.1 "/>
<polygon class="st3" points="217.3,315.3 212.5,310.5 209.1,315.3 "/>
<polygon class="st3" points="204.8,345.7 200,341 196.6,345.7 "/>
<polygon class="st3" points="126.2,408.8 121.4,413.6 126.2,417 "/>
<polygon class="st3" points="46.7,386.8 41.9,391.5 46.7,394.9 "/>
<polygon class="st3" points="88.2,383.1 83.4,378.4 80,383.1 "/>
<polygon class="st3" points="75.7,413.5 70.9,408.8 67.5,413.5 "/>
<polygon class="st3" points="444.7,389.2 439.9,393.9 444.7,397.3 "/>
<polygon class="st3" points="365.2,367.1 360.4,371.9 365.2,375.3 "/>
<polygon class="st3" points="406.7,363.5 401.9,358.7 398.5,363.5 "/>
<polygon class="st3" points="394.2,393.9 389.4,389.1 386,393.9 "/>
<polygon class="st3" points="459.5,212.4 454.7,217.1 459.5,220.5 "/>
<polygon class="st3" points="380,190.3 375.3,195.1 380,198.5 "/>
<polygon class="st3" points="421.5,186.7 416.7,181.9 413.3,186.7 "/>
<polygon class="st3" points="409,217.1 404.2,212.3 400.8,217.1 "/>
<polygon class="st3" points="132.8,117.2 128,122 132.8,125.4 "/>
<polygon class="st3" points="174.3,113.6 169.5,108.8 166.1,113.6 "/>
<polygon class="st3" points="161.8,144 157,139.2 153.6,144 "/>
<polygon class="st3" points="53.3,95.2 48.5,100 53.3,103.4 "/>
<polygon class="st3" points="94.8,91.5 90,86.8 86.6,91.6 "/>
<polygon class="st3" points="82.3,122 77.5,117.2 74.1,122 "/>
<polygon class="st3" points="422.2,130 417.4,134.8 422.2,138.2 "/>
<polygon class="st3" points="463.7,126.4 458.9,121.6 455.5,126.4 "/>
<polygon class="st3" points="451.2,156.8 446.4,152 443,156.8 "/>
<polygon class="st3" points="138.9,46.8 134.1,42 130.7,46.8 "/>
<polygon class="st3" points="126.4,77.2 121.6,72.4 118.2,77.2 "/>
</svg>
