<?xml version="1.0" encoding="utf-8"?>
<!-- Generator: Adobe Illustrator 25.2.0, SVG Export Plug-In . SVG Version: 6.00 Build 0)  -->
<svg version="1.1" id="Layer_1" xmlns="http://www.w3.org/2000/svg" xmlns:xlink="http://www.w3.org/1999/xlink" x="0px" y="0px"
	 viewBox="0 0 500 500" style="enable-background:new 0 0 500 500;" xml:space="preserve">
<style type="text/css">
	.st0{fill:#8342EA;}
	.st1{opacity:0.7;fill:#FFFFFF;}
	.st2{fill:#1A2E35;}
	.st3{fill:none;stroke:#1A2E35;stroke-linecap:round;stroke-linejoin:round;stroke-miterlimit:10;}
	.st4{fill:#1A2E35;stroke:#1A2E35;stroke-linecap:round;stroke-linejoin:round;stroke-miterlimit:10;}
	.st5{fill:none;stroke:#1A2E35;stroke-miterlimit:10;}
	.st6{fill:#1A2E35;stroke:#1A2E35;stroke-miterlimit:10;}
	.st7{fill:#FFFFFF;stroke:#1A2E35;stroke-miterlimit:10;}
	.st8{fill:#EDEDED;stroke:#1A2E35;stroke-miterlimit:10;}
	.st9{fill:#8342EA;stroke:#1A2E35;stroke-miterlimit:10;}
	.st10{fill:none;stroke:#1A2E35;stroke-width:2;stroke-miterlimit:10;}
	.st11{fill:#6E6E6E;stroke:#1A2E35;stroke-miterlimit:10;}
	.st12{fill:#C4C4C4;stroke:#1A2E35;stroke-miterlimit:10;}
	.st13{fill:none;stroke:#1A2E35;stroke-width:2;stroke-linecap:round;stroke-linejoin:round;stroke-miterlimit:10;}
</style>
<g id="Background_Simple">
</g>
<g id="Graphics">
</g>
<g id="Shadow_4">
</g>
<g id="Shadow_3">
</g>
<g id="Shadow_2">
</g>
<g id="Shadow_1">
</g>
<g id="Character_4">
</g>
<g id="Character_2_1_">
</g>
<g id="Character_1">
</g>
<g id="Text">
</g>
<g>
	<path class="st0" d="M412,117.6c0,0-87.4-84.8-189.9-75C119.6,52.4,2.2,252,25,321.2s98.5,124.6,186.6,144.2
		c88.1,19.6,175.7-10.6,218.6-72.4S529.5,255.3,412,117.6z"/>
	<path class="st1" d="M412,117.6c0,0-87.4-84.8-189.9-75C119.6,52.4,2.2,252,25,321.2s98.5,124.6,186.6,144.2
		c88.1,19.6,175.7-10.6,218.6-72.4S529.5,255.3,412,117.6z"/>
</g>
<g>
	<g>
		<g>
			<path class="st2" d="M443,306.1L443,306.1C443,306,443,306,443,306.1c-0.1-0.1-0.1-0.1-0.1-0.1c-2.2,5.1-3.8,10.5-5.1,15.9
				c-1.3,5.4-2.2,11-2.8,16.5l-0.4,4.2c-0.1,0.7-0.1,1.4-0.2,2.1l-0.1,2.1c-0.1,1.4-0.1,2.8-0.2,4.2l0,4.2l0,2.1
				c0,0.7,0.1,1.4,0.1,2.1c0.1,1.4,0.2,2.8,0.3,4.2c0.3,2.8,0.7,5.5,1.1,8.3c0,0,0,0.1,0.1,0.1c0,0,0.1,0,0.1-0.1v0
				c0-1.4-0.1-2.8-0.1-4.2c0-1.4-0.2-2.8-0.1-4.2c0-1.4,0-2.8,0-4.2l0-2.1l0-2.1l0-4.2l0.1-4.2l0-2.1c0-0.7,0.1-1.4,0.1-2.1l0.3-4.2
				c0.5-5.5,1.2-11,2.4-16.5C439.6,316.7,441,311.2,443,306.1z"/>
			<path class="st2" d="M443.6,327.8C443.6,327.8,443.6,327.7,443.6,327.8c-0.1-0.1-0.1-0.1-0.1,0c-1.2,3.5-2.2,7-3,10.6
				c-0.8,3.6-1.4,7.2-1.7,10.9c-0.4,3.6-0.8,7.3-0.8,10.9c-0.1,3.7,0,7.3,0.4,11c0,0,0,0.1,0.1,0.1c0,0,0.1,0,0.1-0.1
				c0.4-3.6,0.7-7.3,0.9-10.9c0.3-3.6,0.3-7.3,0.5-10.9c0.2-3.6,0.7-7.2,1.3-10.8C441.8,334.9,442.6,331.3,443.6,327.8z"/>
			<path class="st2" d="M455.6,335.5c0,0-0.1,0-0.1,0c-3,1.9-5.7,4.3-8.1,7c-1.2,1.4-2.2,2.8-3.2,4.4l-0.6,1.2l-0.5,1.3
				c-0.2,0.4-0.3,0.9-0.4,1.3c-0.1,0.4-0.3,0.9-0.4,1.3c-0.9,3.5-1.5,7.1-1.7,10.6c-0.1,3.6-0.1,7.2,0.4,10.7c0,0,0,0.1,0.1,0.1
				c0,0,0.1,0,0.1-0.1l0.9-10.6c0.4-3.5,0.6-7,1.3-10.5c0.1-0.4,0.2-0.8,0.3-1.3c0.1-0.4,0.2-0.8,0.4-1.2l0.4-1.2l0.6-1.2
				c0.8-1.5,1.8-3,2.9-4.4c2.2-2.8,4.7-5.3,7.6-7.4L455.6,335.5C455.7,335.5,455.7,335.5,455.6,335.5z"/>
			<path class="st2" d="M449.8,349.1c-1.6,1.1-2.7,2.7-3.7,4.4c-0.9,1.7-1.6,3.5-2.1,5.4c-0.1,0.5-0.3,0.9-0.4,1.4l-0.3,1.4
				c-0.2,0.9-0.3,1.9-0.4,2.9c0,1,0,1.9,0,2.9c0.1,1,0.2,1.9,0.4,2.9c0,0,0,0.1,0.1,0.1c0,0,0.1,0,0.1-0.1c0.2-0.9,0.4-1.9,0.5-2.8
				c0.1-0.9,0.3-1.9,0.4-2.8c0.1-0.9,0.3-1.8,0.3-2.8c0.1-0.9,0.2-1.9,0.4-2.8c0.3-1.8,0.9-3.6,1.6-5.3c0.7-1.7,1.6-3.4,3.1-4.6l0,0
				c0,0,0-0.1,0-0.1C449.9,349.1,449.8,349.1,449.8,349.1z"/>
			<path class="st2" d="M432.9,359.7c-0.4-4.7-1.2-9.4-1.9-14c-0.7-4.7-1.5-9.3-2.4-13.9c-0.9-4.6-1.8-9.2-2.8-13.9
				c0,0,0-0.1-0.1-0.1c0,0-0.1,0-0.1,0.1c0.8,4.6,1.5,9.3,2.2,13.9c0.7,4.7,1.4,9.3,2,14c0.6,4.7,1,9.3,1.6,14l1.7,14
				c0,0,0,0.1,0.1,0.1c0,0,0.1,0,0.1-0.1c0.1-1.2,0.1-2.4,0.1-3.5c0-1.2,0-2.4-0.1-3.5C433.3,364.4,433.1,362,432.9,359.7z"/>
			<path class="st2" d="M430.1,359.6c-0.3-1.9-0.6-3.7-0.9-5.6l-0.7-2.7c-0.2-0.9-0.4-1.8-0.7-2.7c-0.9-3.6-2.1-7.2-3.6-10.7
				l-0.6-1.3l-0.6-1.3c-0.4-0.9-0.9-1.7-1.3-2.5c-1-1.6-2-3.2-3.4-4.5c0,0-0.1,0-0.1,0c0,0,0,0.1,0,0.1l0,0c1.3,1.3,2.2,3,3.1,4.6
				c0.4,0.8,0.8,1.7,1.2,2.5l0.6,1.3l0.5,1.3c1.3,3.5,2.3,7.1,3.1,10.7c0.4,1.8,0.7,3.7,1.1,5.5l0.4,2.8c0.2,0.9,0.4,1.8,0.5,2.8
				c0.3,1.8,0.6,3.7,1,5.5c0.3,1.8,0.6,3.7,1,5.5c0,0,0,0.1,0.1,0.1c0,0,0.1,0,0.1-0.1c0-1.9,0-3.8-0.1-5.6
				C430.5,363.4,430.3,361.5,430.1,359.6z"/>
			<path class="st2" d="M426.2,359.9c-0.9-2.5-1.9-4.9-3-7.3c-1.1-2.4-2.3-4.7-3.7-6.9c0,0-0.1,0-0.1,0c0,0,0,0.1,0,0.1
				c1.2,2.3,2.3,4.7,3.2,7.1c1,2.4,1.8,4.8,2.5,7.3c0.7,2.5,1.3,5,1.9,7.5c0.7,2.5,1.3,5,2,7.5c0,0,0,0.1,0.1,0.1c0,0,0.1,0,0.1-0.1
				c0-2.6-0.2-5.3-0.7-7.8C428,364.8,427.1,362.3,426.2,359.9z"/>
			<path class="st2" d="M426,368.1c-0.4-1.5-1.2-3-2.1-4.3c-0.8-1.4-1.8-2.7-3-3.7c-0.6-0.5-1.2-1-1.9-1.4c-0.7-0.4-1.4-0.8-2.2-1
				c0,0-0.1,0-0.1,0c0,0,0,0.1,0,0.1l0,0c1.4,0.6,2.6,1.7,3.6,2.8c1,1.1,1.8,2.4,2.5,3.8c0.7,1.4,1.1,2.8,1.7,4.2
				c0.3,0.7,0.5,1.4,0.9,2.1c0.3,0.7,0.6,1.5,0.9,2.2l0,0c0,0,0,0,0.1,0c0,0,0.1,0,0.1-0.1c0-0.8,0-1.6-0.1-2.4
				C426.4,369.7,426.2,368.9,426,368.1z"/>
		</g>
		<path class="st0" d="M426.3,324.6c0,0-7.7-1.8-9.5-10.1c-1.8-8.3,4-4.7-1.2-17.8c-5.1-13-4-16-2.2-19.8c1.8-3.8,2.8-2.6,4.3,2.4
			c1.6,4.9,7.3,12.7,9.5,27.1C429.5,320.9,426.3,324.6,426.3,324.6z"/>
		<path class="st0" d="M441.5,310.6c0,0-5.1-1.8-5.3-11.5c-0.2-9.7,3.8-7.7,4.3-19.8c0.6-12.1,1.4-20.6,3.6-20.8
			c2.2-0.2,7.9,5.9,9.9,19.4c2,13.4-2.6,22.3-6.5,26.3C443.5,308.2,441.5,310.6,441.5,310.6z"/>
		<path class="st0" d="M423.6,336.3c0,0-1.2-7.1-3.6-10.5c-2.4-3.4-7.5-6.3-10.9-12.9c-3.4-6.5-7.1-9.7-6.9-0.4
			c0.2,9.3,4.3,14,9.5,17.2C416.8,332.9,423.6,336.3,423.6,336.3z"/>
		<path class="st0" d="M421.4,348.5c0,0-4.7-9.1-11.7-15.8c-6.9-6.7-12.5-10.1-10.5-6.7c2,3.4,4.3,3.2,7.7,9.1
			c3.4,5.9,2.4,10.3,7.1,13.6C418.8,352.1,421.4,348.5,421.4,348.5z"/>
		<path class="st0" d="M420.8,360.2c-0.2-0.6-0.4-4.9-7.1-8.5c-6.7-3.6-13-2.2-12.3-0.4c0.8,1.8,4.9,4.7,9.1,6.5
			C414.7,359.6,420.8,360.2,420.8,360.2z"/>
		<path class="st0" d="M441.2,336.7c0,0-3-3.8-1.4-11.7c1.6-7.9,5.1-5.9,9.1-10.1c4-4.2,3.2-4.7,7.1-9.1c4-4.3,7.5-6.7,9.1-4.9
			c1.6,1.8-0.8,7.3-3.2,10.5c-2.4,3.2-6.1,4.7-7.9,8.7c-1.8,4-1,10.3-5.5,13.2C443.9,336.3,441.2,336.7,441.2,336.7z"/>
		<path class="st0" d="M451,338.9c0,0,7.1-8.1,12.3-14c5.1-5.9,7.1-10.5,7.3-6.5c0.2,4,1.8,7.1-2.4,12.3
			C464.1,335.7,451,338.9,451,338.9z"/>
		<path class="st0" d="M447.3,351.9c0,0-0.2-3.2,11.1-10.5c11.3-7.3,16-8.7,14.8-5.7c-1.2,3-6.1,5.9-11.5,11.3
			C456.4,352.3,447.3,351.9,447.3,351.9z"/>
		<path class="st3" d="M426.8,323.8c0,0-2.6-14.2-5.4-24.3c-2.8-10.1-4.5-16.2-4.5-16.2"/>
		<path class="st3" d="M441.1,310.7c0,0,4.8-15.4,6.4-24.7c1.6-9.3-0.2-16.2-1-20.4"/>
		<path class="st3" d="M422.9,336c0,0-2.9-5.2-7.3-10.4c-4.3-5.1-7.7-7.9-9.7-12.9"/>
		<path class="st3" d="M441.2,336.7c0,0,1.6-9.5,5.3-14.4c3.8-4.9,11.3-12.7,14.2-17.6"/>
		<path class="st3" d="M420.3,360c0,0-6.7-4.3-11.4-6.7"/>
	</g>
	<g>
		<g>
			<path class="st4" d="M458.4,399.8c-0.4-12-13.8-20-13.8-20h-8.4h-3.6h-8.4c0,0-13.3,8-13.8,20c-0.4,12,15.1,56,15.1,56h7.1h3.6
				h7.1C443.3,455.8,458.9,411.8,458.4,399.8z"/>
			<polygon class="st4" points="447.3,368.1 421.2,368.1 424.2,379.8 444.3,379.8 			"/>
		</g>
	</g>
</g>
<g>
	<rect x="300.7" y="25.7" class="st5" width="107.5" height="121.3"/>
	<rect x="305.6" y="31.3" class="st5" width="97.6" height="110.1"/>
	<rect x="331.3" y="60.3" class="st5" width="46.1" height="52.1"/>
</g>
<g>
	<rect x="417.5" y="101.2" class="st5" width="59.7" height="67.3"/>
	<rect x="420.2" y="104.3" class="st5" width="54.2" height="61.1"/>
	<rect x="434.5" y="120.4" class="st5" width="25.6" height="28.9"/>
</g>
<g>
	
		<ellipse transform="matrix(0.7071 -0.7071 0.7071 0.7071 -22.2098 107.865)" class="st5" cx="119.1" cy="80.7" rx="40.1" ry="40.1"/>
	
		<ellipse transform="matrix(0.1652 -0.9863 0.9863 0.1652 19.7865 184.8618)" class="st5" cx="119.1" cy="80.7" rx="37.1" ry="37.1"/>
	<path class="st5" d="M122.3,80.7c0,1.8-1.4,3.2-3.2,3.2c-1.8,0-3.2-1.4-3.2-3.2c0-1.8,1.4-3.2,3.2-3.2
		C120.9,77.6,122.3,79,122.3,80.7z"/>
	<line class="st5" x1="115.9" y1="80.7" x2="105.1" y2="80.7"/>
	<line class="st5" x1="119.1" y1="83.9" x2="119.1" y2="108.2"/>
</g>
<g>
	<g>
		<rect x="115.8" y="272.9" class="st6" width="34" height="3"/>
		<rect x="115.8" y="251.3" class="st6" width="17.4" height="24.6"/>
		<rect x="66.6" y="166.8" class="st6" width="110.4" height="86.2"/>
		<rect x="69.9" y="166.8" class="st7" width="110.4" height="86.2"/>
		<rect x="73.8" y="169.8" class="st8" width="102.7" height="80.1"/>
	</g>
	<rect x="157.5" y="272.1" class="st7" width="85.2" height="3.7"/>
</g>
<g>
	<path class="st7" d="M75,282.1l-0.1,6.4l-3.3,163.8c0,2-1.6,3.5-3.6,3.5c-2,0-3.6-1.6-3.6-3.5l-3.3-163.8l-0.1-6.4H75z"/>
	<polygon class="st6" points="75,282.1 74.9,288.5 61.1,288.5 61,282.1 	"/>
	<path class="st7" d="M384.8,455.8L384.8,455.8c-2,0-3.5-1.6-3.6-3.5l-3.4-170.2h14l-3.4,170.2C388.4,454.3,386.8,455.8,384.8,455.8
		z"/>
	<polygon class="st6" points="377.9,288.5 391.7,288.5 391.9,282.1 377.8,282.1 	"/>
	<rect x="52.7" y="275.8" class="st7" width="346.2" height="8.3"/>
</g>
<g>
	<rect x="248.7" y="352" class="st6" width="17.4" height="66.9"/>
	<polygon class="st6" points="184.7,314.9 191.9,340.9 195.2,336 186.8,314.6 	"/>
	<path class="st9" d="M197.3,299.6h-10.8c-1.5,0-2.9,0.4-4.1,1.3c-1.5,1.1-9.5,10.9-11.4,14.1c-0.8,1.3,0.2,3,1.7,3h10.7
		c0.7,0,1.4-0.1,2.1-0.3l0,0c1.3-0.4,2.5-1.3,3.3-2.5l9.5-12.9C198.3,302.3,199.4,300.9,197.3,299.6z"/>
	<polygon class="st6" points="326,314.9 318.8,340.9 315.5,336 323.9,314.6 	"/>
	<path class="st9" d="M313.4,299.6h10.8c1.5,0,2.9,0.4,4.1,1.3c1.5,1.1,9.5,10.9,11.4,14.1c0.8,1.3-0.2,3-1.7,3h-10.7
		c-0.7,0-1.4-0.1-2.1-0.3l0,0c-1.3-0.4-2.5-1.3-3.3-2.5l-9.5-12.9C312.4,302.3,311.3,300.9,313.4,299.6z"/>
	<path class="st9" d="M286.8,248.4h-62.5c-13.5,0-24.5,11-24.5,24.5v61.7h111.5v-61.7C311.3,259.3,300.4,248.4,286.8,248.4z"/>
	<path class="st9" d="M314.6,347.5H196.7c-4.1,0-6.8-4.3-5-8l8.2-6.8c1-2.1,3.1-3.4,5.4-3.4H306c2.3,0,4.4,1.3,5.4,3.4l8.2,6.8
		C321.4,343.2,318.7,347.5,314.6,347.5z"/>
	<path class="st6" d="M200.1,347.1c0,0,22,6.4,55.7,7.6c33.8,1.1,58.7-7.2,58.7-7.2L200.1,347.1z"/>
	<line class="st10" x1="251.7" y1="353.6" x2="211.5" y2="359.2"/>
	<g>
		<path class="st2" d="M214.3,365.1h-5.4c-0.6,0-1.1-0.5-1-1.1l0.6-5.1c0.1-0.5,0.5-0.9,1-0.9h4.1c0.5,0,0.9,0.4,1,0.9l0.6,5.1
			C215.4,364.5,214.9,365.1,214.3,365.1z"/>
		<path class="st2" d="M214.3,365.8h-5.4c-0.5,0-1-0.2-1.3-0.6c-0.3-0.4-0.5-0.9-0.4-1.4l0.6-5.1c0.1-0.9,0.9-1.6,1.8-1.6h4.1
			c0.9,0,1.7,0.7,1.8,1.6l0.6,5.1c0.1,0.5-0.1,1-0.4,1.4C215.3,365.6,214.8,365.8,214.3,365.8z M209.6,358.7c-0.1,0-0.2,0.1-0.2,0.2
			l-0.6,5.1c0,0.1,0,0.2,0.1,0.2c0,0,0.1,0.1,0.2,0.1h5.4c0.1,0,0.1,0,0.2-0.1c0,0,0.1-0.1,0.1-0.2l-0.6-5.1c0-0.1-0.1-0.2-0.2-0.2
			H209.6z"/>
	</g>
	<g>
		<path class="st2" d="M193.2,447.6H187v-7.4c0-13.4,10.9-24.4,24.4-24.4h37.3v6.2h-37.3c-10,0-18.2,8.2-18.2,18.2V447.6z"/>
	</g>
	<g>
		<path class="st2" d="M319.9,447.6h6.2v-7.4c0-13.4-10.9-24.4-24.4-24.4h-37.3v6.2h37.3c10,0,18.2,8.2,18.2,18.2V447.6z"/>
	</g>
	<path class="st11" d="M201.7,449.4c0-3.6-2.9-6.4-6.4-6.4s-6.4,2.9-6.4,6.4c0,3.6,2.9,6.4,6.4,6.4S201.7,453,201.7,449.4z"/>
	<path class="st11" d="M324.6,449.4c0-3.6-2.9-6.4-6.4-6.4c-3.6,0-6.4,2.9-6.4,6.4c0,3.6,2.9,6.4,6.4,6.4
		C321.7,455.8,324.6,453,324.6,449.4z"/>
	<rect x="253.3" y="416.7" class="st2" width="7.8" height="31"/>
	<path class="st11" d="M255.9,455.5h2.8c1.4,0,2.6-1.2,2.6-2.6V446c0-1.4-1.2-2.6-2.6-2.6h-2.8c-1.4,0-2.6,1.2-2.6,2.6v6.9
		C253.3,454.4,254.5,455.5,255.9,455.5z"/>
</g>
<g>
	<g>
		<path class="st12" d="M145.7,245.7c0,0-3.4-2.8-4.9-5.4c-1.5-2.6-2.8-2.6-4.6-3.4s-8.7-4.1-10.7-6.5c-2-2.4-4.9-1.9-4.9-0.4
			c0,1.5,4,6.5,5.7,7.5c1.7,1.1,3.8,2.8,1.9,3.7c-2,0.9-4.9,2-6.5,2.4c-1.6,0.4-6.6-0.8-8.1-0.8c-1.5,0-0.4,2.3,3.4,7.1
			c3.8,4.9,9.9,7.5,14.2,6.8c4.2-0.8,9-1.1,9-1.1l6.9,3.4L145.7,245.7z"/>
		<g>
			<path class="st12" d="M122.1,249.6c0,0,0.1-5.6,0.1-7.5c0-2,1.3-7.9,0.8-8.9c-0.5-0.9-2.8,0-2.8,0s1.2-4.4,0.8-4.6
				c-0.4-0.3-2.1,0.4-2.9,0.8c-0.8,0.4-2.4,0-2.9,0.7c-0.5,0.7-5.2,8.6-5.2,10.7c0,2.1,2.8,6.5,5.6,8.5
				C118.4,251.2,121.7,253.7,122.1,249.6z"/>
			<path class="st12" d="M120.3,233.1c0,0-2.9,7.5-3,12.8"/>
			<path class="st12" d="M118.1,229.3c0,0-5.8,9.8-5.4,13.4c0.4,3.6,1.7,4.4,1.7,4.4"/>
		</g>
		<path class="st12" d="M140.9,248.9c0,0-3.8-2.6-6.6-2.4c-2.8,0.3-10.1,3.8-10.1,3.8s-7.7-5.4-8.7-5.8c-1.1-0.4-2.9-1.1-2.9,0.1
			c0,1.2,2.9,2.4,4.6,4.6c1.7,2.3,5.6,5.2,6.9,5.4c1.3,0.3,4.2,1.5,4.2,1.5"/>
	</g>
	<polygon class="st7" points="149.6,245.9 144.2,244.5 144.8,260.2 148.8,261.3 	"/>
	<path class="st9" d="M245.1,209.4l-15.4,6.2v91.8c0,0,14.4-2.3,26.2-2.3s23.7,2.3,23.7,2.3l2.6-95.9l-9.8-2.6L245.1,209.4z"/>
	<path class="st12" d="M272.4,208.9c0,0-12.9,16.2-14.4,16.5c-1.5,0.3-14.4-14.4-14.4-14.4l0-2.2l-0.2-16l2.8,0.7l24.7,6.5
		L272.4,208.9z"/>
	<polygon class="st6" points="256.6,206.9 243.6,208.7 243.3,192.7 246.1,193.4 	"/>
	<g>
		<path class="st12" d="M247.1,150.1c0,0-11.1,4.9-11.4,11.4c-0.3,6.5,1.6,19.2,1.6,19.2s-3.1-2.8-3.1,1s0.3,7,1.6,8.3
			c1.3,1.3,4.9,1.8,4.9,1.8s2.8,5.7,3.6,8.3c0.8,2.6,7.2,7.8,12.2,9.6c4.9,1.8,10.1-2.3,11.6-3.4c1.6-1,5.7-5.2,6.2-7.5
			c0.5-2.3,2.9-8,2.9-8s3.9-1.6,4.9-6.5c1-4.9-3.6-5.4-3.6-5.4s-0.3-17.1-2.6-21.5c-2.3-4.4-9.1-6.7-15-8.5
			C254.9,147,247.1,150.1,247.1,150.1z"/>
		<path class="st3" d="M251.8,193.6c0,0,6.2,5.7,14.2-0.5"/>
		<path class="st3" d="M254.1,185.9c0,0,1.8,2.3,4.7,2.1c2.8-0.3,3.9-2.8,3.9-2.8"/>
		<path class="st3" d="M244,177.3c0,0,3.9-2.8,6.7-0.8"/>
		<path class="st3" d="M264.7,175.8c0,0,3.9-1.6,7.5,0.8"/>
		<path class="st6" d="M260.8,148.8c-6-1.8-13.7,1.3-13.7,1.3s-11.1,4.9-11.4,11.4c-0.3,6.5,1.6,19.2,1.6,19.2s2.6-1,2.3-4.1
			c-0.3-3.1-1.8-9.8,0-15s5.2-8.5,8.3-8.5c3.1,0,7.8,0.8,11.4,1c3.6,0.3,4.7-1.3,8.5-1c3.9,0.3,5.7,6.7,5.4,9.6
			c-0.3,2.8,0,4.1,1,6.7c1,2.6,2.6,8.3,2.6,9.3s1.6,0.3,1.6,0.3s-0.3-17.1-2.6-21.5C273.5,153,266.8,150.7,260.8,148.8z"/>
		<g>
			<path class="st13" d="M255.4,169.3c0,0-16.3,1-18.1,2.8c-1.8,1.8,2.3,9.6,4.9,10.4c2.6,0.8,9.8,0.8,11.6-0.8
				c1.8-1.6,2.7-9.9,2.7-9.9h1.6l0-2.5H255.4z"/>
			<path class="st13" d="M259.6,169.3c0,0,16.3,1,18.1,2.8c1.8,1.8-2.3,9.6-4.9,10.4c-2.6,0.8-9.8,0.8-11.6-0.8
				c-1.8-1.6-2.7-9.9-2.7-9.9h-1.6l0-2.5H259.6z"/>
		</g>
		<path class="st13" d="M242,168.9c0,0,4.4-3.7,11.4-1.5"/>
		<path class="st13" d="M270.8,168.9c0,0-4.4-3.7-11.4-1.5"/>
	</g>
	<path class="st6" d="M243.6,209.4c0,0,1.3,28-1.5,58.4c-2.8,30.3-8.2,42.9-8.2,42.9s-10.8,2.8-11.6,2.8c-0.8,0-11.8-0.5-11.8-0.5
		l-0.3-53c0,0-23.4,8-30.1,8.7c-6.7,0.8-33.6-5.5-33.6-5.5l2.2-20.7c0,0,29.6,4.9,31.1,4.9c1.5,0,23.7-10.8,23.7-10.8
		s4.4-18.3,8.7-20.8S243.6,209.4,243.6,209.4z"/>
	<g>
		<path class="st12" d="M360.9,245.7c0,0,3.4-2.8,4.9-5.4c1.5-2.6,2.8-2.6,4.6-3.4c1.9-0.8,8.7-4.1,10.7-6.5c2-2.4,4.9-1.9,4.9-0.4
			c0,1.5-4,6.5-5.7,7.5c-1.7,1.1-3.8,2.8-1.9,3.7c2,0.9,4.9,2,6.5,2.4c1.6,0.4,6.6-0.8,8.1-0.8c1.5,0,0.4,2.3-3.4,7.1
			c-3.8,4.9-9.9,7.5-14.2,6.8c-4.2-0.8-9-1.1-9-1.1l-6.9,3.4L360.9,245.7z"/>
		<g>
			<path class="st12" d="M384.5,249.6c0,0-0.1-5.6-0.1-7.5c0-2-1.3-7.9-0.8-8.9c0.5-0.9,2.8,0,2.8,0s-1.2-4.4-0.8-4.6
				c0.4-0.3,2.1,0.4,2.9,0.8c0.8,0.4,2.4,0,2.9,0.7c0.5,0.7,5.2,8.6,5.2,10.7c0,2.1-2.8,6.5-5.6,8.5
				C388.2,251.2,384.9,253.7,384.5,249.6z"/>
			<path class="st12" d="M386.4,233.1c0,0,2.9,7.5,3,12.8"/>
			<path class="st12" d="M388.5,229.3c0,0,5.8,9.8,5.4,13.4c-0.4,3.6-1.7,4.4-1.7,4.4"/>
		</g>
		<path class="st12" d="M365.7,248.9c0,0,3.8-2.6,6.6-2.4c2.8,0.3,10.1,3.8,10.1,3.8s7.7-5.4,8.7-5.8c1.1-0.4,2.9-1.1,2.9,0.1
			c0,1.2-2.9,2.4-4.6,4.6c-1.7,2.3-5.6,5.2-6.9,5.4c-1.3,0.3-4.2,1.5-4.2,1.5"/>
	</g>
	<polygon class="st7" points="357.1,245.9 362.4,244.5 361.8,260.2 357.8,261.3 	"/>
	<path class="st6" d="M272.4,209.4c0,0-1.3,28,1.5,58.4c2.8,30.3,8.2,42.9,8.2,42.9s10.8,2.8,11.6,2.8c0.8,0,11.8-0.5,11.8-0.5
		l0.3-53c0,0,23.4,8,30.1,8.7c6.7,0.8,23-6.8,23-6.8l0.1-17.1c0,0-21.3,2.6-22.9,2.6c-1.5,0-23.7-10.8-23.7-10.8s-4.4-18.3-8.7-20.8
		S272.4,209.4,272.4,209.4z"/>
	<polyline class="st5" points="244.7,235.6 257.5,227.9 271,239.1 	"/>
	<path class="st11" d="M197.7,300.1c0,0,11.7,24.8,31.1,32.2c19.4,7.4,30.5,9.1,47.3,5.4c16.8-3.7,38.5-19.1,42.5-45.1
		c0,0-18.5,15.4-36.5,20.8c-18,5.4-47.1-0.6-59.9-6.6C209.4,300.9,195.2,291.8,197.7,300.1z"/>
	<path class="st11" d="M288.3,305.8c0,0-18.1-3.5-33.2-3.9c-15-0.4-34.3,11.6-34.3,11.6s32.4,19.7,38.2,21.2
		c5.8,1.5,23.9-13.9,28.2-18.5C291.4,311.6,291.4,305.8,288.3,305.8z"/>
	<g>
		<path class="st11" d="M269,325.2c0,0-13.9-4.2-29.3-23.5c-15.4-19.3-34.3-44.4-40.9-51.3c-6.6-6.9-20.8,0.4-20.1,16.6
			c0.8,16.2,20.1,39.7,40.1,52.5c20.1,12.7,44.7,20.1,50.9,21.6c6.2,1.5,22,9.3,29.7,8.1c7.7-1.2,12.7-17.4,6.9-20.4
			c-5.8-3.1-25.5,0.4-32-1.5C267.9,325.2,269,325.2,269,325.2z"/>
		<path class="st6" d="M306.5,328.7c-5.8-3.1-25.5,0.4-32-1.5c-0.3-0.1-0.6-0.2-0.8-0.2c-1.7,1.9-3.4,4.9-3.4,9.1
			c0,1.9,0.5,3.8,1.2,5.5c7,2.2,21,8.7,28.1,7.6C307.2,348,312.2,331.8,306.5,328.7z"/>
	</g>
	<g>
		<path class="st11" d="M240.7,326.4c0,0,13.9-4.2,29.3-23.5c15.4-19.3,34.3-44.4,40.9-51.3c6.6-6.9,20.8,0.4,20.1,16.6
			c-0.8,16.2-20.1,39.7-40.1,52.5c-20.1,12.7-44.7,20.1-50.9,21.6c-6.2,1.5-22,9.3-29.7,8.1c-7.7-1.2-12.7-17.4-6.9-20.4
			c5.8-3.1,25.5,0.4,32-1.5C241.8,326.4,240.7,326.4,240.7,326.4z"/>
		<path class="st6" d="M203.2,329.8c5.8-3.1,25.5,0.4,32-1.5c0.3-0.1,0.6-0.2,0.8-0.2c1.7,1.9,3.4,4.9,3.4,9.1
			c0,1.9-0.5,3.8-1.2,5.5c-7,2.2-21,8.7-28.1,7.6C202.5,349.1,197.5,332.9,203.2,329.8z"/>
	</g>
	<g>
		<line class="st5" x1="245.9" y1="275.7" x2="263.6" y2="287.3"/>
		<line class="st5" x1="255.5" y1="286.2" x2="265.2" y2="291.2"/>
	</g>
</g>
<line class="st7" x1="15.9" y1="455.8" x2="482.5" y2="455.8"/>
</svg>
