<?xml version="1.0" encoding="utf-8"?>
<!-- Generator: Adobe Illustrator 25.2.0, SVG Export Plug-In . SVG Version: 6.00 Build 0)  -->
<svg version="1.1" id="Layer_1" xmlns="http://www.w3.org/2000/svg" xmlns:xlink="http://www.w3.org/1999/xlink" x="0px" y="0px"
	 viewBox="0 0 500 500" style="enable-background:new 0 0 500 500;" xml:space="preserve">
<style type="text/css">
	.st0{fill:#8342EA;}
	.st1{opacity:0.7;fill:#FFFFFF;}
	.st2{fill:#1A2E35;}
	.st3{fill:none;stroke:#1A2E35;stroke-linecap:round;stroke-linejoin:round;stroke-miterlimit:10;}
	.st4{fill:#1A2E35;stroke:#1A2E35;stroke-linecap:round;stroke-linejoin:round;stroke-miterlimit:10;}
	.st5{opacity:0.3;fill:none;stroke:#000000;stroke-linecap:round;stroke-linejoin:round;stroke-miterlimit:10;}
	.st6{fill:#8342EA;stroke:#1A2E35;stroke-linecap:round;stroke-linejoin:round;stroke-miterlimit:10;}
	.st7{fill:#5AE4A7;stroke:#1A2E35;stroke-linecap:round;stroke-linejoin:round;stroke-miterlimit:10;}
	.st8{fill:#C2C2C2;stroke:#1A2E35;stroke-linecap:round;stroke-linejoin:round;stroke-miterlimit:10;}
	.st9{fill:#FFFFFF;stroke:#1A2E35;stroke-linecap:round;stroke-linejoin:round;stroke-miterlimit:10;}
	.st10{fill:none;stroke:#7D7D7D;stroke-linecap:round;stroke-linejoin:round;stroke-miterlimit:10;}
	.st11{fill:none;stroke:#1A2E35;stroke-width:2;stroke-linecap:round;stroke-linejoin:round;stroke-miterlimit:10;}
</style>
<g id="Background_Simple">
</g>
<g id="Graphics">
</g>
<g id="Shadow_4">
</g>
<g id="Shadow_3">
</g>
<g id="Shadow_2">
</g>
<g id="Shadow_1">
</g>
<g id="Character_4">
</g>
<g id="Character_2_1_">
</g>
<g id="Character_1">
</g>
<g id="Text">
</g>
<g>
	<path class="st0" d="M478.5,236.3c6.1-53.9-12.1-107.9-50.3-146.4c-18.8-18.9-44.5-36.7-78.7-45.3c-95.8-24.1-157.9-2-188.9,56.7
		c-31,58.7-120.1,48.6-134.2,149.8s54.6,212.5,171.3,218.6s101.7-52,165.5-76.9C412.1,373.7,469.4,316.7,478.5,236.3z"/>
	<path class="st1" d="M478.5,236.3c6.1-53.9-12.1-107.9-50.3-146.4c-18.8-18.9-44.5-36.7-78.7-45.3c-95.8-24.1-157.9-2-188.9,56.7
		c-31,58.7-120.1,48.6-134.2,149.8s54.6,212.5,171.3,218.6s101.7-52,165.5-76.9C412.1,373.7,469.4,316.7,478.5,236.3z"/>
</g>
<g>
	<g>
		<path class="st2" d="M95.3,245.9L95.3,245.9c0-0.1,0-0.2-0.1-0.2c-0.1,0-0.1,0-0.2,0.1c-4.1,9.5-7,19.5-9.4,29.5
			c-2.3,10.1-4,20.3-5.2,30.6l-0.7,7.7c-0.1,1.3-0.3,2.6-0.3,3.9l-0.2,3.9c-0.1,2.6-0.3,5.2-0.3,7.8l0.1,7.8l0.1,3.9
			c0.1,1.3,0.2,2.6,0.2,3.9c0.2,2.6,0.4,5.2,0.6,7.7c0.5,5.2,1.3,10.3,2.1,15.4c0,0.1,0.1,0.1,0.1,0.1c0.1,0,0.1-0.1,0.1-0.1v0
			c0-2.6-0.1-5.2-0.2-7.8c-0.1-2.6-0.3-5.1-0.3-7.7c0-2.6-0.1-5.1-0.1-7.7l-0.1-3.9l0.1-3.9l0-7.7l0.2-7.7l0.1-3.9
			c0-1.3,0.1-2.6,0.2-3.8l0.5-7.7c0.9-10.2,2.3-20.4,4.4-30.5C89,265.5,91.6,255.5,95.3,245.9z"/>
		<path class="st2" d="M96.4,286.2c0-0.1,0-0.1-0.1-0.2c-0.1,0-0.1,0-0.2,0.1c-2.2,6.4-4,13-5.5,19.6c-1.4,6.6-2.6,13.3-3.2,20.1
			c-0.7,6.7-1.4,13.5-1.5,20.3c-0.1,6.8,0,13.6,0.7,20.3c0,0.1,0.1,0.1,0.1,0.1c0.1,0,0.1,0,0.2-0.1c0.8-6.8,1.3-13.5,1.7-20.2
			c0.5-6.7,0.5-13.5,1-20.2c0.4-6.7,1.2-13.4,2.4-20C93.2,299.3,94.6,292.7,96.4,286.2z"/>
		<path class="st2" d="M118.8,300.4c0-0.1-0.1-0.1-0.2,0c-5.6,3.5-10.6,8-14.9,13c-2.1,2.5-4.1,5.2-5.8,8.1l-1.2,2.3l-0.9,2.4
			c-0.3,0.8-0.6,1.6-0.8,2.4c-0.2,0.8-0.5,1.6-0.7,2.4c-1.7,6.5-2.8,13.1-3.1,19.7c-0.3,6.6-0.1,13.3,0.7,19.8
			c0,0.1,0.1,0.1,0.1,0.1c0.1,0,0.1-0.1,0.1-0.1l1.7-19.6c0.7-6.5,1.1-13,2.5-19.4c0.2-0.8,0.4-1.6,0.6-2.3c0.2-0.8,0.4-1.6,0.7-2.3
			l0.8-2.3l1-2.1c1.5-2.8,3.4-5.6,5.4-8.1c4-5.1,8.7-9.8,14-13.7l0,0C118.8,300.5,118.8,300.4,118.8,300.4z"/>
		<path class="st2" d="M108,325.6c-3,2-5.1,5.1-6.8,8.2c-1.6,3.2-2.9,6.5-3.8,10c-0.3,0.9-0.5,1.7-0.7,2.6l-0.6,2.6
			c-0.3,1.8-0.6,3.5-0.7,5.3c0,1.8-0.1,3.6,0,5.3c0.1,1.8,0.3,3.5,0.7,5.3c0,0.1,0.1,0.1,0.1,0.1c0.1,0,0.1,0,0.2-0.1
			c0.4-1.8,0.7-3.5,0.9-5.2c0.3-1.7,0.5-3.4,0.8-5.2c0.3-1.7,0.5-3.4,0.6-5.1c0.2-1.7,0.4-3.4,0.7-5.1c0.6-3.4,1.6-6.7,2.9-9.9
			c1.3-3.2,3.1-6.3,5.7-8.5l0,0c0.1,0,0.1-0.1,0-0.2C108.1,325.6,108,325.6,108,325.6z"/>
		<path class="st2" d="M76.6,345.3c-0.7-8.7-2.2-17.4-3.5-26c-1.4-8.6-2.9-17.2-4.4-25.8c-1.6-8.6-3.3-17.1-5.2-25.7
			c0-0.1-0.1-0.1-0.2-0.1c-0.1,0-0.1,0.1-0.1,0.2c1.5,8.6,2.8,17.2,4.1,25.8c1.3,8.6,2.5,17.3,3.6,25.9c1.1,8.7,1.9,17.3,3,26
			l3.2,26c0,0.1,0.1,0.1,0.1,0.1c0.1,0,0.1-0.1,0.1-0.1c0.1-2.2,0.1-4.4,0.2-6.6c0-2.2-0.1-4.4-0.1-6.6
			C77.3,354,77,349.7,76.6,345.3z"/>
		<path class="st2" d="M71.4,345.2c-0.5-3.5-1.1-6.9-1.8-10.3l-1.2-5.1c-0.4-1.7-0.8-3.4-1.3-5.1c-1.7-6.8-4-13.4-6.7-19.8l-1-2.4
			l-1.2-2.3c-0.7-1.6-1.6-3.1-2.5-4.6c-1.8-3-3.7-5.9-6.3-8.3c-0.1,0-0.1,0-0.2,0c-0.1,0.1-0.1,0.1,0,0.2l0,0
			c2.4,2.5,4.1,5.5,5.8,8.5c0.8,1.6,1.6,3.1,2.2,4.7l1,2.4l0.9,2.4c2.4,6.5,4.4,13.1,5.8,19.8c0.8,3.4,1.3,6.8,2,10.2l0.8,5.1
			c0.3,1.7,0.7,3.4,0.9,5.1c0.5,3.4,1.2,6.8,1.8,10.2c0.5,3.4,1.2,6.8,1.9,10.3c0,0.1,0.1,0.1,0.1,0.1c0.1,0,0.1-0.1,0.1-0.1
			c0-3.5-0.1-7-0.2-10.5C72.2,352.1,71.8,348.6,71.4,345.2z"/>
		<path class="st2" d="M64.2,345.6c-1.6-4.6-3.5-9.1-5.5-13.4c-2.1-4.4-4.3-8.7-6.9-12.7c0-0.1-0.1-0.1-0.2,0c-0.1,0-0.1,0.1,0,0.2
			c2.3,4.2,4.2,8.7,5.9,13.1c1.8,4.5,3.4,9,4.7,13.6c1.4,4.6,2.3,9.3,3.6,13.9c1.3,4.6,2.3,9.3,3.7,13.9c0,0.1,0.1,0.1,0.1,0.1
			c0.1,0,0.1-0.1,0.1-0.1c0.1-4.9-0.4-9.7-1.4-14.5C67.5,354.8,65.8,350.2,64.2,345.6z"/>
		<path class="st2" d="M63.9,360.9c-0.8-2.9-2.2-5.5-3.8-8.1c-1.6-2.5-3.4-4.9-5.6-6.9c-1.1-1-2.3-1.9-3.6-2.7
			c-1.3-0.8-2.6-1.4-4-1.8c-0.1,0-0.1,0-0.2,0.1c0,0.1,0,0.1,0.1,0.2l0,0c2.6,1.2,4.8,3.1,6.7,5.2c1.9,2.1,3.4,4.5,4.7,7.1
			c1.3,2.5,2,5.3,3.2,7.9c0.5,1.3,1,2.7,1.6,4c0.5,1.3,1.1,2.7,1.8,4l0,0c0,0,0.1,0.1,0.1,0.1c0.1,0,0.1-0.1,0.1-0.1
			c0.1-1.5,0-3-0.2-4.5C64.5,363.8,64.2,362.3,63.9,360.9z"/>
	</g>
	<path class="st0" d="M64.4,280.3c0,0-14.3-3.3-17.6-18.7c-3.3-15.4,7.3-8.8-2.2-33c-9.5-24.2-7.3-29.7-4-36.6
		c3.3-7,5.1-4.8,8.1,4.4c2.9,9.2,13.6,23.5,17.6,50.2C70.3,273.3,64.4,280.3,64.4,280.3z"/>
	<path class="st0" d="M92.6,254.3c0,0-9.5-3.3-9.9-21.3c-0.4-18,7-14.3,8.1-36.6c1.1-22.4,2.6-38.1,6.6-38.5
		c4-0.4,14.7,11,18.3,35.9c3.7,24.9-4.8,41.4-12.1,48.7C96.3,249.9,92.6,254.3,92.6,254.3z"/>
	<path class="st0" d="M59.3,301.9c0,0-2.2-13.2-6.6-19.4c-4.4-6.2-13.9-11.7-20.2-23.8c-6.2-12.1-13.2-18-12.8-0.7
		c0.4,17.2,8.1,26,17.6,31.9C46.8,295.7,59.3,301.9,59.3,301.9z"/>
	<path class="st0" d="M55.3,324.6c0,0-8.8-16.9-21.6-29.3c-12.8-12.5-23.1-18.7-19.4-12.5c3.7,6.2,8.1,5.9,14.3,16.9
		c6.2,11,4.4,19.1,13.2,25.3C50.5,331.2,55.3,324.6,55.3,324.6z"/>
	<path class="st0" d="M54.2,346.3c-0.4-1.1-0.7-9.2-13.2-15.8c-12.5-6.6-24.2-4-22.7-0.7c1.5,3.3,9.2,8.8,16.9,12.1
		C42.8,345.2,54.2,346.3,54.2,346.3z"/>
	<path class="st0" d="M91.9,302.6c0,0-5.5-7-2.6-21.6c2.9-14.7,9.5-11,16.9-18.7c7.3-7.7,5.9-8.8,13.2-16.9
		c7.3-8.1,13.9-12.5,16.9-9.2c2.9,3.3-1.5,13.6-5.9,19.4c-4.4,5.9-11.4,8.8-14.7,16.1c-3.3,7.3-1.8,19.1-10.3,24.6
		C97,301.9,91.9,302.6,91.9,302.6z"/>
	<path class="st0" d="M110.2,306.7c0,0,13.2-15,22.7-26c9.5-11,13.2-19.4,13.6-12.1c0.4,7.3,3.3,13.2-4.4,22.7
		C134.4,300.8,110.2,306.7,110.2,306.7z"/>
	<path class="st0" d="M103.3,330.9c0,0-0.4-5.9,20.5-19.4c20.9-13.6,29.7-16.1,27.5-10.6c-2.2,5.5-11.4,11-21.3,20.9
		C120.1,331.6,103.3,330.9,103.3,330.9z"/>
	<path class="st3" d="M65.3,278.7c0,0-4.9-26.3-10-45c-5.1-18.7-8.4-30-8.4-30"/>
	<path class="st3" d="M91.8,254.6c0,0,8.9-28.5,11.8-45.7c2.9-17.2-0.4-30-1.8-37.7"/>
	<path class="st3" d="M58.1,301.4c0,0-5.4-9.7-13.5-19.2c-8.1-9.5-14.3-14.7-18-23.8"/>
	<path class="st3" d="M91.9,302.6c0,0,2.9-17.6,9.9-26.8c7-9.2,20.9-23.5,26.4-32.6"/>
	<path class="st3" d="M53.3,345.9c0,0-12.3-8-21.1-12.4"/>
	<path class="st4" d="M109,374.2c0.6-6.2,0-11.4-2.4-14.4c-8.1-9.8-42.9-9.8-50.9,0c-2.5,3-3,8.2-2.4,14.4H109z"/>
</g>
<line class="st3" x1="16.1" y1="374.5" x2="482.3" y2="374.5"/>
<path class="st5" d="M448,189.3c0,3.4,2.5,6.2,5.6,6.2c1.1,0,2.1-0.3,2.9-0.9c1.2-0.8,2.6-1.1,3.9-0.7c0.9,0.3,1.7,0.8,2.1,1.5
	l0.8,1.2v14.8h-14.8l-1.2-0.8c-0.7-0.5-1.3-1.2-1.5-2.1c-0.5-1.3-0.1-2.7,0.7-3.9c0.6-0.8,0.9-1.8,0.9-2.9c0-3.1-2.8-5.6-6.2-5.6
	c-3.5,0-6.3,2.5-6.3,5.6c0,1.1,0.3,2.1,0.9,2.9c0.8,1.1,1.1,2.6,0.7,3.9c-0.3,0.9-0.8,1.7-1.6,2.2l-1.2,0.8h-14.8v-14.8l-0.8-1.2
	c-0.5-0.7-1.2-1.3-2.1-1.5c-1.3-0.5-2.7-0.1-3.9,0.7c-0.8,0.6-1.8,0.9-2.9,0.9c-3.1,0-5.6-2.8-5.6-6.2c0-3.5,2.5-6.3,5.6-6.3
	c1.1,0,2.1,0.3,2.9,0.9c1.1,0.8,2.6,1.1,3.9,0.7c0.9-0.3,1.7-0.8,2.2-1.6l0.8-1.2v-14.8h14.8l1.2-0.8c0.7-0.5,1.3-1.3,1.6-2.2
	c0.4-1.3,0.1-2.7-0.7-3.9c-0.6-0.8-0.9-1.8-0.9-2.9c0-3.1,2.8-5.6,6.2-5.6c3.4,0,6.3,2.5,6.3,5.6c0,1.1-0.3,2.1-0.9,2.9
	c-0.8,1.2-1.1,2.6-0.7,3.9c0.3,0.9,0.8,1.7,1.5,2.1l1.2,0.8h14.8v14.8l-0.8,1.2c-0.5,0.7-1.3,1.3-2.2,1.6c-1.3,0.4-2.7,0.1-3.9-0.7
	c-0.8-0.6-1.8-0.9-2.9-0.9C450.4,183.1,448,185.9,448,189.3z"/>
<path class="st5" d="M101,124.5c0,3.4-2.5,6.2-5.6,6.2c-1.1,0-2.1-0.3-2.9-0.9c-1.2-0.8-2.6-1.1-3.9-0.7c-0.9,0.3-1.7,0.8-2.1,1.5
	l-0.8,1.2v14.8H70.9l-1.2-0.8c-0.7-0.5-1.3-1.3-1.6-2.2c-0.4-1.3-0.1-2.7,0.7-3.9c0.6-0.8,0.9-1.8,0.9-2.9c0-3.1-2.8-5.6-6.2-5.6
	c-3.5,0-6.3,2.5-6.3,5.6c0,1.1,0.3,2.1,0.9,2.9c0.8,1.2,1.1,2.6,0.7,3.9c-0.3,0.9-0.8,1.7-1.6,2.1l-1.2,0.8H41.4v-14.8l-0.8-1.2
	c-0.5-0.7-1.2-1.3-2.1-1.5c-1.3-0.5-2.7-0.1-3.9,0.7c-0.8,0.6-1.8,0.9-2.9,0.9c-3.1,0-5.6-2.8-5.6-6.2c0-3.5,2.5-6.3,5.6-6.3
	c1.1,0,2.1,0.3,2.9,0.9c1.1,0.8,2.6,1.1,3.9,0.7c0.9-0.3,1.7-0.8,2.2-1.6l0.8-1.2v-14.8h14.8l1.2-0.8c0.7-0.5,1.3-1.2,1.6-2.1
	c0.4-1.3,0.1-2.7-0.7-3.9c-0.6-0.8-0.9-1.8-0.9-2.9c0-3.1,2.8-5.6,6.2-5.6c3.4,0,6.3,2.5,6.3,5.6c0,1.1-0.3,2.1-0.9,2.9
	c-0.8,1.2-1.1,2.6-0.7,3.9c0.3,0.9,0.8,1.7,1.6,2.2l1.2,0.8h14.8v14.8l0.8,1.2c0.5,0.7,1.3,1.3,2.2,1.6c1.3,0.4,2.7,0.1,3.9-0.7
	c0.8-0.6,1.8-0.9,2.9-0.9C98.5,118.3,101,121.1,101,124.5z"/>
<path class="st5" d="M167.3,86.6c0,3.4-2.5,6.2-5.6,6.2c-1.1,0-2.1-0.3-2.9-0.9c-1.2-0.8-2.6-1.1-3.9-0.7c-0.9,0.3-1.7,0.8-2.1,1.5
	L152,94v14.8h-14.8L136,108c-0.7-0.5-1.2-1.2-1.5-2.1c-0.5-1.3-0.1-2.7,0.7-3.9c0.6-0.8,0.9-1.8,0.9-2.9c0-3.1-2.8-5.6-6.3-5.6
	c-3.4,0-6.3,2.5-6.3,5.6c0,1.1,0.3,2.1,0.9,2.9c0.8,1.1,1.1,2.6,0.7,3.9c-0.3,0.9-0.8,1.7-1.6,2.2l-1.2,0.8h-14.8V94l-0.8-1.2
	c-0.5-0.7-1.2-1.3-2.1-1.5c-1.3-0.5-2.8-0.1-3.9,0.7c-0.9,0.6-1.8,0.9-2.9,0.9c-3.1,0-5.6-2.8-5.6-6.2c0-3.5,2.5-6.3,5.6-6.3
	c1.1,0,2,0.3,2.9,0.9c1.2,0.8,2.6,1.1,3.9,0.7c0.9-0.3,1.7-0.8,2.2-1.6l0.8-1.2V64.4h14.8l1.2-0.8c0.7-0.5,1.3-1.3,1.6-2.2
	c0.4-1.3,0.1-2.7-0.7-3.9c-0.6-0.8-0.9-1.8-0.9-2.9c0-3.1,2.8-5.6,6.3-5.6c3.4,0,6.3,2.5,6.3,5.6c0,1.1-0.3,2.1-0.9,2.9
	c-0.8,1.2-1.1,2.6-0.7,3.9c0.3,0.9,0.8,1.7,1.6,2.1l1.2,0.8H152v14.8l0.8,1.2c0.5,0.7,1.3,1.3,2.2,1.6c1.3,0.4,2.7,0.1,3.9-0.7
	c0.8-0.6,1.8-0.9,2.9-0.9C164.8,80.4,167.3,83.2,167.3,86.6z"/>
<path class="st5" d="M142.1,204.9c0,3.4,2.5,6.2,5.6,6.2c1.1,0,2-0.3,2.9-0.9c1.2-0.8,2.6-1.1,3.9-0.7c0.9,0.3,1.7,0.8,2.2,1.6
	l0.8,1.2v14.8h-14.8l-1.2-0.8c-0.7-0.5-1.3-1.2-1.6-2.1c-0.5-1.3-0.1-2.7,0.7-3.9c0.6-0.8,0.9-1.8,0.9-2.9c0-3.1-2.8-5.6-6.3-5.6
	s-6.2,2.5-6.2,5.6c0,1.1,0.3,2,0.9,2.9c0.8,1.1,1.1,2.6,0.7,3.9c-0.3,0.9-0.8,1.7-1.6,2.2l-1.2,0.8H113v-14.8l0.8-1.2
	c0.5-0.7,1.3-1.3,2.2-1.6c1.3-0.4,2.7-0.1,3.9,0.7c0.8,0.6,1.8,0.9,2.9,0.9c3.1,0,5.6-2.8,5.6-6.2c0-3.5-2.5-6.3-5.6-6.3
	c-1.1,0-2.1,0.3-2.9,0.9c-1.2,0.8-2.6,1.1-3.9,0.7c-0.9-0.3-1.7-0.8-2.1-1.6l-0.8-1.2v-14.8h14.8l1.2-0.8c0.7-0.5,1.3-1.3,1.6-2.2
	c0.4-1.3,0.1-2.7-0.7-3.9c-0.6-0.8-0.9-1.8-0.9-2.9c0-3.1,2.8-5.6,6.2-5.6s6.3,2.5,6.3,5.6c0,1.1-0.3,2.1-0.9,2.9
	c-0.8,1.2-1.1,2.6-0.7,3.9c0.3,0.9,0.8,1.7,1.6,2.1l1.2,0.8h14.8v14.8l-0.8,1.2c-0.5,0.7-1.3,1.3-2.1,1.6c-1.3,0.4-2.8,0.1-3.9-0.7
	c-0.8-0.6-1.8-0.9-2.9-0.9C144.6,198.6,142.1,201.4,142.1,204.9z"/>
<path class="st5" d="M392.9,65.5c0,3.4-2.5,6.2-5.6,6.2c-1.1,0-2.1-0.3-2.9-0.9c-1.1-0.8-2.6-1.1-3.9-0.7c-0.9,0.3-1.7,0.8-2.2,1.6
	l-0.8,1.2v14.8h-14.8l-1.2-0.8c-0.7-0.5-1.2-1.2-1.5-2.1c-0.5-1.3-0.1-2.7,0.7-3.9c0.6-0.8,0.9-1.8,0.9-2.9c0-3.1-2.8-5.6-6.3-5.6
	c-3.4,0-6.3,2.5-6.3,5.6c0,1.1,0.3,2,0.9,2.9c0.8,1.1,1.1,2.6,0.7,3.9c-0.3,0.9-0.8,1.7-1.6,2.2l-1.2,0.8h-14.8V43.3H348l1.2-0.8
	c0.7-0.5,1.3-1.3,1.6-2.2c0.4-1.3,0.1-2.7-0.7-3.9c-0.6-0.8-0.9-1.8-0.9-2.9c0-3.1,2.8-5.6,6.3-5.6c3.4,0,6.3,2.5,6.3,5.6
	c0,1.1-0.3,2.1-0.9,2.9c-0.8,1.2-1.1,2.6-0.7,3.9c0.3,0.9,0.8,1.7,1.5,2.1l1.2,0.8h14.8v14.8l0.8,1.2c0.5,0.7,1.2,1.3,2.1,1.6
	c1.3,0.4,2.7,0.1,3.9-0.7c0.8-0.6,1.8-0.9,2.9-0.9C390.4,59.2,392.9,62,392.9,65.5z"/>
<path class="st5" d="M362.8,165.4c0,3.4,2.5,6.3,5.6,6.3c1.1,0,2.1-0.3,2.9-0.9c1.2-0.8,2.6-1.1,3.9-0.7c0.9,0.3,1.7,0.8,2.1,1.6
	l0.8,1.2v14.8h-14.8l-1.2-0.8c-0.7-0.5-1.3-1.3-1.5-2.1c-0.5-1.3-0.1-2.8,0.7-3.9c0.6-0.8,0.9-1.8,0.9-2.9c0-3.1-2.8-5.6-6.2-5.6
	c-3.5,0-6.3,2.5-6.3,5.6c0,1.1,0.3,2,0.9,2.9c0.8,1.2,1.1,2.6,0.7,3.9c-0.3,0.9-0.8,1.7-1.6,2.2l-1.2,0.8h-14.8v-14.8l-0.8-1.2
	c-0.5-0.7-1.2-1.3-2.1-1.6c-1.3-0.5-2.7-0.1-3.9,0.7c-0.8,0.6-1.8,0.9-2.9,0.9c-3.1,0-5.6-2.8-5.6-6.3c0-3.4,2.5-6.2,5.6-6.2
	c1.1,0,2.1,0.3,2.9,0.9c1.1,0.8,2.6,1.1,3.9,0.7c0.9-0.3,1.7-0.8,2.2-1.6l0.8-1.2v-14.8h14.8l1.2-0.8c0.7-0.5,1.3-1.3,1.6-2.2
	c0.4-1.3,0.1-2.7-0.7-3.9c-0.6-0.9-0.9-1.8-0.9-2.9c0-3.1,2.8-5.6,6.3-5.6c3.4,0,6.2,2.5,6.2,5.6c0,1.1-0.3,2.1-0.9,2.9
	c-0.8,1.2-1.1,2.6-0.7,3.9c0.3,0.9,0.8,1.7,1.5,2.1l1.2,0.8h14.8V158l-0.8,1.2c-0.5,0.7-1.3,1.3-2.2,1.6c-1.3,0.4-2.7,0.1-3.9-0.7
	c-0.8-0.6-1.8-0.9-2.9-0.9C365.3,159.2,362.8,162,362.8,165.4z"/>
<path class="st5" d="M453.9,64.6c0,3.4-2.5,6.3-5.6,6.3c-1.1,0-2.1-0.3-2.9-0.9c-1.1-0.8-2.6-1.1-3.9-0.7c-0.9,0.3-1.7,0.8-2.2,1.6
	l-0.8,1.2v14.8h-14.8l-1.2-0.8c-0.7-0.5-1.3-1.2-1.6-2.2c-0.5-1.3-0.1-2.7,0.7-3.9c0.6-0.8,0.9-1.8,0.9-2.9c0-3.1-2.8-5.6-6.3-5.6
	c-3.4,0-6.2,2.5-6.2,5.6c0,1.1,0.3,2,0.9,2.9c0.8,1.1,1.1,2.6,0.7,3.9c-0.3,0.9-0.8,1.6-1.5,2.1l-1.2,0.8h-14.8V72l0.8-1.2
	c0.5-0.7,1.3-1.3,2.2-1.6c1.3-0.5,2.7-0.1,3.9,0.7c0.8,0.6,1.8,0.9,2.9,0.9c3.1,0,5.6-2.8,5.6-6.3c0-3.4-2.5-6.2-5.6-6.2
	c-1.1,0-2.1,0.3-2.9,0.9c-1.2,0.8-2.6,1.1-3.9,0.7c-0.9-0.3-1.7-0.8-2.1-1.5l-0.8-1.2V42.4H409l1.2-0.8c0.7-0.5,1.3-1.3,1.5-2.1
	c0.5-1.3,0.1-2.8-0.7-3.9c-0.6-0.8-0.9-1.8-0.9-2.9c0-3.1,2.8-5.6,6.2-5.6c3.4,0,6.3,2.5,6.3,5.6c0,1.1-0.3,2-0.9,2.9
	c-0.8,1.2-1.1,2.6-0.7,3.9c0.3,0.9,0.8,1.7,1.6,2.2l1.2,0.8h14.8v14.8l0.8,1.2c0.5,0.7,1.2,1.3,2.1,1.5c1.3,0.5,2.7,0.1,3.9-0.7
	c0.8-0.6,1.8-0.9,2.9-0.9C451.4,58.4,453.9,61.2,453.9,64.6z"/>
<path class="st5" d="M438.8,338.4c-3.4,0-6.3-2.5-6.3-5.6c0-1.1,0.3-2,0.9-2.9c0.8-1.1,1.1-2.6,0.7-3.9c-0.3-0.9-0.8-1.7-1.6-2.2
	l-1.2-0.8h-14.8v-14.8l0.8-1.2c0.5-0.7,1.2-1.3,2.1-1.5c1.3-0.5,2.8-0.1,3.9,0.7c0.9,0.6,1.8,0.9,2.9,0.9c3.1,0,5.6-2.8,5.6-6.2
	c0-3.5-2.5-6.3-5.6-6.3c-1.1,0-2,0.3-2.9,0.9c-1.2,0.8-2.6,1.1-3.9,0.7c-0.9-0.3-1.7-0.8-2.2-1.6l-0.8-1.2v-14.8h14.8l1.2-0.8
	c0.7-0.5,1.3-1.3,1.6-2.2c0.5-1.3,0.1-2.7-0.7-3.9c-0.6-0.8-0.9-1.8-0.9-2.9c0-3.1,2.8-5.6,6.2-5.6c3.4,0,6.3,2.5,6.3,5.6
	c0,1.1-0.3,2.1-0.9,2.9c-0.8,1.2-1.1,2.6-0.7,3.9c0.3,0.9,0.8,1.6,1.5,2.1l1.2,0.8h14.8v14.8l0.8,1.2c0.5,0.7,1.3,1.3,2.2,1.6
	c1.3,0.4,2.7,0.1,3.9-0.7c0.8-0.6,1.8-0.9,2.9-0.9c3.1,0,5.6,2.8,5.6,6.3c0,3.4-2.5,6.2-5.6,6.2c-1.1,0-2.1-0.3-2.9-0.9
	c-1.1-0.8-2.6-1.1-3.9-0.7c-0.9,0.3-1.6,0.8-2.1,1.5l-0.8,1.2v14.8h-14.8l-1.2,0.8c-0.7,0.5-1.3,1.2-1.5,2.1
	c-0.5,1.3-0.1,2.7,0.7,3.9c0.6,0.8,0.9,1.8,0.9,2.9C445,335.9,442.2,338.4,438.8,338.4z"/>
<g>
	<path class="st6" d="M190.4,386.9c0,0.1,0,0.1,0,0.2c0,0,0,0.1,0,0.1c0,0,0,0,0,0c0,0,0,0.1,0.1,0.1c0,0,0.1,0.1,0.1,0.1
		c0.1,0.1,0.2,0.2,0.4,0.3c0.1,0,0.1,0.1,0.2,0.1c0.1,0,0.2,0.1,0.3,0.1c0.1,0,0.2,0.1,0.4,0.1c0.1,0,0.2,0,0.3,0c0.2,0,0.3,0,0.5,0
		c0.1,0,0.2,0,0.4,0c0.1,0,0.2,0,0.3,0c0.1,0,0.2,0,0.3-0.1c0.1,0,0.2,0,0.3-0.1c0.1,0,0.2,0,0.3-0.1c0.1,0,0.2,0,0.3,0
		c0,0,0,0,0.1,0c0.1,0,0.1,0,0.2,0c0,0,0.1,0,0.1,0c0.3,0,0.5,0,0.8,0c0.4,0.1,0.7,0.2,0.9,0.3l0.3,0.2l-0.8,2.9h-20.7l3.4-8.5h19.7
		l-0.8,2.8l-0.4,0.2c-0.3,0.1-0.6,0.2-1.1,0.3c-0.6,0.1-1.2,0-1.7-0.1c-0.3-0.1-0.8-0.2-1.3-0.2C192,385.7,190.7,386.2,190.4,386.9z
		"/>
	<path class="st6" d="M190.6,394.5c0.5,0,1,0.1,1.3,0.2c0.5,0.2,1.2,0.2,1.8,0.1c0.4-0.1,0.8-0.2,1.1-0.3l0.4-0.2l0.9-3h-6.9
		l-0.5-0.2c-0.3-0.1-0.5-0.3-0.6-0.4c-0.1-0.3,0.1-0.5,0.6-0.8c0.3-0.2,0.5-0.4,0.6-0.6c0.2-0.6-0.9-1.1-2.5-1.1
		c-1.6,0-3,0.5-3.3,1.1c-0.1,0.2,0,0.4,0.2,0.6c0.3,0.2,0.3,0.5,0,0.8c-0.2,0.2-0.5,0.3-0.9,0.4l-0.6,0.2h-6.9l-3.8,9.4h7.3l0.6-0.2
		c0.4-0.1,0.7-0.3,0.9-0.5c0.3-0.3,0.3-0.6,0-0.9c-0.2-0.2-0.3-0.4-0.2-0.6c0.2-0.7,1.8-1.2,3.5-1.2s2.8,0.5,2.6,1.2
		c-0.1,0.2-0.3,0.5-0.6,0.6c-0.5,0.3-0.7,0.6-0.6,0.9c0.1,0.2,0.3,0.4,0.6,0.5l0.5,0.2h7.3l0.9-3.3l-0.3-0.2
		c-0.2-0.2-0.5-0.3-0.9-0.3c-0.6-0.1-1.3,0-1.9,0.1c-0.4,0.1-0.9,0.2-1.5,0.2c-1.5,0-2.5-0.6-2.3-1.3
		C187.7,395.1,189.1,394.5,190.6,394.5z"/>
	<path class="st6" d="M208.7,395.8c-0.2,0.7,0.9,1.3,2.4,1.3c0.5,0,1-0.1,1.4-0.2c0.6-0.2,1.3-0.2,1.9-0.1c0.4,0.1,0.8,0.2,1,0.3
		l0.3,0.2l-0.6,3.3h-7.3l-0.5-0.2c-0.3-0.1-0.6-0.3-0.7-0.5c-0.2-0.3,0.1-0.6,0.5-0.9c0.3-0.2,0.5-0.4,0.6-0.6
		c0.1-0.7-1.1-1.2-2.7-1.2c-1.7,0-3.1,0.5-3.3,1.2c-0.1,0.2,0.1,0.5,0.3,0.6c0.3,0.3,0.4,0.6,0.1,0.9c-0.2,0.2-0.5,0.4-0.9,0.5
		l-0.6,0.2h-7.3l0.9-3.3l-0.3-0.2c-0.2-0.2-0.5-0.3-0.9-0.3c-0.6-0.1-1.3,0-1.9,0.1c-0.4,0.1-0.9,0.2-1.5,0.2
		c-1.5,0-2.5-0.6-2.3-1.3c0.2-0.7,1.6-1.3,3.1-1.3c0.5,0,1,0.1,1.3,0.2c0.5,0.2,1.2,0.2,1.8,0.1c0.4-0.1,0.8-0.2,1.1-0.3l0.4-0.2
		l0.9-3h6.9l0.6-0.2c0.4-0.1,0.6-0.3,0.8-0.4c0.3-0.3,0.2-0.5-0.1-0.8c-0.2-0.2-0.3-0.4-0.3-0.6c0.2-0.6,1.5-1.1,3.1-1.1
		c1.6,0,2.8,0.5,2.6,1.1c0,0.2-0.2,0.4-0.5,0.6c-0.4,0.2-0.6,0.5-0.5,0.8c0.1,0.2,0.3,0.3,0.6,0.4l0.5,0.2h6.9l-0.5,3l-0.4,0.2
		c-0.3,0.2-0.6,0.3-1.1,0.3c-0.6,0.1-1.3,0-1.8-0.1c-0.4-0.1-0.8-0.2-1.3-0.2C210.2,394.5,208.9,395.1,208.7,395.8z"/>
	<path class="st7" d="M230.8,386.9c-0.1,0.7,1,1.2,2.4,1.2c0.5,0,0.9-0.1,1.3-0.2c0.5-0.2,1.2-0.2,1.8-0.1c0.4,0.1,0.8,0.2,1,0.3
		l0.3,0.2l-0.2,2.9h-6.9l-0.5-0.2c-0.3-0.1-0.6-0.3-0.7-0.4c-0.2-0.3,0-0.5,0.4-0.8c0.3-0.2,0.5-0.4,0.5-0.6
		c0.1-0.6-1.2-1.1-2.8-1.1c-1.6,0-2.9,0.5-3,1.1c0,0.2,0.1,0.4,0.3,0.6c0.3,0.2,0.5,0.5,0.2,0.8c-0.2,0.2-0.4,0.3-0.8,0.4l-0.6,0.2
		h-6.9l0.5-2.9l0.4-0.2c0.2-0.1,0.6-0.2,1-0.3c0.6-0.1,1.3,0,1.8,0.1c0.4,0.1,0.8,0.2,1.3,0.2c1.4,0,2.6-0.5,2.7-1.2
		c0.1-0.7-1-1.2-2.4-1.2c-0.5,0-0.9,0.1-1.3,0.2c-0.5,0.1-1.2,0.2-1.8,0.1c-0.4-0.1-0.7-0.2-0.9-0.3l-0.3-0.2l0.5-2.8H238l-0.2,2.8
		l-0.4,0.2c-0.2,0.1-0.6,0.2-1,0.3c-0.6,0.1-1.2,0-1.8-0.1c-0.4-0.1-0.8-0.2-1.3-0.2C232.1,385.7,230.9,386.2,230.8,386.9z"/>
	<path class="st6" d="M244.6,395.8c0,0.7-1.2,1.3-2.7,1.3c-0.5,0-1-0.1-1.4-0.2c-0.5-0.2-1.2-0.2-1.9-0.1c-0.4,0.1-0.8,0.2-1,0.3
		l-0.4,0.2l-0.2,3.3h-7.3l-0.6-0.2c-0.3-0.1-0.6-0.3-0.7-0.5c-0.2-0.3,0-0.6,0.4-0.9c0.3-0.2,0.5-0.4,0.5-0.6
		c0.1-0.7-1.2-1.2-2.9-1.2c-1.7,0-3.1,0.5-3.2,1.2c0,0.2,0.1,0.5,0.4,0.6c0.3,0.3,0.5,0.6,0.2,0.9c-0.2,0.2-0.5,0.4-0.8,0.5
		l-0.6,0.2h-7.3l0.6-3.3l-0.3-0.2c-0.2-0.2-0.5-0.3-1-0.3c-0.6-0.1-1.3,0-1.9,0.1c-0.4,0.1-0.9,0.2-1.4,0.2c-1.5,0-2.6-0.6-2.4-1.3
		c0.2-0.7,1.5-1.3,2.9-1.3c0.5,0,1,0.1,1.3,0.2c0.5,0.2,1.2,0.2,1.8,0.1c0.4-0.1,0.8-0.2,1.1-0.3l0.4-0.2l0.5-3h6.9l0.6-0.2
		c0.4-0.1,0.6-0.2,0.8-0.4c0.2-0.3,0.1-0.5-0.2-0.8c-0.2-0.2-0.4-0.4-0.3-0.6c0.1-0.6,1.4-1.1,3-1.1c1.6,0,2.8,0.5,2.8,1.1
		c0,0.2-0.2,0.4-0.5,0.6c-0.4,0.2-0.6,0.5-0.4,0.8c0.1,0.2,0.4,0.3,0.7,0.4l0.5,0.2h6.9l-0.2,3l0.3,0.2c0.2,0.2,0.6,0.3,1,0.3
		c0.6,0.1,1.3,0,1.9-0.1c0.4-0.1,0.9-0.2,1.4-0.2C243.4,394.5,244.6,395.1,244.6,395.8z"/>
	<path class="st6" d="M224.6,386.9c-0.1,0.7-1.3,1.2-2.7,1.2c-0.5,0-0.9-0.1-1.3-0.2c-0.5-0.2-1.1-0.2-1.8-0.1
		c-0.4,0.1-0.8,0.2-1,0.3l-0.4,0.2l-0.5,2.9h-6.9l-0.5-0.2c-0.3-0.1-0.5-0.2-0.6-0.4c-0.2-0.3,0.1-0.5,0.5-0.8
		c0.3-0.2,0.5-0.4,0.5-0.6c0.1-0.6-1-1.1-2.6-1.1c-1.6,0-3,0.5-3.1,1.1c-0.1,0.2,0.1,0.4,0.3,0.6c0.3,0.2,0.4,0.5,0.1,0.8
		c-0.2,0.2-0.5,0.3-0.8,0.4l-0.6,0.2h-6.9l0.8-2.9l-0.3-0.2c-0.2-0.1-0.5-0.2-0.9-0.3c-0.3,0-0.5,0-0.8,0c0,0-0.1,0-0.1,0
		c-0.1,0-0.1,0-0.2,0c0,0,0,0-0.1,0c-0.1,0-0.2,0-0.3,0c-0.1,0-0.2,0-0.3,0.1c-0.1,0-0.2,0.1-0.3,0.1c-0.1,0-0.2,0-0.3,0.1
		c-0.1,0-0.2,0-0.3,0c-0.1,0-0.2,0-0.4,0c-0.2,0-0.3,0-0.5,0c-0.1,0-0.2,0-0.3,0c-0.1,0-0.3,0-0.4-0.1c-0.1,0-0.2-0.1-0.3-0.1
		c-0.1,0-0.2-0.1-0.2-0.1c-0.1-0.1-0.3-0.2-0.4-0.3c0,0-0.1-0.1-0.1-0.1c0,0,0-0.1-0.1-0.1c0,0,0,0,0,0c0,0,0-0.1,0-0.1
		c0-0.1,0-0.1,0-0.2c0.2-0.7,1.5-1.2,2.9-1.2c0.5,0,0.9,0.1,1.3,0.2c0.5,0.1,1.1,0.2,1.7,0.1c0.4-0.1,0.8-0.2,1.1-0.3l0.4-0.2
		l0.8-2.8h19.7l-0.5,2.8l0.3,0.2c0.2,0.1,0.5,0.2,0.9,0.3c0.6,0.1,1.2,0,1.8-0.1c0.4-0.1,0.9-0.2,1.3-0.2
		C223.6,385.7,224.6,386.2,224.6,386.9z"/>
	<path class="st7" d="M192.6,388.1c0.1,0,0.2,0,0.4,0C192.8,388.1,192.7,388.1,192.6,388.1c-0.2,0-0.3,0-0.5,0
		C192.3,388.1,192.4,388.1,192.6,388.1z"/>
	<path class="st7" d="M194,387.9c0.1,0,0.2,0,0.3-0.1C194.2,387.9,194.1,387.9,194,387.9c-0.1,0-0.2,0.1-0.3,0.1
		C193.8,387.9,193.9,387.9,194,387.9z"/>
	<path class="st6" d="M251.2,395.8c0,0.7,1.2,1.3,2.7,1.3c0.5,0,1-0.1,1.4-0.2c0.5-0.2,1.2-0.2,1.9-0.1c0.4,0.1,0.8,0.2,1,0.3
		l0.4,0.2l0.2,3.3h-7.3l-0.6-0.2c-0.4-0.1-0.6-0.3-0.8-0.5c-0.2-0.3-0.1-0.6,0.3-0.9c0.3-0.2,0.4-0.4,0.4-0.6c0-0.7-1.4-1.2-3-1.2
		c-1.7,0-3,0.5-3,1.2c0,0.2,0.1,0.5,0.4,0.6c0.4,0.3,0.5,0.6,0.3,0.9c-0.2,0.2-0.4,0.4-0.8,0.5l-0.6,0.2H237l0.2-3.3l0.4-0.2
		c0.2-0.2,0.6-0.3,1-0.3c0.6-0.1,1.3,0,1.9,0.1c0.4,0.1,0.9,0.2,1.4,0.2c1.5,0,2.7-0.6,2.7-1.3c0-0.7-1.2-1.3-2.6-1.3
		c-0.5,0-1,0.1-1.4,0.2c-0.5,0.2-1.2,0.2-1.9,0.1c-0.4-0.1-0.8-0.2-1-0.3l-0.3-0.2l0.2-3h6.9l0.5-0.2c0.3-0.1,0.6-0.3,0.7-0.4
		c0.2-0.3,0.1-0.5-0.3-0.8c-0.3-0.2-0.4-0.4-0.4-0.6c0-0.6,1.3-1.1,2.9-1.1c1.6,0,2.9,0.5,2.9,1.1c0,0.2-0.1,0.4-0.4,0.6
		c-0.4,0.2-0.5,0.5-0.3,0.8c0.1,0.2,0.4,0.3,0.7,0.4l0.5,0.2h6.9l0.2,3l-0.3,0.2c-0.2,0.2-0.6,0.3-1,0.3c-0.6,0.1-1.3,0-1.9-0.1
		c-0.4-0.1-0.9-0.2-1.4-0.2C252.3,394.5,251.2,395.1,251.2,395.8z"/>
	<path class="st6" d="M271.2,386.9c0.1,0.7,1.3,1.2,2.7,1.2c0.5,0,0.9-0.1,1.3-0.2c0.5-0.2,1.1-0.2,1.7-0.1c0.4,0.1,0.8,0.2,1,0.3
		l0.4,0.2l0.5,2.9H272l-0.6-0.2c-0.4-0.1-0.6-0.3-0.8-0.4c-0.2-0.3-0.1-0.5,0.2-0.8c0.3-0.2,0.4-0.4,0.3-0.6c-0.1-0.6-1.4-1.1-3-1.1
		s-2.8,0.5-2.7,1.1c0,0.2,0.2,0.4,0.5,0.6c0.4,0.2,0.6,0.5,0.4,0.8c-0.1,0.2-0.4,0.3-0.7,0.4l-0.5,0.2h-6.9l-0.2-2.9l0.3-0.2
		c0.2-0.1,0.6-0.2,1-0.3c0.6-0.1,1.3,0,1.8,0.1c0.4,0.1,0.8,0.2,1.3,0.2c1.4,0,2.5-0.5,2.5-1.2c-0.1-0.7-1.3-1.2-2.6-1.2
		c-0.5,0-0.9,0.1-1.3,0.2c-0.5,0.1-1.2,0.2-1.8,0.1c-0.4-0.1-0.8-0.2-1-0.3l-0.4-0.2l-0.2-2.8h19.7l0.5,2.8l-0.3,0.2
		c-0.2,0.1-0.5,0.2-0.9,0.3c-0.6,0.1-1.2,0-1.8-0.1c-0.4-0.1-0.9-0.2-1.3-0.2C272.2,385.7,271.1,386.2,271.2,386.9z"/>
	<path class="st6" d="M264.9,386.9c0.1,0.7-1,1.2-2.5,1.2c-0.5,0-0.9-0.1-1.3-0.2c-0.5-0.2-1.2-0.2-1.8-0.1c-0.4,0.1-0.8,0.2-1,0.3
		l-0.3,0.2l0.2,2.9h-6.9l-0.5-0.2c-0.3-0.1-0.6-0.2-0.7-0.4c-0.2-0.3-0.1-0.5,0.3-0.8c0.3-0.2,0.4-0.4,0.4-0.6
		c0-0.6-1.3-1.1-2.9-1.1c-1.6,0-2.9,0.5-2.9,1.1c0,0.2,0.2,0.4,0.4,0.6c0.4,0.2,0.5,0.5,0.3,0.8c-0.1,0.2-0.4,0.3-0.7,0.4l-0.5,0.2
		h-6.9l0.2-2.9l-0.3-0.2c-0.2-0.1-0.6-0.2-1-0.3c-0.6-0.1-1.3,0-1.8,0.1c-0.4,0.1-0.9,0.2-1.3,0.2c-1.4,0-2.5-0.5-2.4-1.2
		c0.1-0.7,1.2-1.2,2.6-1.2c0.5,0,0.9,0.1,1.3,0.2c0.5,0.1,1.1,0.2,1.8,0.1c0.4-0.1,0.8-0.2,1-0.3l0.4-0.2l0.2-2.8h19.7l0.2,2.8
		l0.4,0.2c0.2,0.1,0.6,0.2,1,0.3c0.6,0.1,1.2,0,1.8-0.1c0.4-0.1,0.8-0.2,1.3-0.2C263.7,385.7,264.9,386.2,264.9,386.9z"/>
	<path class="st6" d="M305.3,386.9c0.2,0.7-0.8,1.2-2.2,1.2c-0.5,0-1-0.1-1.4-0.2c-0.6-0.2-1.2-0.2-1.8-0.1
		c-0.4,0.1-0.7,0.2-0.9,0.3l-0.3,0.2l0.8,2.9h-6.9l-0.6-0.2c-0.4-0.1-0.6-0.2-0.8-0.4c-0.3-0.3-0.2-0.5,0.1-0.8
		c0.2-0.2,0.3-0.4,0.3-0.6c-0.2-0.6-1.6-1.1-3.1-1.1c-1.6,0-2.8,0.5-2.6,1.1c0,0.2,0.2,0.4,0.5,0.6c0.4,0.2,0.6,0.5,0.5,0.8
		c-0.1,0.2-0.3,0.3-0.6,0.4l-0.5,0.2h-6.9l-0.5-2.9l-0.4-0.2c-0.2-0.1-0.6-0.2-1-0.3c-0.6-0.1-1.2,0-1.7,0.1
		c-0.4,0.1-0.8,0.2-1.3,0.2c-1.4,0-2.6-0.5-2.7-1.2c-0.1-0.7,1-1.2,2.4-1.2c0.5,0,0.9,0.1,1.3,0.2c0.5,0.1,1.2,0.2,1.8,0.1
		c0.4-0.1,0.7-0.2,0.9-0.3l0.3-0.2l-0.5-2.8h19.7l0.8,2.8l0.4,0.2c0.3,0.1,0.6,0.2,1.1,0.3c0.6,0.1,1.2,0,1.7-0.1
		c0.3-0.1,0.8-0.2,1.3-0.2C303.8,385.7,305.1,386.2,305.3,386.9z"/>
	<path class="st6" d="M308.3,395.8c0.2,0.7-0.8,1.3-2.3,1.3c-0.5,0-1-0.1-1.5-0.2c-0.6-0.2-1.3-0.2-1.9-0.1
		c-0.4,0.1-0.7,0.2-0.9,0.3l-0.3,0.2l0.9,3.3h-7.3l-0.6-0.2c-0.4-0.1-0.7-0.3-0.9-0.5c-0.3-0.3-0.2-0.6,0.1-0.9
		c0.2-0.2,0.3-0.4,0.3-0.6c-0.2-0.7-1.7-1.2-3.3-1.2c-1.7,0-2.9,0.5-2.8,1.2c0,0.2,0.3,0.5,0.6,0.6c0.4,0.3,0.7,0.6,0.5,0.9
		c-0.1,0.2-0.3,0.4-0.7,0.5l-0.5,0.2h-7.3l-0.6-3.3l-0.4-0.2c-0.3-0.2-0.6-0.3-1.1-0.3c-0.7-0.1-1.3,0-1.9,0.1
		c-0.4,0.1-0.9,0.2-1.4,0.2c-1.5,0-2.8-0.6-2.9-1.3c-0.1-0.7,1-1.3,2.5-1.3c0.5,0,1,0.1,1.4,0.2c0.6,0.2,1.3,0.2,1.9,0.1
		c0.4-0.1,0.8-0.2,1-0.3l0.3-0.2l-0.5-3h6.9l0.5-0.2c0.3-0.1,0.5-0.3,0.6-0.4c0.1-0.3-0.1-0.5-0.5-0.8c-0.3-0.2-0.5-0.4-0.5-0.6
		c-0.1-0.6,1-1.1,2.6-1.1c1.6,0,3,0.5,3.1,1.1c0.1,0.2-0.1,0.4-0.3,0.6c-0.3,0.2-0.4,0.5-0.1,0.8c0.2,0.2,0.5,0.3,0.8,0.4l0.6,0.2
		h6.9l0.9,3l0.4,0.2c0.3,0.2,0.7,0.3,1.1,0.3c0.7,0.1,1.3,0,1.8-0.1c0.4-0.1,0.8-0.2,1.3-0.2C306.6,394.5,308,395.1,308.3,395.8z"/>
	<path class="st6" d="M316.9,382.7l3.4,8.5h-6.9l-0.6-0.2c-0.4-0.1-0.7-0.3-0.9-0.4c-0.3-0.3-0.2-0.5,0-0.8c0.2-0.2,0.3-0.4,0.2-0.6
		c-0.2-0.6-1.7-1.1-3.3-1.1c-1.6,0-2.7,0.5-2.5,1.1c0.1,0.2,0.3,0.4,0.6,0.6c0.4,0.2,0.7,0.5,0.6,0.8c-0.1,0.2-0.3,0.3-0.6,0.4
		l-0.5,0.2h-6.9l-0.8-2.9l0.3-0.2c0.2-0.1,0.5-0.2,0.9-0.3c0.6-0.1,1.2,0,1.8,0.1c0.4,0.1,0.9,0.2,1.4,0.2c1.4,0,2.4-0.5,2.2-1.2
		c-0.2-0.7-1.5-1.2-2.9-1.2c-0.5,0-0.9,0.1-1.3,0.2c-0.5,0.1-1.1,0.2-1.7,0.1c-0.4-0.1-0.8-0.2-1.1-0.3l-0.4-0.2l-0.8-2.8H316.9z"/>
	<path class="st6" d="M215.2,400.7l-1.8,10.5h-7.7l-0.6-0.2c-0.4-0.1-0.6-0.3-0.7-0.5c-0.2-0.3,0.1-0.7,0.6-1
		c0.3-0.2,0.6-0.5,0.6-0.7c0.2-0.8-1.1-1.4-2.9-1.4c-1.8,0-3.3,0.6-3.5,1.4c-0.1,0.3,0,0.5,0.3,0.7c0.3,0.3,0.4,0.6,0.1,1
		c-0.2,0.2-0.5,0.4-0.9,0.5l-0.6,0.2h-7.7l3-10.5h7.3l0.6-0.2c0.4-0.1,0.7-0.3,0.9-0.5c0.3-0.3,0.2-0.6-0.1-0.9
		c-0.2-0.2-0.3-0.4-0.3-0.6c0.2-0.7,1.6-1.2,3.3-1.2c1.7,0,2.9,0.5,2.7,1.2c0,0.2-0.3,0.5-0.6,0.6c-0.4,0.3-0.7,0.6-0.5,0.9
		c0.1,0.2,0.3,0.4,0.7,0.5l0.5,0.2H215.2z"/>
	<path class="st6" d="M251.4,405.8c0,0.8,1.3,1.5,2.9,1.5c0.5,0,1-0.1,1.5-0.2c0.6-0.2,1.3-0.3,2-0.2c0.5,0.1,0.9,0.2,1.1,0.4
		l0.4,0.3l0.2,3.6h-7.7l-0.6-0.2c-0.4-0.1-0.7-0.3-0.8-0.5c-0.2-0.3-0.1-0.7,0.3-1c0.3-0.2,0.5-0.5,0.5-0.7c0-0.8-1.4-1.4-3.2-1.4
		c-1.8,0-3.2,0.6-3.2,1.4c0,0.3,0.2,0.5,0.5,0.7c0.4,0.3,0.6,0.6,0.3,1c-0.2,0.2-0.4,0.4-0.8,0.5l-0.6,0.2h-7.7l0.2-3.6l0.4-0.3
		c0.3-0.2,0.7-0.3,1.1-0.4c0.7-0.1,1.4,0,2,0.2c0.4,0.1,0.9,0.2,1.5,0.2c1.6,0,2.9-0.7,2.9-1.5c0-0.8-1.2-1.5-2.8-1.5
		c-0.5,0-1,0.1-1.5,0.2c-0.6,0.2-1.3,0.3-2,0.2c-0.4-0.1-0.8-0.2-1.1-0.4l-0.4-0.3l0.2-3.4h7.3l0.6-0.2c0.4-0.1,0.6-0.3,0.8-0.5
		c0.2-0.3,0.1-0.6-0.3-0.9c-0.3-0.2-0.4-0.4-0.4-0.6c0-0.7,1.4-1.2,3-1.2c1.7,0,3,0.5,3,1.2c0,0.2-0.2,0.5-0.4,0.6
		c-0.4,0.3-0.5,0.6-0.3,0.9c0.2,0.2,0.4,0.4,0.8,0.5l0.6,0.2h7.3l0.2,3.4l-0.4,0.3c-0.2,0.2-0.6,0.3-1.1,0.4c-0.7,0.1-1.4,0-2-0.2
		c-0.4-0.1-0.9-0.2-1.5-0.2C252.6,404.3,251.3,405,251.4,405.8z"/>
	<path class="st6" d="M272.4,395.8c0.1,0.7,1.4,1.3,2.9,1.3c0.5,0,1-0.1,1.4-0.2c0.5-0.2,1.2-0.2,1.9-0.1c0.4,0.1,0.8,0.2,1.1,0.3
		l0.4,0.2l0.6,3.3h-7.3l-0.6-0.2c-0.4-0.1-0.7-0.3-0.8-0.5c-0.3-0.3-0.1-0.6,0.2-0.9c0.3-0.2,0.4-0.4,0.4-0.6
		c-0.1-0.7-1.5-1.2-3.2-1.2c-1.7,0-3,0.5-2.9,1.2c0,0.2,0.2,0.5,0.5,0.6c0.4,0.3,0.6,0.6,0.4,0.9c-0.1,0.2-0.4,0.4-0.7,0.5l-0.6,0.2
		h-7.3l-0.2-3.3l-0.4-0.2c-0.2-0.2-0.6-0.3-1-0.3c-0.6-0.1-1.3,0-1.9,0.1c-0.4,0.1-0.9,0.2-1.4,0.2c-1.5,0-2.7-0.6-2.7-1.3
		c0-0.7,1.2-1.3,2.6-1.3c0.5,0,1,0.1,1.4,0.2c0.6,0.2,1.2,0.2,1.9,0.1c0.4-0.1,0.8-0.2,1-0.3l0.3-0.2l-0.2-3h6.9l0.5-0.2
		c0.3-0.1,0.6-0.2,0.7-0.4c0.2-0.3,0-0.5-0.4-0.8c-0.3-0.2-0.5-0.4-0.5-0.6c-0.1-0.6,1.2-1.1,2.7-1.1s2.9,0.5,3,1.1
		c0,0.2-0.1,0.4-0.3,0.6c-0.3,0.2-0.5,0.5-0.2,0.8c0.2,0.2,0.4,0.3,0.8,0.4l0.6,0.2h6.9l0.5,3l-0.3,0.2c-0.2,0.2-0.5,0.3-1,0.3
		c-0.6,0.1-1.3,0-1.9-0.1c-0.4-0.1-0.9-0.2-1.4-0.2C273.4,394.5,272.3,395.1,272.4,395.8z"/>
	<path class="st6" d="M311.5,405.8c0.3,0.8-0.8,1.5-2.4,1.5c-0.5,0-1.1-0.1-1.5-0.2c-0.6-0.2-1.4-0.3-2-0.2c-0.4,0.1-0.8,0.2-1,0.4
		l-0.3,0.3l1,3.6h-7.7l-0.7-0.2c-0.4-0.1-0.7-0.3-0.9-0.5c-0.3-0.3-0.2-0.7,0.1-1c0.2-0.2,0.4-0.5,0.3-0.7c-0.2-0.8-1.8-1.4-3.5-1.4
		c-1.8,0-3,0.6-2.9,1.4c0.1,0.3,0.3,0.5,0.6,0.7c0.5,0.3,0.7,0.6,0.6,1c-0.1,0.2-0.3,0.4-0.7,0.5l-0.6,0.2h-7.7l-1.8-10.5h7.3
		l0.5-0.2c0.3-0.1,0.6-0.3,0.7-0.5c0.1-0.3-0.1-0.6-0.5-0.9c-0.3-0.2-0.5-0.4-0.6-0.6c-0.1-0.7,1.1-1.2,2.8-1.2
		c1.7,0,3.1,0.5,3.3,1.2c0.1,0.2-0.1,0.5-0.3,0.6c-0.3,0.3-0.4,0.6-0.1,0.9c0.2,0.2,0.5,0.4,0.9,0.5l0.6,0.2h7.3l1,3.4l0.5,0.3
		c0.3,0.2,0.7,0.3,1.2,0.4c0.7,0.1,1.4,0,1.9-0.2c0.4-0.1,0.8-0.2,1.4-0.2C309.8,404.3,311.3,405,311.5,405.8z"/>
	<path class="st6" d="M320.3,391.2l3.8,9.4h-7.3l-0.6-0.2c-0.4-0.1-0.7-0.3-0.9-0.5c-0.3-0.3-0.3-0.6,0-0.9c0.2-0.2,0.3-0.4,0.2-0.6
		c-0.2-0.7-1.8-1.2-3.5-1.2c-1.7,0-2.8,0.5-2.6,1.2c0.1,0.2,0.3,0.5,0.7,0.6c0.5,0.3,0.7,0.6,0.6,0.9c-0.1,0.2-0.3,0.4-0.6,0.5
		l-0.5,0.2h-7.3l-0.9-3.3l0.3-0.2c0.2-0.2,0.5-0.3,0.9-0.3c0.6-0.1,1.3,0,1.9,0.1c0.4,0.1,0.9,0.2,1.5,0.2c1.5,0,2.5-0.6,2.3-1.3
		c-0.2-0.7-1.6-1.3-3.1-1.3c-0.5,0-1,0.1-1.3,0.2c-0.5,0.2-1.2,0.2-1.8,0.1c-0.4-0.1-0.9-0.2-1.1-0.3l-0.4-0.2l-0.9-3h6.9l0.5-0.2
		c0.3-0.1,0.5-0.2,0.6-0.4c0.1-0.3-0.1-0.5-0.6-0.8c-0.3-0.2-0.5-0.4-0.6-0.6c-0.2-0.6,0.9-1.1,2.5-1.1c1.6,0,3,0.5,3.3,1.1
		c0.1,0.2,0,0.4-0.2,0.6c-0.3,0.2-0.3,0.5,0,0.8c0.2,0.2,0.5,0.3,0.9,0.4l0.6,0.2H320.3z"/>
	<path class="st6" d="M324.1,400.7l4.2,10.5h-7.7L320,411c-0.4-0.1-0.8-0.3-1-0.5c-0.3-0.3-0.3-0.7,0-1c0.2-0.2,0.3-0.5,0.2-0.7
		c-0.3-0.8-1.9-1.4-3.7-1.4c-1.8,0-3,0.6-2.7,1.4c0.1,0.3,0.3,0.5,0.7,0.7c0.5,0.3,0.8,0.6,0.7,1c-0.1,0.2-0.3,0.4-0.6,0.5l-0.5,0.2
		h-7.7l-1-3.6l0.3-0.3c0.2-0.2,0.5-0.3,1-0.4c0.6-0.1,1.4,0,2,0.2c0.5,0.1,1,0.2,1.5,0.2c1.6,0,2.6-0.7,2.4-1.5
		c-0.3-0.8-1.7-1.5-3.3-1.5c-0.5,0-1,0.1-1.4,0.2c-0.5,0.2-1.2,0.3-1.9,0.2c-0.5-0.1-0.9-0.2-1.2-0.4l-0.5-0.3l-1-3.4h7.3l0.5-0.2
		c0.3-0.1,0.5-0.3,0.6-0.5c0.1-0.3-0.2-0.6-0.6-0.9c-0.3-0.2-0.6-0.4-0.7-0.6c-0.2-0.7,1-1.2,2.6-1.2c1.7,0,3.2,0.5,3.5,1.2
		c0.1,0.2,0,0.5-0.2,0.6c-0.3,0.3-0.3,0.6,0,0.9c0.2,0.2,0.5,0.4,0.9,0.5l0.6,0.2H324.1z"/>
	<path class="st6" d="M184.2,405.8c-0.3,0.8,0.8,1.5,2.4,1.5c0.5,0,1.1-0.1,1.5-0.2c0.6-0.2,1.4-0.3,2-0.2c0.4,0.1,0.8,0.2,1,0.4
		l0.3,0.3l-1,3.6h-7.7l-0.5-0.2c-0.3-0.1-0.5-0.3-0.6-0.5c-0.1-0.3,0.2-0.7,0.7-1c0.4-0.2,0.6-0.4,0.7-0.7c0.2-0.8-1-1.4-2.7-1.4
		c-1.8,0-3.4,0.6-3.7,1.4c-0.1,0.3,0,0.5,0.2,0.7c0.3,0.3,0.4,0.6,0,1c-0.2,0.2-0.6,0.4-1,0.5l-0.7,0.2h-7.7l4.2-10.5h7.3l0.6-0.2
		c0.4-0.1,0.7-0.3,0.9-0.5c0.3-0.3,0.3-0.6,0-0.9c-0.2-0.2-0.3-0.4-0.2-0.6c0.2-0.7,1.8-1.2,3.5-1.2s2.8,0.5,2.6,1.2
		c-0.1,0.2-0.3,0.5-0.6,0.6c-0.5,0.3-0.7,0.6-0.6,0.9c0.1,0.2,0.3,0.4,0.6,0.5l0.5,0.2h7.3l-1,3.4l-0.5,0.3
		c-0.3,0.2-0.7,0.3-1.2,0.4c-0.7,0.1-1.4,0-1.9-0.2c-0.4-0.1-0.9-0.2-1.4-0.2C186,404.3,184.5,405,184.2,405.8z"/>
	<path class="st7" d="M182.2,411l0.5,0.2h-7.7l0.7-0.2c0.4-0.1,0.7-0.3,1-0.5c0.3-0.3,0.3-0.7,0-1c-0.2-0.2-0.3-0.5-0.2-0.7
		c0.3-0.8,1.9-1.4,3.7-1.4c1.8,0,3,0.6,2.7,1.4c-0.1,0.3-0.3,0.5-0.7,0.7c-0.5,0.3-0.8,0.6-0.7,1C181.6,410.7,181.8,410.8,182.2,411
		z"/>
	<path class="st7" d="M192.4,404l-1,3.5l-0.3-0.3c-0.2-0.2-0.5-0.3-1-0.4c-0.6-0.1-1.4,0-2,0.2c-0.5,0.1-1,0.2-1.5,0.2
		c-1.6,0-2.6-0.7-2.4-1.5c0.3-0.8,1.7-1.5,3.3-1.5c0.5,0,1,0.1,1.4,0.2c0.5,0.2,1.2,0.3,1.9,0.2c0.5-0.1,0.9-0.2,1.2-0.4L192.4,404z
		"/>
	<path class="st7" d="M192.4,404l-1,3.5l-0.3-0.3c-0.2-0.2-0.5-0.3-1-0.4c-0.6-0.1-1.4,0-2,0.2c-0.5,0.1-1,0.2-1.5,0.2
		c-1.6,0-2.6-0.7-2.4-1.5c0.3-0.8,1.7-1.5,3.3-1.5c0.5,0,1,0.1,1.4,0.2c0.5,0.2,1.2,0.3,1.9,0.2c0.5-0.1,0.9-0.2,1.2-0.4L192.4,404z
		"/>
	<path class="st6" d="M145.8,421.8c-0.2,0.9,1,1.7,2.6,1.7c0.6,0,1.1-0.1,1.6-0.2c0.7-0.2,1.4-0.3,2.1-0.2c0.5,0.1,0.9,0.2,1.1,0.4
		l0.4,0.3l-0.7,4.1h-8.1l-0.6-0.2c-0.4-0.1-0.6-0.3-0.7-0.6c-0.2-0.4,0.1-0.8,0.6-1.1c0.4-0.2,0.6-0.5,0.7-0.8
		c0.2-0.8-1.2-1.5-3-1.5c-1.9,0-3.5,0.7-3.7,1.5c-0.1,0.3,0,0.6,0.3,0.8c0.3,0.3,0.4,0.7,0.1,1.1c-0.2,0.3-0.6,0.5-1,0.6l-0.7,0.2
		h-8.1l1.2-4.1l-0.3-0.3c-0.2-0.2-0.6-0.3-1-0.4c-0.7-0.1-1.5,0-2.1,0.2c-0.5,0.2-1.1,0.2-1.6,0.2c-1.7,0-2.8-0.7-2.5-1.7
		c0.3-0.9,1.9-1.6,3.5-1.6c0.6,0,1.1,0.1,1.5,0.2c0.5,0.2,1.3,0.3,2,0.2c0.5-0.1,0.9-0.2,1.3-0.4l0.5-0.3l1.1-3.8h7.7l0.6-0.2
		c0.4-0.1,0.7-0.3,0.9-0.5c0.3-0.3,0.2-0.7-0.1-1c-0.2-0.2-0.4-0.5-0.3-0.7c0.2-0.8,1.8-1.4,3.5-1.4c1.8,0,3,0.6,2.9,1.4
		c-0.1,0.3-0.3,0.5-0.6,0.7c-0.5,0.3-0.7,0.6-0.6,1c0.1,0.2,0.3,0.4,0.7,0.5l0.6,0.2h7.7l-0.7,3.8l-0.5,0.3
		c-0.3,0.2-0.7,0.3-1.2,0.4c-0.7,0.1-1.5,0-2-0.2c-0.4-0.2-0.9-0.2-1.5-0.2C147.5,420.1,146,420.9,145.8,421.8z"/>
	<path class="st6" d="M244.2,416.9c0,0.9-1.4,1.7-3,1.7c-0.6,0-1.1-0.1-1.5-0.2c-0.6-0.2-1.4-0.3-2.1-0.2c-0.5,0.1-0.9,0.2-1.2,0.4
		l-0.4,0.3l-0.2,4.1h-8.1l-0.6-0.2c-0.4-0.1-0.7-0.3-0.8-0.6c-0.2-0.4,0-0.8,0.5-1.1c0.3-0.2,0.5-0.5,0.6-0.8
		c0.1-0.8-1.3-1.5-3.2-1.5c-1.9,0-3.5,0.7-3.6,1.5c0,0.3,0.1,0.6,0.4,0.8c0.4,0.3,0.5,0.7,0.2,1.1c-0.2,0.2-0.5,0.5-0.9,0.6
		l-0.7,0.2h-8.1l0.7-4.1l-0.4-0.3c-0.2-0.2-0.6-0.3-1.1-0.4c-0.7-0.1-1.5,0-2.1,0.2c-0.5,0.2-1,0.2-1.6,0.2c-1.7,0-2.8-0.7-2.6-1.7
		c0.2-0.9,1.7-1.6,3.3-1.6c0.6,0,1.1,0.1,1.5,0.2c0.6,0.2,1.3,0.3,2,0.2c0.5-0.1,0.9-0.2,1.2-0.4l0.5-0.3l0.7-3.8h7.7l0.6-0.2
		c0.4-0.1,0.7-0.3,0.9-0.5c0.3-0.3,0.1-0.7-0.2-1c-0.3-0.2-0.4-0.5-0.4-0.7c0.1-0.8,1.6-1.4,3.4-1.4c1.8,0,3.1,0.6,3,1.4
		c0,0.3-0.2,0.5-0.5,0.7c-0.4,0.3-0.6,0.6-0.4,1c0.1,0.2,0.4,0.4,0.8,0.5l0.6,0.2h7.7l-0.2,3.8l0.4,0.3c0.2,0.2,0.6,0.3,1.1,0.4
		c0.7,0.1,1.5,0,2.1-0.2c0.5-0.2,1-0.2,1.5-0.2C242.9,415.2,244.2,415.9,244.2,416.9z"/>
	<path class="st6" d="M251.5,416.9c0,0.9,1.4,1.7,3,1.7c0.6,0,1.1-0.1,1.5-0.2c0.6-0.2,1.4-0.3,2.1-0.2c0.5,0.1,0.9,0.2,1.2,0.4
		l0.4,0.3l0.2,4.1h-8.1l-0.6-0.2c-0.4-0.1-0.7-0.3-0.9-0.6c-0.3-0.4-0.1-0.8,0.4-1.1c0.3-0.2,0.5-0.5,0.5-0.8c0-0.8-1.5-1.5-3.4-1.5
		c-1.9,0-3.4,0.7-3.4,1.5c0,0.3,0.2,0.6,0.5,0.8c0.4,0.3,0.6,0.7,0.3,1.1c-0.2,0.3-0.5,0.5-0.9,0.6l-0.6,0.2h-8.1l0.2-4.1l0.4-0.3
		c0.3-0.2,0.7-0.3,1.2-0.4c0.7-0.1,1.5,0,2.1,0.2c0.4,0.2,1,0.2,1.5,0.2c1.7,0,3-0.7,3-1.7c0-0.9-1.3-1.6-2.9-1.6
		c-0.6,0-1.1,0.1-1.5,0.2c-0.6,0.2-1.4,0.3-2.1,0.2c-0.5-0.1-0.9-0.2-1.1-0.4l-0.4-0.3l0.2-3.8h7.7l0.6-0.2c0.4-0.1,0.7-0.3,0.8-0.5
		c0.2-0.3,0.1-0.7-0.3-1c-0.3-0.2-0.5-0.5-0.5-0.7c0-0.8,1.4-1.4,3.2-1.4c1.8,0,3.2,0.6,3.2,1.4c0,0.3-0.2,0.5-0.5,0.7
		c-0.4,0.3-0.6,0.6-0.3,1c0.2,0.2,0.4,0.4,0.8,0.5l0.6,0.2h7.7l0.2,3.8l-0.4,0.3c-0.2,0.2-0.6,0.3-1.1,0.4c-0.7,0.1-1.5,0-2.1-0.2
		c-0.5-0.2-1-0.2-1.5-0.2C252.8,415.2,251.5,415.9,251.5,416.9z"/>
	<path class="st6" d="M163.4,403.3c0,0.8-1.3,1.5-2.9,1.5c-0.5,0-1-0.1-1.5-0.2c-0.6-0.2-1.3-0.3-2-0.2c-0.5,0.1-0.9,0.2-1.1,0.4
		l-0.4,0.3l-0.2,3.6h-7.7l-0.6-0.2c-0.4-0.1-0.6-0.3-0.8-0.5c-0.2-0.3,0-0.7,0.4-1c0.3-0.2,0.5-0.5,0.5-0.7c0.1-0.8-1.3-1.4-3-1.4
		c-1.8,0-3.3,0.6-3.4,1.4c0,0.3,0.1,0.5,0.4,0.7c0.4,0.3,0.5,0.6,0.2,1c-0.2,0.2-0.5,0.4-0.9,0.5l-0.6,0.2h-7.7l1.8-10.5h7.3
		l0.6-0.2c0.4-0.1,0.7-0.3,0.8-0.5c0.2-0.3,0.1-0.6-0.2-0.9c-0.3-0.2-0.4-0.4-0.4-0.6c0.1-0.7,1.5-1.2,3.2-1.2c1.7,0,3,0.5,2.9,1.2
		c0,0.2-0.2,0.5-0.5,0.6c-0.4,0.3-0.6,0.6-0.4,0.9c0.1,0.2,0.4,0.4,0.7,0.5l0.6,0.2h7.3l-0.2,3.4l0.4,0.3c0.2,0.2,0.6,0.3,1.1,0.4
		c0.7,0.1,1.4,0,2-0.2c0.4-0.1,0.9-0.2,1.5-0.2C162.2,401.9,163.4,402.5,163.4,403.3z"/>
	<path class="st6" d="M280.6,400.7l1.8,10.5h-7.7l-0.6-0.2c-0.4-0.1-0.7-0.3-0.9-0.5c-0.3-0.3-0.1-0.7,0.2-1
		c0.3-0.2,0.4-0.5,0.4-0.7c-0.1-0.8-1.6-1.4-3.4-1.4c-1.8,0-3.1,0.6-3,1.4c0,0.3,0.2,0.5,0.5,0.7c0.4,0.3,0.6,0.6,0.4,1
		c-0.1,0.2-0.4,0.4-0.7,0.5l-0.6,0.2h-7.7l-0.2-3.6l-0.4-0.3c-0.3-0.2-0.7-0.3-1.1-0.4c-0.7-0.1-1.4,0-2,0.2
		c-0.4,0.1-0.9,0.2-1.5,0.2c-1.6,0-2.9-0.7-2.9-1.5c0-0.8,1.2-1.5,2.8-1.5c0.5,0,1,0.1,1.5,0.2c0.6,0.2,1.3,0.3,2,0.2
		c0.4-0.1,0.8-0.2,1.1-0.4l0.4-0.3l-0.2-3.4h7.3l0.6-0.2c0.3-0.1,0.6-0.3,0.7-0.5c0.2-0.3,0-0.6-0.4-0.9c-0.3-0.2-0.5-0.4-0.5-0.6
		c-0.1-0.7,1.2-1.2,2.9-1.2c1.7,0,3.1,0.5,3.2,1.2c0,0.2-0.1,0.5-0.4,0.6c-0.3,0.3-0.5,0.6-0.2,0.9c0.2,0.2,0.5,0.4,0.8,0.5l0.6,0.2
		H280.6z"/>
	<path class="st6" d="M298.9,416.9c0.2,0.9,1.8,1.7,3.4,1.7c0.6,0,1.1-0.1,1.5-0.2c0.6-0.2,1.3-0.3,2.1-0.2c0.5,0.1,0.9,0.2,1.3,0.4
		l0.5,0.3l1.2,4.1h-8.1l-0.7-0.2c-0.4-0.1-0.8-0.3-1-0.6c-0.3-0.4-0.2-0.8,0.1-1.1c0.3-0.2,0.4-0.5,0.3-0.8
		c-0.2-0.8-1.9-1.5-3.7-1.5c-1.9,0-3.2,0.7-3,1.5c0.1,0.3,0.3,0.6,0.7,0.8c0.5,0.3,0.8,0.7,0.6,1.1c-0.1,0.3-0.4,0.5-0.7,0.6
		l-0.6,0.2h-8.1l-0.7-4.1l0.4-0.3c0.2-0.2,0.6-0.3,1.1-0.4c0.7-0.1,1.5,0,2.1,0.2c0.5,0.2,1,0.2,1.6,0.2c1.7,0,2.8-0.7,2.6-1.7
		c-0.2-0.9-1.7-1.6-3.3-1.6c-0.6,0-1.1,0.1-1.5,0.2c-0.6,0.2-1.3,0.3-2,0.2c-0.5-0.1-0.9-0.2-1.2-0.4l-0.5-0.3l-0.7-3.8h7.7l0.6-0.2
		c0.3-0.1,0.6-0.3,0.7-0.5c0.2-0.3-0.1-0.7-0.6-1c-0.3-0.2-0.6-0.5-0.6-0.7c-0.2-0.8,1.1-1.4,2.9-1.4c1.8,0,3.3,0.6,3.5,1.4
		c0.1,0.3,0,0.5-0.3,0.7c-0.3,0.3-0.4,0.6-0.1,1c0.2,0.2,0.5,0.4,0.9,0.5l0.7,0.2h7.7l1.1,3.8l-0.3,0.3c-0.2,0.2-0.6,0.3-1,0.4
		c-0.7,0.1-1.4,0-2.1-0.2c-0.5-0.2-1-0.2-1.6-0.2C299.8,415.2,298.6,415.9,298.9,416.9z"/>
	<path class="st6" d="M180.6,416.9c-0.3,0.9,0.8,1.7,2.5,1.7c0.6,0,1.1-0.1,1.6-0.2c0.7-0.2,1.5-0.3,2.1-0.2c0.5,0.1,0.8,0.2,1,0.4
		l0.3,0.3l-1.2,4.1h-24.4l4.7-11.7h7.7l0.7-0.2c0.4-0.1,0.7-0.3,1-0.5c0.3-0.3,0.3-0.7,0-1c-0.2-0.2-0.3-0.5-0.2-0.7
		c0.3-0.8,1.9-1.4,3.7-1.4c1.8,0,3,0.6,2.7,1.4c-0.1,0.3-0.3,0.5-0.7,0.7c-0.5,0.3-0.8,0.6-0.7,1c0.1,0.2,0.3,0.4,0.6,0.5l0.5,0.2
		h7.7l-1.1,3.8l-0.5,0.3c-0.3,0.2-0.8,0.3-1.3,0.4c-0.7,0.1-1.5,0-2-0.2c-0.4-0.2-0.9-0.2-1.5-0.2
		C182.4,415.2,180.9,415.9,180.6,416.9z"/>
	<path class="st6" d="M176.5,429.3c-0.3,1,0.8,1.9,2.6,1.9c0.6,0,1.2-0.1,1.7-0.3c0.7-0.2,1.6-0.3,2.3-0.2c0.5,0.1,0.9,0.3,1.1,0.5
		l0.3,0.3l-1.3,4.6h-25.9l5.3-13.2h8.1l0.7-0.2c0.4-0.1,0.8-0.3,1.1-0.6c0.4-0.4,0.3-0.8,0-1.1c-0.2-0.2-0.3-0.5-0.2-0.8
		c0.3-0.8,2.1-1.5,3.9-1.5s3.1,0.7,2.9,1.5c-0.1,0.3-0.4,0.6-0.8,0.8c-0.5,0.3-0.8,0.7-0.7,1.1c0.1,0.3,0.3,0.5,0.7,0.6l0.6,0.2h8.1
		l-1.2,4.2l-0.5,0.3c-0.3,0.2-0.8,0.4-1.3,0.5c-0.8,0.1-1.6,0-2.1-0.2c-0.4-0.2-1-0.3-1.5-0.3C178.5,427.4,176.9,428.3,176.5,429.3z
		"/>
	<path class="st6" d="M226.7,429.3c-0.1,1,1.2,1.9,3,1.9c0.6,0,1.2-0.1,1.7-0.3c0.7-0.2,1.5-0.3,2.2-0.2c0.5,0.1,0.9,0.3,1.2,0.5
		l0.4,0.3l-0.3,4.6h-8.6l-0.6-0.2c-0.4-0.1-0.7-0.4-0.8-0.7c-0.2-0.4,0-0.8,0.5-1.2c0.4-0.3,0.6-0.6,0.6-0.9
		c0.1-0.9-1.4-1.7-3.4-1.7c-2,0-3.7,0.8-3.8,1.7c0,0.3,0.1,0.6,0.4,0.9c0.4,0.4,0.5,0.8,0.2,1.2c-0.2,0.3-0.6,0.5-1,0.7l-0.7,0.2
		h-8.6l0.8-4.6l0.5-0.3c0.3-0.2,0.8-0.4,1.3-0.5c0.8-0.1,1.6,0,2.2,0.2c0.5,0.2,1,0.3,1.6,0.3c1.8,0,3.3-0.8,3.4-1.9
		c0.1-1-1.2-1.8-2.9-1.8c-0.6,0-1.2,0.1-1.7,0.3c-0.7,0.2-1.5,0.3-2.2,0.2c-0.5-0.1-0.9-0.2-1.1-0.5l-0.4-0.3l0.7-4.2h8.1l0.7-0.2
		c0.4-0.1,0.7-0.3,0.9-0.6c0.3-0.4,0.2-0.8-0.2-1.1c-0.3-0.2-0.4-0.5-0.4-0.8c0.1-0.8,1.7-1.5,3.6-1.5c1.9,0,3.3,0.7,3.2,1.5
		c0,0.3-0.2,0.6-0.6,0.8c-0.4,0.3-0.7,0.7-0.5,1.1c0.1,0.3,0.4,0.5,0.8,0.6l0.6,0.2h8.1l-0.2,4.2l-0.4,0.3c-0.3,0.2-0.7,0.4-1.2,0.5
		c-0.7,0.1-1.5,0-2.2-0.2c-0.5-0.2-1-0.3-1.6-0.3C228.3,427.4,226.8,428.2,226.7,429.3z"/>
	<path class="st6" d="M294.2,429.3c0.2,1-1,1.9-2.8,1.9c-0.6,0-1.2-0.1-1.7-0.3c-0.7-0.2-1.5-0.3-2.2-0.2c-0.5,0.1-0.9,0.3-1.1,0.5
		l-0.4,0.3l0.8,4.6h-8.6l-0.7-0.2c-0.4-0.1-0.8-0.4-1-0.7c-0.3-0.4-0.2-0.8,0.2-1.2c0.3-0.3,0.4-0.6,0.4-0.9
		c-0.1-0.9-1.8-1.7-3.8-1.7c-2,0-3.5,0.8-3.4,1.7c0,0.3,0.2,0.6,0.6,0.9c0.5,0.4,0.7,0.8,0.5,1.2c-0.1,0.3-0.4,0.5-0.8,0.7l-0.6,0.2
		h-8.6l-0.3-4.6l0.4-0.3c0.3-0.2,0.7-0.4,1.2-0.5c0.7-0.1,1.6,0,2.2,0.2c0.5,0.2,1.1,0.3,1.7,0.3c1.8,0,3.1-0.8,3-1.9
		c-0.1-1-1.6-1.8-3.3-1.8c-0.6,0-1.1,0.1-1.6,0.3c-0.6,0.2-1.4,0.3-2.2,0.2c-0.5-0.1-1-0.2-1.2-0.5l-0.4-0.3l-0.2-4.2h8.1l0.6-0.2
		c0.4-0.1,0.7-0.3,0.8-0.6c0.2-0.4,0-0.8-0.5-1.1c-0.3-0.2-0.5-0.5-0.6-0.8c-0.1-0.8,1.3-1.5,3.2-1.5c1.9,0,3.5,0.7,3.6,1.5
		c0,0.3-0.1,0.6-0.4,0.8c-0.4,0.3-0.5,0.7-0.2,1.1c0.2,0.3,0.5,0.5,0.9,0.6l0.7,0.2h8.1l0.7,4.2l0.5,0.3c0.3,0.2,0.8,0.4,1.3,0.5
		c0.8,0.1,1.5,0,2.2-0.2c0.4-0.2,1-0.3,1.6-0.3C292.4,427.4,293.9,428.2,294.2,429.3z"/>
	<path class="st6" d="M301.9,429.3c0.3,1,1.9,1.9,3.7,1.9c0.6,0,1.1-0.1,1.6-0.3c0.6-0.2,1.4-0.3,2.2-0.2c0.5,0.1,1,0.3,1.4,0.5
		l0.5,0.3l1.3,4.6h-8.6l-0.7-0.2c-0.4-0.1-0.8-0.4-1.1-0.7c-0.4-0.4-0.3-0.9,0.1-1.2c0.3-0.3,0.4-0.6,0.3-0.9c-0.2-0.9-2-1.7-4-1.7
		c-2,0-3.4,0.8-3.2,1.7c0.1,0.3,0.3,0.6,0.7,0.9c0.5,0.4,0.8,0.8,0.7,1.2c-0.1,0.3-0.4,0.5-0.8,0.7l-0.6,0.2h-8.6l-0.8-4.6l0.4-0.3
		c0.2-0.2,0.6-0.4,1.1-0.5c0.7-0.1,1.6,0,2.2,0.2c0.5,0.2,1.1,0.3,1.7,0.3c1.8,0,3-0.8,2.8-1.9c-0.2-1-1.8-1.8-3.5-1.8
		c-0.6,0-1.1,0.1-1.6,0.3c-0.6,0.2-1.4,0.3-2.2,0.2c-0.5-0.1-1-0.2-1.3-0.5l-0.5-0.3l-0.7-4.2h8.1l0.6-0.2c0.4-0.1,0.6-0.3,0.7-0.6
		c0.2-0.4-0.1-0.8-0.6-1.1c-0.4-0.2-0.6-0.5-0.7-0.8c-0.2-0.8,1.2-1.5,3-1.5c1.9,0,3.5,0.7,3.7,1.5c0.1,0.3,0,0.6-0.3,0.8
		c-0.4,0.3-0.4,0.7-0.1,1.1c0.2,0.2,0.6,0.5,1,0.6l0.7,0.2h8.1l1.2,4.2l-0.3,0.3c-0.2,0.2-0.6,0.4-1.1,0.5c-0.7,0.1-1.5,0-2.3-0.2
		c-0.5-0.2-1.1-0.3-1.7-0.3C302.9,427.4,301.7,428.2,301.9,429.3z"/>
	<path class="st6" d="M375.5,411.5c0.2,0.9-1,1.7-2.6,1.7c-0.6,0-1.1-0.1-1.6-0.2c-0.7-0.2-1.4-0.3-2.1-0.2
		c-0.5,0.1-0.9,0.2-1.1,0.4l-0.4,0.3l0.7,4.1h-8.1l-0.7-0.2c-0.4-0.1-0.7-0.3-0.9-0.6c-0.3-0.4-0.2-0.8,0.2-1.1
		c0.3-0.2,0.4-0.5,0.4-0.8c-0.1-0.8-1.7-1.5-3.6-1.5c-1.9,0-3.3,0.7-3.2,1.5c0,0.3,0.2,0.6,0.6,0.8c0.5,0.3,0.7,0.7,0.5,1.1
		c-0.1,0.2-0.4,0.5-0.8,0.6l-0.6,0.2H344l-0.2-4.1l-0.4-0.3c-0.3-0.2-0.7-0.3-1.2-0.4c-0.7-0.1-1.5,0-2.1,0.2
		c-0.4,0.2-1,0.2-1.5,0.2c-1.7,0-3-0.7-3-1.7c0-0.9,1.3-1.6,2.9-1.6c0.6,0,1.1,0.1,1.5,0.2c0.6,0.2,1.4,0.3,2.1,0.2
		c0.5-0.1,0.9-0.2,1.1-0.4l0.4-0.3l-0.2-3.8h7.7l0.6-0.2c0.4-0.1,0.6-0.3,0.7-0.5c0.2-0.3,0-0.7-0.4-1c-0.3-0.2-0.5-0.5-0.5-0.7
		c-0.1-0.8,1.3-1.4,3-1.4c1.8,0,3.3,0.6,3.4,1.4c0,0.3-0.1,0.5-0.4,0.7c-0.4,0.3-0.5,0.6-0.2,1c0.2,0.2,0.5,0.4,0.9,0.5l0.6,0.2h7.7
		l0.7,3.8l0.5,0.3c0.3,0.2,0.7,0.3,1.2,0.4c0.7,0.1,1.5,0,2-0.2c0.4-0.2,0.9-0.2,1.5-0.2C373.8,409.8,375.3,410.5,375.5,411.5z"/>
	<path class="st6" d="M328.4,411.2l4.7,11.7H325l-0.7-0.2c-0.4-0.1-0.8-0.3-1.1-0.6c-0.4-0.4-0.3-0.8,0-1.1c0.2-0.2,0.3-0.5,0.2-0.8
		c-0.3-0.8-2.1-1.5-3.9-1.5c-1.9,0-3.1,0.7-2.9,1.5c0.1,0.3,0.4,0.6,0.8,0.8c0.5,0.3,0.8,0.7,0.7,1.1c-0.1,0.2-0.3,0.5-0.7,0.6
		l-0.6,0.2h-8.1l-1.2-4.1l-0.5-0.3c-0.3-0.2-0.8-0.3-1.3-0.4c-0.7-0.1-1.5,0-2.1,0.2c-0.4,0.2-0.9,0.2-1.5,0.2
		c-1.7,0-3.2-0.7-3.4-1.7c-0.2-0.9,0.9-1.6,2.6-1.6c0.6,0,1.1,0.1,1.6,0.2c0.7,0.2,1.4,0.3,2.1,0.2c0.5-0.1,0.8-0.2,1-0.4l0.3-0.3
		l-1.1-3.8h7.7l0.5-0.2c0.3-0.1,0.5-0.3,0.6-0.5c0.1-0.3-0.2-0.7-0.7-1c-0.4-0.2-0.6-0.5-0.7-0.7c-0.2-0.8,1-1.4,2.7-1.4
		c1.8,0,3.4,0.6,3.7,1.4c0.1,0.3,0,0.5-0.2,0.7c-0.3,0.3-0.3,0.6,0,1c0.2,0.2,0.6,0.4,1,0.5l0.7,0.2H328.4z"/>
	<path class="st6" d="M380.2,435.2l5.3,13.2h-8.6l-0.8-0.2c-0.5-0.1-0.9-0.4-1.1-0.7c-0.4-0.4-0.4-0.8,0-1.2
		c0.2-0.3,0.3-0.6,0.2-0.9c-0.3-0.9-2.2-1.7-4.2-1.7s-3.3,0.8-3,1.7c0.1,0.3,0.4,0.6,0.8,0.9c0.6,0.4,0.9,0.8,0.8,1.2
		c-0.1,0.3-0.3,0.5-0.7,0.7l-0.6,0.2h-8.6l-1.3-4.6l-0.5-0.3c-0.3-0.2-0.8-0.4-1.4-0.5c-0.8-0.1-1.6,0-2.2,0.2
		c-0.4,0.2-1,0.3-1.6,0.3c-1.8,0-3.4-0.8-3.7-1.9c-0.3-1,1-1.8,2.7-1.8c0.6,0,1.2,0.1,1.7,0.3c0.7,0.2,1.5,0.3,2.3,0.2
		c0.5-0.1,0.9-0.2,1.1-0.5l0.3-0.3l-1.2-4.2h8.1l0.6-0.2c0.3-0.1,0.6-0.3,0.7-0.6c0.1-0.4-0.2-0.8-0.7-1.1c-0.4-0.2-0.7-0.5-0.8-0.8
		c-0.3-0.8,1-1.5,2.9-1.5c1.9,0,3.6,0.7,3.9,1.5c0.1,0.3,0,0.6-0.2,0.8c-0.3,0.3-0.4,0.7,0,1.1c0.3,0.3,0.6,0.5,1.1,0.6l0.7,0.2
		H380.2z"/>
	<path class="st6" d="M183.2,436.1l-4.3,14.9h-27.6l6-14.9h8.6l0.8-0.2c0.5-0.1,0.9-0.4,1.1-0.7c0.4-0.4,0.4-0.9,0-1.2
		c-0.2-0.3-0.3-0.6-0.2-0.9c0.3-0.9,2.2-1.7,4.2-1.7c2,0,3.3,0.8,3,1.7c-0.1,0.3-0.4,0.6-0.8,0.9c-0.6,0.4-0.9,0.8-0.8,1.2
		c0.1,0.3,0.3,0.5,0.7,0.7l0.6,0.2H183.2z"/>
	<path class="st6" d="M198.6,443.3c-0.2,1.2,1.1,2.1,2.9,2.1c0.6,0,1.3-0.1,1.8-0.3c0.8-0.3,1.6-0.4,2.4-0.2c0.5,0.1,1,0.3,1.2,0.5
		l0.4,0.4l-0.9,5.2h-27.6l4.3-14.9h8.6l0.7-0.2c0.5-0.1,0.8-0.4,1.1-0.7c0.3-0.4,0.3-0.8-0.1-1.2c-0.3-0.3-0.4-0.6-0.3-0.9
		c0.2-0.9,2-1.7,4-1.7c2,0,3.4,0.8,3.2,1.7c-0.1,0.3-0.3,0.6-0.7,0.9c-0.5,0.4-0.8,0.8-0.7,1.2c0.1,0.3,0.4,0.5,0.8,0.7l0.6,0.2h8.6
		l-0.8,4.8l-0.5,0.4c-0.3,0.2-0.8,0.4-1.4,0.5c-0.8,0.1-1.6,0-2.3-0.2c-0.5-0.2-1-0.3-1.7-0.3C200.5,441.2,198.9,442.1,198.6,443.3z
		"/>
	<path class="st6" d="M225.3,443.3c-0.1,1.2,1.3,2.1,3.2,2.1c0.6,0,1.3-0.1,1.8-0.3c0.7-0.3,1.6-0.4,2.4-0.2c0.5,0.1,1,0.3,1.3,0.5
		l0.4,0.4l-0.3,5.2h-27.6l0.9-5.2l-0.4-0.4c-0.2-0.2-0.7-0.4-1.2-0.5c-0.8-0.2-1.7,0-2.4,0.2c-0.5,0.2-1.2,0.3-1.8,0.3
		c-1.9,0-3.2-1-2.9-2.1c0.2-1.2,1.9-2.1,3.8-2.1c0.6,0,1.2,0.1,1.7,0.3c0.6,0.3,1.5,0.4,2.3,0.2c0.6-0.1,1-0.3,1.4-0.5l0.5-0.4
		l0.8-4.8h8.6l0.7-0.2c0.4-0.1,0.8-0.4,1-0.7c0.3-0.4,0.2-0.9-0.2-1.2c-0.3-0.3-0.4-0.6-0.4-0.9c0.1-0.9,1.8-1.7,3.8-1.7
		c2,0,3.5,0.8,3.4,1.7c0,0.3-0.3,0.6-0.6,0.9c-0.5,0.4-0.7,0.8-0.5,1.2c0.1,0.3,0.4,0.5,0.8,0.7l0.6,0.2h8.6l-0.3,4.8l-0.5,0.4
		c-0.3,0.2-0.8,0.4-1.3,0.5c-0.8,0.1-1.6,0-2.3-0.2c-0.5-0.2-1.1-0.3-1.7-0.3C227,441.2,225.4,442.1,225.3,443.3z"/>
	<path class="st6" d="M218.9,429.3c-0.1,1-1.7,1.9-3.4,1.9c-0.6,0-1.1-0.1-1.6-0.3c-0.6-0.2-1.4-0.3-2.2-0.2c-0.5,0.1-1,0.3-1.3,0.5
		l-0.5,0.3l-0.8,4.6h-8.6l-0.6-0.2c-0.4-0.1-0.6-0.4-0.8-0.7c-0.2-0.4,0.1-0.9,0.7-1.2c0.4-0.3,0.6-0.6,0.7-0.9
		c0.2-0.9-1.2-1.7-3.2-1.7c-2,0-3.8,0.8-4,1.7c-0.1,0.3,0,0.6,0.3,0.9c0.4,0.4,0.4,0.8,0.1,1.2c-0.2,0.3-0.6,0.5-1.1,0.7l-0.7,0.2
		h-8.6l1.3-4.6l-0.3-0.3c-0.2-0.2-0.6-0.4-1.1-0.5c-0.7-0.1-1.6,0-2.3,0.2c-0.5,0.2-1.1,0.3-1.7,0.3c-1.8,0-2.9-0.8-2.6-1.9
		c0.3-1,2-1.8,3.7-1.8c0.6,0,1.1,0.1,1.5,0.3c0.6,0.2,1.4,0.3,2.1,0.2c0.5-0.1,1-0.2,1.3-0.5l0.5-0.3l1.2-4.2h8.1l0.7-0.2
		c0.4-0.1,0.8-0.3,1-0.6c0.3-0.4,0.2-0.8-0.1-1.1c-0.3-0.2-0.4-0.5-0.3-0.8c0.2-0.8,1.9-1.5,3.7-1.5c1.9,0,3.2,0.7,3,1.5
		c-0.1,0.3-0.3,0.6-0.7,0.8c-0.5,0.3-0.8,0.7-0.6,1.1c0.1,0.2,0.4,0.5,0.7,0.6l0.6,0.2h8.1l-0.7,4.2l0.4,0.3
		c0.2,0.2,0.6,0.4,1.1,0.5c0.7,0.1,1.5,0,2.2-0.2c0.5-0.2,1.1-0.3,1.7-0.3C217.7,427.4,219,428.2,218.9,429.3z"/>
	<path class="st6" d="M269.1,429.3c0.1,1-1.2,1.9-3,1.9c-0.6,0-1.2-0.1-1.7-0.3c-0.7-0.2-1.5-0.3-2.2-0.2c-0.5,0.1-0.9,0.3-1.2,0.5
		l-0.4,0.3l0.3,4.6h-8.6l-0.7-0.2c-0.4-0.1-0.7-0.4-0.9-0.7c-0.3-0.4-0.1-0.9,0.4-1.2c0.3-0.3,0.5-0.6,0.5-0.9
		c0-0.9-1.6-1.7-3.6-1.7c-2,0-3.6,0.8-3.6,1.7c0,0.3,0.2,0.6,0.5,0.9c0.4,0.4,0.6,0.8,0.4,1.2c-0.2,0.3-0.5,0.5-0.9,0.7l-0.7,0.2
		h-8.6l0.3-4.6l-0.4-0.3c-0.3-0.2-0.7-0.4-1.2-0.5c-0.7-0.1-1.6,0-2.2,0.2c-0.5,0.2-1.1,0.3-1.7,0.3c-1.8,0-3.1-0.8-3-1.9
		c0.1-1,1.6-1.8,3.3-1.8c0.6,0,1.1,0.1,1.6,0.3c0.6,0.2,1.4,0.3,2.2,0.2c0.5-0.1,1-0.2,1.2-0.5l0.4-0.3l0.2-4.2h8.1l0.6-0.2
		c0.4-0.1,0.7-0.3,0.9-0.6c0.2-0.4,0.1-0.8-0.3-1.1c-0.3-0.2-0.5-0.5-0.5-0.8c0-0.8,1.5-1.5,3.4-1.5c1.9,0,3.4,0.7,3.4,1.5
		c0,0.3-0.2,0.6-0.5,0.8c-0.4,0.3-0.6,0.7-0.4,1.1c0.2,0.2,0.5,0.5,0.9,0.6l0.6,0.2h8.1l0.2,4.2l0.4,0.3c0.3,0.2,0.7,0.4,1.2,0.5
		c0.7,0.1,1.5,0,2.2-0.2c0.5-0.2,1-0.3,1.6-0.3C267.5,427.4,269,428.2,269.1,429.3z"/>
	<path class="st6" d="M270.4,443.3c0.1,1.2-1.3,2.1-3.2,2.1c-0.6,0-1.3-0.1-1.8-0.3c-0.7-0.3-1.6-0.4-2.4-0.2
		c-0.5,0.1-1,0.3-1.3,0.5l-0.4,0.4l0.3,5.2h-27.6l0.3-5.2l-0.4-0.4c-0.3-0.2-0.7-0.4-1.3-0.5c-0.8-0.2-1.7,0-2.4,0.2
		c-0.5,0.2-1.1,0.3-1.8,0.3c-1.9,0-3.3-1-3.2-2.1c0.1-1.2,1.7-2.1,3.5-2.1c0.6,0,1.2,0.1,1.7,0.3c0.7,0.3,1.5,0.4,2.3,0.2
		c0.5-0.1,1-0.3,1.3-0.5l0.5-0.4l0.3-4.8h8.6l0.7-0.2c0.4-0.1,0.7-0.4,0.9-0.7c0.3-0.4,0.1-0.8-0.4-1.2c-0.3-0.3-0.5-0.6-0.5-0.9
		c0-0.9,1.6-1.7,3.6-1.7c2,0,3.6,0.8,3.6,1.7c0,0.3-0.2,0.6-0.5,0.9c-0.4,0.4-0.6,0.8-0.4,1.2c0.2,0.3,0.5,0.5,0.9,0.7l0.7,0.2h8.6
		l0.3,4.8l0.5,0.4c0.3,0.2,0.8,0.4,1.3,0.5c0.8,0.1,1.6,0,2.3-0.2c0.5-0.2,1.1-0.3,1.7-0.3C268.7,441.2,270.3,442.1,270.4,443.3z"/>
	<path class="st6" d="M270.9,466.9c0.2,1.2,1.8,2.1,3.7,2.1c0.6,0,1.2-0.1,1.7-0.3c0.6-0.3,1.5-0.4,2.3-0.2c0.6,0.1,1,0.3,1.4,0.5
		l0.5,0.4l0.9,5.2h-27.6l-0.3-5.2l0.4-0.4c0.3-0.2,0.7-0.4,1.3-0.5c0.8-0.2,1.7,0,2.4,0.2c0.5,0.2,1.1,0.3,1.8,0.3
		c1.9,0,3.3-1,3.2-2.1c-0.1-1.2-1.7-2.1-3.5-2.1c-0.6,0-1.2,0.1-1.7,0.3c-0.7,0.3-1.5,0.4-2.3,0.2c-0.5-0.1-1-0.3-1.3-0.5l-0.5-0.4
		l-0.3-4.8h8.6l0.6-0.2c0.4-0.1,0.7-0.4,0.8-0.7c0.2-0.4,0-0.9-0.5-1.2c-0.4-0.3-0.6-0.6-0.6-0.9c-0.1-0.9,1.4-1.7,3.4-1.7
		s3.7,0.8,3.8,1.7c0,0.3-0.1,0.6-0.4,0.9c-0.4,0.4-0.5,0.8-0.2,1.2c0.2,0.3,0.6,0.5,1,0.7l0.7,0.2h8.6l0.8,4.8l-0.4,0.4
		c-0.2,0.2-0.7,0.4-1.2,0.5c-0.8,0.1-1.6,0-2.4-0.2c-0.5-0.2-1.1-0.3-1.8-0.3C272.1,464.8,270.7,465.7,270.9,466.9z"/>
	<path class="st7" d="M181.3,441.2l0.6-0.4l-1.4,5l-0.3-0.4c-0.2-0.2-0.6-0.4-1.1-0.5c-0.7-0.2-1.7,0-2.4,0.2
		c-0.6,0.2-1.2,0.3-1.9,0.3c-1.9,0-3.1-1-2.7-2.1c0.4-1.2,2.2-2.1,4-2.1c0.6,0,1.2,0.1,1.6,0.3c0.6,0.3,1.4,0.4,2.3,0.2
		C180.4,441.6,180.9,441.5,181.3,441.2z"/>
	<path class="st6" d="M305.4,443.3c0.3,1.2,2.1,2.1,3.9,2.1c0.6,0,1.2-0.1,1.7-0.3c0.6-0.3,1.5-0.4,2.3-0.2c0.6,0.1,1.1,0.3,1.4,0.5
		l0.6,0.4l1.5,5.2h-27.6l-0.9-5.2l-0.5-0.4c-0.3-0.2-0.8-0.4-1.4-0.5c-0.8-0.2-1.7,0-2.3,0.2c-0.5,0.2-1.1,0.3-1.7,0.3
		c-1.9,0-3.5-1-3.7-2.1c-0.2-1.2,1.2-2.1,3.1-2.1c0.6,0,1.2,0.1,1.8,0.3c0.7,0.3,1.6,0.4,2.4,0.2c0.5-0.1,1-0.3,1.2-0.5l0.4-0.4
		l-0.8-4.8h8.6l0.6-0.2c0.4-0.1,0.6-0.4,0.8-0.7c0.2-0.4-0.1-0.8-0.7-1.2c-0.4-0.3-0.6-0.6-0.7-0.9c-0.2-0.9,1.2-1.7,3.2-1.7
		c2,0,3.8,0.8,4,1.7c0.1,0.3,0,0.6-0.3,0.9c-0.4,0.4-0.5,0.8-0.1,1.2c0.2,0.3,0.6,0.5,1.1,0.7l0.7,0.2h8.6l1.4,4.8l-0.4,0.4
		c-0.2,0.2-0.6,0.4-1.1,0.5c-0.7,0.1-1.6,0-2.4-0.2c-0.6-0.2-1.2-0.3-1.8-0.3C306.4,441.2,305.1,442.1,305.4,443.3z"/>
	<path class="st6" d="M338.4,436.1l6,14.9h-27.6l-1.5-5.2l-0.6-0.4c-0.4-0.2-0.9-0.4-1.4-0.5c-0.9-0.2-1.7,0-2.3,0.2
		c-0.5,0.2-1,0.3-1.7,0.3c-1.9,0-3.6-1-3.9-2.1c-0.3-1.2,1-2.1,2.8-2.1c0.6,0,1.2,0.1,1.8,0.3c0.8,0.3,1.6,0.4,2.4,0.2
		c0.5-0.1,0.9-0.3,1.1-0.5l0.4-0.4l-1.4-4.8h8.6l0.6-0.2c0.4-0.1,0.6-0.4,0.7-0.7c0.1-0.4-0.2-0.9-0.8-1.2c-0.4-0.3-0.7-0.6-0.8-0.9
		c-0.3-0.9,1-1.7,3-1.7s3.8,0.8,4.2,1.7c0.1,0.3,0,0.6-0.2,0.9c-0.3,0.4-0.4,0.8,0,1.2c0.3,0.3,0.7,0.5,1.1,0.7l0.8,0.2H338.4z"/>
</g>
<g>
	<g>
		<path class="st4" d="M458.9,408.2l-69.9,1.4c-3.8,0.1-7.6-1.6-8.4-3.7l-5.4-13.3c-0.8-2.1-0.7-6.3,3.1-6.4l72.1,1.1
			c2.5,0,5.1,1,5.6,2.5l6.6,13.1C463.2,404.3,461.4,408.2,458.9,408.2z"/>
	</g>
	<path class="st8" d="M459.1,405.5l-69.9,1.4c-3.8,0.1-7.6-1.6-8.4-3.7l-5.4-13.3c-0.8-2.1,1.5-3.8,5.3-3.9l69.9-1.4
		c2.5,0,5.1,1,5.6,2.5l6.4,15.8C463.2,404.3,461.6,405.4,459.1,405.5z"/>
	<polygon class="st9" points="458.3,402.9 385.7,404.3 379.3,388.6 452,387.2 	"/>
</g>
<g>
	<path class="st4" d="M216.4,84.7c-3.2,1.4-6,3.6-8.3,6.2c-5.4,6.2-15.5,18.8-16.2,29.2c-1,14.2-2.7,43.5-3.1,58.9
		c-0.4,15.4-9,11.3-5.2,21.5c3.8,10.2,14.6,18.5,49.2,18.5c34.6,0,38.7,1.9,56.5-13.8c13.6-12,22.3-25.4,16.9-30.6
		c-5.4-5.2-11.2-17.5-14.2-36.3c-3.1-18.8-11.3-44.8-25.2-51.7C254.2,80,235.7,75.9,216.4,84.7z"/>
	<g>
		<path class="st10" d="M252,107c0,0-9.8,21.9-44.6,30.3"/>
		<path class="st10" d="M241.4,91.5c0,0-30.3,12.5-40.5,40.9"/>
		<path class="st10" d="M260.3,105.8c0,0,4.5,15.9,19.3,21.6"/>
		<path class="st10" d="M248.6,84.6c0,0,7.9,25,7.6,29.9c-0.4,4.9-8.7,24.2-49.6,29.1"/>
	</g>
	<g>
		<path class="st8" d="M228.7,202.8c0,0-45.5,24-50.4,27.2c-4.9,3.1-6.3,4.6-6.3,7.7c0,3.1-20.3,82.1-21.2,88.1
			c-0.9,6,0.9,7.7,0.9,7.7s-3.7,4.9-2.9,9.4c0.9,4.6,3.1,7.4,5.4,10c2.3,2.6,35.5,31.2,38.6,33.2c0,0,5.2-10.3,8.3-12.9
			c3.1-2.6,5.2-3.7,5.2-3.7s-9.2-9.2-11.2-15.2c-2-6-2.3-6.6-3.7-11.7c-1.4-5.2-4-11.2-4-11.2s5.7-4,5.7-14.3s-1.1-10.6,0-14
			c1.1-3.4,3.1-14.6,3.1-14.6s4.3,26,6.3,33.2c2,7.2,4,15.2,3.4,18.6c-0.6,3.4-4.9,13.2-3.7,17.2c1.1,4,6.3,16.9,6.3,16.9h121.9
			c0,0-4.3-36.3-6.9-44.9c-2.6-8.6-4-19.7-4-24.9s4.9-28.9,4.9-28.9l24.4,27.6c0,0,24.2-1.6,27.1-9.6c2.9-8,12.8-6.4,11.1-11.2
			c-1.7-4.9-14.3-16-22-26.4c-15.5-21-30.9-26.1-36-37.8c-5.2-11.7-17.7-10-17.7-10l-40.9-8.4L228.7,202.8z"/>
		<path class="st9" d="M260.3,263.9c2.7-2.7,20.5-49.7,21-54.7c0.2-2.5-1.7-5.5-3.7-7.8l-7-1.4l-41.8,2.9c0,0-3.2,1.7-7.9,4.2
			c-1,3.7-2,8.8-0.7,12.7C222.5,226.5,257.6,266.7,260.3,263.9z"/>
		<g>
			<path class="st3" d="M229.3,290.4c0,0,21.9,22.3,48.3,29.6"/>
			<path class="st3" d="M280.3,328.6c1.3,0.5,2.5,1,3.7,1.4"/>
			<path class="st3" d="M245.7,312.3c0,0,17.1,8.9,31.2,14.9"/>
		</g>
		<path class="st3" d="M324.6,275.8c0,0-11.4-3.2-16.9-12.8"/>
		<path class="st3" d="M296.3,264.4c0,0,10,9.1,22.8,10.9"/>
		<line class="st3" x1="196.4" y1="288.7" x2="186" y2="273.5"/>
		<path class="st3" d="M175.4,326.7c-8-1.3-15.9,1.5-15.9,1.5"/>
		<path class="st3" d="M183.2,329.6c-0.9-0.6-1.8-1.1-2.8-1.5"/>
	</g>
	<path class="st9" d="M227.2,183.8c0,0,1.6,19-0.2,29.5c-1.2,7.4,28.7,37.8,28.7,37.8l18-41.5l0,0c-3.6-6.2-6.1-13-7.3-20l-1.8-10.6
		c0,0-10.9,13-19.3,11.7C236.8,189.3,227.2,183.8,227.2,183.8z"/>
	<path class="st4" d="M257.5,197.2l0.6-5.9l-5.2-2.4c-2.5,1.4-5.2,2.2-7.6,1.8c-8.5-1.3-18.1-6.8-18.1-6.8s1.2,14.9,0.3,25.6
		L257.5,197.2z"/>
	<g>
		<path class="st9" d="M258.1,119.7c0,0-10.6,16.3-25.8,23.7s-22.1,7.7-22.1,7.7s5.2,26.5,7.5,29.4c2.3,2.9,19.2,19.6,26.7,20.8
			c7.5,1.2,11.3-1.9,13.1-4c1.7-2.1,14.4-13.3,16.5-20.4c2.1-7.1,2.1-38.5,2.1-38.5S260,130.1,258.1,119.7z"/>
		<path class="st11" d="M234.7,148.1c0,0-9.6-4.4-13.5,1.5"/>
		<path class="st9" d="M276.4,139.7c0,0,2.9-8.8,5.8-3.7c2.9,5.2-0.8,16-3.1,19.2c-2.3,3.3-3.3,4.6-3.3,4.6L276.4,139.7z"/>
		<path class="st9" d="M210.2,151c0,0-7.1-9.2-8.5,0.2c-1.3,9.4,11.7,15.4,11.7,15.4L210.2,151z"/>
		<path class="st3" d="M238.5,173.6c0,0,3.1,2.3,5.6,1.7c2.5-0.6,3.8-2.3,3.8-2.3"/>
		<path class="st3" d="M235.2,181.1c0,0,4,2.9,9.8,2.1c5.8-0.8,9.8-5.6,9.8-5.6"/>
		<ellipse class="st2" cx="255.4" cy="158.5" rx="3" ry="4.3"/>
		<path class="st2" d="M233.2,160.1c0,2.4-1.3,4.3-3,4.3c-1.6,0-3-1.9-3-4.3c0-2.4,1.3-4.3,3-4.3
			C231.9,155.8,233.2,157.7,233.2,160.1z"/>
		<path class="st11" d="M250,145.1c0,0,9.6-4.4,13.5,1.5"/>
	</g>
	<g>
		<path class="st8" d="M362,290.1c-3.9,0.6-8.3,1.9-9.7,4.2c-2.9,4.6-33.8,35.2-36.9,38.1c-3.1,2.9-4.6,4-4.6,4s13.2,6,16,10.3
			c2.9,4.3,4,5.4,4.3,6.6c0.3,1.1,1.7-2.3,5.4-6.3c3.7-4,6-6,6-6s25.2-13.7,29.5-15.7c4.3-2,12.9-8,14.9-13.4
			c2-5.4,4.3-13.7,2.9-23.2c-1.4-9.4-16.6-18-17.7-18.9"/>
		<path class="st8" d="M369.5,289.4c0,0-1.8,0-4.2,0.3"/>
		<g>
			<path class="st9" d="M310.8,336.3c-1.9-0.3-15.2,12.3-18.6,14.6c-3.4,2.3-8,5.7-8,8.3c0,2.6-5.4,19.7-5.2,24.6
				c0.3,4.9-1.1,8.8,2.3,10.3c1.5,0.7,3.4-2,3.4-2s3.1,2,5.2,1.4c2-0.6,2.9-3.1,2.9-3.1s2-7.4,2.9-8.3c0.9-0.9,2.9-4.6,2.9-4.6
				s-5.2,15.2-2.9,16.6c2.3,1.4,3.7,0.6,5.2-1.4c1.4-2,3.1-4.9,3.1-4.9s-0.3,5,3.1,3.6c3.4-1.4,7.2-13.3,7.2-13.3s2.3-4,3.7-5.2
				c1.4-1.1,3.1-2,6-6.3c2.9-4.3,7.2-13.4,7.2-13.4S326.3,338.6,310.8,336.3z"/>
			<path class="st3" d="M284.8,392.1c0,0,2.9-12.8,3.6-16.3c0.7-3.4,8.1-16.5,8.1-16.5"/>
			<line class="st3" x1="298.5" y1="377.5" x2="304.5" y2="363"/>
			<path class="st3" d="M304,387.8l4.6-12c0,0,4.4-9.5,4.6-9.9"/>
		</g>
	</g>
	<g>
		<path class="st9" d="M206.4,369.6c0,0,17.8-5.4,21.6-6.4c3.8-1,6.3,1,7.9,3.6c1.6,2.6,10.7,16.5,10.9,17.5c0.2,1-0.8,1.6-1.8,2.2
			c-1,0.6-5.2,2.2-5.2,2.2s-12.3,3.4-13.7,3.6c-1.4,0.2-6.9-2.2-6.9-2.2s-5.2,1.4-11.7,0.8c-6.5-0.6-13.9-7.3-13.9-7.3
			S200.3,372,206.4,369.6z"/>
		<line class="st3" x1="227.5" y1="368.9" x2="241.8" y2="388.3"/>
		<line class="st3" x1="220.6" y1="371.5" x2="236.3" y2="389.9"/>
		<path class="st3" d="M216,376.2c0,0,14.1,13.9,13.7,15.1"/>
		<polyline class="st3" points="219.2,390.3 220,387.7 222.6,388.5 		"/>
	</g>
</g>
</svg>
