<?xml version="1.0" encoding="utf-8"?>
<!-- Generator: Adobe Illustrator 25.2.0, SVG Export Plug-In . SVG Version: 6.00 Build 0)  -->
<svg version="1.1" id="Layer_1" xmlns="http://www.w3.org/2000/svg" xmlns:xlink="http://www.w3.org/1999/xlink" x="0px" y="0px"
	 viewBox="0 0 500 500" style="enable-background:new 0 0 500 500;" xml:space="preserve">
<style type="text/css">
	.st0{fill:#8342EA;}
	.st1{opacity:0.7;fill:#FFFFFF;}
	.st2{fill:none;stroke:#1A2E35;stroke-linecap:round;stroke-linejoin:round;stroke-miterlimit:10;}
	.st3{fill:none;stroke:#1A2E35;stroke-miterlimit:10;}
	.st4{fill:#1A2E35;}
	.st5{opacity:0.2;clip-path:url(#XMLID_2_);}
	.st6{fill:#FFFFFF;stroke:#1A2E35;stroke-linecap:round;stroke-linejoin:round;stroke-miterlimit:10;}
	.st7{opacity:0.3;clip-path:url(#XMLID_3_);fill-opacity:0.7;}
	.st8{opacity:0.3;clip-path:url(#XMLID_3_);fill:#FFFFFF;fill-opacity:0.7;}
	.st9{opacity:0.3;clip-path:url(#XMLID_4_);fill-opacity:0.7;}
	.st10{opacity:0.3;clip-path:url(#XMLID_4_);fill:#FFFFFF;fill-opacity:0.7;}
	.st11{fill:#8342EA;stroke:#1A2E35;stroke-linecap:round;stroke-linejoin:round;stroke-miterlimit:10;}
	.st12{opacity:0.3;fill:#FFFFFF;fill-opacity:0.7;}
	.st13{opacity:0.3;clip-path:url(#XMLID_5_);fill-opacity:0.7;}
	.st14{fill:#757575;stroke:#1A2E35;stroke-linecap:round;stroke-linejoin:round;stroke-miterlimit:10;}
	.st15{fill:none;stroke:#FFFFFF;stroke-linecap:round;stroke-linejoin:round;stroke-miterlimit:10;}
	.st16{fill:#999999;stroke:#1A2E35;stroke-linecap:round;stroke-linejoin:round;stroke-miterlimit:10;}
	.st17{opacity:0.4;clip-path:url(#XMLID_6_);fill:#8342EA;}
	.st18{opacity:0.3;clip-path:url(#XMLID_7_);fill-opacity:0.7;}
	.st19{opacity:0.3;clip-path:url(#XMLID_7_);fill:#FFFFFF;fill-opacity:0.7;}
	.st20{opacity:0.3;clip-path:url(#XMLID_8_);fill-opacity:0.7;}
	.st21{opacity:0.3;clip-path:url(#XMLID_8_);fill:#FFFFFF;fill-opacity:0.7;}
	.st22{opacity:0.3;clip-path:url(#XMLID_9_);fill-opacity:0.7;}
	.st23{opacity:0.4;clip-path:url(#XMLID_10_);fill:#8342EA;}
	.st24{opacity:0.2;clip-path:url(#XMLID_11_);}
	.st25{opacity:0.3;clip-path:url(#XMLID_12_);fill-opacity:0.7;}
	.st26{opacity:0.3;clip-path:url(#XMLID_12_);fill:#FFFFFF;fill-opacity:0.7;}
	.st27{opacity:0.3;clip-path:url(#XMLID_13_);fill-opacity:0.7;}
	.st28{opacity:0.3;clip-path:url(#XMLID_13_);fill:#FFFFFF;fill-opacity:0.7;}
	.st29{opacity:0.3;clip-path:url(#XMLID_14_);fill-opacity:0.7;}
</style>
<g id="Background_Simple">
</g>
<g id="Graphics">
</g>
<g id="Shadow_4">
</g>
<g id="Shadow_3">
</g>
<g id="Shadow_2">
</g>
<g id="Shadow_1">
</g>
<g id="Character_4">
</g>
<g id="Character_2_1_">
</g>
<g id="Character_1">
</g>
<g id="Text">
</g>
<g>
	<g>
		<path class="st0" d="M75.7,61.5c16.7-20,39.4-35.5,66.4-35.2c46.1,0.6,71,41.4,97.4,72.8c13.7,16.3,29.3,32.1,49.6,39.7
			c30.5,11.5,64.5,4.8,94.3-5.9c13.3-4.8,29.1-11.5,44.1-8.1c45.6,10.4,40.9,66.1,33.3,101.4c-10.2,47.6-26.7,98.3-60.2,134.8
			c-80.2,87.5-224.7,33.9-297-36c-5.3-5.1-10.4-10.5-15.2-16.1c-12.4-14.6-23-30.6-31.3-47.9c-23.3-48.5-26.6-107.5-6.3-157.6
			C56.5,88.9,65.1,74.2,75.7,61.5z"/>
		<path class="st1" d="M75.7,61.5c16.7-20,39.4-35.5,66.4-35.2c46.1,0.6,71,41.4,97.4,72.8c13.7,16.3,29.3,32.1,49.6,39.7
			c30.5,11.5,64.5,4.8,94.3-5.9c13.3-4.8,29.1-11.5,44.1-8.1c45.6,10.4,40.9,66.1,33.3,101.4c-10.2,47.6-26.7,98.3-60.2,134.8
			c-80.2,87.5-224.7,33.9-297-36c-5.3-5.1-10.4-10.5-15.2-16.1c-12.4-14.6-23-30.6-31.3-47.9c-23.3-48.5-26.6-107.5-6.3-157.6
			C56.5,88.9,65.1,74.2,75.7,61.5z"/>
	</g>
	<line class="st2" x1="5.9" y1="473.7" x2="494.1" y2="473.7"/>
	<g>
		<polyline class="st2" points="302.3,221.3 302.3,38.1 313.6,38.1 		"/>
		<line class="st2" x1="302.3" y1="243.1" x2="302.3" y2="238.3"/>
		<polyline class="st2" points="342.8,38.1 459.9,38.1 459.9,260.2 302.3,260.2 		"/>
		<line class="st2" x1="328.4" y1="38.1" x2="338.7" y2="38.1"/>
		<rect x="308.2" y="44" class="st2" width="145.8" height="210.3"/>
		<polyline class="st2" points="447.2,55.3 447.2,142.6 315,142.6 315,136.9 		"/>
		<polyline class="st2" points="315,123.5 315,50.2 447.2,50.2 		"/>
		<line class="st2" x1="315" y1="132.5" x2="315" y2="127"/>
		<line class="st2" x1="424.9" y1="149.1" x2="454" y2="149.1"/>
		<line class="st2" x1="414.5" y1="149.1" x2="418.6" y2="149.1"/>
		<line class="st2" x1="308.2" y1="149.1" x2="409.6" y2="149.1"/>
		<polyline class="st2" points="373.8,142.6 373.8,139.6 385.9,139.6 385.9,141.3 381.1,141.3 381.1,142.6 		"/>
		<path class="st2" d="M308.5,227.9c0,0,2,1.5,3.4,10.8c0,0,2.4-14.8,5.4-15c3-0.2,2.4,9.6,2.4,9.6s0.5-4.9,2.8-4.6
			c2.3,0.2,0,10,0,10s2.8-7.6,5.4-7.5c2.6,0.1-1.8,13.8-1.8,13.8s6.8-4.9,9.5-2.5c2.7,2.4-1.5,8.5-1.5,8.5s9.7-2.1,11.2,3.6"/>
		<path class="st2" d="M345.4,249c0,0,4.2-2.8,7.6-1.5c0,0-2.1-3.2,0-5.2c2.1-2,4.8,5.2,4.8,5.2s0.3-12,4.5-11.4
			c4.2,0.6,0,11.4,0,11.4s7.6-6.7,9.4-4.4c1.8,2.3-1.2,5.9-1.2,5.9s4.5-1.4,7.9,1.9c0,0,5.1-5.2,10.7-5.9c0,0-3.7-10.9-1.9-13.1
			c1.8-2.2,5.1,9.5,5.1,9.5s1.4-7.6,6.2-8.2c0,0-3.9-2.1-2.8-5.4c1.2-3.2,6.6,0.8,6.6,0.8s-2.2-5.7,1.3-7.3c3.5-1.6,5,4.8,5,4.8
			s1-6.7,5.1-6.3c4.1,0.4,2.8,8,2.8,8s3.9-6.1,6-5.5c4.2,1.2,2.9,10.9,2.9,10.9s5.9-4.1,7.4-2.2c1.6,2-6.1,7.2-6.1,7.2
			s5.8,0.6,9.4,4"/>
		<path class="st2" d="M454,230c0,0-0.7-6.1-6.8-6.4c-6.1-0.3,1.7,13.4,1.7,13.4s-5-4.2-6.8-2.9c-1.8,1.3,5.2,8.3,5.2,8.3
			s-3.3-3.1-6.9-2.1c-3.5,1,2,10.8,2,10.8s-7.4-1.9-15.5,1.8"/>
	</g>
	<g>
		<g>
			<line class="st2" x1="245.9" y1="419.2" x2="245.9" y2="473.4"/>
			<line class="st2" x1="245.9" y1="401.4" x2="245.9" y2="413"/>
			<polyline class="st2" points="17.7,473.7 17.7,372.7 245.9,372.7 245.9,394.9 			"/>
			<polyline class="st2" points="50.9,383.7 31.2,383.7 31.2,464.4 			"/>
			<polyline class="st2" points="232.4,473.4 232.4,383.7 62.4,383.7 			"/>
			<line class="st2" x1="222.9" y1="362.2" x2="216.7" y2="362.2"/>
			<polyline class="st2" points="207.6,362.2 12,362.2 12,372.6 251.5,372.6 251.5,362.2 227,362.2 			"/>
		</g>
		<g>
			<g>
				<path class="st2" d="M25.5,295.7c0,0,18.7,1.5,19.5,15.3C45.1,311,26.1,319.7,25.5,295.7z"/>
				<path class="st2" d="M62.6,299.1c0,0,10.5-14.2,27.4-6.9C90,292.2,79.7,309.3,62.6,299.1z"/>
				<path class="st2" d="M88.6,254.4c0,0,3,27.2-21.8,19.7C66.8,274.1,74.7,254.1,88.6,254.4z"/>
				<path class="st2" d="M58.1,239.2c0,0,19.6,10.6,5.2,26.6C63.3,265.9,49.6,254.4,58.1,239.2z"/>
				<path class="st2" d="M34,263.6c0,0,21.3-2.2,21.3,17.6C55.3,281.2,34,282,34,263.6z"/>
				<path class="st2" d="M50,322.1c-0.3-6.6-0.3-15.1,3.7-24.1c9.3-20.8,12.5-38.3,7.6-50.6"/>
				<path class="st2" d="M41,268.9c0,0,12.8,5.1,17.1,18.2"/>
				<path class="st2" d="M81.8,265.3c0,0-7.4,10.1-19.9,9"/>
				<path class="st2" d="M81.8,295.1c0,0-20.5,5.9-28.6,4"/>
				<path class="st2" d="M31.6,301.9c0,0,9.1,10,18.3,9.9"/>
			</g>
			<path class="st3" d="M74.3,322.1H29.8c-0.6,0-1.1,0.5-1.1,1.1v3.4c0,0.6,0.5,1.1,1.1,1.1h1.3l4,34.6H69l4-34.6h1.3
				c0.6,0,1.1-0.5,1.1-1.1v-3.4C75.4,322.6,74.9,322.1,74.3,322.1z"/>
			<line class="st2" x1="34" y1="327.7" x2="59.9" y2="327.7"/>
			<line class="st2" x1="64.7" y1="327.7" x2="68.6" y2="327.7"/>
		</g>
	</g>
	<g>
		<path class="st4" d="M104.8,473.7c0,0-2.1-8.1,0.4-11.1c4.5-5.4-0.5-9.9,3.9-11.8l1.9,2.2c0.4-2.2-0.7-8.9,7.6-9.8
			c10.1-1.1,10.2,6.3,10.8,8.7l-0.2-3.4c4.3,0,2.1,4.3,8.6,11.3c5,5.3,5,12.2,4.7,14H104.8z"/>
		<path class="st4" d="M181.5,473.7c-4-1.8-0.3-17.1-0.3-17.1s-5.4-3.7,0-7.4c0,0,6.1,5.9,15.5,2.5c0,0,1.1-10.2,7.5-8.9
			c0,0,1.6,6.5,5.4,10.2c10.2,10,23.3,11.2,25.5,16c0.7,1.4-0.1,4.7-0.1,4.7H181.5z"/>
		<g>
			<g>
				<defs>
					<path id="XMLID_591_" d="M164.2,230.2l5,10.6c0,0,20.6,42.6,33.2,91.3c0.3,1.2,6.8,24.2,1.6,81.7l3,10.1l-3.3,16.7
						c0,0,4.9,7.1,4.7,9.4c0,0-12.1,2.3-16.1,4.4c-3.1,1.7-12.6,11-12.6,11c-2.7-0.6-2.9-11.4-2.9-11.4s-5.6-96-7.2-100.1
						c-1.6-4.1-11.4-22-26.7-62.8c0,0-0.3,57-4.4,71.4c-3.6,12.8,0.7,48.7,0.7,48.7l-2.5,40c0,0,8.6,9,1.6,11.4c0,0-4.7-9-18-11
						c-6.8-1-15.2,11-15.2,11c-3-0.9,1.3-16,1.3-16c-9.4-71.1-2.5-58.3-4.4-93c-1.2-22.3-7.5-117.8-0.1-125.6L164.2,230.2z"/>
				</defs>
				<use xlink:href="#XMLID_591_"  style="overflow:visible;fill:#BFBFBF;"/>
				<clipPath id="XMLID_2_">
					<use xlink:href="#XMLID_591_"  style="overflow:visible;"/>
				</clipPath>
				<path class="st5" d="M98.4,263.1c33.3,2.6,62.1-8.3,74.6-14c-2.4-5.3-3.8-8.4-3.8-8.4l-5-10.5l-62.3-2.3
					C99.3,230.7,98.4,245,98.4,263.1z"/>
				<path class="st5" d="M143.2,291.9c15.2,40.3,24.9,57.9,26.5,62c0.9,2.4,3.1,35,4.9,62.3c2-24.9,4-51.2,4.2-56.3
					c0.4-10.3-7-24.3-8.2-28c-1.1-3.6,1.4-7.6,1.4-7.6l-13.3-16.8c0.4-5.7-6.6-30.6-6.6-30.6C147.9,281,144.2,289.4,143.2,291.9z"/>
				
					<use xlink:href="#XMLID_591_"  style="overflow:visible;fill:none;stroke:#1A2E35;stroke-linecap:round;stroke-linejoin:round;stroke-miterlimit:10;"/>
			</g>
			<path class="st2" d="M142.9,291.1c0,0,7.6-14.7,14.1-18.8"/>
			<path class="st2" d="M159.9,267.6c0,0-23.1,7-31.1,8.4"/>
			<path class="st2" d="M148,244c1,19.2,7.8,22.5,1.2,26.7c0,0,0.2,9-3.1,14.7"/>
			<path class="st2" d="M107.5,236.6c0,0,2.7,29.6-6.4,35.1"/>
			<path class="st2" d="M101.1,246.2c0,0-0.7,19.7,0,35.6c0,0,2.3,67.1,4.6,75.5c2.3,8.4-3.5,21.1-3,57.6"/>
			<path class="st2" d="M123,443.3c-2.2-0.4-4.4-0.2-6.4,0.9"/>
			<path class="st2" d="M136.7,451.3c-2.9-2.7-6.2-5.1-9.8-6.7"/>
			<path class="st2" d="M132.9,295.8c-5.1,5.7-13.2,16.5-21.5,17.4"/>
			<path class="st2" d="M140.7,286.5c-1.6,2-3.2,3.9-4.8,5.9"/>
			<path class="st2" d="M133.5,353.5c0,0-11.6,15.8-18,16.7"/>
			<path class="st2" d="M147.1,288.3c0,0,20.7,57.6,27.9,63.3c0,0,0.8,42.3,1,57.1c0.2,14.8,3.6,34.4,3.6,34.4"/>
			<path class="st2" d="M201.7,442.7c0,0-8,2.8-11.8,4.5c-3.9,1.8-5.2,5.6-5.2,5.6"/>
			<path class="st2" d="M181.6,330.8c-11.1-7-25.7-15.7-31.6-27.9"/>
			<path class="st2" d="M191.3,336.5c-2.1-1.2-4.2-2.4-6.2-3.6"/>
			<path class="st2" d="M156.3,251.8c-6-0.1-12.5-0.9-17.6-4.2"/>
			<path class="st2" d="M165.8,251.2c-1.7,0.2-3.4,0.4-5.2,0.5"/>
		</g>
		<path class="st4" d="M176.8,119c-4.6-6.9-27.8-8.7-42.7-8.7s-33-2.5-41.2,14.3c-6.2,12.8,8.1,80.7,8.1,80.7l-3.5,29.3
			c27,8.5,73.3,6.6,73.3,6.6l-6.2-26.5C164.6,214.8,181.4,125.9,176.8,119z"/>
		<path class="st6" d="M125.3,93.3c0,0,2,16-4.1,19.4c0,0,3,11.7,13.7,12.4c10.6,0.7,15.4-10.7,15.4-10.7L125.3,93.3z"/>
		<g>
			<g>
				<defs>
					<path id="XMLID_590_" d="M213.4,71.3l-31.9,2.9l-1.8-19.9c-0.1-1,0.7-2,1.7-2l28.1-2.6c1-0.1,2,0.7,2,1.7L213.4,71.3z"/>
				</defs>
				<use xlink:href="#XMLID_590_"  style="overflow:visible;fill:#8342EA;"/>
				<clipPath id="XMLID_3_">
					<use xlink:href="#XMLID_590_"  style="overflow:visible;"/>
				</clipPath>
				<path class="st7" d="M213.4,71.3l-31.9,2.9l-1.8-19.9c-0.1-1,0.7-2,1.7-2l28.1-2.6c1-0.1,2,0.7,2,1.7L213.4,71.3z"/>
				
					<rect x="202.7" y="52" transform="matrix(0.9958 -9.188464e-02 9.188464e-02 0.9958 -4.6317 19.2444)" class="st8" width="7.9" height="15.8"/>
				
					<use xlink:href="#XMLID_590_"  style="overflow:visible;fill:none;stroke:#1A2E35;stroke-linecap:round;stroke-linejoin:round;stroke-miterlimit:10;"/>
			</g>
			<g>
				<defs>
					<path id="XMLID_589_" d="M260.5,67l-31.9,2.9L226.8,50c-0.1-1,0.7-2,1.7-2l28.1-2.6c1-0.1,2,0.7,2,1.7L260.5,67z"/>
				</defs>
				<use xlink:href="#XMLID_589_"  style="overflow:visible;fill:#8342EA;"/>
				<clipPath id="XMLID_4_">
					<use xlink:href="#XMLID_589_"  style="overflow:visible;"/>
				</clipPath>
				<path class="st9" d="M260.5,67l-31.9,2.9L226.8,50c-0.1-1,0.7-2,1.7-2l28.1-2.6c1-0.1,2,0.7,2,1.7L260.5,67z"/>
				
					<rect x="252.5" y="47.6" transform="matrix(0.9958 -9.188900e-02 9.188900e-02 0.9958 -4.0197 23.6522)" class="st10" width="4.8" height="15.8"/>
				
					<use xlink:href="#XMLID_589_"  style="overflow:visible;fill:none;stroke:#1A2E35;stroke-linecap:round;stroke-linejoin:round;stroke-miterlimit:10;"/>
			</g>
			<path class="st11" d="M250.6,67.9l-31.9,2.9l-1.8-19.9c-0.1-1,0.7-2,1.7-2l28.1-2.6c1-0.1,2,0.7,2,1.7L250.6,67.9z"/>
			<path class="st11" d="M297.8,63.5l-31.9,2.9L264,46.5c-0.1-1,0.7-2,1.7-2l28.1-2.6c1-0.1,2,0.7,2,1.7L297.8,63.5z"/>
			
				<rect x="239.9" y="48.6" transform="matrix(0.9958 -9.190030e-02 9.190030e-02 0.9958 -4.1594 22.6524)" class="st12" width="7.9" height="15.8"/>
			
				<rect x="286.6" y="44.3" transform="matrix(0.9958 -9.188464e-02 9.188464e-02 0.9958 -3.5665 26.913)" class="st12" width="7.9" height="15.8"/>
			<g>
				<defs>
					<path id="XMLID_588_" d="M311.3,57.7l8.3,89.5l-144.2,13.3L167,71c-0.3-3.1,2-5.9,5.1-6.2l133-12.3
						C308.2,52.3,311,54.6,311.3,57.7z"/>
				</defs>
				<use xlink:href="#XMLID_588_"  style="overflow:visible;fill:#8342EA;"/>
				<clipPath id="XMLID_5_">
					<use xlink:href="#XMLID_588_"  style="overflow:visible;"/>
				</clipPath>
				<path class="st13" d="M311.3,57.7l8.3,89.5l-144.2,13.3L167,71c-0.3-3.1,2-5.9,5.1-6.2l133-12.3C308.2,52.3,311,54.6,311.3,57.7
					z"/>
				
					<use xlink:href="#XMLID_588_"  style="overflow:visible;fill:none;stroke:#1A2E35;stroke-linecap:round;stroke-linejoin:round;stroke-miterlimit:10;"/>
			</g>
			<path class="st11" d="M311.3,57.7l8.3,89.5l-107,9.9l-8.3-89.5c-0.3-3.1,2-5.9,5.1-6.2l95.8-8.8C308.2,52.3,311,54.6,311.3,57.7z
				"/>
			<path class="st12" d="M304.3,61.5L212.8,70c-1.3,0.1-2.4-0.8-2.5-2.1l0,0c-0.1-1.3,0.8-2.4,2.1-2.5l91.5-8.4
				c1.3-0.1,2.4,0.8,2.5,2.1l0,0C306.6,60.3,305.6,61.4,304.3,61.5z"/>
		</g>
		<g>
			<path class="st4" d="M143.6,61.6c0,0-21.1-4.2-23.5,9.4c-2.4,13.6,5.4,19.4,5.4,19.4L143.6,61.6z"/>
			<path class="st6" d="M125.5,97.8c-2.2-6.1-3-13.2-1.1-21c2.1-8.7,12.5-20.7,28.2-9.8c8.1,5.6,8.6,17.8,6.1,29
				c-0.6,2.7-0.2,5.3-1,7.7c-3.1,8.6-8.8,15.2-11.9,15.4c-5.2,0.3-15.6-6-15.2-11.5"/>
			<path class="st2" d="M146.5,93.8c0,0-4.2-3-8.2-0.6"/>
			<path class="st2" d="M154.4,93.3c0,0,3.2-2.9,5.2-2.5"/>
			<path class="st4" d="M140.6,98.5c0,0.8,0.4,1.4,0.9,1.4c0.5,0,0.9-0.6,0.9-1.4c0-0.8-0.4-1.4-0.9-1.4
				C141,97.1,140.6,97.7,140.6,98.5z"/>
			<ellipse class="st4" cx="154.4" cy="97.7" rx="0.9" ry="1.4"/>
			<path class="st2" d="M152.6,96.2c-1.6,2,0.6,9.7,0,10.3c-0.6,0.5-4.6-1-4.6-1s-0.9-1.2,1-1.8"/>
			<path class="st2" d="M149.1,110.3c0,0-5.3,0-6.7-1.9"/>
			<path class="st14" d="M136.4,81.6L136,88c0,0-4.6,2.3-5.7,4.7c-1.1,2.4-0.7,5-0.7,5s-2.8-4.8-4.3-4.4c-0.5,0.1-0.5,2.2-0.5,2.2
				s-6.2-13.9-0.6-21.2C129.8,66.9,136.4,81.6,136.4,81.6z"/>
			<path class="st6" d="M127.6,96.3c0,0-1.2-4.7-5.4-5.9c-4.2-1.2-1.3,9.9,2.3,11.4c3.6,1.5,4.5,2.5,4.7,1.2"/>
			<path class="st4" d="M121.9,80.8c-0.3-0.5-1.9-12.4,6-17.8c7.9-5.4,21.3-4.8,29.8,2.6c8.5,7.4,6.1,20.4,0,24.8v-5.4
				c0,0-2.8,5.4-11.2,5.9l2.6-4c0,0-4.1,2.4-11.4,2.3c0,0,3.4-2.7,2.9-5.2C140.6,84,129,90.5,121.9,80.8z"/>
		</g>
		<path class="st6" d="M123.4,123.9c-5.8,0.7-14.1,8.3-8.7,21.8c3.4,8.6,31.8,3.5,31.8,3.5c10.5-4.3,25.9-19.9,37.1-27.2
			c0,0-2.4-14.9-5.1-12.8c-12.7,9.8-23.2,10.4-41,19C137.5,128.2,127,123.5,123.4,123.9z"/>
		<path class="st6" d="M136.4,140.5c-0.2,5.6,2.1,6.6,6,7.9"/>
		<path class="st6" d="M177.6,110.3c0.3-0.8,4.9-9.1,6.3-11.2s7.3-4,9.6-5.3c2.3-1.3,2.5-3.2,3.8-1.8c1.3,1.4,0,4.5-6.9,7.9
			c0,0,5.5,0.3,7.4,0c1.8-0.3,3.5-1.9,4.3-0.8c0.8,1.2,1,3.2-3.1,4.5c-4.1,1.3-6.1,1.2-6.1,1.2s5.3,1.2,5.9,1.7
			c0.7,0.5,1.6,1.6,2.6,1.8c1,0.2,2.1,1.3,0.2,2.6c-1.8,1.3-4.2,0.1-4.2,0.1s4.8,2.3,3.3,3.8c-1.5,1.5-6.2,1.1-6.2,1.1
			s-7.1,8.5-13,6.7"/>
		<path class="st2" d="M186.1,99.1c0,0,1.3,0.2,1.7,1.7c0.4,1.5,1.6,1.6,2.4,3.2c0.7,1.6,0.5,4.2,1.3,5.1c0.7,0.9,0,4.6,0,4.6"/>
		<path class="st15" d="M124.6,122.9c-3.1-3.9-9.9-2.1-9.9-2.1"/>
		<path class="st15" d="M111,113.6c0,0,7,1,9.1,6.9"/>
		<path class="st15" d="M123.4,150.7c0,0-6.9,5.3-17.3-2.3"/>
		<path class="st15" d="M114.7,152.3c0,0-3.5,4.8-12,4.8"/>
		<path class="st15" d="M158.4,213c0,0-18,14.3-36.3,12.5"/>
		<path class="st15" d="M109.8,181.5c0,0,27.9,20.5,48.6,21.8"/>
	</g>
	<g>
		<path class="st4" d="M348,184.3l-5,27.1l-40.6,24.7l5.6,10.3c0,0,47-14.3,48.1-17.7c1.1-3.3,12-38.8,12-38.8L348,184.3z"/>
		<path class="st16" d="M365.8,138.5l-2.7,32.8l-1.4,17.2c-7.8,3.8-15.5-1.9-16-2.3c0,0,0,0,0,0
			C347.8,180.1,350.3,144.8,365.8,138.5z"/>
		<path class="st4" d="M363.1,171.4l-1.4,17.2c-7.8,3.8-15.5-1.9-16-2.3c0.3,0.1,4.5,1.9,7.1,0c0,0-2.3-2.6-2.5-3.3
			c-0.2-0.6,2.5-0.8,2.5-0.8s-1.7-14,2.9-19.9C357.5,160,360.4,164.7,363.1,171.4z"/>
		<g>
			<path class="st11" d="M394,442.6l1.3,3.7c0,0-3,5-6.3,8.9c0,0-1.3-0.4-3.3,1.4c-2,1.8-2.2,4.7-2.2,4.7s-9.5,11.4-21.6,11.6
				c-12.1,0.2-8.4-5.9-8.4-5.9L394,442.6z"/>
			<g>
				<defs>
					<path id="XMLID_587_" d="M382.6,413.5c0,0-16.2-6-19.4,6c0,0,2.9,13.1,1.2,20.3c-1.7,7.2-10.4,20.9-11,23.5
						c-1.1,5.1-0.3,5.4-0.3,5.4s6.3,3.7,14.9-0.3c8.5-3.9,23.3-20.8,25.6-24.3c2.3-3.5-7.2-17.2-7.2-17.2L382.6,413.5z"/>
				</defs>
				<use xlink:href="#XMLID_587_"  style="overflow:visible;fill:#FFFFFF;"/>
				<clipPath id="XMLID_6_">
					<use xlink:href="#XMLID_587_"  style="overflow:visible;"/>
				</clipPath>
				<path class="st17" d="M382.6,413.5c0,0-16.2-6-19.4,6c0,0,2.9,13.1,1.2,20.3c-1.7,7.2-10.4,20.9-11,23.5
					c-1.1,5.1-0.3,5.4-0.3,5.4s6.3,3.7,14.9-0.3c8.5-3.9,23.3-20.8,25.6-24.3c2.3-3.5-7.2-17.2-7.2-17.2L382.6,413.5z"/>
				
					<use xlink:href="#XMLID_587_"  style="overflow:visible;fill:none;stroke:#1A2E35;stroke-linecap:round;stroke-linejoin:round;stroke-miterlimit:10;"/>
			</g>
			<path class="st2" d="M374.3,430.4c0,0,2.7,11.9-4,23.4"/>
			<path class="st11" d="M370.3,456.9c0,0-1.7,4.9-6.9,6.4c-5.2,1.5-9.9,0-9.9,0l3.9-7.9C357.3,455.5,363,458.1,370.3,456.9z"/>
			<path class="st2" d="M372.6,452.2c0,0-8.5,0.5-12.9-1.2"/>
			<path class="st2" d="M374.1,447.5c0,0-7.9,1.2-12.3-1.3"/>
			<path class="st2" d="M375.5,442.3c0,0-6.9,1-11.5-1.1"/>
			<path class="st2" d="M376.3,436.5c0,0-7.7,2.4-11.4,0"/>
			<path class="st11" d="M377.4,421.9l1.3,8.5c0,0-10.2,6.7-17-1.7l0-8.9C361.8,419.9,364.3,425.9,377.4,421.9z"/>
		</g>
		<path class="st4" d="M368.6,231.5c-10.3,32.8-42.5,85.4-39.2,98.8c1.8,7.4,12.4,49,20.7,67.3c3.2,7,10,11.7,10,11.7l4.9,10.6
			c12,5.2,16.3-5.4,16.3-5.4l-2.4-12c6.4-11.7,3.7-11.7-4.6-72.2c-1-7.1,15.6-29.2,15.6-29.2l8.5,55.5l1.4,45.5l4.4,14
			c0,0,1.1,13.2,1,14h19.7l2.2-14.5c0,0,9.2-8.6,9.2-18.6c0-10-2-60.7,0-75.5c2-14.8-4.6-83.7-4.6-83.7L368.6,231.5z"/>
		<g>
			<g>
				<defs>
					<path id="XMLID_585_" d="M262.3,224.4l-31.9-2.7l1.7-19.9c0.1-1,1-1.8,2-1.7l28.2,2.4c1,0.1,1.8,1,1.7,2L262.3,224.4z"/>
				</defs>
				<use xlink:href="#XMLID_585_"  style="overflow:visible;fill:#8342EA;"/>
				<clipPath id="XMLID_7_">
					<use xlink:href="#XMLID_585_"  style="overflow:visible;"/>
				</clipPath>
				<path class="st18" d="M262.3,224.4l-31.9-2.7l1.7-19.9c0.1-1,1-1.8,2-1.7l28.2,2.4c1,0.1,1.8,1,1.7,2L262.3,224.4z"/>
				
					<rect x="253.8" y="204.1" transform="matrix(0.9963 8.567582e-02 -8.567582e-02 0.9963 19.11 -21.3013)" class="st19" width="7.9" height="15.8"/>
				
					<use xlink:href="#XMLID_585_"  style="overflow:visible;fill:none;stroke:#1A2E35;stroke-linecap:round;stroke-linejoin:round;stroke-miterlimit:10;"/>
			</g>
			<g>
				<defs>
					<path id="XMLID_584_" d="M309.5,228.4l-31.9-2.7l1.7-19.9c0.1-1,1-1.8,2-1.7l28.2,2.4c1,0.1,1.8,1,1.7,2L309.5,228.4z"/>
				</defs>
				<use xlink:href="#XMLID_584_"  style="overflow:visible;fill:#8342EA;"/>
				<clipPath id="XMLID_8_">
					<use xlink:href="#XMLID_584_"  style="overflow:visible;"/>
				</clipPath>
				<path class="st20" d="M309.5,228.4l-31.9-2.7l1.7-19.9c0.1-1,1-1.8,2-1.7l28.2,2.4c1,0.1,1.8,1,1.7,2L309.5,228.4z"/>
				
					<rect x="303.5" y="208.2" transform="matrix(0.9963 8.566575e-02 -8.566575e-02 0.9963 19.6397 -25.4119)" class="st21" width="4.8" height="15.8"/>
				
					<use xlink:href="#XMLID_584_"  style="overflow:visible;fill:none;stroke:#1A2E35;stroke-linecap:round;stroke-linejoin:round;stroke-miterlimit:10;"/>
			</g>
			<path class="st11" d="M299.6,227.6l-31.9-2.7l1.7-19.9c0.1-1,1-1.8,2-1.7l28.2,2.4c1,0.1,1.8,1,1.7,2L299.6,227.6z"/>
			<path class="st11" d="M346.7,231.6l-31.9-2.7l1.7-19.9c0.1-1,1-1.8,2-1.7l28.2,2.4c1,0.1,1.8,1,1.7,2L346.7,231.6z"/>
			
				<rect x="291" y="207.3" transform="matrix(0.9963 8.566014e-02 -8.566014e-02 0.9963 19.5173 -24.4746)" class="st12" width="7.9" height="15.8"/>
			
				<rect x="337.6" y="211.3" transform="matrix(0.9963 8.567582e-02 -8.567582e-02 0.9963 20.0361 -28.4597)" class="st12" width="7.9" height="15.8"/>
			<g>
				<defs>
					<path id="XMLID_583_" d="M361.1,228.3l-7.7,89.6l-144.3-12.4l7.7-89.6c0.3-3.1,3-5.4,6.1-5.2l133,11.4
						C359,222.4,361.4,225.2,361.1,228.3z"/>
				</defs>
				<use xlink:href="#XMLID_583_"  style="overflow:visible;fill:#8342EA;"/>
				<clipPath id="XMLID_9_">
					<use xlink:href="#XMLID_583_"  style="overflow:visible;"/>
				</clipPath>
				<path class="st22" d="M361.1,228.3l-7.7,89.6l-144.3-12.4l7.7-89.6c0.3-3.1,3-5.4,6.1-5.2l133,11.4
					C359,222.4,361.4,225.2,361.1,228.3z"/>
				
					<use xlink:href="#XMLID_583_"  style="overflow:visible;fill:none;stroke:#1A2E35;stroke-linecap:round;stroke-linejoin:round;stroke-miterlimit:10;"/>
			</g>
			<path class="st11" d="M361.1,228.3l-7.7,89.6l-107.1-9.2l7.7-89.6c0.3-3.1,3-5.4,6.1-5.2l95.8,8.2
				C359,222.4,361.4,225.2,361.1,228.3z"/>
			<path class="st12" d="M353.6,230.9L262,223c-1.3-0.1-2.2-1.2-2.1-2.5l0,0c0.1-1.3,1.2-2.2,2.5-2.1l91.6,7.9
				c1.3,0.1,2.2,1.2,2.1,2.5l0,0C356,230,354.9,231,353.6,230.9z"/>
		</g>
		<g>
			<g>
				<defs>
					<path id="XMLID_586_" d="M425.4,430.6c0,0-6.9-4.9-21.2-3.9c0,0-1,17.1-3,22.1c-1.9,5-12.2,13.6-14.1,15.1
						c-1.9,1.5-1.9,6.7-1.9,6.7h43.4c0,0-0.7-11.5-3.4-22L425.4,430.6z"/>
				</defs>
				<use xlink:href="#XMLID_586_"  style="overflow:visible;fill:#FFFFFF;"/>
				<clipPath id="XMLID_10_">
					<use xlink:href="#XMLID_586_"  style="overflow:visible;"/>
				</clipPath>
				<path class="st23" d="M425.4,430.6c0,0-6.9-4.9-21.2-3.9c0,0-1,17.1-3,22.1c-1.9,5-12.2,13.6-14.1,15.1
					c-1.9,1.5-1.9,6.7-1.9,6.7h43.4c0,0-0.7-11.5-3.4-22L425.4,430.6z"/>
				
					<use xlink:href="#XMLID_586_"  style="overflow:visible;fill:none;stroke:#1A2E35;stroke-linecap:round;stroke-linejoin:round;stroke-miterlimit:10;"/>
			</g>
			<path class="st2" d="M416.4,432.8c0,0-1,15.8-3.5,19.9c-2.4,4.1-4.8,6.2-4.8,6.2"/>
			<path class="st11" d="M406.9,461.1c0,0-2.2,2.7-4.6,3.1c-2.4,0.4-15.2-0.4-15.2-0.4l5.2-4.5C392.3,459.3,402.9,457.6,406.9,461.1
				z"/>
			<path class="st2" d="M411.4,457.4c0,0-9.2-5.3-15.8-1.3"/>
			<path class="st2" d="M413.7,453.8c0,0-6.5-5-14.1-2.3"/>
			<path class="st2" d="M416.4,448.3c0,0-6.9-5.4-14.3-2"/>
			<path class="st2" d="M417.4,441.5c0,0-8.4-4.5-14.6-1.1"/>
			<path class="st11" d="M428.6,470.5v3.2h-5c0,0-4.3-2.5-8.3,0c0,0-19.3,0-23.4,0c-4.1,0-7.1-1.6-7.1-1.6l0.5-1.6H428.6z"/>
			<path class="st11" d="M422.3,429.6l-1.1,7c0,0-13-4.2-20.2-1.5v-8.6C401,426.5,414.4,421.8,422.3,429.6z"/>
		</g>
		<g>
			<defs>
				<path id="XMLID_592_" d="M436.4,255.5c0,0-27.7,5.4-54.8-3.4c-6-1.9-12-4.6-17.6-8.1c0,0,0.1-1.7,0.1-4.6
					c0.2-11.1,0.2-39.1-5.7-46.1c-3.7-4.4-6.7-31.4,0.5-45.1l22.1-17.7c30.5,6,37,14,42,31.5c0.9,3.2,1.8,6.7,2.8,10.5
					c1.1,4.2,2.1,9.4,3,15C433.4,215.4,436.4,255.5,436.4,255.5z"/>
			</defs>
			<use xlink:href="#XMLID_592_"  style="overflow:visible;fill:#999999;"/>
			<clipPath id="XMLID_11_">
				<use xlink:href="#XMLID_592_"  style="overflow:visible;"/>
			</clipPath>
			<path class="st24" d="M428.9,187.5l-12.5,55.6c0,0-18,5-34.8,9c-6-1.9-12-4.6-17.6-8.1c0,0,0.1-1.7,0.1-4.6
				c15.1-7.7,37.1-19,36.9-19.6c-0.3-0.8,0-29.9,0-29.9s19.9-4.6,22-28c0.9,3.2,1.8,6.7,2.8,10.5
				C426.9,176.7,427.9,181.8,428.9,187.5z"/>
			
				<use xlink:href="#XMLID_592_"  style="overflow:visible;fill:none;stroke:#1A2E35;stroke-linecap:round;stroke-linejoin:round;stroke-miterlimit:10;"/>
		</g>
		<path class="st6" d="M382,107.2c0,0-9.7,14,3.2,24.8c0,0-15.7,17.6-20.9,15.2c-2.2-1,0-7.4,0-7.4l-9.1-16.9L382,107.2z"/>
		<g>
			<path class="st6" d="M378.8,114.4c3-13.3,1.6-33.1-17-31.3c-13,1.2-22.4,8.5-18.7,26c1.5,7.4,2.8,17.9,9.6,27.3
				c1.9,2.6,21.6-6.6,20.4-14.1"/>
			<path class="st2" d="M352.2,106.2c0,0,3.9-1.8,8.1,0.8"/>
			<path class="st2" d="M342.8,107.8c0,0,0.6-1.7,2.8-1.3"/>
			<path class="st6" d="M347.5,110.6c0,0-3.8,7-3.8,8c0,1,4.7,1.3,4.7,1.3"/>
			<path class="st4" d="M355.7,112c0,0.8-0.3,1.4-0.8,1.4c-0.5,0-0.9-0.6-0.9-1.3c0-0.8,0.3-1.4,0.8-1.4
				C355.3,110.6,355.7,111.2,355.7,112z"/>
			<path class="st2" d="M350.3,125c0,0,7.4-1.4,8.7-4"/>
			<path class="st4" d="M342.8,97.1l5.7-1.7c0,0,8-3.7,9.7-3.2c1.7,0.5,5.2,5.9,5.1,8.9c0,0,5.4,4.8,6.1,11.7l1.7-0.8
				c0,0-0.1-6.2,3.4-6.1c3.5,0.1,5.1,4.4,4.9,5.7c-0.2,1.3-4.1,6.9-4.1,6.9s8.9-1.3,9.1-18.6c0.3-17.3-18.7-20.3-28-19.6
				c-9.3,0.8-14.1,0.5-14.1,0.5l0.5,4.9l-3.8,1l2.8,3.4l-3.1,1.4L342.8,97.1z"/>
		</g>
		<path class="st15" d="M374.9,286.4c0,0,22.6,6,28.7,22.8"/>
		<path class="st15" d="M385.2,295.4c0,0-12.2,20.3-30.8,30.8"/>
		<path class="st15" d="M368.1,409.5c0,0,6.9-1.6,8.8-4.2"/>
		<path class="st15" d="M406.6,412.1c0,0,6.8-3.5,13.5,0"/>
		<path class="st15" d="M428.6,317.6c0,0-11.4,29.5-17.1,32.2"/>
		<path class="st15" d="M378.8,271.5c0.3,3.2,13.7,18,24.8,23.9"/>
		<path class="st15" d="M390.2,258.9c0,0,2.7,5.9,1,12.5c-1.7,6.6,0,11,0,11"/>
		<path class="st2" d="M365.8,197.7c0,0,21,27.1,43.5,36"/>
		<path class="st2" d="M387.5,153.8c0,0-0.1,18.4,13.2,26.8"/>
		<g>
			<path class="st6" d="M395,180.7c-2.8,2.8,0.3,37.5,0.3,37.5s-16.4,6.4-21.5,10.5s-29.4,13.6-29.4,13.6s-3.7,12.7,0.9,13.2
				c4.7,0.4,52.9-16,63.9-21.8c0,0,7.2-42.4,7.1-53.1"/>
			<path class="st6" d="M346.3,241.6c-2.2-0.4-6.2-1.9-8.3-1.4c-2.1,0.5-5.9,2.8-9.9,3.8c-3.9,1-2.3,2.5,0,3c2.3,0.5,5.1,0,5.1,0
				l-3.2,3.1c0,0-5.1,2.6-5.7,2.6c-1.1,0-5.3,1.1-4.9,2.9c0.3,1.7,2.6,1.5,5.3,1.6c0,0-4.2,0.8-3.8,3.2c0.3,1.6,4.9,0.2,7.4,0.2
				c0,0-2,2.1-0.5,2.8s4.7-1,4.7-1s-0.1,1.8,1.4,2s5.2-1.3,7.7-2.8s4.7-3.4,7.1-5.3c2.4-1.9,3.2-2.1,3.2-2.1"/>
			<path class="st2" d="M324.7,257.1c0,0,2.5-0.1,3.4-0.4c1-0.2,2-0.6,2-0.6"/>
			<path class="st2" d="M328.3,260.5c0,0,2.8-0.4,4.3-1.5"/>
			<path class="st2" d="M332.6,262.3c0,0,2-0.2,3.1-1.1"/>
			<path class="st2" d="M330.5,250.9c0,0-0.9,2.1,0,3.2c0.9,1.1,2,1.2,2.1,2.5c0.2,1.3,2.3,1.2,3.1,2.1c0.8,0.8,1.4,2.4,3.8,2.5"/>
		</g>
		<path class="st16" d="M394,144.8c-8.5,19.2,0,45.8,0,45.8s20.5,7,22.4,4c1.9-3,5.4-17.7,5.9-24.5"/>
		<path class="st2" d="M416.4,172.2c0,0-8.8,12-15.7,12.2"/>
	</g>
	<g>
		<path class="st4" d="M110.5,333.1c0,0,6.6-4.3,15.7-2c9.1,2.3,32.8,36.1,36,39.4c3.3,3.3,9.4,5,15.1,11c9,9.4,22,17.6,23.3,17.6
			c1.3,0,2.4-0.8,4-1.1c1.6-0.3,14.4-1.5,14.4-1.5s4.3,0.9,0,2.8s-3.9,3.5-3.9,3.5s-0.9,1.4,0.9,2.7c1.7,1.3,2.7,0.6,5.2,4.1
			c2.4,3.5-3.5,1.5-3.5,1.5s1.3,3.8-1.3,3.4c-2.6-0.4-0.3,3.7-4.6,3.1c-4.3-0.5-13.4-6.3-15.7-12.4c0,0-37.3-17.8-42.9-22.4
			c-5.6-4.6-29-29.2-30.7-29.6"/>
		<g>
			<g>
				<defs>
					<path id="XMLID_581_" d="M237.8,388.3h-32v-20c0-1,0.8-1.9,1.9-1.9h28.3c1,0,1.9,0.8,1.9,1.9V388.3z"/>
				</defs>
				<use xlink:href="#XMLID_581_"  style="overflow:visible;fill:#8342EA;"/>
				<clipPath id="XMLID_12_">
					<use xlink:href="#XMLID_581_"  style="overflow:visible;"/>
				</clipPath>
				<path class="st25" d="M237.8,388.3h-32v-20c0-1,0.8-1.9,1.9-1.9h28.3c1,0,1.9,0.8,1.9,1.9V388.3z"/>
				<rect x="228.1" y="368.5" class="st26" width="7.9" height="15.8"/>
				
					<use xlink:href="#XMLID_581_"  style="overflow:visible;fill:none;stroke:#1A2E35;stroke-linecap:round;stroke-linejoin:round;stroke-miterlimit:10;"/>
			</g>
			<g>
				<defs>
					<path id="XMLID_582_" d="M285.1,388.3h-32v-20c0-1,0.8-1.9,1.9-1.9h28.3c1,0,1.9,0.8,1.9,1.9V388.3z"/>
				</defs>
				<use xlink:href="#XMLID_582_"  style="overflow:visible;fill:#8342EA;"/>
				<clipPath id="XMLID_13_">
					<use xlink:href="#XMLID_582_"  style="overflow:visible;"/>
				</clipPath>
				<path class="st27" d="M285.1,388.3h-32v-20c0-1,0.8-1.9,1.9-1.9h28.3c1,0,1.9,0.8,1.9,1.9V388.3z"/>
				<rect x="278.1" y="368.5" class="st28" width="4.8" height="15.8"/>
				
					<use xlink:href="#XMLID_582_"  style="overflow:visible;fill:none;stroke:#1A2E35;stroke-linecap:round;stroke-linejoin:round;stroke-miterlimit:10;"/>
			</g>
			<path class="st11" d="M275.1,388.3h-32v-20c0-1,0.8-1.9,1.9-1.9h28.3c1,0,1.9,0.8,1.9,1.9V388.3z"/>
			<path class="st11" d="M322.4,388.3h-32v-20c0-1,0.8-1.9,1.9-1.9h28.3c1,0,1.9,0.8,1.9,1.9V388.3z"/>
			<rect x="265.5" y="368.5" class="st12" width="7.9" height="15.8"/>
			<rect x="312.3" y="368.5" class="st12" width="7.9" height="15.8"/>
			<g>
				<defs>
					<path id="XMLID_580_" d="M336.5,383.8v89.9H191.6v-89.9c0-3.1,2.5-5.7,5.7-5.7h133.5C333.9,378.1,336.5,380.6,336.5,383.8z"/>
				</defs>
				<use xlink:href="#XMLID_580_"  style="overflow:visible;fill:#8342EA;"/>
				<clipPath id="XMLID_14_">
					<use xlink:href="#XMLID_580_"  style="overflow:visible;"/>
				</clipPath>
				<path class="st29" d="M336.5,383.8v89.9H191.6v-89.9c0-3.1,2.5-5.7,5.7-5.7h133.5C333.9,378.1,336.5,380.6,336.5,383.8z"/>
				
					<use xlink:href="#XMLID_580_"  style="overflow:visible;fill:none;stroke:#1A2E35;stroke-linecap:round;stroke-linejoin:round;stroke-miterlimit:10;"/>
			</g>
			<path class="st11" d="M336.5,383.8v89.9H229v-89.9c0-3.1,2.5-5.7,5.7-5.7h96.2C333.9,378.1,336.5,380.6,336.5,383.8z"/>
			<path class="st12" d="M329.2,387h-91.9c-1.3,0-2.3-1-2.3-2.3l0,0c0-1.3,1-2.3,2.3-2.3h91.9c1.3,0,2.3,1,2.3,2.3l0,0
				C331.5,385.9,330.5,387,329.2,387z"/>
		</g>
		<g>
			<path class="st14" d="M159.1,473.7c-7.5,0-18-4.8-30.1-9.9c-12.5-5.3-26.8-10.9-41.3-11.7c-5.4-0.3-2.1,21.6-2.1,21.6H73.7
				c0,0-11.7-15.6-13-29.6c0,0,9.5-5.9,11.8-6.2c0.5-0.1,1.4-0.1,2.4-0.1c2.6,0,6,0.1,6,0.1s0,0,0,0c-0.5-0.3-9.3-5.6-14.1-10.9
				c-4-4.4-5.8-11.4-5.9-15.5c-0.1-2.1,0.9-8.2,0.9-8.2l62.2,1c0,0,0.7,0.5,1.9,1.4c7.2,5.3,33.6,24.8,46.7,39.6
				c4.3,4.8,7.1,9,7.6,12.1C182.1,471.7,170.4,473.7,159.1,473.7z"/>
			<path class="st4" d="M172.6,445.2l-30.2,6.9c0,0-7.9,4.2-13.3,11.7c-12.5-5.3-26.8-10.9-41.3-11.7c-5.4-0.3-2.1,21.6-2.1,21.6
				H73.7c0,0-11.7-15.6-13-29.6c0,0,11,15.7,13.6,23.6c0,0,4.3-14.7,11.2-20.7c0,0-4.6-5.4-10.6-9.3c2.6,0,6,0.1,6,0.1s0,0,0,0
				c-0.5-0.3-9.3-5.6-14.1-10.9c-4-4.4-5.6-11.4-5.9-15.5c-0.2-2,0.1-8.2,0.1-8.2s46.4,6.6,64.9,2.4
				C133,410.9,159.4,430.4,172.6,445.2z"/>
			<path class="st2" d="M124,444.1c0,0,24.6,12.3,31.2,17.2c6.6,4.8,8.5,3.5,8.5,3.5"/>
			<path class="st2" d="M66.8,442.8c0,0,5.9,9,6.2,11.7"/>
		</g>
		<path class="st4" d="M165.9,269.5c0,0,13.1-5.7,11.9,18.6c-1.2,24.3,3.2,25.5,3.2,25.5s-33,13.5-41.4,2
			C131.2,304,139.2,272.3,165.9,269.5z"/>
		<path class="st6" d="M164,313.6c0,0-13.6,6.4-14.8,12.3c-1.2,5.9-18.2-3-18.2-3l12.3-17.7L164,313.6z"/>
		<path class="st14" d="M75.1,378.5c-31.2,39.6-5.9,58.8,29.4,55.6l-7.1,11.2l17.8,3.1c0,0,13.6-8.9,32.2-18.4
			c31.6-16.2,44.3-15.2,41.1-31.4c-3.3-16.2-42-26.7-80.8-9.6C107.6,389,86.6,363.9,75.1,378.5z"/>
		<g>
			<path class="st6" d="M85.9,464.8c0,0,8.1-22.4,11.5-23.7c3.4-1.2,16.1,3.6,17.8,7.2c0,0,4.3-6.6,6.1-3.8c1.8,2.8-0.8,7.4,0,11
				c0.8,3.6,9.5,8.5,13,9.2c3.5,0.7,5.5,2.6,5.5,4.6s0,4.3,0,4.3H85.9C85.9,473.7,83.9,470,85.9,464.8z"/>
			<path class="st2" d="M121.3,452.1c0,0-7.1,3.5-9.7,2.5c-2.6-1,1.3,5.9,2.3,6.6s7.4-2.3,7.4-2.3"/>
			<path class="st2" d="M92.7,448.4c0,0,9.7,0.2,12.6,3.7"/>
			<path class="st2" d="M85.9,464.8c0,0,15.4,3.6,16.8,3.6c1.3,0,6.2-1.8,6.2-1.8s4.2,2.1,7,3.4c2.8,1.3,21.2,0,21.2,0"/>
		</g>
		<path class="st2" d="M104.5,434.2c14.8-1.6,43.4-19.8,53.3-26.1c9.9-6.3,12.5-4.7,12.5-4.7"/>
		<path class="st11" d="M60.9,403.2l2.4-17.9L69,381c9.2-22.3,50.9-64,62.3-63.9c17.1,0.2,20.1,18.1,22.2,37.7
			c2.1,19.6-24.5,16.7-24.5,16.7v4.9l-15.1,7.8l9.2-0.3C123,384,96.6,409.6,60.9,403.2z"/>
		<g>
			<path class="st6" d="M134.9,282.5c3.6-11.2,19.9-14.2,25.8-12.4c3.7,1.2,8.8,5.2,11.1,10.1c1.5,3.2-1.6,8.9,0.6,12.3
				c3.2,4.8,2.9,14.8,1.8,21.1c-0.6,3.4-14.6,5.4-26-2.5C135.8,302.8,131.4,293.4,134.9,282.5z"/>
			<path class="st4" d="M151.4,266.9c0,0,14.4-2.4,14.5,1.4c0.6,24.6-14.1,29.7-14.1,29.7s-6-4.8-7.4-1.5
				c-1.4,3.3,2.1,12.4,6.4,12.6c0,0-3.3,4.3-0.2,10.3c0,0-24.4,4.1-26.4-7.2c0,0,1.4-5.4,2-11.9
				C127.8,284.3,124.1,273.7,151.4,266.9z"/>
			<path class="st6" d="M170.6,291.9c3,2.7,5.2,2.7,5.1,3.7c-0.1,3-3.8,4.5-3.8,4.5"/>
			<path class="st2" d="M171.9,305.2c0,0-3,1.2-6.6,0.2"/>
			<path class="st4" d="M163.9,276.9c0,0,9.6-2.8,7.8,12.8c0,0,4-5.4,4-11.5c0-10.5-14.1-8.4-14.1-8.4l1.8,7.5"/>
			<path class="st2" d="M172.6,284.5c0,0-0.8-0.7-2.5-0.5"/>
			<path class="st2" d="M166.2,284.3c0,0-5.1,0.3-7.4,3.8"/>
			<path class="st4" d="M165,292.5c0.1,0.8-0.3,1.5-0.8,1.6c-0.5,0-1-0.6-1.1-1.4c-0.1-0.8,0.3-1.5,0.8-1.6
				C164.4,291,164.9,291.6,165,292.5z"/>
		</g>
		<path class="st2" d="M105.3,437.9c0,0,11.5,1.2,13.9,6.2"/>
		<path class="st6" d="M134.3,325.6c0,0,6.6-4.3,15.7-2c9.1,2.3,32.8,36.1,36,39.4c3.3,3.3,9.4,5,15.1,11c9,9.4,22,17.6,23.3,17.6
			c1.3,0,2.4-0.8,4-1.1c1.6-0.3,14.4-1.5,14.4-1.5s4.3,0.9,0,2.8c-4.3,1.8-3.9,3.5-3.9,3.5s-0.9,1.4,0.9,2.7
			c1.7,1.3,2.7,0.6,5.2,4.1c2.4,3.5-3.5,1.5-3.5,1.5s1.3,3.8-1.3,3.4c-2.6-0.4-0.3,3.7-4.6,3.1c-4.3-0.5-13.4-6.3-15.7-12.4
			c0,0-37.3-17.8-42.9-22.4c-5.6-4.6-29-29.2-30.7-29.6"/>
		<path class="st11" d="M128.9,321.9c0,0,18.4-4.9,24.8-1.3s18.6,20.4,18.6,20.4s-14.8,13.3-19.4,12.1c-4.6-1.2-18.6-3.2-18.6-3.2"
			/>
		<path class="st2" d="M144.9,351.5c0,0-6.7,3.7-9.1,3.7"/>
		<path class="st2" d="M134.3,333.1c0.6,1,0.4,11.8,12.1,15.1"/>
		<path class="st2" d="M71.8,381.4c0,0,25,4.3,33.5-3.3"/>
		<path class="st2" d="M113.8,384.3c0,0-6.2-1.1-8.5,2.1c-2.3,3.2-14.8,6.2-14.8,6.2"/>
		<path class="st2" d="M63.7,408.1c0,0-3.6,15.5,11.8,22.5"/>
		<path class="st2" d="M71.8,409.2c0,0,0.1,7.6,2.5,11.8l7.6,2.5l8.5-4.8c0,0-1.8-9.8-2-11.8"/>
	</g>
</g>
</svg>
