<?xml version="1.0" encoding="utf-8"?>
<!-- Generator: Adobe Illustrator 25.2.0, SVG Export Plug-In . SVG Version: 6.00 Build 0)  -->
<svg version="1.1" xmlns="http://www.w3.org/2000/svg" xmlns:xlink="http://www.w3.org/1999/xlink" x="0px" y="0px"
	 viewBox="0 0 750 500" style="enable-background:new 0 0 750 500;" xml:space="preserve">
<g id="Background_Simple">
	<g>
		<path style="fill:#CAAEFF;" d="M709.95,179.61c-1.38-4.58-2.92-9.09-4.62-13.51c-14.6-37.84-47.4-65.96-82.15-83.15
			c-30.21-14.95-64.4-23.25-98.36-21.88c-80,3.24-153.05,57.44-234.15,45.29c-105.75-15.85-187.68-44.67-234.6,24.7
			C9.15,200.42,20.36,333.32,84.09,389.44s149.87,33.43,207.29,17.34c57.43-16.09,178.58,65.2,325.64,6.77
			c42.26-16.79,73.91-50.21,88.94-94.13C721.11,275.14,723.36,224.2,709.95,179.61z"/>
		<path style="opacity:0.7;fill:#FFFFFF;" d="M709.95,179.61c-1.38-4.58-2.92-9.09-4.62-13.51c-14.6-37.84-47.4-65.96-82.15-83.15
			c-30.21-14.95-64.4-23.25-98.36-21.88c-80,3.24-153.05,57.44-234.15,45.29c-105.75-15.85-187.68-44.67-234.6,24.7
			C9.15,200.42,20.36,333.32,84.09,389.44s149.87,33.43,207.29,17.34c57.43-16.09,178.58,65.2,325.64,6.77
			c42.26-16.79,73.91-50.21,88.94-94.13C721.11,275.14,723.36,224.2,709.95,179.61z"/>
	</g>
</g>
<g id="Graphics">
	<g>
		<path style="fill:none;stroke:#263238;stroke-linecap:round;stroke-linejoin:round;stroke-miterlimit:10;" d="M583.5,55.3
			c-1.25-3.96-5.72-5.89-9.46-4.07c-19.8,9.61-73.73,36.41-66.63,39.96c6.98,3.49,57.24-5.38,76.58-8.98
			c4.02-0.75,6.48-4.84,5.25-8.74L583.5,55.3z"/>
		<path style="fill:none;stroke:#263238;stroke-linecap:round;stroke-linejoin:round;stroke-miterlimit:10;" d="M42.23,340.23
			c-2.51-2.8-2.16-6.48,0.74-7.78c15.39-6.89,57.8-25.34,57.62-19.24c-0.18,6-27.41,31.53-38.03,41.26
			c-2.21,2.02-6.33,1.38-8.81-1.38L42.23,340.23z"/>
		<path style="fill:none;stroke:#263238;stroke-linecap:round;stroke-linejoin:round;stroke-miterlimit:10;" d="M258.46,101.59
			c0,0-28.62-49.44-37.3-49.44c-8.67,0-32.09,27.76-26.02,32.09c6.07,4.34,52.04,32.96,59.85,30.36
			C262.8,112,258.46,101.59,258.46,101.59z"/>
		<path style="fill:none;stroke:#263238;stroke-linecap:round;stroke-linejoin:round;stroke-miterlimit:10;" d="M678.39,242.82
			c-3.29-2.8-8.19-2.54-11.15,0.61c-7.51,7.99-20.34,22.27-17.96,24.36c3.33,2.92,33.92-8.5,38.02-12.15
			C689.83,253.38,683.56,247.21,678.39,242.82z"/>
		<path style="fill:none;stroke:#263238;stroke-linecap:round;stroke-linejoin:round;stroke-miterlimit:10;" d="M658.5,413.22
			c1.76-3.04,0.84-6.92-2.1-8.83c-7.48-4.85-20.77-13.03-22.09-10.82c-1.85,3.08,11.73,25.89,15.24,28.64
			C651.71,423.9,655.73,418,658.5,413.22z"/>
		<path style="fill:none;stroke:#263238;stroke-linecap:round;stroke-linejoin:round;stroke-miterlimit:10;" d="M368.73,331.94
			c4.31,0.36,8.14-2.7,8.72-6.98c1.47-10.87,3.58-29.95,0.44-30.26c-4.4-0.44-22.64,26.65-23.85,32
			C353.28,330,361.97,331.37,368.73,331.94z"/>
		
			<circle style="fill:none;stroke:#263238;stroke-linecap:round;stroke-linejoin:round;stroke-miterlimit:10;" cx="629.71" cy="116.34" r="15.61"/>
		<path style="fill:none;stroke:#263238;stroke-linecap:round;stroke-linejoin:round;stroke-miterlimit:10;" d="M461.43,122.41
			c0-3.83-3.11-6.94-6.94-6.94c-3.83,0-6.94,3.11-6.94,6.94c0,3.83,3.11,6.94,6.94,6.94C458.33,129.35,461.43,126.24,461.43,122.41z
			"/>
		
			<circle style="fill:none;stroke:#263238;stroke-linecap:round;stroke-linejoin:round;stroke-miterlimit:10;" cx="649.66" cy="341" r="6.94"/>
		
			<ellipse transform="matrix(0.9732 -0.2298 0.2298 0.9732 -29.9856 49.7413)" style="fill:none;stroke:#263238;stroke-linecap:round;stroke-linejoin:round;stroke-miterlimit:10;" cx="198.61" cy="153.64" rx="7.81" ry="7.81"/>
		
			<circle style="fill:none;stroke:#263238;stroke-linecap:round;stroke-linejoin:round;stroke-miterlimit:10;" cx="457.1" cy="416.46" r="9.54"/>
		
			<ellipse transform="matrix(0.9864 -0.1646 0.1646 0.9864 -59.0327 44.1284)" style="fill:none;stroke:#263238;stroke-linecap:round;stroke-linejoin:round;stroke-miterlimit:10;" cx="236.78" cy="378.3" rx="8.67" ry="8.67"/>
		
			<ellipse transform="matrix(0.9871 -0.1602 0.1602 0.9871 -22.3919 12.1493)" style="fill:none;stroke:#263238;stroke-linecap:round;stroke-linejoin:round;stroke-miterlimit:10;" cx="64.16" cy="144.96" rx="12.14" ry="12.14"/>
		<path style="fill:none;stroke:#263238;stroke-linecap:round;stroke-linejoin:round;stroke-miterlimit:10;" d="M91.05,184
			c0-2.4-1.94-4.34-4.34-4.34c-2.4,0-4.34,1.94-4.34,4.34c0,2.4,1.94,4.34,4.34,4.34C89.11,188.33,91.05,186.39,91.05,184z"/>
	</g>
</g>
<g id="Shadow_4">
	<path style="fill:#263238;stroke:#263238;stroke-linecap:round;stroke-linejoin:round;stroke-miterlimit:10;" d="M616.35,462.87
		c0,3.11-20.97,5.64-46.84,5.64c-25.87,0-46.84-2.52-46.84-5.64c0-3.11,20.97-5.64,46.84-5.64
		C595.38,457.23,616.35,459.75,616.35,462.87z"/>
</g>
<g id="Shadow_3">
	<path style="fill:#263238;stroke:#263238;stroke-linecap:round;stroke-linejoin:round;stroke-miterlimit:10;" d="M482.25,462.87
		c0,3.11-20.97,5.64-46.84,5.64c-25.87,0-46.84-2.52-46.84-5.64c0-3.11,20.97-5.64,46.84-5.64
		C461.28,457.23,482.25,459.75,482.25,462.87z"/>
</g>
<g id="Shadow_2">
	<path style="fill:#263238;stroke:#263238;stroke-linecap:round;stroke-linejoin:round;stroke-miterlimit:10;" d="M336.17,462.87
		c0,3.11-20.97,5.64-46.84,5.64c-25.87,0-46.84-2.52-46.84-5.64c0-3.11,20.97-5.64,46.84-5.64
		C315.2,457.23,336.17,459.75,336.17,462.87z"/>
</g>
<g id="Shadow_1">
	<path style="fill:#263238;stroke:#263238;stroke-linecap:round;stroke-linejoin:round;stroke-miterlimit:10;" d="M206.93,462.87
		c0,3.11-20.97,5.64-46.84,5.64s-46.84-2.52-46.84-5.64c0-3.11,20.97-5.64,46.84-5.64S206.93,459.75,206.93,462.87z"/>
</g>
<g id="Character_4">
	<g>
		<g>
			<path style="fill:none;stroke:#263238;stroke-linecap:round;stroke-linejoin:round;stroke-miterlimit:10;" d="M567.99,128.73
				c0,0,2-0.95,4.5-1.28c2.5-0.33,2.92-1,2.25-1.42c-0.67-0.42,0-0.08-3.25,0.67C568.24,127.45,567.99,128.73,567.99,128.73z"/>
			<path style="fill:#FFFFFF;stroke:#263238;stroke-linecap:round;stroke-linejoin:round;stroke-miterlimit:10;" d="M576.8,178.02
				c0,0-1.86-6.1-5.25-14.57c-3.39-8.47-9.48-19.31-9.65-23.03c-0.17-3.73,2.54-8.98,6.1-11.69c3.56-2.71,8.13-4.57,8.47-5.42
				c0.34-0.85,0.34-2.03-0.85-1.69c-1.19,0.34-2.2,0.85-2.2,0.85s1.52-1.36,2.03-2.54c0.51-1.19,0-2.03-0.51-1.69
				c-0.51,0.34-1.69-0.68-3.05,0.34c-1.36,1.02-9.82,7.62-9.82,7.62s1.52-4.4,0.85-4.91c-0.68-0.51-2.37,0.51-2.54,1.69
				c-0.17,1.19-0.68,3.05-1.36,4.91s-2.2,3.73-2.2,7.11c0,3.39,0.85,5.59,0.85,5.59s2.03,29.81,5.08,38.62
				c3.05,8.81,4.4,12.03,4.4,12.03l9.82-9.65L576.8,178.02z"/>
			<path style="fill:none;stroke:#263238;stroke-linecap:round;stroke-linejoin:round;stroke-miterlimit:10;" d="M562.06,126.19
				c0,0-0.4,3.26-0.49,4.01"/>
			<path style="fill:none;stroke:#263238;stroke-linecap:round;stroke-linejoin:round;stroke-miterlimit:10;" d="M574.94,118.23
				c0,0-1.45,1.47-2.78,2.81s-4.25,4.42-4.25,4.42"/>
			
				<line style="fill:none;stroke:#263238;stroke-linecap:round;stroke-linejoin:round;stroke-miterlimit:10;" x1="573.41" y1="122.46" x2="568.82" y2="126.53"/>
		</g>
		<path style="fill:#263238;stroke:#263238;stroke-linecap:round;stroke-linejoin:round;stroke-miterlimit:10;" d="M570.9,179.09
			c0,0,1.33-2.33,3.49-3.16c2.16-0.83,18.44-2.16,22.26,0.33c3.82,2.49,13.46,25.58,14.95,31.73c1.5,6.15-1,11.13,4.98,14.95
			c5.98,3.82,5.65,9.47,3.49,12.79c-2.16,3.32-3.49,4.32-1.83,6.98c1.66,2.66,1.33,5.15-1.5,7.48c-2.82,2.33-9.47,2.49-9.47,2.49
			s-11.46-28.07-12.96-34.89c-1.5-6.81-2.99-24.92-7.14-24.75c-4.15,0.17-16.11,6.98-16.61,7.31c-0.5,0.33-1.16-3.65-1.16-8.8
			S570.9,179.09,570.9,179.09z"/>
		<g>
			<path style="fill:#FFFFFF;stroke:#263238;stroke-linecap:round;stroke-linejoin:round;stroke-miterlimit:10;" d="M584.01,424.86
				c0,0,1.86,11.96,1.01,18.62c-0.03,0.26-0.07,0.52-0.11,0.77c-1.11,6.46-6.02,9.81-8.25,11.81c-2.23,2.01-6.24,2.9-4.01,4.23
				c2.23,1.34,8.02,1.56,12.48,0.45c4.46-1.11,7.13-3.12,13.82-6.02c6.69-2.9,4.46-7.35,2.67-10.7c-1.78-3.34-4.68-7.58-4.9-8.91
				c-0.22-1.34-0.67-16.49-0.67-16.49L584.01,424.86z"/>
			<path style="fill:#FFFFFF;stroke:#263238;stroke-linecap:round;stroke-linejoin:round;stroke-miterlimit:10;" d="M598.94,454.73
				c6.69-2.9,4.46-7.35,2.67-10.7c-0.59-1.11-1.3-2.31-2-3.48c-3.75,3.43-9.81,5.7-9.81,5.7s0,0-1.34-2.01c-1.34-2.01-3.57,0-3.57,0
				c-1.11,6.46-6.02,9.81-8.25,11.81c-2.23,2.01-6.24,2.9-4.01,4.23c2.23,1.34,8.02,1.56,12.48,0.45
				C589.58,459.63,592.25,457.62,598.94,454.73z"/>
		</g>
		<g>
			<path style="fill:#FFFFFF;stroke:#263238;stroke-linecap:round;stroke-linejoin:round;stroke-miterlimit:10;" d="M563.5,414.17
				c0,0-10.92,26.97-12.48,29.2c-1.56,2.23-7.8,7.13-10.25,8.91c-2.45,1.78-11.37,3.12-12.03,4.9c-0.67,1.78,4.23,3.12,11.14,4.68
				c6.91,1.56,18.05-1.11,19.84-1.56c1.78-0.45,2.9-2.9,2.9-6.24c0-3.34-1.56-8.47-1.56-8.47l17.61-26.3L563.5,414.17z"/>
			<path style="fill:#FFFFFF;stroke:#263238;stroke-linecap:round;stroke-linejoin:round;stroke-miterlimit:10;" d="M540.77,452.28
				c-2.45,1.78-11.37,3.12-12.03,4.9c-0.67,1.78,4.23,3.12,11.14,4.68c6.91,1.56,18.05-1.11,19.84-1.56c1.78-0.45,2.9-2.9,2.9-6.24
				c0-1.5-0.31-3.35-0.66-4.94c-4.15-0.03-9.82-0.85-9.82-0.85s0-1.34-0.22-3.34c-0.22-2.01-0.89-1.56-0.89-1.56
				C549.46,445.59,543.22,450.49,540.77,452.28z"/>
		</g>
		<path style="fill:#FFFFFF;stroke:#263238;stroke-linecap:round;stroke-linejoin:round;stroke-miterlimit:10;" d="M560.83,269.75
			c0,0-1.11,29.86-0.45,44.57s5.79,40.56,7.35,50.59c1.56,10.03,4.01,19.39,4.01,19.39l-10.25,31.87c0,0,7.13,4.68,12.93,5.79
			c5.79,1.11,8.91,0.89,8.91,0.89l1.78-0.22c0,0,4.46-20.28,7.58-30.31c3.12-10.03,5.13-16.71,5.57-18.28
			c0.45-1.56,19.17-28.75,20.28-45.24c1.11-16.49-4.46-30.98-7.58-33.88c-3.12-2.9-6.91-8.25-6.91-8.25s-4.01-10.47-4.23-12.26
			C599.61,272.65,560.83,269.75,560.83,269.75z"/>
		<path style="fill:#263238;stroke:#263238;stroke-linecap:round;stroke-linejoin:round;stroke-miterlimit:10;" d="M593.67,272.95
			c-10.99-1.57-32.85-3.2-32.85-3.2s-0.15,4.08-0.31,9.96c18.8,0.94,39.31-5.28,39.31-5.28L593.67,272.95z"/>
		<path style="fill:#FFFFFF;stroke:#263238;stroke-linecap:round;stroke-linejoin:round;stroke-miterlimit:10;" d="M563.95,229.41
			c0,0-12.7,26.97-14.26,31.42c-1.56,4.46-2.45,10.25-2.45,10.25s10.92,1.34,22.06,5.13c11.14,3.79,36.1,0.22,39-1.78
			c2.9-2.01,6.91-4.01,6.91-4.01s-8.69-33.65-8.69-35.88c0-2.23-2.45-10.92-6.24-12.7C596.49,220.05,568.63,224.51,563.95,229.41z"
			/>
		<path style="fill:#FFFFFF;stroke:#263238;stroke-linecap:round;stroke-linejoin:round;stroke-miterlimit:10;" d="M578.21,214.97
			l2.24,13.5l16.27-5.69l-0.56-8.3c0,0-2.49,3.82-6.15,4.65C586.35,219.95,578.21,214.97,578.21,214.97z"/>
		<path style="fill:#263238;stroke:#263238;stroke-linecap:round;stroke-linejoin:round;stroke-miterlimit:10;" d="M570.9,179.09
			c0,0-12.96,22.09-12.13,28.24c0.83,6.15,8.64,12.79,8.47,13.79c-0.17,1-10.13,3.65-8.97,9.63c1.16,5.98,7.48,8.8,4.98,10.8
			c-2.49,1.99-3.65,1.49-2.49,4.65c1.16,3.16,7.48,4.82,6.31,7.31c-1.16,2.49-4.82,5.65-2.49,7.64c2.33,1.99,7.81,1.66,7.97,0.83
			c0.17-0.83-2.49-1.33-1.99-2.82s3.99-1.83,3.49-7.64c-0.5-5.81-2.82-8.97-2.49-9.97c0.33-1,7.31-5.98,8.14-9.64
			c0.83-3.65-1.33-15.28-1.33-15.28l-1.83-9.47L570.9,179.09z"/>
		<g>
			<path style="fill:#FFFFFF;stroke:#263238;stroke-linecap:round;stroke-linejoin:round;stroke-miterlimit:10;" d="M593.97,183.42
				l-3.33,3.5c0,0-10.65,4.16-14.65,5.99c-3.99,1.83-4.16,4.16-3.83,5.16c0.33,1,3,11.98,3.83,14.98c0.83,3,5.99,8.32,8.66,9.82
				c2.66,1.5,6.58,0.77,8.41-0.89c1.83-1.66,4.57-8.1,5.4-10.43c0.83-2.33,1.17-5.49,1.17-5.49s2.66-3.33,2.5-6.99
				c-0.17-3.66-2-4.49-3.33-3.16c-1.33,1.33-1.5,2-1.5,2s-0.33-1.83-2.33-4.66c-2-2.83-2.16-4.16-1.5-5.16
				C594.14,187.08,595.13,181.59,593.97,183.42z"/>
			<path style="fill:none;stroke:#263238;stroke-linecap:round;stroke-linejoin:round;stroke-miterlimit:10;" d="M583.98,211.72
				c0,0,0.5,1.66,1.83,1.17c1.33-0.5,2.83-2,2.83-2"/>
			<path style="fill:none;stroke:#263238;stroke-linecap:round;stroke-linejoin:round;stroke-miterlimit:10;" d="M582.65,215.38
				c0,0,1.66,1,3.99,0.5c2.33-0.5,5.66-4.16,5.66-4.16"/>
			<path style="fill:none;stroke:#263238;stroke-linecap:round;stroke-linejoin:round;stroke-miterlimit:10;" d="M585.15,216.38
				c0,0,0.67,1.5,2.16,1.17s2.16-2.66,2.16-2.66L585.15,216.38z"/>
			<ellipse style="fill:#263238;" cx="590.73" cy="204.25" rx="0.97" ry="1.84"/>
			<path style="fill:#263238;" d="M582.19,205.04c0,1.02-0.43,1.84-0.97,1.84s-0.97-0.82-0.97-1.84c0-1.02,0.43-1.84,0.97-1.84
				S582.19,204.02,582.19,205.04z"/>
			<path style="fill:none;stroke:#263238;stroke-linecap:round;stroke-linejoin:round;stroke-miterlimit:10;" d="M588.64,200.56
				c0,0,3-2.83,5.49,0.33"/>
			<path style="fill:none;stroke:#263238;stroke-linecap:round;stroke-linejoin:round;stroke-miterlimit:10;" d="M582.15,201.4
				c0,0-3.5-1.17-4.66,1.5"/>
		</g>
		<g>
			<path style="fill:#FFFFFF;stroke:#263238;stroke-linecap:round;stroke-linejoin:round;stroke-miterlimit:10;" d="M622.73,198.36
				c0,0-14.62,16.78-15.12,17.61c-0.5,0.83-5.48,3.32-7.81,8.14c-2.33,4.82-0.33,25.08,2.16,28.24s6.98,0.66,8.31-2.82
				c1.33-3.49,4.82-17.11,4.82-17.11s12.79-20.1,13.95-22.92c1.16-2.82,3.16-6.48,5.48-9.97c2.33-3.49,24.75-29.9,24.75-29.9
				s5.15-4.98,5.98-5.48c0.83-0.5,4.98-3.32,5.65-5.48c0.66-2.16,1.66-6.15,1.66-6.15s2.41-5.41,2.51-6.23
				c0.1-0.82-0.87-1.5-1.26-0.87c-0.39,0.63-1.06,1.84-1.6,2.85s-0.77,1.31-0.77,1.31s1.79-6.04,1.79-7.79s-0.58-2.47-1.06-2.13
				c-0.48,0.34-0.53,0.63-0.68,1.35c-0.15,0.73-0.73,2.76-1.06,3.63c-0.34,0.87-1.21,2.51-1.21,2.51s0.82-7.01,0.92-8.32
				c0.1-1.31-0.58-2.27-1.11-1.79c-0.53,0.48-0.44,1.16-0.58,2.08c-0.15,0.92-1.5,7.3-1.55,7.45c-0.05,0.15-0.44,0.82-0.44,0.82
				s-0.44-5.9-0.58-7.88c-0.15-1.98-1.06-2.37-1.5-1.4c-0.44,0.97-0.58,2.13-0.39,4.74c0.19,2.61-0.1,6.48-0.1,6.48l-2.13,2.9
				c0,0-1.02-1.93-2.27-3.19c-1.26-1.26-4.55-0.58-3.82,0.15c0.73,0.73,1.26,0.29,1.98,1.45c0.73,1.16,1.31,3.34,1.45,5.27
				c0.15,1.93,0.34,3.34,0.34,3.34s-5.61,5.27-7.69,7.16C649.68,168.28,630.54,179.4,622.73,198.36z"/>
			<path style="fill:none;stroke:#263238;stroke-linecap:round;stroke-linejoin:round;stroke-miterlimit:10;" d="M659.45,159.24
				c0,0,0.45,1.84,2.18,1.84"/>
			<path style="fill:none;stroke:#263238;stroke-linecap:round;stroke-linejoin:round;stroke-miterlimit:10;" d="M666.61,149.4
				c0,0,3.46,1.73,4.11,2.16"/>
		</g>
		<g>
			<path style="fill:#8342EA;stroke:#263238;stroke-linecap:round;stroke-linejoin:round;stroke-miterlimit:10;" d="M581.78,421.74
				l0.89,6.02c0,0,3.57-0.45,7.58-2.23c4.01-1.78,11.37-6.24,11.37-6.24s-2.9-26.3-3.79-34.77c-0.89-8.47-1.78-13.82-1.78-13.82
				l-15.38,38.11L581.78,421.74z"/>
			<g>
				<path style="fill:#8342EA;stroke:#263238;stroke-linecap:round;stroke-linejoin:round;stroke-miterlimit:10;" d="M609.39,293.33
					c-8.57,3.28-27.1,10.12-34.52,10.97c-5.4,0.61-10.87-1.61-14.7-3.74c-0.02,5.09,0.04,9.94,0.21,13.77
					c0.67,14.71,5.79,40.56,7.35,50.59c1.56,10.03,4.01,19.39,4.01,19.39l-10.25,31.87c0,0,7.13,4.68,12.93,5.79
					c5.79,1.11,8.91,0.89,8.91,0.89l1.78-0.22c0,0,4.46-20.28,7.58-30.31c3.12-10.03,5.13-16.71,5.57-18.28
					c0.45-1.56,19.17-28.75,20.28-45.24c1.11-16.49-4.46-30.98-7.58-33.88C610.46,294.45,609.92,293.9,609.39,293.33z"/>
				
					<line style="fill:none;stroke:#263238;stroke-linecap:round;stroke-linejoin:round;stroke-miterlimit:10;" x1="578.37" y1="326.17" x2="581.55" y2="327.92"/>
				
					<line style="fill:none;stroke:#263238;stroke-linecap:round;stroke-linejoin:round;stroke-miterlimit:10;" x1="569.74" y1="321.45" x2="576.15" y2="324.96"/>
				<path style="fill:none;stroke:#263238;stroke-linecap:round;stroke-linejoin:round;stroke-miterlimit:10;" d="M585.34,320.12
					c0,0-8.91,43.24-9.58,47.02c-0.67,3.79-0.67,5.13-0.67,5.13c-2.67,2.01-2.67,2.01-2.67,2.01l3.12,1.56c0,0,0.22-4.23,1.56-3.34
					c1.34,0.89,1.34,0.89,1.34,0.89s1.11-2.67,2.01-2.45s2.23,4.01,2.23,4.01s3.57-2.9,3.12,0.45c-0.45,3.34-4.9,7.13-6.69,7.35
					c-1.78,0.22-6.69-4.46-6.69-4.46l-0.67,6.02"/>
				<path style="fill:none;stroke:#263238;stroke-linecap:round;stroke-linejoin:round;stroke-miterlimit:10;" d="M579.18,410.39
					c-1.01,3.28-1.63,5.33-1.63,5.33"/>
				<path style="fill:none;stroke:#263238;stroke-linecap:round;stroke-linejoin:round;stroke-miterlimit:10;" d="M608,314.04
					c-2.48,3.63-4.61,8.97-4.61,10.31c0,1.78-6.69,34.1-10.47,43.68c-2.54,6.42-8.57,25.63-12.28,37.62"/>
				<path style="fill:none;stroke:#263238;stroke-linecap:round;stroke-linejoin:round;stroke-miterlimit:10;" d="M604.73,296.27
					c0,0-2.01,2.9-0.67,4.23c1.34,1.34,6.46,0.89,5.13,2.23c-1.34,1.34-6.02,3.79-2.9,4.68c3.12,0.89,7.58,1.34,4.23,3.79"/>
				
					<line style="fill:none;stroke:#263238;stroke-linecap:round;stroke-linejoin:round;stroke-miterlimit:10;" x1="574.87" y1="304.29" x2="576.87" y2="314.99"/>
				<path style="fill:none;stroke:#263238;stroke-linecap:round;stroke-linejoin:round;stroke-miterlimit:10;" d="M580.22,307.52
					c0,0.8-0.65,1.45-1.45,1.45s-1.45-0.65-1.45-1.45c0-0.8,0.65-1.45,1.45-1.45S580.22,306.72,580.22,307.52z"/>
				<path style="fill:#FFFFFF;stroke:#263238;stroke-linecap:round;stroke-linejoin:round;stroke-miterlimit:10;" d="M574.65,380.29
					l0.89-4.46c0,0,0.49-3.57,1.02-3.46c0.54,0.11,1.87,1.01,1.87,1.01s1.46-2.67,2.01-2.45s2.23,4.01,2.23,4.01
					s2.73-1.77,3.17-0.76c0.43,1.01-0.8,3.77-1.45,4.78c-0.65,1.01-3.12,2.97-3.77,3.33c-0.65,0.36-1.38,0.72-2.03,0.36
					C577.94,382.3,574.65,380.29,574.65,380.29z"/>
			</g>
		</g>
		<path style="fill:#FFFFFF;stroke:#263238;stroke-linecap:round;stroke-linejoin:round;stroke-miterlimit:10;" d="M584.9,444.25"/>
	</g>
</g>
<g id="Character_3">
	<g>
		<g>
			<path style="fill:#8342EA;stroke:#263238;stroke-linecap:round;stroke-linejoin:round;stroke-miterlimit:10;" d="M506.1,374.29
				c0,0,4.12-0.46,9.16-2.29s11.68-5.5,13.74-4.35c2.06,1.15-8.47,11.22-12.14,15.11c-3.66,3.89-8.7,7.79-11.91,10.76
				s-4.35,6.41-7.79,5.27c-3.43-1.14-9.16-11.45-9.16-13.28C488.01,383.68,506.1,374.29,506.1,374.29z"/>
			<path style="fill:#FFFFFF;stroke:#263238;stroke-linecap:round;stroke-linejoin:round;stroke-miterlimit:10;" d="M502.43,391
				c-3.07,2.09-6.13,3.97-8.32,5.28c1.08,1.26,2.15,2.21,3.05,2.51c3.43,1.15,4.58-2.29,7.79-5.27s8.24-6.87,11.91-10.76
				c3.66-3.89,14.2-13.97,12.14-15.11c0,0-11.22,10.53-15.34,13.51S508.16,387.11,502.43,391z"/>
		</g>
		<g>
			<path style="fill:#8342EA;stroke:#263238;stroke-linecap:round;stroke-linejoin:round;stroke-miterlimit:10;" d="M359.54,359.4
				c0,0-10.08-2.29-10.99-0.46c-0.92,1.83-7.33,19.01-7.33,23.82c0,4.81,2.52,14.2,4.35,13.05c1.83-1.14,0.92-7.33,2.52-9.85
				c1.6-2.52,13.05-10.53,13.05-10.53L359.54,359.4z"/>
			<path style="fill:#FFFFFF;stroke:#263238;stroke-linecap:round;stroke-linejoin:round;stroke-miterlimit:10;" d="M351.62,358.24
				c-1.54-0.05-2.77,0.11-3.07,0.7c-0.92,1.83-7.33,19.01-7.33,23.82c0,4.81,2.52,14.2,4.35,13.05c-0.23-1.14-2.29-8.47-2.29-12.37
				C343.28,380.36,349.17,364.65,351.62,358.24z"/>
		</g>
		<path style="fill:#263238;stroke:#263238;stroke-linecap:round;stroke-linejoin:round;stroke-miterlimit:10;" d="M397.1,264.14
			c0,0,1.37,28.85,2.52,36.41c1.14,7.56,11.45,47.86,11.45,47.86s-39.39,11.45-42.36,11.45s-10.76-0.92-10.76-0.92
			s-2.29,4.81-1.83,9.16s3.21,11.22,3.21,11.22l22.67-7.1c0,0,43.28-6.87,45.57-8.24c2.29-1.37,5.5-3.89,5.72-6.64
			c0.23-2.75,2.75-39.85,3.21-41.45c0.46-1.6,3.89-11.22,3.89-11.22l41.45,3.43c0,0-4.35,11.91-3.21,26.79
			c1.15,14.88,4.58,34.81,4.81,36.18c0.23,1.37,0.46,6.18,1.15,8.24c0.69,2.06,3.43,10.3,3.43,10.3s4.58-2.29,7.56-5.27
			c2.98-2.98,12.14-10.53,12.14-10.53s-0.92-1.83-2.29-4.12c-1.37-2.29-3.43-4.58-3.89-6.64c-0.46-2.06,0.23-47.17,1.6-51.07
			c1.37-3.89,6.18-17.86,3.21-21.3c-2.98-3.43-32.52-12.82-39.39-14.66c-6.87-1.83-11.91-3.43-11.91-3.43l-4.58-5.72
			c0,0-3.43,7.33-23.36,3.43C407.17,266.43,397.1,264.14,397.1,264.14z"/>
		<g>
			<path style="fill:none;stroke:#878787;stroke-linecap:round;stroke-linejoin:round;stroke-miterlimit:10;" d="M440.38,304.67
				c0,0,7.33-8.7,9.85-13.74"/>
			<polyline style="fill:none;stroke:#878787;stroke-linecap:round;stroke-linejoin:round;stroke-miterlimit:10;" points="
				494.19,309.94 481.83,308.11 491.21,316.12 			"/>
			<path style="fill:none;stroke:#878787;stroke-linecap:round;stroke-linejoin:round;stroke-miterlimit:10;" d="M450.45,275.36
				c0,0-7.79,10.08-9.62,14.43"/>
			
				<line style="fill:none;stroke:#878787;stroke-linecap:round;stroke-linejoin:round;stroke-miterlimit:10;" x1="411.07" y1="348.41" x2="413.13" y2="360.09"/>
		</g>
		<g>
			<path style="fill:#FFFFFF;stroke:#263238;stroke-linecap:round;stroke-linejoin:round;stroke-miterlimit:10;" d="M397.78,275.36
				c0,0,6.64,3.89,16.26,4.81c9.62,0.92,24.73-1.14,30.69-3.66c5.95-2.52,8.01-4.58,8.01-4.58l-2.29-5.04c0,0-9.39,6.41-20.61,6.87
				c-11.22,0.46-23.59-3.21-25.65-3.89c-2.06-0.69-6.87-2.52-6.87-2.52L397.78,275.36z"/>
			<polygon style="fill:#FFFFFF;stroke:#263238;stroke-linecap:round;stroke-linejoin:round;stroke-miterlimit:10;" points="
				429.84,273.76 430.76,279.25 438.09,278.11 436.94,272.16 			"/>
			<path style="fill:#FFFFFF;stroke:#263238;stroke-linecap:round;stroke-linejoin:round;stroke-miterlimit:10;" d="M429.84,273.76
				c0,0-8.24,1.6-15.34,4.35c-7.1,2.75-13.51,3.43-9.85,6.87c3.66,3.43,26.11-5.72,26.11-5.72L429.84,273.76z"/>
		</g>
		<path style="fill:#B0B0B0;stroke:#263238;stroke-linecap:round;stroke-linejoin:round;stroke-miterlimit:10;" d="M397.33,267.35
			c0,0,14.66,8.7,30.23,7.56c15.57-1.14,22.9-8.01,22.9-8.01s-5.95-32.98-4.58-42.36c1.37-9.39,2.98-28.17,1.83-31.37
			c-1.15-3.21-33.43-5.95-38.01-5.04c-4.58,0.92-9.16,40.53-11.22,49C396.41,245.59,397.33,267.35,397.33,267.35z"/>
		
			<ellipse style="fill:#FFFFFF;stroke:#263238;stroke-linecap:round;stroke-linejoin:round;stroke-miterlimit:10;" cx="425.95" cy="191.21" rx="10.76" ry="11.34"/>
		<g>
			<path style="fill:#FFFFFF;stroke:#263238;stroke-linecap:round;stroke-linejoin:round;stroke-miterlimit:10;" d="M416.22,186.03
				c0,0-5.92,22.69-9.21,38.81c-3.29,16.12-8.55,54.76-10.03,53.28c-1.48-1.48-2.96-1.15-5.59-2.96s-0.82-5.1-1.81-6.41
				c-0.99-1.32-5.26-5.26-5.92-7.24c-0.66-1.97,1.32-8.88,1.81-9.37c0.49-0.49,10.52-43.41,10.52-43.41s-12.5-11.18-14.96-15.79
				c-2.47-4.6-9.37-12.33-9.37-12.33s-11.51-11.84-15.62-17.1c-4.11-5.26-16.28-26.31-16.28-26.31s-4.11-1.64-6.08-3.12
				c-1.97-1.48-3.29-4.11-3.29-4.11l3.45-8.06c0,0-2.63-1.48-3.29-1.32c-0.66,0.16-2.3,2.47-3.62,3.12
				c-1.32,0.66-3.12,0.16-1.64-1.81c1.48-1.97,2.8-4.6,4.11-5.26c1.32-0.66,8.39,2.63,10.36,5.59c1.97,2.96,11.35,15.62,11.35,15.62
				s23.68,26.64,26.8,28.78c3.12,2.14,4.44,0.99,7.56,5.1c3.12,4.11,11.35,10.03,11.35,10.03s0-2.14,5.1-0.82
				c5.1,1.32,12.99,1.64,12.99,1.64S416.71,184.06,416.22,186.03z"/>
			<path style="fill:#8342EA;stroke:#263238;stroke-linecap:round;stroke-linejoin:round;stroke-miterlimit:10;" d="M416.22,186.03
				c0.49-1.97-1.32-3.45-1.32-3.45s-7.89-0.33-12.99-1.64c-5.1-1.32-5.1,0.82-5.1,0.82s-8.22-5.92-11.35-10.03
				c-3.12-4.11-4.44-2.96-7.56-5.1c-1.68-1.15-9.27-9.35-15.95-16.7l-8.54,9.83c1.03,1.57,1.94,2.88,2.62,3.75
				c4.11,5.26,15.62,17.1,15.62,17.1s6.91,7.73,9.37,12.33s14.96,15.79,14.96,15.79s-10.03,42.92-10.52,43.41
				c-0.49,0.49-2.47,7.4-1.81,9.37c0.66,1.97,4.93,5.92,5.92,7.24c0.99,1.32-0.82,4.6,1.81,6.41s4.11,1.48,5.59,2.96
				c1.48,1.48,6.74-37.16,10.03-53.28C410.3,208.73,416.22,186.03,416.22,186.03z"/>
			<g>
				<path style="fill:#FFFFFF;stroke:#263238;stroke-linecap:round;stroke-linejoin:round;stroke-miterlimit:10;" d="M330.55,120.58
					c0,0-4.07,7.05-2.92,8.53c1.15,1.48,3.62,3.45,4.28,2.8c0.66-0.66,3.74-6.72,3.74-8.04
					C335.64,122.56,332.03,119.93,330.55,120.58z"/>
				<path style="fill:#FFFFFF;stroke:#263238;stroke-linecap:round;stroke-linejoin:round;stroke-miterlimit:10;" d="M329.53,122.63
					c0,0,3.54,3.01,5.56,3.4"/>
				<path style="fill:#FFFFFF;stroke:#263238;stroke-linecap:round;stroke-linejoin:round;stroke-miterlimit:10;" d="M327.76,125.97
					c0,0,2.62,3.34,5.63,3.67"/>
			</g>
			<path style="fill:#FFFFFF;stroke:#263238;stroke-linecap:round;stroke-linejoin:round;stroke-miterlimit:10;" d="M344.36,130.69
				c0,0-2.96-7.88-4.15-9.32c-1.19-1.44-3.9-2.96-4.74-4.83c-0.85-1.86-2.88-2.8-3.13-0.59c-0.25,2.2,2.37,5.93,2.63,6.27
				c0.25,0.34-0.51,4.32,1.61,7.28c2.12,2.96,3.98,3.22,3.98,3.22"/>
			<path style="fill:#8342EA;stroke:#263238;stroke-linecap:round;stroke-linejoin:round;stroke-miterlimit:10;" d="M413.38,182.23
				c0,0-6.86,11.91-9.28,15.54c-2.42,3.63-3.23,4.64-1.41,5.25c1.82,0.61,5.65-3.43,6.46-2.02c0.81,1.41,1.61,6.46,1.61,6.46
				l5.45-19.78C416.21,187.68,416,181.43,413.38,182.23z"/>
			<g>
				<polyline style="fill:none;stroke:#263238;stroke-linecap:round;stroke-linejoin:round;stroke-miterlimit:10;" points="
					399.05,189.7 395.99,208.73 393.2,183.04 				"/>
				
					<line style="fill:none;stroke:#263238;stroke-linecap:round;stroke-linejoin:round;stroke-miterlimit:10;" x1="386.45" y1="182.35" x2="384.72" y2="177.59"/>
				
					<line style="fill:none;stroke:#263238;stroke-linecap:round;stroke-linejoin:round;stroke-miterlimit:10;" x1="395.99" y1="208.73" x2="387.57" y2="185.45"/>
			</g>
			
				<line style="fill:#FFFFFF;stroke:#263238;stroke-linecap:round;stroke-linejoin:round;stroke-miterlimit:10;" x1="394.72" y1="245.85" x2="395.82" y2="240.96"/>
			
				<line style="fill:#FFFFFF;stroke:#263238;stroke-linecap:round;stroke-linejoin:round;stroke-miterlimit:10;" x1="389.58" y1="268.75" x2="393.5" y2="251.29"/>
		</g>
		<g>
			<path style="fill:#FFFFFF;stroke:#263238;stroke-linecap:round;stroke-linejoin:round;stroke-miterlimit:10;" d="M435.78,187.28
				c0.2-0.81,2.02,7.67,2.22,18.57c0.2,10.9,2.02,37.13,3.63,44.4c1.61,7.27,11.3,25.02,11.3,25.02l16.95-13.72
				c0,0-8.88-14.73-8.48-26.03c0.4-11.3,0.2-27.45,0.2-27.45l27.04-24.22c0,0,7.87-5.65,14.33-15.54
				c6.46-9.89,20.18-26.03,20.18-26.03s5.65,0,7.27-1.41c1.61-1.41,3.03-4.64,3.03-4.64s-4.04-9.28-5.25-9.48
				c-1.21-0.2-8.27,5.45-9.08,7.47c-0.81,2.02-2.42,5.05-2.42,5.05s-29.46,22.2-31.48,25.43c-2.02,3.23-3.83,5.85-3.83,5.85
				l-14.53,9.89c0,0-1.01-1.01-5.25,1.01c-4.24,2.02-12.31,3.43-12.31,3.43s-3.23-2.42-5.05-2.42c-1.82,0-9.08,0.4-9.08,0.4
				L435.78,187.28z"/>
			<path style="fill:#8342EA;stroke:#263238;stroke-linecap:round;stroke-linejoin:round;stroke-miterlimit:10;" d="M485.23,164.68
				c-2.02,3.23-3.83,5.85-3.83,5.85l-14.53,9.89c0,0-1.01-1.01-5.25,1.01c-4.24,2.02-12.31,3.43-12.31,3.43s-3.23-2.42-5.05-2.42
				c-1.82,0-9.08,0.4-9.08,0.4l0.61,4.44c0.2-0.81,2.02,7.67,2.22,18.57c0.2,10.9,2.02,37.13,3.63,44.4
				c1.61,7.27,11.3,25.02,11.3,25.02l16.95-13.72c0,0-8.88-14.73-8.48-26.03c0.4-11.3,0.2-27.45,0.2-27.45l27.04-24.22
				c0,0,7.87-5.65,14.33-15.54c1.09-1.67,2.38-3.51,3.78-5.42l-7.68-10.07C492.38,158.11,486.12,163.25,485.23,164.68z"/>
			<path style="fill:#8342EA;stroke:#263238;stroke-linecap:round;stroke-linejoin:round;stroke-miterlimit:10;" d="M439.21,183.65
				c0,0,2.83,8.07,5.05,13.52c2.22,5.45,3.83,9.49,1.41,9.89s-4.24-2.83-5.05-2.62s-2.62,1.41-2.62,1.41s-0.4-8.48-0.4-10.49
				c0-2.02-2.42-12.51-2.42-12.51L439.21,183.65z"/>
			<path style="fill:none;stroke:#263238;stroke-linecap:round;stroke-linejoin:round;stroke-miterlimit:10;" d="M453.09,247.85
				c-0.33,2.21-0.53,4.08-0.56,5.42"/>
			<path style="fill:none;stroke:#263238;stroke-linecap:round;stroke-linejoin:round;stroke-miterlimit:10;" d="M465.65,184.05
				l-4.04,24.02c0,0-5.58,22.46-8,36.49"/>
			
				<line style="fill:none;stroke:#263238;stroke-linecap:round;stroke-linejoin:round;stroke-miterlimit:10;" x1="473.35" y1="184.42" x2="475.34" y2="180.42"/>
			
				<line style="fill:none;stroke:#263238;stroke-linecap:round;stroke-linejoin:round;stroke-miterlimit:10;" x1="461.61" y1="208.07" x2="471.18" y2="188.79"/>
			<g>
				<path style="fill:#FFFFFF;stroke:#263238;stroke-linecap:round;stroke-linejoin:round;stroke-miterlimit:10;" d="M531.24,127.34
					c0,0,4.11,8.88,2.96,10.36c-1.15,1.48-3.62,3.45-4.28,2.8s-3.78-8.55-3.78-9.87C526.14,129.32,529.76,126.68,531.24,127.34z"/>
				<path style="fill:#FFFFFF;stroke:#263238;stroke-linecap:round;stroke-linejoin:round;stroke-miterlimit:10;" d="M532.42,129.91
					c0,0-4.74,2.96-5.93,3.13"/>
				<path style="fill:#FFFFFF;stroke:#263238;stroke-linecap:round;stroke-linejoin:round;stroke-miterlimit:10;" d="M533.43,132.62
					c0,0-3.56,2.8-5.59,3.05"/>
				<path style="fill:#FFFFFF;stroke:#263238;stroke-linecap:round;stroke-linejoin:round;stroke-miterlimit:10;" d="M534.11,135.33
					c0,0-1.69,2.37-5.42,3.47"/>
			</g>
			<path style="fill:#FFFFFF;stroke:#263238;stroke-linecap:round;stroke-linejoin:round;stroke-miterlimit:10;" d="M517.43,137.45
				c0,0,2.96-7.88,4.15-9.32s3.9-2.96,4.74-4.83c0.85-1.86,2.88-2.8,3.13-0.59c0.25,2.2-2.37,5.93-2.63,6.27
				c-0.25,0.34,0.51,4.32-1.61,7.28c-2.12,2.96-3.98,3.22-3.98,3.22"/>
		</g>
		<g>
			<path style="fill:#FFFFFF;stroke:#263238;stroke-linecap:round;stroke-linejoin:round;stroke-miterlimit:10;" d="M408.66,164.33
				c0,0-1.97-2.8-2.63,1.64c-0.66,4.44,0.16,8.22,1.64,9.21c1.48,0.99,2.96,1.15,2.96,1.15s2.3,7.56,3.29,9.37
				c0.99,1.81,6.74,9.54,11.35,10.36c4.6,0.82,7.56-1.32,9.87-4.6c2.3-3.29,4.28-10.69,4.77-12.17c0.49-1.48,0.99-4.44,0.99-4.44
				s3.78-3.62,3.29-7.89c-0.49-4.28-2.14-3.78-2.14-3.78s-2.8,1.97-3.95,2.14c-1.15,0.16-6.08-3.29-10.69-2.96s-12,2.8-13.48,2.96
				C412.44,165.48,408.66,164.33,408.66,164.33z"/>
			<path style="fill:none;stroke:#263238;stroke-linecap:round;stroke-linejoin:round;stroke-miterlimit:10;" d="M432.01,169.42
				c0,0-2.8,0.99-2.63,2.47c0.16,1.48,0.99,9.21,0.16,10.85c-0.82,1.64-4.77-0.16-4.77-0.16"/>
			<path style="fill:none;stroke:#263238;stroke-linecap:round;stroke-linejoin:round;stroke-miterlimit:10;" d="M422.96,185.37
				c0,0,2.63,2.96,5.26,2.14c2.63-0.82,4.44-2.96,4.44-2.96"/>
			<path style="fill:#263238;" d="M422.14,175.34c0,1.27-0.48,2.3-1.07,2.3c-0.59,0-1.07-1.03-1.07-2.3s0.48-2.3,1.07-2.3
				C421.66,173.04,422.14,174.07,422.14,175.34z"/>
			<ellipse style="fill:#263238;" cx="432.75" cy="175.01" rx="1.07" ry="2.3"/>
			<path style="fill:none;stroke:#263238;stroke-linecap:round;stroke-linejoin:round;stroke-miterlimit:10;" d="M417.7,170.41
				c0,0,2.14-2.47,5.76-0.33"/>
		</g>
		<g>
			<path style="fill:#263238;stroke:#263238;stroke-linecap:round;stroke-linejoin:round;stroke-miterlimit:10;" d="M408.66,164.33
				c0,0,0.82,3.29,3.45,4.6c2.63,1.32,12.17-6.41,16.61-3.78c4.44,2.63,6.41,3.95,8.88,3.95c2.47,0,4.44-4.93,4.44-5.92
				c0-0.99,0-11.51-2.47-15.79c-2.47-4.28-9.54-10.2-15.79-8.88c-6.25,1.32-15.95,8.06-16.44,11.68
				C406.85,153.8,408.66,164.33,408.66,164.33z"/>
			<path style="fill:none;stroke:#878787;stroke-linecap:round;stroke-linejoin:round;stroke-miterlimit:10;" d="M410.96,164
				c0,0,5.76-6.25,13.65-6.25c7.89,0,15.13,4.28,15.13,4.28"/>
		</g>
	</g>
</g>
<g id="Character_2_1_">
	<g>
		<g>
			<path style="fill:#FFFFFF;stroke:#263238;stroke-linecap:round;stroke-linejoin:round;stroke-miterlimit:10;" d="M319.27,358.96
				c0,0-1.71,17.54-3.85,27.57s-14.05,50.98-14.05,50.98s1.91,7.64,4.78,11.22c2.87,3.58,4.3,5.73,4.3,8.36c0,2.63,0,5.49-3.34,6.92
				c-3.34,1.43-10.74,2.15-13.37-1.19c-2.63-3.34-2.15-11.94-2.39-14.8c-0.24-2.87-1.91-7.4-1.43-10.03
				c0.48-2.63,1.67-4.06,2.15-6.45c0.48-2.39,4.3-30.8,5.01-38.68c0.72-7.88,2.63-15.28,2.63-15.28s-3.82-16.95-4.06-18.15
				C295.39,358.24,319.27,358.96,319.27,358.96z"/>
			<path style="fill:#263238;stroke:#263238;stroke-linecap:round;stroke-linejoin:round;stroke-miterlimit:10;" d="M293.72,462.82
				c2.63,3.34,10.03,2.63,13.37,1.19c3.34-1.43,3.34-4.3,3.34-6.92c0-2.63-1.43-4.78-4.3-8.36c-2.86-3.58-4.78-11.22-4.78-11.22
				s0.71-3.53,2.1-7.52c-4.72,1.57-8.6-0.26-10.82-2.3c-0.29,2-0.5,3.39-0.59,3.85c-0.48,2.39-1.67,3.82-2.15,6.45
				c-0.48,2.63,1.19,7.16,1.43,10.03C291.57,450.88,291.09,459.48,293.72,462.82z"/>
			<path style="fill:#FFFFFF;stroke:#263238;stroke-linecap:round;stroke-linejoin:round;stroke-miterlimit:10;" d="M291.33,448.02
				c0.24,2.87-0.24,11.46,2.39,14.8c2.63,3.34,10.03,2.63,13.37,1.19c3.34-1.43,3.34-4.3,3.34-6.92c0-2.63-1.43-4.78-4.3-8.36
				c-2.86-3.58-4.78-11.22-4.78-11.22s-0.95-1.91-2.63-1.19c-1.67,0.72-4.06,1.91-4.06,1.91s-1.67-3.58-2.63-6.69
				c-0.48,2.39-1.67,3.82-2.15,6.45C289.42,440.61,291.09,445.15,291.33,448.02z"/>
			<path style="fill:#8342EA;stroke:#263238;stroke-linecap:round;stroke-linejoin:round;stroke-miterlimit:10;" d="M297.91,460.54
				c-4.97-2.06-6.34-10.11-6.34-10.11l-0.14,0.05c0.08,3.78,0.22,9.7,2.3,12.34c2.63,3.34,10.03,2.63,13.37,1.19
				c3.34-1.43,3.34-4.3,3.34-6.92C307.53,460.49,302.88,462.6,297.91,460.54z"/>
		</g>
		<g>
			<path style="fill:#FFFFFF;stroke:#263238;stroke-linecap:round;stroke-linejoin:round;stroke-miterlimit:10;" d="M266.5,353.23
				c0,0,2.87,22.44,2.87,31.75c0,9.31-0.96,15.28,1.91,26.98c2.87,11.7,5.49,25.55,5.49,25.55s-2.15,5.73-5.25,11.22
				c-3.1,5.49-2.87,9.55-2.87,11.7s0.96,5.01,4.78,5.73c3.82,0.72,9.55,0.48,11.94-4.78c2.39-5.25,1.67-7.4,1.91-12.18
				c0.24-4.78-0.48-11.22-0.72-13.13c-0.24-1.91-0.24-30.56-0.48-42.98c-0.24-12.42,0.72-33.9,0.72-33.9L266.5,353.23z"/>
			<path style="fill:#263238;stroke:#263238;stroke-linecap:round;stroke-linejoin:round;stroke-miterlimit:10;" d="M274.64,426.94
				c1.27,6.05,2.13,10.57,2.13,10.57s-2.15,5.73-5.25,11.22c-3.1,5.49-2.87,9.55-2.87,11.7s0.96,5.01,4.78,5.73
				c3.82,0.72,9.55,0.48,11.94-4.78c2.39-5.25,1.67-7.4,1.91-12.18c0.24-4.78-0.48-11.22-0.72-13.13c-0.08-0.63-0.13-4.16-0.18-9.05
				C281.81,428.79,277.09,427.74,274.64,426.94z"/>
			<path style="fill:#FFFFFF;stroke:#263238;stroke-linecap:round;stroke-linejoin:round;stroke-miterlimit:10;" d="M284.89,439.9
				c-0.48-1.19-1.91-3.1-4.3-4.06c-2.39-0.95-3.82,1.67-3.82,1.67s-2.15,5.73-5.25,11.22c-3.1,5.49-2.87,9.55-2.87,11.7
				s0.96,5.01,4.78,5.73c3.82,0.72,9.55,0.48,11.94-4.78c2.39-5.25,1.67-7.4,1.91-12.18c0.24-4.78-0.48-11.22-0.72-13.13
				C285.12,437.99,285.36,441.09,284.89,439.9z"/>
			<path style="fill:#8342EA;stroke:#263238;stroke-linecap:round;stroke-linejoin:round;stroke-miterlimit:10;" d="M285.36,461.39
				c2.39-5.25,1.67-7.4,1.91-12.18c-2.87,7.4-4.3,9.79-10.03,10.98c-5.73,1.19-8.12-3.82-8.12-3.82l-0.28-0.02
				c-0.24,1.73-0.19,3.1-0.19,4.08c0,2.15,0.96,5.01,4.78,5.73C277.25,466.88,282.98,466.64,285.36,461.39z"/>
		</g>
		<g>
			<path style="fill:#263238;stroke:#263238;stroke-linecap:round;stroke-linejoin:round;stroke-miterlimit:10;" d="M265.07,305.48
				c0,0-5.97,19.1-7.4,30.8c-1.43,11.7-2.87,21.73-2.87,21.73s6.45,2.15,14.33,4.06c7.88,1.91,21.01,0.24,21.01,0.24
				s10.51,2.63,19.82,1.67c9.31-0.95,19.82-3.58,19.82-3.58s-3.82-34.86-4.54-42.5c-0.72-7.64-1.91-11.7-1.91-11.7L265.07,305.48z"
				/>
			
				<line style="fill:none;stroke:#878787;stroke-linecap:round;stroke-linejoin:round;stroke-miterlimit:10;" x1="290.14" y1="362.3" x2="293.48" y2="326.01"/>
			<path style="fill:none;stroke:#878787;stroke-linecap:round;stroke-linejoin:round;stroke-miterlimit:10;" d="M298.97,320.04
				l-5.49,11.22c0,0,7.16,26.98,6.92,27.93"/>
			<polyline style="fill:none;stroke:#878787;stroke-linecap:round;stroke-linejoin:round;stroke-miterlimit:10;" points="
				310.67,326.73 312.34,312.4 315.92,324.82 			"/>
			<path style="fill:none;stroke:#878787;stroke-linecap:round;stroke-linejoin:round;stroke-miterlimit:10;" d="M277.25,312.4
				c0,0-5.01,36.53-5.25,46.08"/>
			<path style="fill:none;stroke:#878787;stroke-linecap:round;stroke-linejoin:round;stroke-miterlimit:10;" d="M316.64,328.16
				c0,0,1.91,10.98,1.91,15.76"/>
		</g>
		<path style="fill:#8342EA;stroke:#263238;stroke-linecap:round;stroke-linejoin:round;stroke-miterlimit:10;" d="M266.79,299.79
			c0,0-3.87,7.36-2.67,8.07c1.19,0.72,14.09,4.54,30.56,4.54c16.47,0,29.37-2.63,29.61-3.82c0.24-1.19-2.74-6.56-2.74-6.56
			l-29.73-3.94L266.79,299.79z"/>
		<path style="fill:#8342EA;stroke:#263238;stroke-linecap:round;stroke-linejoin:round;stroke-miterlimit:10;" d="M301.5,211.26
			c0,0-1.88,5.17-0.76,8.62c1.13,3.45,4.65,4.75,10.41,4.93c5.75,0.19,14.48-0.74,14.11,6.87c-0.37,7.61-7.24,48.44-7.42,49.37
			c-0.19,0.93,4.45,16.33,4.64,18.19c0.19,1.86,0.37,2.23-0.93,2.78c-1.3,0.56-16.7,0.56-29.88,0.74
			c-13.18,0.19-24.69-2.41-24.87-2.97c-0.19-0.56,1.11-5.01,1.11-5.01l3.53-15.59c0,0-10.58,1.3-12.06,1.3
			c-1.48,0-2.97-11.51-2.41-16.89c0.56-5.38,3.16-32.85,4.64-34.52c1.48-1.67,12.44-2.23,17.26-3.9c4.83-1.67,6.13-2.41,6.13-5.94
			s0-11.88,0-11.88l15.78,1.11L301.5,211.26z"/>
		<g>
			<path style="fill:#263238;stroke:#263238;stroke-linecap:round;stroke-linejoin:round;stroke-miterlimit:10;" d="M308.21,225.78
				c-3.64-0.65-5.95-2.11-6.84-4.84c-1.2-3.67,0.8-9.17,0.8-9.17l-0.79-2.96l-16.78-1.18c0,0,0,8.88,0,12.63
				c0,3.75-1.38,4.54-6.51,6.32c0,0,5.73,9.28,16.98,9.08C301.87,235.54,306,230.08,308.21,225.78z"/>
			<g>
				<path style="fill:#FFFFFF;stroke:#263238;stroke-linecap:round;stroke-linejoin:round;stroke-miterlimit:10;" d="M306.89,178.52
					c0,0,4.34,7.99,4.34,9.03s-0.69,3.99-0.17,4.52c0.52,0.52,6.08,2.26,5.38,3.82c-0.69,1.56-2.26,4.86-2.26,4.86
					s0,9.55-0.69,11.29c-0.69,1.74-11.62,1.04-14.23,0.43c-2.61-0.6-10.78-9.29-10.78-9.29l-1.56-10.77c0,0,4.86-11.46,8.86-12.16
					C299.76,179.56,306.89,178.52,306.89,178.52z"/>
				<path style="fill:none;stroke:#263238;stroke-linecap:round;stroke-linejoin:round;stroke-miterlimit:10;" d="M307.93,200.75
					c0,0,1.56,1.56,4.34,1.74"/>
				<g>
					<path style="fill:#263238;stroke:#263238;stroke-linecap:round;stroke-linejoin:round;stroke-miterlimit:10;" d="
						M311.23,187.55c0,0,3.13-0.69,3.47-0.17c0.35,0.52,0,3.99-0.87,5.38c-0.87,1.39-2.78-0.69-2.78-0.69L311.23,187.55z"/>
					<path style="fill:#263238;stroke:#263238;stroke-linecap:round;stroke-linejoin:round;stroke-miterlimit:10;" d="
						M309.84,188.25c0,0-1.74-0.17-4.34,1.04c-2.61,1.22-2.43,2.78-1.56,2.78c0.87,0,0.52,2.95,1.74,3.3
						c1.22,0.35,3.82,0.52,5.04-1.39C311.92,192.07,313.14,187.38,309.84,188.25z"/>
					<polygon style="fill:#263238;stroke:#263238;stroke-linecap:round;stroke-linejoin:round;stroke-miterlimit:10;" points="
						304.11,190.16 293.68,194.5 303.93,192.07 					"/>
				</g>
				<path style="fill:none;stroke:#263238;stroke-linecap:round;stroke-linejoin:round;stroke-miterlimit:10;" d="M304.11,187.55
					c0,0,1.91-2.43,4.52-1.22"/>
			</g>
			<g>
				<path style="fill:#FFFFFF;stroke:#263238;stroke-linecap:round;stroke-linejoin:round;stroke-miterlimit:10;" d="M309.05,177.15
					c-0.16,1.73-1.69,3.35-3.82,3.94c-3.04,0.84-6.77,1.66-6.92,5.51c-0.24,5.88,0.71,10.11,1.88,10.82
					c1.18,0.71,6.35,4.23,3.76,9.17s-4.7,5.88-4.7,5.88s7.05,1.65,2.12,8.47c-4.94,6.82-11.52,5.41-14.81,3.06
					c-3.29-2.35-4.94-3.06-7.76-1.41c-2.82,1.65-12.23,0.24-13.4-6.11c-1.18-6.35,6.55-8.3,5.37-12.77
					c-1.18-4.47-2.59-15.75-0.47-20.22c1.76-3.71,9.27-9.34,12.78-10.81c2.98-1.25,6.19-2.1,9.45-1.95
					c2.87,0.12,5.52,1.28,8.38,1.54C303.76,172.52,309.44,172.97,309.05,177.15z"/>
				<path style="fill:none;stroke:#263238;stroke-linecap:round;stroke-linejoin:round;stroke-miterlimit:10;" d="M290.59,210.21
					c-2.56,1.03-5.19,1.78-6.14,4.04c-1.88,4.43,2.9,10.91,9.21,9.38c6.31-1.53,3.58-8.01,1.7-7.84c-1.88,0.17-4.6,1.7-3.58,2.73"/>
				<path style="fill:none;stroke:#263238;stroke-linecap:round;stroke-linejoin:round;stroke-miterlimit:10;" d="M298.77,177.59
					c0,0-5.97,3.58-7.16,7.84c-1.19,4.26,6.14,13.13,4.6,19.44c-0.49,2.02-1.68,3.25-3.13,4.14"/>
				<path style="fill:none;stroke:#263238;stroke-linecap:round;stroke-linejoin:round;stroke-miterlimit:10;" d="M274.09,220.89
					c1.46,0.73,3.21,0.84,5.07,0.01"/>
				<path style="fill:none;stroke:#263238;stroke-linecap:round;stroke-linejoin:round;stroke-miterlimit:10;" d="M279.4,182.41
					c-0.3,0.73-0.46,1.52-0.4,2.34c0.34,5.46,5.97,15,4.77,18.58c-1.19,3.58-13.13,4.77-13.47,10.06c-0.16,2.48,0.69,4.77,2.15,6.27
					"/>
				<path style="fill:none;stroke:#263238;stroke-linecap:round;stroke-linejoin:round;stroke-miterlimit:10;" d="M287.34,175.72
					c0,0-3.52,1.45-6,3.91"/>
			</g>
		</g>
		<path style="fill:#FFFFFF;stroke:#263238;stroke-linecap:round;stroke-linejoin:round;stroke-miterlimit:10;" d="M304.28,260.07
			c0,0,1.48-1.11,3.53-0.37c2.04,0.74,7.61,4.64,7.61,4.64s-5.01,0.56-7.05,2.78c-2.04,2.23-6.68,0.74-6.68,0.74L304.28,260.07z"/>
		<path style="fill:#8342EA;stroke:#263238;stroke-linecap:round;stroke-linejoin:round;stroke-miterlimit:10;" d="M319.87,225.73
			c0,0,5.01-1.67,8.54,2.6c3.53,4.27,0.56,41.21,0.37,46.96c-0.19,5.75-1.3,7.42-2.23,8.17c-0.93,0.74-5.75,3.71-23.94,0.93
			c-18.19-2.78-18.19-2.78-18.19-2.78l1.67-8.35c0,0,11.88-3.71,15.59-5.38c3.71-1.67,6.68-0.74,6.68-0.74s-0.19-1.67,1.11-2.23
			c1.3-0.56,2.23-0.93,2.97-1.11c0.74-0.19,2.41-0.93,2.41-0.93l5.2-23.2"/>
		<path style="fill:#8342EA;stroke:#263238;stroke-linecap:round;stroke-linejoin:round;stroke-miterlimit:10;" d="M260.29,233.53
			c0,0-0.74,4.83-1.3,6.13c-0.56,1.3-2.97,24.5-2.97,29.7c0,5.2,0.93,13.55,1.86,14.85c0.93,1.3,8.55,2.86,12.64,1.93
			c4.08-0.93,17.25-7.13,19.66-9.17c2.41-2.04,14.48-10.77,14.48-10.77s0.93-1.3,0.74-3.34c-0.19-2.04-1.11-2.78-1.11-2.78
			s-1.11-1.11-2.23-0.93c-1.11,0.19-18.56,6.31-20.79,6.87c-2.23,0.56-8.54,0.56-8.54,0.56s1.3-10.58-0.19-17.08
			c-1.48-6.5-2.6-10.58-2.6-10.58"/>
		<path style="fill:none;stroke:#263238;stroke-linecap:round;stroke-linejoin:round;stroke-miterlimit:10;" d="M272.73,266.57
			c0,0-8.17,2.6-10.02,4.27c-1.86,1.67-2.04,3.16-2.41,3.71"/>
		<path style="fill:none;stroke:#263238;stroke-linecap:round;stroke-linejoin:round;stroke-miterlimit:10;" d="M308.36,267.12
			c0,0,2.55,6.12,9.95,8.03"/>
		<path style="fill:none;stroke:#263238;stroke-linecap:round;stroke-linejoin:round;stroke-miterlimit:10;" d="M315.42,264.34
			c0,0,4.33,2.22,6.24,2.22"/>
		<path style="fill:none;stroke:#263238;stroke-linecap:round;stroke-linejoin:round;stroke-miterlimit:10;" d="M258.38,271.1
			c0,0,0-2.15,3.34-3.82s7.64-0.48,7.64-0.48"/>
	</g>
</g>
<g id="Character_1">
	<g>
		<path style="fill:#FFFFFF;stroke:#263238;stroke-linecap:round;stroke-linejoin:round;stroke-miterlimit:10;" d="M151.39,170.64
			l-0.83,12.85c0,0,7.46,8.09,8.29,11.19c0.83,3.11,4.15,14.51,4.98,11.82c0.83-2.7-0.41-10.16,0.21-12.23
			c0.62-2.07,2.9-13.48,2.9-13.48s-5.18-1.45-8.09-3.32C155.95,175.61,151.39,170.64,151.39,170.64z"/>
		<polygon style="fill:#263238;stroke:#263238;stroke-linecap:round;stroke-linejoin:round;stroke-miterlimit:10;" points="
			165.68,182.15 154.75,185.11 150.56,183.49 151.79,172.99 		"/>
		<g>
			<path style="fill:#263238;stroke:#263238;stroke-linecap:round;stroke-linejoin:round;stroke-miterlimit:10;" d="M148.07,162.96
				c0,0,1.04-1.45,0-6.63c-1.04-5.18-4.77-6.43-1.66-12.44c3.11-6.01,11.19-8.91,11.19-8.91s-1.87-3.94-0.41-4.98
				c1.45-1.04,4.77,1.66,5.18,2.49c0.41,0.83-0.41-8.09,1.87-8.09c2.28,0,8.5,7.05,8.5,9.33c0,2.28,2.28-5.39,4.77-3.32
				c2.49,2.07,3.52,7.46,2.49,8.91c-1.04,1.45,2.7-1.04,3.32,1.87c0.62,2.9-0.21,6.43-2.49,9.33c-2.28,2.9-3.94,3.11-3.94,3.11
				s-4.35-7.05-8.91-6.84c-4.56,0.21-9.33,0.83-9.33,2.9c0,2.07-0.21,3.32-2.07,5.39c-1.87,2.07-2.07,4.77-3.11,7.26
				c-1.04,2.49,0.21,4.35-2.28,3.52C148.69,165.04,148.07,162.96,148.07,162.96z"/>
			<path style="fill:#FFFFFF;stroke:#263238;stroke-linecap:round;stroke-linejoin:round;stroke-miterlimit:10;" d="M150.77,162.76
				c0,0-3.73-7.05-5.39-2.07c-1.66,4.98,0.21,6.63,1.04,7.67c0.83,1.04,2.7,1.45,2.7,1.45s2.07,6.01,3.73,7.46
				c1.66,1.45,4.56,6.43,12.23,5.8c3.61-0.29,7.67-2.49,9.54-8.09s1.87-8.71,2.49-15.55c0.62-6.84,0.41-11.82-4.35-14.72
				c-4.77-2.9-13.68-2.49-15.55,0.21c-1.87,2.69-0.41,3.73-1.04,5.18s-3.94,3.94-4.15,5.39c-0.21,1.45,0.41,3.73,0,4.98
				C151.6,161.72,150.77,162.76,150.77,162.76z"/>
			<path style="fill:none;stroke:#263238;stroke-linecap:round;stroke-linejoin:round;stroke-miterlimit:10;" d="M170.05,153.43
				c0,0-1.66,0.62-1.45,3.52c0.21,2.9,1.04,4.77,0.62,6.01c-0.41,1.24-4.15,0.62-4.15,0.62"/>
			<path style="fill:none;stroke:#263238;stroke-linecap:round;stroke-linejoin:round;stroke-miterlimit:10;" d="M159.27,165.25
				c0,0,6.01,5.18,12.65,1.24"/>
			<path style="fill:#263238;" d="M163.21,155.4c0,0.97-0.46,1.76-1.04,1.76c-0.57,0-1.04-0.79-1.04-1.76
				c0-0.97,0.46-1.76,1.04-1.76C162.74,153.64,163.21,154.42,163.21,155.4z"/>
			<path style="fill:#263238;" d="M173.99,156.75c0,0.97-0.46,1.76-1.04,1.76c-0.57,0-1.04-0.79-1.04-1.76
				c0-0.97,0.46-1.76,1.04-1.76C173.52,154.98,173.99,155.77,173.99,156.75z"/>
			<path style="fill:none;stroke:#263238;stroke-linecap:round;stroke-linejoin:round;stroke-miterlimit:10;" d="M159.06,151.98
				c0,0,3.11-1.87,6.01-0.21"/>
			<path style="fill:none;stroke:#263238;stroke-linecap:round;stroke-linejoin:round;stroke-miterlimit:10;" d="M171.5,152.6
				c0,0,4.77-2.49,5.39,1.04"/>
		</g>
		<path style="fill:#FFFFFF;stroke:#263238;stroke-linecap:round;stroke-linejoin:round;stroke-miterlimit:10;" d="M181.16,209.2
			c0,0,2.22,3.63,4.03,7.45c1.81,3.83,15.91,19.33,15.91,19.33s2.22-8.26,3.63-13.49c1.41-5.24,3.02-15.31,3.02-15.31
			s-1.21-5.04-0.81-6.65c0.4-1.61,0.4-5.64,1.61-6.04c1.21-0.4,11.48,4.03,11.88,5.44c0.4,1.41,0.6,4.23-0.2,5.64
			c-0.81,1.41-4.63,6.85-4.63,6.85s0.2,30.01-0.81,34.64s-3.83,8.66-5.64,9.06c-1.81,0.4-29-7.05-31.42-7.85
			C175.32,247.47,181.16,209.2,181.16,209.2z"/>
		<path style="fill:#263238;stroke:#263238;stroke-linecap:round;stroke-linejoin:round;stroke-miterlimit:10;" d="M209.15,256.13
			c1.81-0.4,4.63-4.43,5.64-9.06c0.33-1.52,0.53-5.78,0.65-10.82c-7.23-0.53-11.19-2.49-13.29-4.19c-0.61,2.28-1.05,3.93-1.05,3.93
			s-14.1-15.51-15.91-19.34c-1.81-3.83-4.03-7.45-4.03-7.45s-5.84,38.27-3.42,39.07C180.15,249.08,207.34,256.53,209.15,256.13z"/>
		<g>
			<g>
				<path style="fill:#263238;stroke:#263238;stroke-linecap:round;stroke-linejoin:round;stroke-miterlimit:10;" d="M185.38,408.78
					c0,0,2.34,7.22,4.03,9.55c1.7,2.33,8.28,7.01,7.85,8.92c-0.42,1.91-1.49,2.97-6.37,3.4c-4.88,0.42-7.43-0.85-10.83-2.97
					c-3.4-2.12-6.37-5.52-9.98-7.01c-3.61-1.49-6.79-1.49-6.16-6.16c0.64-4.67,4.03-9.34,4.03-9.34L185.38,408.78z"/>
				<path style="fill:#FFFFFF;stroke:#263238;stroke-linecap:round;stroke-linejoin:round;stroke-miterlimit:10;" d="M170.1,420.66
					c3.61,1.49,6.58,4.88,9.98,7.01c3.4,2.12,5.94,3.4,10.83,2.97c4.88-0.42,5.94-1.49,6.37-3.4c0.26-1.18-2.15-3.41-4.43-5.5
					c-4.12,0.38-7.67,4.86-7.67,4.86c-3.4-1.7-8.28-4.46-11.68-7.85c-3.4-3.4-9.55-4.25-9.55-4.25
					C163.31,419.18,166.49,419.18,170.1,420.66z"/>
				<path style="fill:#FFFFFF;stroke:#263238;stroke-linecap:round;stroke-linejoin:round;stroke-miterlimit:10;" d="M179.02,408.14
					c0,0,4.46,5.52,5.52,7.85c1.06,2.33,4.88,2.33,4.88,2.33l-4.03-9.55L179.02,408.14z"/>
			</g>
			<g>
				<path style="fill:#263238;stroke:#263238;stroke-linecap:round;stroke-linejoin:round;stroke-miterlimit:10;" d="M125.73,408.99
					c0,0,0,12.74,0,19.32s3.4,12.31,7.64,12.74c4.25,0.42,8.7,1.06,9.13-7.85c0.42-8.92-2.12-18.89-2.12-19.95
					C140.38,412.17,125.73,408.99,125.73,408.99z"/>
				<path style="fill:#FFFFFF;stroke:#263238;stroke-linecap:round;stroke-linejoin:round;stroke-miterlimit:10;" d="M142.5,433.19
					c0.13-2.66-0.01-5.41-0.27-7.99c-0.33,2.79-0.79,6.51-0.79,6.51s-2.34-1.91-6.16-1.49c-3.82,0.42-7.22,2.76-7.22,2.76
					l-2.34-12.92c0,2.97,0,5.98,0,8.25c0,6.58,3.4,12.31,7.64,12.74C137.62,441.47,142.08,442.1,142.5,433.19z"/>
				<path style="fill:#FFFFFF;stroke:#263238;stroke-linecap:round;stroke-linejoin:round;stroke-miterlimit:10;" d="M131.89,412.81
					c0,0,0,10.4,1.06,11.46c1.06,1.06,4.03,1.7,4.25-1.49c0.21-3.18-0.64-9.34-0.64-9.34L131.89,412.81z"/>
			</g>
			<path style="fill:#B0B0B0;stroke:#263238;stroke-linecap:round;stroke-linejoin:round;stroke-miterlimit:10;" d="M125.1,262.41
				c0,0-3.83,24.09-2.34,34.92c1.49,10.83,7.64,63.9,7.64,63.9s-4.88,29.51-5.31,33.12s1.06,5.52,1.06,6.37
				c0,0.85-2.12,2.76-2.12,4.88s0.64,5.73,0.64,5.73s4.03,4.03,9.13,4.03c5.09,0,7.01-0.64,7.85-2.12c0.85-1.49,3.4-4.88,3.61-7.22
				c0.21-2.33-0.85-3.4-0.42-5.31c0.42-1.91,0.85-2.76,1.27-5.94c0.42-3.18,0.85-9.76,0.85-9.76s8.07-28.23,8.28-31.42
				c0.21-3.18-0.85-47.13-0.85-47.13l26.32,35.24c0,0-4.88,8.92-5.09,16.13c-0.21,7.22-2.34,24.41-2.76,26.96
				c-0.42,2.55-1.49,7.43-1.49,7.43s-2.76,1.06-2.34,3.61c0.42,2.55,0.64,4.67,0.64,4.67l-2.34,6.16c0,0,6.79,0.85,11.68,1.49
				s6.37,0.64,6.37,0.64s2.34-5.09,2.76-6.79c0.42-1.7-1.7-3.82-0.85-5.52c0.85-1.7,2.12-2.76,2.12-4.25c0-1.49,0.21-7.85,0.21-7.85
				s7.43-24.41,11.04-32.9c3.61-8.49,4.46-14.65,2.97-20.59c-1.49-5.94-28.66-48.19-28.66-48.82c0-0.64,0.42-7.22,0.42-7.22
				s-28.45-3.18-37.57-4.67C128.71,268.67,125.1,262.41,125.1,262.41z"/>
			
				<line style="fill:#FFFFFF;stroke:#263238;stroke-linecap:round;stroke-linejoin:round;stroke-miterlimit:10;" x1="154.39" y1="306.46" x2="163.94" y2="297.33"/>
		</g>
		<path style="fill:#263238;stroke:#263238;stroke-linecap:round;stroke-linejoin:round;stroke-miterlimit:10;" d="M124.72,257.08
			c0,0,0,8.85,0.6,9.51c0.6,0.66,8.19,6.86,26.76,8.4c18.58,1.55,22.57,1.99,23.37-0.22c0.8-2.21,0.8-7.74,0.8-7.74
			s-22.77-3.54-34.35-6.41C130.32,257.74,124.72,257.08,124.72,257.08z"/>
		<path style="fill:#FFFFFF;stroke:#263238;stroke-linecap:round;stroke-linejoin:round;stroke-miterlimit:10;" d="M150.56,183.49
			c0,0-5.39-6.22-6.01-6.63c-0.62-0.41-11.4-27.57-11.4-27.57l-6.63-27.16c0,0-5.8-25.29-6.01-27.99
			c-0.21-2.69-1.87-12.44-1.87-12.44s3.81-12.08,3.6-14.15c-0.21-2.07-10.75,0.6-12.61,1.43c-1.87,0.83,1.54,13.96,1.54,13.96
			s-0.83,35.04-0.21,42.5c0.62,7.46,5.6,29.44,5.6,29.44s7.88,36.28,8.09,36.9c0.21,0.62,1.66,14.51,1.66,14.51l-0.21,35.66
			c0,0-2.7,17.21-0.83,19.49s17.83,6.01,31.1,7.88c13.27,1.87,18.45,3.11,20.32,1.45c1.87-1.66,2.7-5.39,2.7-10.16
			c0-4.77,5.39-35.87,3.11-46.85s-5.8-15.96-10.57-19.49c-4.77-3.52-9.66-5.54-9.66-5.54L150.56,183.49z"/>
		<g>
			<path style="fill:#8342EA;stroke:#263238;stroke-linecap:round;stroke-linejoin:round;stroke-miterlimit:10;" d="M171.91,194.27
				c-4.77-3.52-9.66-5.54-9.66-5.54l-11.69-5.24c0,0-5.39-6.22-6.01-6.63c-0.62-0.41-11.4-27.57-11.4-27.57l-6.63-27.16
				c0,0-0.62-2.69-1.45-6.4c-5.51,2.66-10.85,2.55-14.31,2c0.02,3.39,0.09,6.16,0.22,7.72c0.62,7.46,5.6,29.44,5.6,29.44
				s7.88,36.28,8.09,36.9c0.21,0.62,1.66,14.51,1.66,14.51l-0.21,35.66c0,0-2.7,17.21-0.83,19.49c1.87,2.28,17.83,6.01,31.1,7.88
				c13.27,1.87,18.45,3.11,20.32,1.45c1.87-1.66,2.7-5.39,2.7-10.16c0-4.77,5.39-35.86,3.11-46.85S176.68,197.79,171.91,194.27z"/>
			<path style="fill:none;stroke:#263238;stroke-linecap:round;stroke-linejoin:round;stroke-miterlimit:10;" d="M137.87,253.64
				c7.88-3.49,19.72-9.85,30.03-19.99"/>
			<path style="fill:none;stroke:#263238;stroke-linecap:round;stroke-linejoin:round;stroke-miterlimit:10;" d="M129.03,257.04
				c0,0,1.35-0.4,3.64-1.26"/>
			<path style="fill:none;stroke:#263238;stroke-linecap:round;stroke-linejoin:round;stroke-miterlimit:10;" d="M135.94,263.3
				c0,0,4.94-1.65,12.52-9.88"/>
		</g>
		<g>
			<g>
				<path style="fill:#FFFFFF;stroke:#263238;stroke-linecap:round;stroke-linejoin:round;stroke-miterlimit:10;" d="M116.63,63.22
					c0,0-8.62,3.31-8.81,5.07c-0.19,1.76,0.18,4.72,1.06,4.7s8.18-3.3,9.05-4.2C118.79,67.91,118.07,63.75,116.63,63.22z"/>
				<path style="fill:#FFFFFF;stroke:#263238;stroke-linecap:round;stroke-linejoin:round;stroke-miterlimit:10;" d="M114.14,64.18
					c0,0,1.26,5.13,1.96,6.02"/>
				<path style="fill:#FFFFFF;stroke:#263238;stroke-linecap:round;stroke-linejoin:round;stroke-miterlimit:10;" d="M111.67,65.35
					c0,0,0.57,4.23,1.78,5.74"/>
				<path style="fill:#FFFFFF;stroke:#263238;stroke-linecap:round;stroke-linejoin:round;stroke-miterlimit:10;" d="M109.43,66.74
					c0,0-0.41,2.72,1.39,5.91"/>
			</g>
			<path style="fill:#FFFFFF;stroke:#263238;stroke-linecap:round;stroke-linejoin:round;stroke-miterlimit:10;" d="M119.34,79.14
				c0,0,3.17-7.28,3.31-9.04c0.14-1.75-0.69-4.57-0.04-6.39c0.65-1.82-0.11-3.79-1.73-2.46c-1.62,1.32-2.29,5.57-2.34,5.97
				c-0.05,0.4-3.18,2.59-3.7,5.99c-0.51,3.4,0.58,4.8,0.58,4.8"/>
		</g>
		<g>
			<g>
				<path style="fill:#FFFFFF;stroke:#263238;stroke-linecap:round;stroke-linejoin:round;stroke-miterlimit:10;" d="M212.15,192.29
					c0,0,8.62,3.31,8.81,5.07c0.19,1.76-0.18,4.72-1.06,4.7c-0.88-0.01-8.18-3.3-9.05-4.2
					C209.99,196.97,210.71,192.81,212.15,192.29z"/>
				<path style="fill:#FFFFFF;stroke:#263238;stroke-linecap:round;stroke-linejoin:round;stroke-miterlimit:10;" d="M214.63,193.25
					c0,0-1.26,5.13-1.96,6.02"/>
				<path style="fill:#FFFFFF;stroke:#263238;stroke-linecap:round;stroke-linejoin:round;stroke-miterlimit:10;" d="M217.1,194.42
					c0,0-0.57,4.23-1.78,5.74"/>
				<path style="fill:#FFFFFF;stroke:#263238;stroke-linecap:round;stroke-linejoin:round;stroke-miterlimit:10;" d="M219.35,195.81
					c0,0,0.41,2.72-1.39,5.91"/>
			</g>
			<path style="fill:#FFFFFF;stroke:#263238;stroke-linecap:round;stroke-linejoin:round;stroke-miterlimit:10;" d="M209.44,208.21
				c0,0-3.17-7.28-3.31-9.04c-0.14-1.75,0.69-4.57,0.04-6.39c-0.65-1.82,0.11-3.79,1.73-2.46c1.62,1.32,2.29,5.57,2.34,5.97
				c0.05,0.4,3.18,2.59,3.7,5.99c0.51,3.4-0.58,4.8-0.58,4.8"/>
		</g>
		<path style="fill:#263238;stroke:#263238;stroke-linecap:round;stroke-linejoin:round;stroke-miterlimit:10;" d="M136.65,212.43
			c6.44-6.44,12.08-23.77,10.07-30.61c-0.4-1.36-0.77-2.67-1.1-3.89c-0.52-0.56-0.93-0.97-1.07-1.07
			c-0.62-0.41-11.4-27.57-11.4-27.57l-6.63-27.16c0,0-0.62-2.69-1.45-6.4c-5.51,2.66-10.85,2.55-14.31,2
			c0.02,3.39,0.09,6.16,0.22,7.72c0.62,7.46,5.6,29.44,5.6,29.44s7.88,36.28,8.09,36.9c0.21,0.62,1.66,14.51,1.66,14.51l-0.06,9.72
			C128.56,216.55,132.52,216.55,136.65,212.43z"/>
	</g>
</g>
<g id="Text">
</g>
</svg>
