<?xml version="1.0" encoding="utf-8"?>
<!-- Generator: Adobe Illustrator 25.2.0, SVG Export Plug-In . SVG Version: 6.00 Build 0)  -->
<svg version="1.1" id="Layer_1" xmlns="http://www.w3.org/2000/svg" xmlns:xlink="http://www.w3.org/1999/xlink" x="0px" y="0px"
	 viewBox="0 0 800 500" style="enable-background:new 0 0 800 500;" xml:space="preserve">
<style type="text/css">
	.st0{fill-rule:evenodd;clip-rule:evenodd;fill:#FFEFB0;}
	.st1{fill-rule:evenodd;clip-rule:evenodd;fill:#671CC9;}
	.st2{fill-rule:evenodd;clip-rule:evenodd;fill:#FFFFFF;}
	.st3{fill-rule:evenodd;clip-rule:evenodd;fill:#DB2800;}
	.st4{fill:#FFFFFF;}
	.st5{fill-rule:evenodd;clip-rule:evenodd;fill:#FC7600;}
	.st6{filter:url(#Adobe_OpacityMaskFilter);}
	.st7{fill:url(#SVGID_2_);}
	.st8{mask:url(#SVGID_1_);fill-rule:evenodd;clip-rule:evenodd;fill:#DB2800;}
	.st9{filter:url(#Adobe_OpacityMaskFilter_1_);}
	.st10{fill:url(#SVGID_4_);}
	.st11{mask:url(#SVGID_3_);fill-rule:evenodd;clip-rule:evenodd;fill:#DB2800;}
	.st12{filter:url(#Adobe_OpacityMaskFilter_2_);}
	.st13{fill:url(#SVGID_6_);}
	.st14{mask:url(#SVGID_5_);fill-rule:evenodd;clip-rule:evenodd;fill:#DB2800;}
	.st15{filter:url(#Adobe_OpacityMaskFilter_3_);}
	.st16{fill:url(#SVGID_8_);}
	.st17{mask:url(#SVGID_7_);fill-rule:evenodd;clip-rule:evenodd;fill:#DB2800;}
	.st18{fill-rule:evenodd;clip-rule:evenodd;fill:#3C219C;}
	.st19{filter:url(#Adobe_OpacityMaskFilter_4_);}
	.st20{fill:url(#SVGID_10_);}
	.st21{mask:url(#SVGID_9_);fill-rule:evenodd;clip-rule:evenodd;fill:#1D006B;}
	.st22{filter:url(#Adobe_OpacityMaskFilter_5_);}
	.st23{fill:url(#SVGID_12_);}
	.st24{mask:url(#SVGID_11_);fill-rule:evenodd;clip-rule:evenodd;fill:#1D006B;}
	.st25{filter:url(#Adobe_OpacityMaskFilter_6_);}
	.st26{fill:url(#SVGID_14_);}
	.st27{mask:url(#SVGID_13_);fill-rule:evenodd;clip-rule:evenodd;fill:#1D006B;}
	.st28{filter:url(#Adobe_OpacityMaskFilter_7_);}
	.st29{fill:url(#SVGID_16_);}
	.st30{mask:url(#SVGID_15_);fill-rule:evenodd;clip-rule:evenodd;fill:#674BCC;}
	.st31{fill:#130152;}
	.st32{fill-rule:evenodd;clip-rule:evenodd;fill:#FF9E59;}
	.st33{filter:url(#Adobe_OpacityMaskFilter_8_);}
	.st34{fill:url(#SVGID_18_);}
	.st35{mask:url(#SVGID_17_);fill-rule:evenodd;clip-rule:evenodd;fill:#FF560D;}
	.st36{filter:url(#Adobe_OpacityMaskFilter_9_);}
	.st37{fill:url(#SVGID_20_);}
	.st38{mask:url(#SVGID_19_);fill-rule:evenodd;clip-rule:evenodd;fill:#C71100;}
	.st39{fill-rule:evenodd;clip-rule:evenodd;fill:#FFA869;}
	.st40{filter:url(#Adobe_OpacityMaskFilter_10_);}
	.st41{fill:url(#SVGID_22_);}
	.st42{mask:url(#SVGID_21_);fill-rule:evenodd;clip-rule:evenodd;fill:#FFD8A1;}
	.st43{filter:url(#Adobe_OpacityMaskFilter_11_);}
	.st44{fill:url(#SVGID_24_);}
	.st45{mask:url(#SVGID_23_);fill-rule:evenodd;clip-rule:evenodd;fill:#FF560D;}
	.st46{filter:url(#Adobe_OpacityMaskFilter_12_);}
	.st47{fill:url(#SVGID_26_);}
	.st48{mask:url(#SVGID_25_);fill-rule:evenodd;clip-rule:evenodd;fill:#C71100;}
	.st49{fill-rule:evenodd;clip-rule:evenodd;fill:#591010;}
	.st50{fill:#591010;}
	.st51{fill-rule:evenodd;clip-rule:evenodd;}
	.st52{fill:#C71100;}
	.st53{filter:url(#Adobe_OpacityMaskFilter_13_);}
	.st54{fill:url(#SVGID_28_);}
	.st55{mask:url(#SVGID_27_);fill-rule:evenodd;clip-rule:evenodd;fill:#330101;}
	.st56{fill-rule:evenodd;clip-rule:evenodd;fill:#FF560D;}
	.st57{fill-rule:evenodd;clip-rule:evenodd;fill:#C71100;}
	.st58{filter:url(#Adobe_OpacityMaskFilter_14_);}
	.st59{fill:url(#SVGID_30_);}
	.st60{mask:url(#SVGID_29_);fill-rule:evenodd;clip-rule:evenodd;fill:#992E22;}
	.st61{filter:url(#Adobe_OpacityMaskFilter_15_);}
	.st62{fill:url(#SVGID_32_);}
	.st63{mask:url(#SVGID_31_);fill-rule:evenodd;clip-rule:evenodd;fill:#674BCC;}
	.st64{filter:url(#Adobe_OpacityMaskFilter_16_);}
	.st65{fill:url(#SVGID_34_);}
	.st66{mask:url(#SVGID_33_);fill-rule:evenodd;clip-rule:evenodd;fill:#130152;}
	.st67{filter:url(#Adobe_OpacityMaskFilter_17_);}
	.st68{fill:url(#SVGID_36_);}
	.st69{mask:url(#SVGID_35_);fill-rule:evenodd;clip-rule:evenodd;fill:#FF5B24;}
	.st70{fill:#F72900;}
	.st71{filter:url(#Adobe_OpacityMaskFilter_18_);}
	.st72{fill:url(#SVGID_38_);}
	.st73{mask:url(#SVGID_37_);fill-rule:evenodd;clip-rule:evenodd;fill:#FF5B24;}
</style>
<rect y="0.5" class="st0" width="800" height="500"/>
<rect y="0.5" class="st1" width="800" height="500"/>
<path class="st2" d="M676.7,153.4c0-0.4-0.3-0.8-0.8-0.8c-0.4,0-0.8,0.3-0.8,0.8c0,0.4,0.3,0.8,0.8,0.8
	C676.4,154.2,676.7,153.8,676.7,153.4z"/>
<path class="st2" d="M685.1,136c0-0.8-0.7-1.5-1.5-1.5c-0.8,0-1.5,0.7-1.5,1.5c0,0.8,0.7,1.5,1.5,1.5
	C684.5,137.6,685.1,136.9,685.1,136z"/>
<circle class="st2" cx="632.9" cy="143" r="2.3"/>
<path class="st3" d="M229.2,311C229.2,311,229.3,311,229.2,311C229.2,310.3,229,309.4,229.2,311z"/>
<path class="st3" d="M173.6,182.5c-25.7-26.3-47.7,17.8-2.8,40.1c-31.8-9.9-34.6,31.7,15,42.2c-35.8,0.6-0.4,58.5,43.7,46.7
	c0,0,0-0.2-0.1-0.5c0,0,0,0-0.1,0.1c-0.2-1.6,0-0.7,0.1-0.1c25-19.1,20.2-57.6-7.8-46.9c36.7-17.5,32.4-56.6,2.8-46.9
	c40.1-29.2,7.3-63.8-16.3-36.4C245,109,142.9,102.7,173.6,182.5z"/>
<path class="st4" d="M229.3,185.4c0.4-0.8,0-1.8-0.8-2.2c-0.8-0.4-1.8,0-2.2,0.8c-3.3,7-8.2,13.1-14.2,17.7
	c-5.5,4.3-11.9,7.4-18.9,9.1c-2.6-23.4-2.9-49.1-0.9-77.2c0.1-0.9-0.6-1.7-1.5-1.7c-0.9-0.1-1.7,0.6-1.7,1.5
	c-2,28.1-1.7,53.9,0.8,77.3c-6.3-1.5-12.1-4.3-17.2-8.1c-5.6-4.2-10.4-9.7-13.7-16.1c-0.4-0.8-1.4-1.1-2.2-0.7
	c-0.8,0.4-1.1,1.4-0.7,2.2c3.6,6.9,8.6,12.7,14.6,17.2c5.7,4.3,12.4,7.3,19.5,8.9c1.4,12.1,3.5,23.7,6.2,34.5
	c-6.6-0.4-13.1-2-19.1-4.6c-6.7-2.9-12.9-7.1-18.1-12.5c-0.6-0.6-1.7-0.7-2.3,0c-0.6,0.6-0.7,1.7,0,2.3c5.5,5.7,12,10.1,19.1,13.2
	c6.7,2.9,13.9,4.6,21.3,4.9c3.3,12.7,7.5,24.5,12.5,35.4c-5-0.7-9.9-2-14.5-3.8c-5.6-2.2-10.9-5.2-15.7-8.8
	c-0.7-0.5-1.7-0.4-2.3,0.3c-0.5,0.7-0.4,1.7,0.3,2.3c5.1,3.9,10.6,7,16.5,9.3c5.6,2.2,11.4,3.6,17.4,4.3c6.4,13,14,24.8,22.9,35.2
	c0.6,0.7,1.6,0.8,2.3,0.2c0.7-0.6,0.8-1.6,0.2-2.3c-8.5-9.9-15.8-21.1-21.9-33.5c5-1.4,9.6-3.8,13.6-6.8c4.6-3.4,8.4-7.8,11.3-12.9
	c0.4-0.8,0.2-1.8-0.6-2.2c-0.8-0.4-1.8-0.2-2.2,0.6c-2.6,4.7-6.2,8.7-10.4,11.9c-3.9,2.9-8.3,5.1-13.1,6.5
	c-5.2-11-9.5-22.9-12.9-35.8c7.4-1.6,14.4-4.6,20.7-8.6c6.7-4.3,12.7-9.8,17.6-16.3c0.5-0.7,0.4-1.8-0.3-2.3
	c-0.7-0.5-1.8-0.4-2.3,0.3c-4.6,6.2-10.3,11.4-16.7,15.5c-6,3.8-12.7,6.6-19.8,8.1c-2.7-10.8-4.8-22.3-6.3-34.5
	c7.6-1.8,14.5-5.2,20.5-9.8C220.5,199.4,225.7,192.9,229.3,185.4z"/>
<path class="st5" d="M180.1,405.7C179.9,404.9,179.7,403.9,180.1,405.7C180,405.8,180,405.8,180.1,405.7z"/>
<path class="st5" d="M174.1,293.6c47.9-34.9,8.7-76.3-19.5-43.5c44.2-85.8-77.8-93.4-41.2,2c-30.8-31.5-57,21.3-3.4,47.9
	c-38-11.9-41.4,38,17.9,50.5c-42.8,0.7-0.5,69.9,52.2,55.9c0,0,0-0.3-0.1-0.6c0,0-0.1,0-0.1,0.1c-0.3-2-0.1-0.9,0.1-0.1
	c29.9-22.8,24.2-68.9-9.4-56.1C214.6,328.7,209.5,282,174.1,293.6z"/>
<defs>
	<filter id="Adobe_OpacityMaskFilter" filterUnits="userSpaceOnUse" x="179.9" y="404.7" width="0.2" height="1.1">
		<feColorMatrix  type="matrix" values="1 0 0 0 0  0 1 0 0 0  0 0 1 0 0  0 0 0 1 0"/>
	</filter>
</defs>
<mask maskUnits="userSpaceOnUse" x="179.9" y="404.7" width="0.2" height="1.1" id="SVGID_1_">
	<g class="st6">
		
			<linearGradient id="SVGID_2_" gradientUnits="userSpaceOnUse" x1="-145.7332" y1="382.5536" x2="-93.8474" y2="552.5978" gradientTransform="matrix(1 0 0 1 268.1294 -186.0741)">
			<stop  offset="0" style="stop-color:#000000"/>
			<stop  offset="1" style="stop-color:#FFFFFF"/>
		</linearGradient>
		<rect x="110.4" y="206.5" class="st7" width="91.7" height="201.8"/>
	</g>
</mask>
<path class="st8" d="M180.1,405.7C179.9,404.9,179.7,403.9,180.1,405.7C180,405.8,180,405.8,180.1,405.7z"/>
<defs>
	<filter id="Adobe_OpacityMaskFilter_1_" filterUnits="userSpaceOnUse" x="110.4" y="206.5" width="91.7" height="201.8">
		<feColorMatrix  type="matrix" values="1 0 0 0 0  0 1 0 0 0  0 0 1 0 0  0 0 0 1 0"/>
	</filter>
</defs>
<mask maskUnits="userSpaceOnUse" x="110.4" y="206.5" width="91.7" height="201.8" id="SVGID_3_">
	<g class="st9">
		
			<linearGradient id="SVGID_4_" gradientUnits="userSpaceOnUse" x1="-145.7332" y1="382.5536" x2="-93.8474" y2="552.5978" gradientTransform="matrix(1 0 0 1 268.1294 -186.0741)">
			<stop  offset="0" style="stop-color:#000000"/>
			<stop  offset="1" style="stop-color:#FFFFFF"/>
		</linearGradient>
		<rect x="110.4" y="206.5" class="st10" width="91.7" height="201.8"/>
	</g>
</mask>
<path class="st11" d="M174.1,293.6c47.9-34.9,8.7-76.3-19.5-43.5c9-17.5,11.1-31.7,9.1-42.5l-3.3-1.1L115,346.9
	c3.9,1.4,8.2,2.6,12.9,3.6c-42.8,0.7-0.5,69.9,52.2,55.9c0,0,0-0.3-0.1-0.6c0,0-0.1,0-0.1,0.1c-0.3-2-0.1-0.9,0.1-0.1
	c29.9-22.8,24.2-68.9-9.4-56.1C214.6,328.7,209.5,282,174.1,293.6z"/>
<path class="st4" d="M200,357.7c0.5-0.9,0.2-2.1-0.8-2.7c-0.9-0.5-2.1-0.2-2.7,0.8c-3.2,5.6-7.4,10.4-12.4,14.2
	c-4.6,3.5-10,6.1-15.7,7.7c-6.2-13.1-11.4-27.4-15.4-42.8c8.8-2,17.2-5.5,24.8-10.2c8.1-5.1,15.2-11.7,21-19.5
	c0.6-0.9,0.5-2.1-0.4-2.7c-0.9-0.6-2.1-0.5-2.7,0.4c-5.5,7.4-12.3,13.7-19.9,18.5c-7.2,4.6-15.2,7.9-23.7,9.7
	c-3.2-13-5.7-26.7-7.5-41.2c9-2.1,17.4-6.2,24.5-11.8c7.6-6,13.9-13.7,18.1-22.6c0.5-1,0.1-2.1-0.9-2.6c-1-0.5-2.1-0.1-2.6,0.9
	c-4,8.4-9.9,15.6-17,21.2c-6.6,5.1-14.2,8.9-22.5,10.9c-3.1-27.9-3.4-58.7-1-92.3c0.1-1.1-0.7-2-1.8-2.1c-1.1-0.1-2,0.7-2.1,1.8
	c-2.4,33.6-2.1,64.4,1,92.5c-7.5-1.8-14.5-5.1-20.6-9.7c-6.8-5-12.4-11.6-16.4-19.3c-0.5-1-1.7-1.3-2.6-0.8c-1,0.5-1.3,1.7-0.8,2.6
	c4.3,8.2,10.3,15.2,17.5,20.6c6.9,5.1,14.8,8.8,23.4,10.6c1.7,14.5,4.2,28.3,7.4,41.3c-7.9-0.5-15.7-2.3-22.9-5.5
	c-8-3.5-15.4-8.5-21.6-14.9c-0.8-0.8-2-0.8-2.8,0c-0.8,0.8-0.8,2,0,2.8c6.6,6.8,14.3,12.1,22.8,15.8c8,3.5,16.6,5.5,25.5,5.8
	c4,15.1,9,29.2,15,42.3c-6-0.9-11.8-2.4-17.4-4.6c-6.7-2.6-13-6.2-18.8-10.6c-0.9-0.7-2.1-0.5-2.7,0.4c-0.7,0.9-0.5,2.1,0.4,2.7
	c6.1,4.6,12.7,8.4,19.7,11.1c6.6,2.6,13.6,4.3,20.8,5.1c7.6,15.6,16.7,29.6,27.4,42.1c0.7,0.8,1.9,0.9,2.8,0.2
	c0.8-0.7,0.9-1.9,0.2-2.8c-10.2-11.9-18.9-25.2-26.2-40.1c5.9-1.7,11.5-4.5,16.3-8.2C192,369.1,196.6,363.8,200,357.7z"/>
<path class="st3" d="M398.1,311C398.1,311,398.1,311,398.1,311C398.3,309.4,398.2,310.3,398.1,311z"/>
<path class="st3" d="M405.9,264.1c-28-10.7-32.8,27.8-7.8,46.9c0.1-0.7,0.3-1.6,0.1,0.1c0,0,0,0-0.1-0.1c0,0.3-0.1,0.5-0.1,0.5
	c44.1,11.8,79.5-46.2,43.7-46.7c49.6-10.5,46.8-52.1,15-42.2c44.8-22.3,22.9-66.4-2.8-40.1c30.7-79.8-71.4-73.5-34.4-1.7
	c-23.5-27.5-56.3,7.2-16.3,36.4C373.5,207.5,369.2,246.5,405.9,264.1z"/>
<path class="st4" d="M400.6,281.1c-4.2-3.2-7.8-7.2-10.4-11.9c-0.4-0.8-1.4-1.1-2.2-0.6c-0.8,0.4-1.1,1.4-0.6,2.2
	c2.9,5.1,6.7,9.5,11.3,12.9c4.1,3.1,8.7,5.4,13.6,6.8c-6.1,12.4-13.4,23.5-21.9,33.5c-0.6,0.7-0.5,1.7,0.2,2.3
	c0.7,0.6,1.7,0.5,2.3-0.2c8.9-10.4,16.5-22.2,22.9-35.2c6-0.7,11.8-2.1,17.4-4.3c5.9-2.3,11.4-5.4,16.5-9.3c0.7-0.5,0.9-1.6,0.3-2.3
	c-0.5-0.7-1.6-0.9-2.3-0.3c-4.8,3.7-10.1,6.6-15.7,8.8c-4.7,1.8-9.5,3.1-14.5,3.8c5-10.9,9.2-22.7,12.5-35.4
	c7.4-0.3,14.6-2,21.3-4.9c7.1-3.1,13.6-7.6,19.1-13.2c0.6-0.6,0.6-1.7,0-2.3c-0.6-0.6-1.7-0.6-2.3,0c-5.2,5.4-11.3,9.6-18.1,12.5
	c-6,2.6-12.5,4.2-19.1,4.6c2.7-10.9,4.8-22.4,6.2-34.5c7.2-1.5,13.8-4.6,19.5-8.9c6-4.5,11.1-10.4,14.6-17.2
	c0.4-0.8,0.1-1.8-0.7-2.2c-0.8-0.4-1.8-0.1-2.2,0.7c-3.3,6.4-8,11.9-13.7,16.1c-5.1,3.8-10.9,6.6-17.2,8.1
	c2.5-23.5,2.8-49.2,0.8-77.3c-0.1-0.9-0.8-1.6-1.7-1.5c-0.9,0.1-1.6,0.8-1.5,1.7c2,28.1,1.7,53.8-0.9,77.2
	c-6.9-1.7-13.4-4.8-18.9-9.1c-6-4.7-10.9-10.7-14.2-17.7c-0.4-0.8-1.4-1.2-2.2-0.8c-0.8,0.4-1.2,1.4-0.8,2.2
	c3.6,7.5,8.8,13.9,15.2,18.9c6,4.7,12.9,8.1,20.5,9.8c-1.5,12.1-3.5,23.6-6.3,34.5c-7.1-1.6-13.8-4.3-19.8-8.1
	c-6.4-4.1-12.1-9.3-16.7-15.5c-0.5-0.7-1.6-0.9-2.3-0.3c-0.7,0.5-0.9,1.6-0.3,2.3c4.8,6.5,10.8,12,17.6,16.3
	c6.3,4,13.3,6.9,20.7,8.6c-3.4,12.8-7.7,24.8-12.9,35.8C408.9,286.3,404.5,284.1,400.6,281.1z"/>
<path class="st5" d="M447.3,405.7C447.3,405.8,447.3,405.8,447.3,405.7C447.6,403.9,447.4,404.9,447.3,405.7z"/>
<path class="st5" d="M456.6,349.6c-33.5-12.8-39.3,33.3-9.4,56.1c0.1-0.8,0.3-1.9,0.1,0.1c0,0-0.1,0-0.1-0.1
	c-0.1,0.3-0.1,0.6-0.1,0.6c52.7,14.1,95-55.2,52.2-55.9c59.3-12.5,55.9-62.3,17.9-50.5c53.6-26.7,27.4-79.4-3.4-47.9
	c36.7-95.4-85.4-87.9-41.2-2c-28.2-32.8-67.4,8.6-19.5,43.5C417.9,282,412.8,328.7,456.6,349.6z"/>
<defs>
	<filter id="Adobe_OpacityMaskFilter_2_" filterUnits="userSpaceOnUse" x="425.2" y="206.5" width="91.7" height="201.8">
		<feColorMatrix  type="matrix" values="1 0 0 0 0  0 1 0 0 0  0 0 1 0 0  0 0 0 1 0"/>
	</filter>
</defs>
<mask maskUnits="userSpaceOnUse" x="425.2" y="206.5" width="91.7" height="201.8" id="SVGID_5_">
	<g class="st12">
		
			<linearGradient id="SVGID_6_" gradientUnits="userSpaceOnUse" x1="-61.2689" y1="382.5536" x2="-113.1547" y2="552.5979" gradientTransform="matrix(1 0 0 1 566.2009 -186.0741)">
			<stop  offset="0" style="stop-color:#000000"/>
			<stop  offset="1" style="stop-color:#FFFFFF"/>
		</linearGradient>
		<rect x="425.2" y="206.5" class="st13" width="91.7" height="201.8"/>
	</g>
</mask>
<path class="st14" d="M456.6,349.6c-33.5-12.8-39.3,33.3-9.4,56.1c0.1-0.8,0.3-1.9,0.1,0.1c0,0-0.1,0-0.1-0.1
	c-0.1,0.3-0.1,0.6-0.1,0.6c52.7,14.1,95-55.2,52.2-55.9c4.7-1,9-2.2,12.9-3.6L467,206.5l-3.3,1.1c-2,10.8,0.1,25,9.1,42.5
	c-28.2-32.8-67.4,8.6-19.5,43.5C417.9,282,412.8,328.7,456.6,349.6z"/>
<defs>
	<filter id="Adobe_OpacityMaskFilter_3_" filterUnits="userSpaceOnUse" x="447.3" y="404.7" width="0.2" height="1.1">
		<feColorMatrix  type="matrix" values="1 0 0 0 0  0 1 0 0 0  0 0 1 0 0  0 0 0 1 0"/>
	</filter>
</defs>
<mask maskUnits="userSpaceOnUse" x="447.3" y="404.7" width="0.2" height="1.1" id="SVGID_7_">
	<g class="st15">
		
			<linearGradient id="SVGID_8_" gradientUnits="userSpaceOnUse" x1="-61.2689" y1="382.5536" x2="-113.1547" y2="552.5979" gradientTransform="matrix(1 0 0 1 566.2009 -186.0741)">
			<stop  offset="0" style="stop-color:#000000"/>
			<stop  offset="1" style="stop-color:#FFFFFF"/>
		</linearGradient>
		<rect x="425.2" y="206.5" class="st16" width="91.7" height="201.8"/>
	</g>
</mask>
<path class="st17" d="M447.3,405.7C447.3,405.8,447.3,405.8,447.3,405.7C447.6,403.9,447.4,404.9,447.3,405.7z"/>
<path class="st4" d="M443.2,370c-5-3.8-9.3-8.6-12.4-14.2c-0.5-0.9-1.7-1.3-2.7-0.8c-0.9,0.5-1.3,1.7-0.8,2.7
	c3.4,6.1,8,11.3,13.5,15.5c4.9,3.7,10.4,6.5,16.3,8.2c-7.3,14.8-16.1,28.2-26.2,40.1c-0.7,0.8-0.6,2.1,0.2,2.8
	c0.8,0.7,2.1,0.6,2.8-0.2c10.6-12.5,19.8-26.5,27.4-42.1c7.2-0.8,14.2-2.5,20.8-5.1c7-2.7,13.7-6.5,19.7-11.1c0.9-0.7,1-1.9,0.4-2.7
	c-0.7-0.9-1.9-1-2.7-0.4c-5.8,4.4-12.1,7.9-18.8,10.6c-5.6,2.2-11.4,3.7-17.4,4.6c6-13,11-27.1,15-42.3c8.9-0.4,17.5-2.4,25.5-5.8
	c8.5-3.7,16.3-9,22.8-15.8c0.8-0.8,0.7-2,0-2.8c-0.8-0.8-2-0.7-2.8,0c-6.2,6.4-13.6,11.5-21.6,14.9c-7.2,3.1-14.9,5-22.9,5.5
	c3.2-13,5.7-26.8,7.4-41.3c8.6-1.9,16.5-5.5,23.4-10.6c7.2-5.4,13.2-12.4,17.5-20.6c0.5-1,0.1-2.1-0.8-2.6c-1-0.5-2.1-0.1-2.6,0.8
	c-4,7.7-9.6,14.2-16.4,19.3c-6.1,4.5-13.1,7.8-20.6,9.7c3-28,3.4-58.9,1-92.5c-0.1-1.1-1-1.9-2.1-1.8c-1.1,0.1-1.9,1-1.8,2.1
	c2.4,33.6,2,64.3-1,92.3c-8.3-2-16-5.8-22.5-10.9c-7.1-5.6-13-12.8-17-21.2c-0.5-1-1.6-1.4-2.6-0.9c-1,0.5-1.4,1.6-0.9,2.6
	c4.3,9,10.5,16.7,18.1,22.6c7.1,5.6,15.5,9.6,24.5,11.8c-1.7,14.5-4.2,28.3-7.5,41.2c-8.5-1.9-16.4-5.2-23.7-9.7
	c-7.7-4.9-14.4-11.1-19.9-18.5c-0.6-0.9-1.9-1.1-2.7-0.4c-0.9,0.6-1.1,1.9-0.4,2.7c5.8,7.8,12.9,14.4,21,19.5
	c7.6,4.8,15.9,8.3,24.8,10.2c-4.1,15.4-9.2,29.6-15.4,42.8C453.1,376.2,447.8,373.6,443.2,370z"/>
<path class="st18" d="M481.8,355.9c0,0-7.2-26.2-21.5-78.6c-0.7-10.5-3-19.5-6.7-27c-13.7-27.6-69.8-38-93.1-42.1L251,212.1
	c-21.2,5.3-55.4,15.6-70.1,32c-8.4,9.4-12.2,21.5-16.6,41c-7.5,33.2-12.2,76.8-15.3,97.2c-4.2,23,16.7,50.4,39.3,53.9
	c14.9,2.3,29.5-5.4,38.1-21.6v0c0,62.2,0,93.4,0,93.4c7.5,3,15.2,5.5,23,7.7l0,0c56.6,15.9,117.3,11.4,171.2-13.2c0,0,0-2.7-0.1-8
	c0,0-0.4-26.6-1.3-79.8C467.8,451.3,497.6,404,481.8,355.9z"/>
<defs>
	<filter id="Adobe_OpacityMaskFilter_4_" filterUnits="userSpaceOnUse" x="222.5" y="215.3" width="128.6" height="305.4">
		<feColorMatrix  type="matrix" values="1 0 0 0 0  0 1 0 0 0  0 0 1 0 0  0 0 0 1 0"/>
	</filter>
</defs>
<mask maskUnits="userSpaceOnUse" x="222.5" y="215.3" width="128.6" height="305.4" id="SVGID_9_">
	<g class="st19">
		
			<linearGradient id="SVGID_10_" gradientUnits="userSpaceOnUse" x1="10.1716" y1="306.4876" x2="-148.697" y2="536.1922" gradientTransform="matrix(1 0 0 1 374.2747 -79.6385)">
			<stop  offset="0" style="stop-color:#000000"/>
			<stop  offset="1" style="stop-color:#FFFFFF"/>
		</linearGradient>
		<rect x="222.5" y="215.3" class="st20" width="128.7" height="305.4"/>
	</g>
</mask>
<path class="st21" d="M232.5,325c0,0,0.4,61.9,1.1,185.7c12.1,4.3,24.5,7.7,37.2,10c47.2-10.3,80.9-52.5,80.4-86.9
	c-0.6-38.2-30.2-63.7-44.6-84.4c-18.2-26.2-31-49.3,3.7-97.6c-25.2-13.2-43-25.4-53.5-36.5c-24.7,5.9-34.7,14.2-29.9,24.8
	c-2.6,28.3-4.1,43.5-4.3,45.4C229.2,311.8,232.5,325,232.5,325z"/>
<defs>
	<filter id="Adobe_OpacityMaskFilter_5_" filterUnits="userSpaceOnUse" x="222.5" y="285.4" width="0" height="0.3">
		<feColorMatrix  type="matrix" values="1 0 0 0 0  0 1 0 0 0  0 0 1 0 0  0 0 0 1 0"/>
	</filter>
</defs>
<mask maskUnits="userSpaceOnUse" x="222.5" y="285.4" width="0" height="0.3" id="SVGID_11_">
	<g class="st22">
		
			<linearGradient id="SVGID_12_" gradientUnits="userSpaceOnUse" x1="10.1716" y1="306.4876" x2="-148.697" y2="536.1922" gradientTransform="matrix(1 0 0 1 374.2747 -79.6385)">
			<stop  offset="0" style="stop-color:#000000"/>
			<stop  offset="1" style="stop-color:#FFFFFF"/>
		</linearGradient>
		<rect x="222.5" y="215.3" class="st23" width="128.7" height="305.4"/>
	</g>
</mask>
<path class="st24" d="M222.5,285.4C222.5,285.8,222.5,285.8,222.5,285.4C222.5,285.5,222.5,285.5,222.5,285.4z"/>
<defs>
	<filter id="Adobe_OpacityMaskFilter_6_" filterUnits="userSpaceOnUse" x="158.5" y="319.8" width="52.6" height="105.3">
		<feColorMatrix  type="matrix" values="1 0 0 0 0  0 1 0 0 0  0 0 1 0 0  0 0 0 1 0"/>
	</filter>
</defs>
<mask maskUnits="userSpaceOnUse" x="158.5" y="319.8" width="52.6" height="105.3" id="SVGID_13_">
	<g class="st25">
		
			<linearGradient id="SVGID_14_" gradientUnits="userSpaceOnUse" x1="-68.1764" y1="610.7695" x2="-142.7305" y2="527.0466" gradientTransform="matrix(1 0 0 1 313.655 -170.1374)">
			<stop  offset="0" style="stop-color:#000000"/>
			<stop  offset="1" style="stop-color:#FFFFFF"/>
		</linearGradient>
		<rect x="158.5" y="319.8" class="st26" width="52.6" height="105.3"/>
	</g>
</mask>
<path class="st27" d="M207.2,340.5c-6.9-13.3-13.7-20.3-20.3-20.7c-21.3,44.4-30.6,71.5-27.9,81.3c0.9,11.4,9.1,21,20.4,23.4
	c11.2,2.4,22.7-2.8,28.2-12.9c13.3-24.3-14.4-30-12.1-51.9C196.1,351.9,200.5,344.8,207.2,340.5z"/>
<defs>
	<filter id="Adobe_OpacityMaskFilter_7_" filterUnits="userSpaceOnUse" x="333.7" y="208.4" width="147.2" height="144.5">
		<feColorMatrix  type="matrix" values="1 0 0 0 0  0 1 0 0 0  0 0 1 0 0  0 0 0 1 0"/>
	</filter>
</defs>
<mask maskUnits="userSpaceOnUse" x="333.7" y="208.4" width="147.2" height="144.5" id="SVGID_15_">
	<g class="st28">
		
			<linearGradient id="SVGID_16_" gradientUnits="userSpaceOnUse" x1="-254.7753" y1="561.6761" x2="-0.3743" y2="502.3645" gradientTransform="matrix(1 0 0 1 479.5795 -238.498)">
			<stop  offset="0" style="stop-color:#000000"/>
			<stop  offset="1" style="stop-color:#FFFFFF"/>
		</linearGradient>
		<rect x="333.7" y="208.4" class="st29" width="147.2" height="144.5"/>
	</g>
</mask>
<path class="st30" d="M448.3,337.3c7.7,10.2,19.9,16,32.6,15.6c-6.6-24.1-13.5-49.3-20.7-75.5c-1.1-17.9-6.7-31-16.7-39.3
	c-7.2-6-15.8-10.9-25.6-14.7c-7-2.9-16.7-6-29.1-9.2c-9.4-2.3-18.8-4.2-28.4-5.8c0,14.9-8.9,28.4-26.8,40.6
	c14.6-6.9,32-1.6,40.3,12.1c8.3,13.8,4.9,31.6-8,41.3c28.1-1.6,42.1-2.4,42.1-2.4s0.3-13.3,0.8-40c10.1,0.8,19.3,5.7,25.6,13.6
	C453,296.9,429.5,312.6,448.3,337.3z"/>
<path class="st31" d="M330,483.9c27.1-8.4,49.3-25.9,63.8-48.3c6-9.2,10.7-19.3,13.8-29.9c-1-0.6-1.9-1.3-2.8-2.2
	c-3.1,10.8-7.8,21-13.8,30.3c-14.1,21.8-35.7,38.8-62,47c-0.9,0.3-1.4,1.2-1.1,2C328.2,483.7,329.1,484.2,330,483.9z"/>
<path class="st31" d="M302.5,410.4c12,6.2,25.2,9.5,38.4,9.9c13.2,0.4,26.5-2.1,38.9-7.6c0.8-0.4,1.2-1.3,0.8-2.2
	c-0.4-0.8-1.3-1.2-2.2-0.8c-11.9,5.3-24.8,7.7-37.5,7.3c-12.7-0.4-25.4-3.6-37-9.5c-11.6-6-21.6-14.4-29.3-24.5
	c-7.7-10.1-13.2-21.9-15.9-34.7c-0.2-0.9-1.1-1.5-1.9-1.3c-0.9,0.2-1.5,1.1-1.3,1.9c2.8,13.3,8.5,25.5,16.5,36
	C280.2,395.5,290.5,404.2,302.5,410.4z"/>
<path class="st31" d="M352.9,495.4c19.4-5.6,37.1-17.3,50.1-34.1c0.6-0.7,0.4-1.7-0.3-2.3c-0.7-0.6-1.7-0.4-2.3,0.3
	c-12.5,16.3-29.6,27.5-48.4,33c-18.8,5.4-39.2,5-58.5-2.1c-0.9-0.3-1.8,0.1-2.1,1c-0.3,0.9,0.1,1.8,1,2.1
	C312.3,500.6,333.4,501,352.9,495.4z"/>
<path class="st2" d="M360.5,208.4c-2.7-1.1-5.5-2.1-8.3-3.1c-6.2-2.1-11.6-6-16.6-10.1c-12.4,9.7-28,15.5-45,15.5
	c-9.3,0-18.1-1.7-26.3-4.9c-0.8,0.5-1.7,0.4-2.4,0.8c-3.5,1.9-7.5,3.7-10.8,5.4c10.5,25.5,38.5,44.3,66,43.9
	C345.2,255.6,363.9,235,360.5,208.4z"/>
<path class="st32" d="M352.1,205.3c-9.9-5.5-14.9-8.2-14.9-8.2c-22.8-41.8-42.3-59.6-58.6-53.3c0,0-1.1,18.6-3.4,55.9
	c0,0-4.5,2.3-13.4,7c7.7,22.1,31.5,38.8,54.9,38.4C340,244.8,355.4,227.5,352.1,205.3z"/>
<defs>
	<filter id="Adobe_OpacityMaskFilter_8_" filterUnits="userSpaceOnUse" x="283.7" y="175.9" width="68.9" height="69.3">
		<feColorMatrix  type="matrix" values="1 0 0 0 0  0 1 0 0 0  0 0 1 0 0  0 0 0 1 0"/>
	</filter>
</defs>
<mask maskUnits="userSpaceOnUse" x="283.7" y="175.9" width="68.9" height="69.3" id="SVGID_17_">
	<g class="st33">
		
			<linearGradient id="SVGID_18_" gradientUnits="userSpaceOnUse" x1="-73.0542" y1="610.5417" x2="-126.0174" y2="533.6426" gradientTransform="matrix(1 0 0 1 432.1933 -340.4693)">
			<stop  offset="0" style="stop-color:#000000"/>
			<stop  offset="1" style="stop-color:#FFFFFF"/>
		</linearGradient>
		<rect x="283.7" y="175.9" class="st34" width="68.9" height="69.3"/>
	</g>
</mask>
<path class="st35" d="M328.8,243.2c5.8-1.8,11.1-5,15.3-9.5c4.7-5.1,7.5-11.6,8.2-18.5c0.4-3.3,0.3-6.6-0.2-9.9
	c-5.9-3.2-8.8-4.9-8.8-4.9c-39.8-16.4-59.6-24.6-59.6-24.6c16.8,46.3,24.9,69.2,24.1,68.6C314.8,245.7,322,245.3,328.8,243.2z"/>
<defs>
	<filter id="Adobe_OpacityMaskFilter_9_" filterUnits="userSpaceOnUse" x="285.4" y="180" width="67.1" height="42.4">
		<feColorMatrix  type="matrix" values="1 0 0 0 0  0 1 0 0 0  0 0 1 0 0  0 0 0 1 0"/>
	</filter>
</defs>
<mask maskUnits="userSpaceOnUse" x="285.4" y="180" width="67.1" height="42.4" id="SVGID_19_">
	<g class="st36">
		
			<linearGradient id="SVGID_20_" gradientUnits="userSpaceOnUse" x1="-67.8302" y1="605.1957" x2="-128.5362" y2="551.0599" gradientTransform="matrix(1 0 0 1 433.8125 -362.0588)">
			<stop  offset="0" style="stop-color:#000000"/>
			<stop  offset="1" style="stop-color:#FFFFFF"/>
		</linearGradient>
		<rect x="285.4" y="180" class="st37" width="67.1" height="42.4"/>
	</g>
</mask>
<path class="st38" d="M352.5,208.2c0-0.7-0.2-1.7-0.3-2.8c-5.9-3.2-8.8-4.9-8.8-4.9c-33-12.5-52.4-19.4-57.9-20.5
	C307.2,225,338.7,233.8,352.5,208.2z"/>
<path class="st39" d="M368.2,139.7c0.4-16.9-8.8-32.6-23.9-40.3c-15-7.7-33.2-6.2-46.7,4c-13.5,10.2-19.9,27.2-16.6,43.8
	c-1.5,9.8-0.9,17.5,1.1,24.2c5.2,17.8,21.6,40.5,42,40.7c8.1,0.1,15.5-3.8,19.3-12.1c5.4-7.1,15.2-18,19.4-28.4
	c4.3-10.6-1-13.6,4.6-26.2C368.2,143.7,368.5,141.7,368.2,139.7z"/>
<defs>
	<filter id="Adobe_OpacityMaskFilter_10_" filterUnits="userSpaceOnUse" x="311.8" y="94.6" width="56.6" height="116.3">
		<feColorMatrix  type="matrix" values="1 0 0 0 0  0 1 0 0 0  0 0 1 0 0  0 0 0 1 0"/>
	</filter>
</defs>
<mask maskUnits="userSpaceOnUse" x="311.8" y="94.6" width="56.6" height="116.3" id="SVGID_21_">
	<g class="st40">
		
			<linearGradient id="SVGID_22_" gradientUnits="userSpaceOnUse" x1="-146.9973" y1="526.6125" x2="-86.1857" y2="524.6161" gradientTransform="matrix(1 0 0 1 458.7831 -372.977)">
			<stop  offset="0" style="stop-color:#000000"/>
			<stop  offset="1" style="stop-color:#FFFFFF"/>
		</linearGradient>
		<rect x="311.8" y="94.6" class="st41" width="56.6" height="116.3"/>
	</g>
</mask>
<path class="st42" d="M368.2,139.7c0.4-16.9-8.8-32.6-23.9-40.3c-10.2-5.3-21.9-6.2-32.6-3.1c23.6,12.1,39.8,36.7,39.8,65.1
	c0,19-7.3,36.4-19.2,49.4c4.7-1.8,8.7-5.3,11.2-10.7c5.4-7.1,15.2-18,19.4-28.4c4.3-10.6-1-13.6,4.6-26.2
	C368.2,143.7,368.5,141.7,368.2,139.7z"/>
<defs>
	<filter id="Adobe_OpacityMaskFilter_11_" filterUnits="userSpaceOnUse" x="283.9" y="89.2" width="55.1" height="104.9">
		<feColorMatrix  type="matrix" values="1 0 0 0 0  0 1 0 0 0  0 0 1 0 0  0 0 0 1 0"/>
	</filter>
</defs>
<mask maskUnits="userSpaceOnUse" x="283.9" y="89.2" width="55.1" height="104.9" id="SVGID_23_">
	<g class="st43">
		
			<linearGradient id="SVGID_24_" gradientUnits="userSpaceOnUse" x1="-110.3471" y1="587.8779" x2="-125.2516" y2="507.324" gradientTransform="matrix(1 0 0 1 432.4297 -388.8196)">
			<stop  offset="0" style="stop-color:#000000"/>
			<stop  offset="1" style="stop-color:#FFFFFF"/>
		</linearGradient>
		<rect x="283.9" y="89.2" class="st44" width="55.1" height="104.9"/>
	</g>
</mask>
<path class="st45" d="M298.3,194.1c-1.4-12.8,10.6-12.9,12.3-24c0.9-5.8-2-11.5-3.5-17.5c-4-15.9,9.5-29.6,25-26.4
	c4.6-11,7-16.5,7-16.5c-37.3-36.8-55.6-24-54.9,38.3C282.9,164.6,287.6,179.9,298.3,194.1z"/>
<defs>
	<filter id="Adobe_OpacityMaskFilter_12_" filterUnits="userSpaceOnUse" x="283.9" y="139.9" width="34.8" height="36.6">
		<feColorMatrix  type="matrix" values="1 0 0 0 0  0 1 0 0 0  0 0 1 0 0  0 0 0 1 0"/>
	</filter>
</defs>
<mask maskUnits="userSpaceOnUse" x="283.9" y="139.9" width="34.8" height="36.6" id="SVGID_25_">
	<g class="st46">
		
			<linearGradient id="SVGID_26_" gradientUnits="userSpaceOnUse" x1="-114.3081" y1="595.639" x2="-141.5397" y2="543.9222" gradientTransform="matrix(1 0 0 1 432.3793 -405.5374)">
			<stop  offset="0" style="stop-color:#000000"/>
			<stop  offset="1" style="stop-color:#FFFFFF"/>
		</linearGradient>
		<rect x="283.9" y="139.9" class="st47" width="34.8" height="36.6"/>
	</g>
</mask>
<path class="st48" d="M285.8,139.9c-1.8,2.2-2.3,4.9-1.7,8.1c-0.1,1.9-0.2,3.8-0.2,5.6c0,0,1.5,1.2,4.4,3.7
	c-0.4,7.4,3.7,14.3,10.3,17.4c6.7,3.1,14.6,1.9,20-3.2c-5.8,1.7-12,0.2-16.3-4c-4.3-4.2-6-10.4-4.5-16.2
	C289.8,143.7,285.8,139.9,285.8,139.9z"/>
<path class="st49" d="M274.9,121.5c6.9,3.5,11.2,10.6,10.9,18.3c2-20.6,30.8-6.4,31.5-32.4c13.8,26.3,40.4,35.6,46.6,23.7
	c2.2,2.4,3.7,5.4,4.3,8.6c16.9-10.5,14.6-39.3,5.6-54.3c-8.4-13.9-23.1-22.7-39.2-23.6c20.8-4.5-2.6-16.1-17.1-9.2
	c-6.8,3.3-11.8,9.6-13.3,17C283.4,62.8,266,91,282.3,87.7C272.5,96,269.4,109.9,274.9,121.5z"/>
<path class="st50" d="M340.3,142.5L340.3,142.5c0.1,0.4,0.3,0.8,0.7,1c0.3,0.2,0.7,0.3,1.2,0.2l0,0c1.6-0.3,3.2-0.5,4.9-0.7
	c1.6-0.1,3.3-0.1,4.9,0c1.6,0.1,3.3,0.3,4.9,0.7c1.6,0.3,3.2,0.8,4.7,1.3v0l0,0l0,0c0.4,0.1,0.8,0.1,1.2-0.1
	c0.4-0.2,0.6-0.5,0.8-0.9v0l0,0l0-0.1l0,0c0.1-0.4,0.1-0.8-0.1-1.1c-0.2-0.4-0.5-0.6-0.9-0.8l0,0h0c-1.7-0.6-3.4-1-5.1-1.4
	c-1.7-0.4-3.5-0.6-5.3-0.7c-1.8-0.1-3.6-0.1-5.3,0c-1.8,0.1-3.5,0.4-5.3,0.7l0,0h0l0,0h0c-0.4,0.1-0.8,0.3-1,0.7
	C340.4,141.7,340.3,142.1,340.3,142.5L340.3,142.5L340.3,142.5z"/>
<path class="st50" d="M321.7,136.9c-2.1-0.6-4.2-1-6.4-1.3c-2.2-0.3-4.3-0.5-6.5-0.5c-2.2,0-4.3,0.1-6.5,0.4h0l0,0
	c-0.4,0.1-0.8,0.3-1,0.6c-0.2,0.3-0.4,0.7-0.3,1.1l0,0l0,0c0.1,0.4,0.3,0.8,0.6,1c0.3,0.2,0.7,0.4,1.1,0.3c2-0.3,4.1-0.4,6.1-0.4
	c2,0,4.1,0.2,6.1,0.4c2,0.3,4,0.7,6,1.3c2,0.6,3.9,1.2,5.8,2l0,0c0.4,0.2,0.8,0.2,1.2,0c0.4-0.1,0.7-0.4,0.8-0.8
	c0.2-0.4,0.2-0.8,0-1.2c-0.1-0.4-0.4-0.7-0.8-0.8v0C325.9,138.2,323.8,137.5,321.7,136.9z"/>
<path class="st51" d="M354.5,159.6c0-1.1-0.9-2-2-2c-1.1,0-2,0.9-2,2c0,1.1,0.9,2,2,2C353.6,161.6,354.5,160.7,354.5,159.6z"/>
<path class="st51" d="M315.5,154c0-1.2-0.9-2.1-2.1-2.1c-1.2,0-2.1,0.9-2.1,2.1s0.9,2.1,2.1,2.1C314.6,156.1,315.5,155.2,315.5,154z
	"/>
<path class="st2" d="M361,154.9c0-1.8-1.5-3.3-3.3-3.3c-1.8,0-3.3,1.5-3.3,3.3c0,1.8,1.5,3.3,3.3,3.3
	C359.5,158.2,361,156.8,361,154.9z"/>
<circle class="st2" cx="318.1" cy="149.3" r="3.3"/>
<path class="st52" d="M319,187.4c2.4,1.3,5.1,2.2,8,2.5c2.8,0.3,5.5-0.1,8-0.9c2.6-0.8,4.9-2.1,6.8-3.8c0.6-0.5,0.6-1.4,0-1.9
	c-0.6-0.5-1.6-0.5-2.2,0c-1.6,1.4-3.6,2.5-5.7,3.2c-2.1,0.7-4.4,0.9-6.7,0.7c-2.4-0.2-4.7-0.9-6.7-2c-2-1.1-3.7-2.6-4.9-4.5
	c-0.4-0.6-1.4-0.8-2.1-0.5c-0.7,0.4-1,1.2-0.5,1.8C314.6,184.3,316.6,186.1,319,187.4z"/>
<path class="st52" d="M321.5,193.4c1,0.6,2.1,1,3.3,1.2c1.2,0.2,2.3,0.1,3.4-0.2c1.1-0.3,2.1-0.8,3-1.5c0.3-0.2,0.3-0.6,0-0.8
	c-0.2-0.2-0.7-0.2-0.9,0c-0.7,0.6-1.6,1-2.5,1.2c-0.9,0.2-1.9,0.3-2.9,0.2c-1-0.1-2-0.5-2.8-1c-0.8-0.5-1.5-1.2-2-2
	c-0.2-0.3-0.6-0.4-0.9-0.2c-0.3,0.1-0.4,0.5-0.3,0.8C319.7,192,320.6,192.8,321.5,193.4z"/>
<defs>
	<filter id="Adobe_OpacityMaskFilter_13_" filterUnits="userSpaceOnUse" x="272.2" y="50.5" width="56.2" height="89.4">
		<feColorMatrix  type="matrix" values="1 0 0 0 0  0 1 0 0 0  0 0 1 0 0  0 0 0 1 0"/>
	</filter>
</defs>
<mask maskUnits="userSpaceOnUse" x="272.2" y="50.5" width="56.2" height="89.4" id="SVGID_27_">
	<g class="st53">
		
			<linearGradient id="SVGID_28_" gradientUnits="userSpaceOnUse" x1="-106.1976" y1="482.132" x2="-129.9433" y2="567.4183" gradientTransform="matrix(1 0 0 1 421.3389 -440.1629)">
			<stop  offset="0" style="stop-color:#000000"/>
			<stop  offset="1" style="stop-color:#FFFFFF"/>
		</linearGradient>
		<rect x="272.2" y="50.5" class="st54" width="56.2" height="89.4"/>
	</g>
</mask>
<path class="st55" d="M274.9,121.5c6.9,3.5,11.2,10.6,10.9,18.3c1.8-18.5,25.3-8.9,30.5-25.8c-13-19-9.9-45.1,8-60.4
	c1.3-1.1,2.7-2.2,4.1-3.1c-3.7-0.1-7.6,0.5-10.9,2.1c-6.8,3.3-11.8,9.6-13.3,17C283.4,62.8,266,91,282.3,87.7
	C272.5,96,269.4,109.9,274.9,121.5z"/>
<path class="st4" d="M341.7,172.3c2.8,2.8,6.6,4.5,10.9,4.5c4.2,0,8.1-1.7,10.9-4.5c2.8-2.8,4.5-6.6,4.5-10.9
	c0-4.2-1.7-8.1-4.5-10.9c-2.8-2.8-6.6-4.5-10.9-4.5c-4.2,0-8.1,1.7-10.9,4.5c-1.2,1.2-2.1,2.5-2.9,4c-0.4-0.5-0.9-1-1.4-1.4
	c-1-0.8-2.2-1.3-3.5-1.5c-1.3-0.2-2.6-0.1-3.8,0.3c-0.6,0.2-1.2,0.5-1.7,0.8c-0.7-3.1-2.2-5.9-4.4-8c-3-3-7.1-4.8-11.6-4.8
	c-4.5,0-8.6,1.8-11.6,4.8c-1.4,1.4-2.5,3-3.3,4.8l-26.1-23.1c-0.3-0.3-0.8-0.3-1.2,0l-13.3,9.4c-0.4,0.3-0.5,0.9-0.2,1.3
	c0.3,0.4,0.9,0.5,1.3,0.2l12.8-9l26,23.1c-0.5,1.6-0.8,3.2-0.8,5c0,4.5,1.8,8.6,4.8,11.6c3,3,7.1,4.8,11.6,4.8
	c4.5,0,8.6-1.8,11.6-4.8c3-3,4.8-7.1,4.8-11.6c0-0.5,0-1-0.1-1.5c0.6-0.5,1.3-0.9,2-1.2c0.9-0.3,1.9-0.4,2.9-0.3
	c1,0.2,1.9,0.6,2.7,1.2c0.7,0.5,1.3,1.2,1.7,2c-0.5,1.5-0.8,3.1-0.8,4.8C337.2,165.7,338.9,169.5,341.7,172.3z M343.4,152.3
	c2.4-2.4,5.6-3.8,9.2-3.8c3.6,0,6.8,1.5,9.2,3.8c2.4,2.4,3.8,5.6,3.8,9.2c0,3.6-1.5,6.8-3.8,9.2c-2.4,2.4-5.6,3.8-9.2,3.8
	c-3.6,0-6.8-1.5-9.2-3.8c-2.4-2.4-3.8-5.6-3.8-9.2C339.6,157.9,341,154.6,343.4,152.3z M322.3,166.3c-2.5,2.5-6,4.1-9.9,4.1
	c-3.9,0-7.4-1.6-9.9-4.1c-2.5-2.5-4.1-6-4.1-9.9c0-3.9,1.6-7.4,4.1-9.9c2.5-2.5,6-4.1,9.9-4.1c3.9,0,7.4,1.6,9.9,4.1
	c2.5,2.5,4.1,6,4.1,9.9C326.4,160.3,324.8,163.8,322.3,166.3z"/>
<path class="st39" d="M278.6,152.5c6.1-1.7,9.1-10.1,6.7-18.8c-2.4-8.7-9.3-14.5-15.4-12.8c-6.1,1.7-9.1,10.1-6.7,18.8
	C265.6,148.5,272.5,154.2,278.6,152.5z"/>
<path class="st56" d="M275.2,146.6c3.7-1,5.5-6.2,4.1-11.5c-1.5-5.3-5.7-8.8-9.4-7.8c-3.7,1-5.5,6.2-4.1,11.5
	C267.3,144.1,271.5,147.6,275.2,146.6z"/>
<path class="st57" d="M276.7,141.4c2.2-0.6,3.3-3.7,2.4-6.8c-0.9-3.2-3.4-5.2-5.6-4.6c-2.2,0.6-3.3,3.7-2.4,6.8
	C272,140,274.5,142,276.7,141.4z"/>
<path class="st56" d="M336.3,177.9c7.4-3.8,8.3-6.8,2.6-9.1c-4.8-20.6-5.2-16.7-13.5-2.1c-7.5,0.5-7.5,3.9-0.2,10
	C328.6,181.2,332,181.7,336.3,177.9z"/>
<defs>
	<filter id="Adobe_OpacityMaskFilter_14_" filterUnits="userSpaceOnUse" x="343.6" y="63.2" width="37.2" height="76.5">
		<feColorMatrix  type="matrix" values="1 0 0 0 0  0 1 0 0 0  0 0 1 0 0  0 0 0 1 0"/>
	</filter>
</defs>
<mask maskUnits="userSpaceOnUse" x="343.6" y="63.2" width="37.2" height="76.5" id="SVGID_29_">
	<g class="st58">
		
			<linearGradient id="SVGID_30_" gradientUnits="userSpaceOnUse" x1="-162.6408" y1="522.1242" x2="-107.1635" y2="552.4507" gradientTransform="matrix(1 0 0 1 488.9302 -440.2766)">
			<stop  offset="0" style="stop-color:#000000"/>
			<stop  offset="1" style="stop-color:#FFFFFF"/>
		</linearGradient>
		<rect x="343.6" y="63.2" class="st59" width="37.2" height="76.5"/>
	</g>
</mask>
<path class="st60" d="M352.6,136.2c5.2,0.5,9.4-1.2,11.4-5c2.2,2.4,3.7,5.4,4.3,8.6c16.9-10.5,14.6-39.3,5.6-54.3
	c-6.8-11.2-17.7-19.2-30.2-22.3c13.9,7.8,23.3,22.7,23.3,39.8C366.9,116.1,361.4,127.9,352.6,136.2z"/>
<path class="st31" d="M412.1,337c0.9-0.1,1.6-0.8,1.5-1.7l-5.8-94c-0.1-0.9-0.8-1.6-1.7-1.5c-0.9,0.1-1.6,0.8-1.5,1.7l5.8,94
	C410.5,336.4,411.2,337.1,412.1,337z"/>
<path class="st31" d="M224.1,335.5l3.2-94.2c0-0.9-0.7-1.7-1.6-1.7c-0.9,0-1.7,0.7-1.7,1.6l-3.2,94.2c0,0.9,0.7,1.7,1.6,1.7
	C223.3,337.1,224,336.4,224.1,335.5z"/>
<defs>
	<filter id="Adobe_OpacityMaskFilter_15_" filterUnits="userSpaceOnUse" x="188.4" y="341.9" width="40" height="94.7">
		<feColorMatrix  type="matrix" values="1 0 0 0 0  0 1 0 0 0  0 0 1 0 0  0 0 0 1 0"/>
	</filter>
</defs>
<mask maskUnits="userSpaceOnUse" x="188.4" y="341.9" width="40" height="94.7" id="SVGID_31_">
	<g class="st61">
		
			<linearGradient id="SVGID_32_" gradientUnits="userSpaceOnUse" x1="-181.9851" y1="581.9102" x2="-105.6775" y2="529.2216" gradientTransform="matrix(1 0 0 1 341.9884 -159.2354)">
			<stop  offset="0" style="stop-color:#000000"/>
			<stop  offset="1" style="stop-color:#FFFFFF"/>
		</linearGradient>
		<rect x="188.4" y="341.9" class="st62" width="40" height="94.7"/>
	</g>
</mask>
<path class="st63" d="M211.7,420.4c-8.3,5-18.6,6.5-23.3,15.8c5.9,0.9,11.9,0.2,17.5-2c8.6-3.5,15.5-10,20.7-19.6
	c2.7-15.4,2.5-36.1-0.6-62c0,0-0.2-3.6-0.6-10.7c0,0-1.6,0.1-4.7,0.2c-7.9,2.4-13.6,9.3-14.5,17.5c-1.1,10.4,4.5,15.1,9.7,20.4
	C228,392.3,226.5,411.5,211.7,420.4z"/>
<path class="st31" d="M168.9,351l18.2-36.1c0.4-0.8,0.1-1.8-0.7-2.2c-0.8-0.4-1.8-0.1-2.2,0.7l-18.2,36.1l0,0
	c-5.8,11.8-9.6,22-11.3,30.5c-1.7,8.7-1.3,15.8,1.2,21.2c0.4,0.8,1.4,1.2,2.2,0.8c0.8-0.4,1.2-1.4,0.8-2.2c-2.3-4.7-2.6-11.1-1-19.1
	C159.5,372.5,163.2,362.6,168.9,351z"/>
<path class="st31" d="M227,415.2c0.9,0.2,1.8-0.4,2-1.2c2.6-11.2,0.8-33.9-0.5-50.4c-0.4-4.6-0.7-8.7-0.9-11.8
	c0-0.9-0.8-1.6-1.7-1.5c-0.9,0-1.6,0.8-1.5,1.7c0.2,3.4,0.5,7.4,0.9,11.9c1.3,16.3,3,38.7,0.6,49.5C225.6,414.1,226.1,415,227,415.2
	z"/>
<path class="st31" d="M456.3,361.5c0.3,0.1,0.6,0.2,1,0.1l0,0c5.6-0.9,11,0.3,15.5,3.1c4.5,2.8,7.9,7.2,9.5,12.6
	c0.3,0.9,1.2,1.4,2,1.1c0.9-0.3,1.4-1.2,1.1-2c-1.8-6.2-5.8-11.2-10.9-14.5c-5-3.1-11.1-4.6-17.3-3.7L424,342.8
	c-0.8-0.4-1.8,0-2.2,0.8c-0.4,0.8,0,1.8,0.8,2.2L456.3,361.5z"/>
<path class="st31" d="M420.6,415.8c0.5-0.7,0.4-1.8-0.3-2.3L395,394.8c-0.7-0.5-1.8-0.4-2.3,0.3c-0.5,0.7-0.4,1.8,0.3,2.3l25.4,18.7
	C419.1,416.7,420.1,416.5,420.6,415.8z"/>
<defs>
	<filter id="Adobe_OpacityMaskFilter_16_" filterUnits="userSpaceOnUse" x="397.2" y="366.5" width="75.2" height="54.2">
		<feColorMatrix  type="matrix" values="1 0 0 0 0  0 1 0 0 0  0 0 1 0 0  0 0 0 1 0"/>
	</filter>
</defs>
<mask maskUnits="userSpaceOnUse" x="397.2" y="366.5" width="75.2" height="54.2" id="SVGID_33_">
	<g class="st64">
		
			<linearGradient id="SVGID_34_" gradientUnits="userSpaceOnUse" x1="-27.6571" y1="565.1354" x2="-159.5687" y2="569.8571" gradientTransform="matrix(1 0 0 1 539.6746 -174.3253)">
			<stop  offset="0" style="stop-color:#000000"/>
			<stop  offset="1" style="stop-color:#FFFFFF"/>
		</linearGradient>
		<rect x="397.2" y="366.5" class="st65" width="75.2" height="54.2"/>
	</g>
</mask>
<path class="st66" d="M463.1,417c9.3-7.4,12.2-20.4,6.2-30.6c-11.3-19.2-29.8-4.6-41.1-10.7c-3.5-1.9-6.1-5.3-6.9-9.3
	c-8.9,3.9-13.3,5.8-13.3,5.8c-4.1,1.1-6.6,3.4-8.7,7c-2.1,3.6-2.6,7.9-1.5,12C412.4,403.9,446.2,430.3,463.1,417z"/>
<path class="st4" d="M256,338.1c2,0,4.1-0.8,5.7-2.3l21.4-21.2c0.7-0.7,1.3-1.6,1.7-2.5c0.4,0.9,0.9,1.8,1.7,2.5l21.2,21.4
	c1.5,1.6,3.6,2.4,5.6,2.4c2,0,4.1-0.8,5.7-2.3l21.4-21.2c0.5-0.5,1-1.1,1.3-1.7c0.3,0.6,0.8,1.2,1.3,1.7l21.2,21.4
	c1.5,1.6,3.6,2.4,5.6,2.4c2,0,4.1-0.8,5.7-2.3l21.4-21.2c1.6-1.5,2.4-3.6,2.4-5.6h0c0-2.1-0.8-4.1-2.3-5.7l-21.2-21.4
	c-1.5-1.6-3.6-2.4-5.6-2.4c-2,0-4.1,0.8-5.7,2.3l-21.4,21.2c-0.5,0.5-1,1.1-1.3,1.7c-0.3-0.6-0.8-1.2-1.3-1.8l-21.2-21.4
	c-1.5-1.6-3.6-2.4-5.6-2.4c-2,0-4.1,0.8-5.7,2.3l-21.4,21.2c-0.7,0.7-1.3,1.6-1.7,2.5c-0.4-0.9-0.9-1.8-1.7-2.5L262,281.9
	c-1.5-1.6-3.6-2.4-5.6-2.4c-2,0-4.1,0.8-5.7,2.3L229.3,303c-1.6,1.5-2.4,3.6-2.4,5.6h0c0,2,0.8,4.1,2.3,5.7l21.2,21.4
	C251.9,337.3,253.9,338.1,256,338.1z M345,305.7l21.4-21.2c1-1,2.4-1.5,3.8-1.5c1.4,0,2.7,0.5,3.7,1.6l21.2,21.4
	c1,1,1.5,2.4,1.5,3.8h0c0,1.4-0.5,2.7-1.6,3.7l-21.4,21.2c-1,1-2.4,1.5-3.8,1.5c-1.4,0-2.7-0.5-3.7-1.6l-21.2-21.4
	c-1-1-1.5-2.4-1.5-3.8h0C343.4,308.1,344,306.7,345,305.7z M288.5,305.3l21.4-21.2c1-1,2.4-1.5,3.8-1.5c1.4,0,2.7,0.5,3.7,1.6
	l21.2,21.4c1,1,1.5,2.4,1.5,3.8h0c0,1.4-0.5,2.7-1.6,3.7l-21.4,21.2c-1,1-2.4,1.5-3.8,1.5c-1.4,0-2.7-0.5-3.7-1.6l-21.2-21.4
	c-1-1-1.5-2.4-1.5-3.8h0C286.9,307.7,287.4,306.3,288.5,305.3z M229.6,308.7L229.6,308.7c0-1.4,0.5-2.7,1.6-3.7l21.4-21.2
	c1-1,2.4-1.5,3.8-1.5c1.4,0,2.7,0.5,3.7,1.6l21.2,21.4c1,1,1.5,2.4,1.5,3.8h0c0,1.4-0.5,2.7-1.6,3.7l-21.4,21.2
	c-1,1-2.4,1.5-3.8,1.5c-1.4,0-2.7-0.5-3.7-1.6l-21.2-21.4C230.1,311.4,229.6,310.1,229.6,308.7z"/>
<path class="st39" d="M220.6,342.1c9.8-14.2,14.7-21.2,14.7-21.2c7.6-6.2,13-14.9,15.1-24.5c0.4-2.2,1.3-6.2,2.4-12
	c8.2-1.5,1.5-13.2-7.1-14.7c-1.1-5.2-5.8-8.7-11.1-8.2c-1.9-5-7.3-7.8-12.5-6.3c-0.4-2.9-2.1-5.4-4.7-6.7c-7-3.6-19.9,6.5-25.4,10.6
	c-4.9,3.8-6.3,8.4-4.1,13.8c0,0,1.3,8.9,4,26.7c0,0-2.2,4.9-6.5,14.6C187.8,331.4,203.3,343.8,220.6,342.1z"/>
<defs>
	<filter id="Adobe_OpacityMaskFilter_17_" filterUnits="userSpaceOnUse" x="186.8" y="250" width="30.3" height="90.5">
		<feColorMatrix  type="matrix" values="1 0 0 0 0  0 1 0 0 0  0 0 1 0 0  0 0 0 1 0"/>
	</filter>
</defs>
<mask maskUnits="userSpaceOnUse" x="186.8" y="250" width="30.3" height="90.5" id="SVGID_35_">
	<g class="st67">
		
			<linearGradient id="SVGID_36_" gradientUnits="userSpaceOnUse" x1="-99.561" y1="518.1672" x2="-158.1438" y2="559.1942" gradientTransform="matrix(1 0 0 1 340.5237 -250.1782)">
			<stop  offset="0" style="stop-color:#000000"/>
			<stop  offset="1" style="stop-color:#FFFFFF"/>
		</linearGradient>
		<rect x="186.8" y="250" class="st68" width="30.3" height="90.5"/>
	</g>
</mask>
<path class="st69" d="M211.5,250c-5.3,2-11.1,5.7-17.4,11c-3.9,2.9-5,6.8-3.2,11.8c3.5,18.6,5.2,28,5.2,28c-6.2,12.7-9.3,19-9.3,19
	c3.1,9.8,10.7,17.4,20.3,20.7c5.7-4.6,9.2-11.4,9.8-18.7c1.7-21.2-20.5-23.4-9.2-44.7C212.3,268.6,219.1,261,211.5,250z"/>
<path class="st70" d="M237.3,277.4l9.3-6.7c0.6-0.4,0.8-1.3,0.3-1.9c-0.4-0.6-1.3-0.8-1.9-0.3l-9.3,6.7c-0.6,0.4-0.8,1.3-0.3,1.9
	C235.8,277.7,236.6,277.8,237.3,277.4z"/>
<path class="st70" d="M221.9,295.5l9.3-13.1c0.3-0.4,0.2-1-0.2-1.3c-0.4-0.3-1-0.2-1.3,0.2l-9.3,13.1c-0.3,0.4-0.2,1,0.2,1.3
	C221,296,221.6,295.9,221.9,295.5z"/>
<path class="st70" d="M211,289.7c0.5,0.2,1-0.1,1.2-0.5l5.7-15.2c0.2-0.5-0.1-1-0.5-1.2c-0.5-0.2-1,0.1-1.2,0.5l-5.7,15.2
	C210.3,289,210.5,289.5,211,289.7z"/>
<path class="st70" d="M202.9,269.1l-2.6,13.1c-0.1,0.5,0.2,1,0.7,1.1c0.5,0.1,1-0.2,1.1-0.7l2.6-13.1c0.1-0.5-0.2-1-0.7-1.1
	C203.5,268.3,203,268.6,202.9,269.1z"/>
<path class="st70" d="M222.9,270.2l12.5-7.6c0.6-0.4,0.9-1.2,0.5-1.9c-0.4-0.6-1.2-0.9-1.9-0.5l-12.5,7.6c-0.6,0.4-0.9,1.2-0.5,1.9
	C221.4,270.4,222.3,270.6,222.9,270.2z"/>
<path class="st70" d="M209.4,262.4c0.4,0.7,1.2,0.9,1.9,0.5l11.7-6.6c0.7-0.4,0.9-1.2,0.5-1.9c-0.4-0.7-1.2-0.9-1.9-0.5l-11.7,6.6
	C209.3,260.9,209,261.8,209.4,262.4z"/>
<path class="st2" d="M398.5,351.3c4,0,8.2-3.2,9.5-7.2l18.3-57.5c1.3-4-1-7.2-4.9-7.2h-40.8c-4,0-8.2,3.2-9.5,7.2l-18.3,57.5
	c-1.3,4,1,7.2,4.9,7.2H398.5z"/>
<path class="st51" d="M402.7,353.8c3,0,6.2-2.4,7.1-5.4l19.4-61.1c0.9-3-0.7-5.4-3.7-5.4h-44.4c-3,0-6.2,2.4-7.1,5.4l-19.4,61.1
	c-0.9,3,0.7,5.4,3.7,5.4H402.7z"/>
<path class="st39" d="M341.4,332.4c-1.3,1.2-1.8,3.1-1.3,4.7c0,0,1.4,2.6,4.1,7.8c0,0,2.9,3.4,8.6,10.1
	c18.2,9.6,27.3,14.5,27.3,14.5c8.9,5.1,13.4,7.6,13.4,7.6c9.3,5.7,21.2,4,28.5-4.1c7.3-8,7.8-20.1,1.3-28.8c0,0,0.7-3.1,2.1-9.4
	c0.8-5-0.4-9-3.6-11.9c0,0-3.2-2.8-9.6-8.4c0,0-7.8-1.9-23.3-5.8c0,0-4.1-0.5-12.2-1.4c-2,0.5-3.4,2.2-3.6,4.2c-0.1,2,1,3.9,2.9,4.7
	c0,0,3.6,1,10.7,2.9c0,0,5.3,2,16,5.9c0,0,0.7,1.1,2.1,3.3c0,0-0.8,1.4-2.5,4.3c-1.1-0.4-4.4-2.2-12.5-7.3c0,0-11.4-5-34.2-15.1
	c-2.9-1.3-5.4-1.1-7.1,0.4c-2,1.7-2.5,4.7-1.1,7c0,0,0.7,0.8,2.1,2.5c-2-1.3-4.6-1-6.3,0.6c-1.7,1.7-1.9,4.3-0.6,6.3
	c0,0,1.2,1.5,3.5,4.6C344.6,330.9,342.7,331.2,341.4,332.4z"/>
<path class="st70" d="M371.5,315.6c-0.7-0.3-1.5,0-1.8,0.7c-0.3,0.7,0,1.5,0.7,1.8l19,8.4l12.5,7.3c0.6,0.4,1.5,0.2,1.8-0.5
	c0.4-0.6,0.2-1.5-0.5-1.8l-12.5-7.3c0,0-0.1,0-0.1-0.1l0,0L371.5,315.6z"/>
<path class="st70" d="M402,326l1.9,2.9c0.1,0.2,0.2,0.3,0.4,0.4l7.7,6.1c0.6,0.5,1.4,0.4,1.9-0.2c0.5-0.6,0.4-1.4-0.2-1.9l-7.6-6
	l-2-3.1l0,0c-0.2-0.2-0.4-0.4-0.7-0.5l-16-5.9c-0.7-0.3-1.5,0.1-1.7,0.8c-0.3,0.7,0.1,1.5,0.8,1.7L402,326z"/>
<path class="st2" d="M378.5,292.8c1.5,0,3.1-1.2,3.6-2.7l0.5-1.7c0.5-1.5-0.4-2.7-1.9-2.7h0c-1.5,0-3.1,1.2-3.6,2.7l-0.5,1.7
	C376.1,291.6,377,292.8,378.5,292.8L378.5,292.8z"/>
<defs>
	<filter id="Adobe_OpacityMaskFilter_18_" filterUnits="userSpaceOnUse" x="341.7" y="332.4" width="86.2" height="48">
		<feColorMatrix  type="matrix" values="1 0 0 0 0  0 1 0 0 0  0 0 1 0 0  0 0 0 1 0"/>
	</filter>
</defs>
<mask maskUnits="userSpaceOnUse" x="341.7" y="332.4" width="86.2" height="48" id="SVGID_37_">
	<g class="st71">
		
			<linearGradient id="SVGID_38_" gradientUnits="userSpaceOnUse" x1="-140.3069" y1="554.8773" x2="-59.2882" y2="584.644" gradientTransform="matrix(1 0 0 1 487.0916 -212.394)">
			<stop  offset="0" style="stop-color:#000000"/>
			<stop  offset="1" style="stop-color:#FFFFFF"/>
		</linearGradient>
		<rect x="341.7" y="332.4" class="st72" width="86.2" height="48"/>
	</g>
</mask>
<path class="st73" d="M352.8,355c12.9,6.7,26.5,14.1,40.7,22.1c7.2,4.4,16.4,4.4,23.6,0c7.2-4.4,11.4-12.6,10.7-21
	c-1.8,3.9-5.4,6.6-9.7,7.4c-15.5,2.6-13.6-21.4-39.3-29.2c-12.6-3.8-26.3-1.7-37.2,5.8c1.7,3.3,2.6,4.9,2.6,4.9
	C347.5,348.8,350.4,352.2,352.8,355z"/>
<path class="st70" d="M376.1,338.4L376.1,338.4c0.1,0,0.1,0.1,0.2,0.1l22.6,10.1c0.7,0.3,1.5,0,1.8-0.7c0.3-0.7,0-1.5-0.7-1.8
	l-22.5-10c-9-5.7-15.8-10-20.3-12.9l-6.7-4.3c-0.6-0.5-1.4-0.4-1.9,0.2c-0.5,0.6-0.4,1.4,0.2,1.9c0.1,0,2.4,1.5,7,4.4
	C360.3,328.4,367.1,332.7,376.1,338.4z"/>
<path class="st70" d="M364.8,349.6l19.1,10.4c0.7,0.4,1.5,0.1,1.8-0.5c0.4-0.7,0.1-1.5-0.5-1.8l-19-10.4l-19-16.7
	c-0.6-0.5-1.4-0.4-1.9,0.1c-0.5,0.6-0.4,1.4,0.1,1.9l19.1,16.8C364.6,349.5,364.7,349.5,364.8,349.6z"/>
<path class="st70" d="M407.3,349.1c-0.6,0.1-1,0.7-0.8,1.3c0.1,0.6,0.7,1,1.3,0.8c1.9-0.4,3.5-1.5,4.6-3.1c1.1-1.5,1.6-3.4,1.4-5.3
	c-0.1-0.6-0.6-1.1-1.2-1c-0.6,0.1-1.1,0.6-1,1.2c0.2,1.4-0.2,2.7-1,3.8C409.8,347.9,408.6,348.7,407.3,349.1z"/>
<path class="st70" d="M403.8,359.5c1.2-1.4,1.8-3.3,1.7-5.3c0-0.6-0.6-1.1-1.2-1c-0.6,0-1.1,0.6-1,1.2c0.1,1.4-0.4,2.7-1.2,3.7
	c-0.8,1-2,1.8-3.4,2c-0.6,0.1-1,0.7-0.9,1.3c0.1,0.6,0.7,1,1.3,0.9C401,361.9,402.7,360.9,403.8,359.5z"/>
<path class="st70" d="M391.8,369.6c1.5-1,2.7-2.6,3.2-4.5c0.1-0.6-0.2-1.2-0.8-1.3c-0.6-0.1-1.2,0.2-1.3,0.8
	c-0.3,1.4-1.2,2.5-2.2,3.2c-1.1,0.7-2.4,1.1-3.8,0.9c-0.6-0.1-1.2,0.3-1.3,1c-0.1,0.6,0.3,1.2,1,1.3
	C388.4,371.1,390.3,370.7,391.8,369.6z"/>
<path class="st2" d="M380,148.9c0-0.9-0.7-1.7-1.7-1.7s-1.7,0.7-1.7,1.7c0,0.9,0.7,1.7,1.7,1.7S380,149.8,380,148.9z"/>
<path class="st2" d="M369.9,124.4c0-0.5-0.4-0.8-0.8-0.8c-0.5,0-0.8,0.4-0.8,0.8c0,0.5,0.4,0.8,0.8,0.8
	C369.5,125.2,369.9,124.9,369.9,124.4z"/>
<path class="st2" d="M409.5,177.7c0-0.5-0.4-0.8-0.8-0.8c-0.5,0-0.8,0.4-0.8,0.8c0,0.5,0.4,0.8,0.8,0.8
	C409.1,178.5,409.5,178.1,409.5,177.7z"/>
<path class="st2" d="M208.1,192.7c0,0.9,0.7,1.7,1.7,1.7c0.9,0,1.7-0.7,1.7-1.7c0-0.9-0.7-1.7-1.7-1.7
	C208.8,191,208.1,191.7,208.1,192.7z"/>
<path class="st2" d="M242.8,240.7c0-0.9-0.7-1.7-1.7-1.7c-0.9,0-1.7,0.7-1.7,1.7c0,0.9,0.7,1.7,1.7,1.7
	C242.1,242.3,242.8,241.6,242.8,240.7z"/>
<path class="st2" d="M156.6,209.1c0,1.1,0.9,2.1,2.1,2.1c1.1,0,2.1-0.9,2.1-2.1c0-1.1-0.9-2.1-2.1-2.1
	C157.5,207,156.6,207.9,156.6,209.1z"/>
<path class="st2" d="M125,269.6c0,0.8,0.7,1.5,1.5,1.5s1.5-0.7,1.5-1.5c0-0.8-0.7-1.5-1.5-1.5S125,268.8,125,269.6z"/>
<path class="st2" d="M329.8,269.2c0-1.1-0.9-2.1-2.1-2.1c-1.1,0-2.1,0.9-2.1,2.1c0,1.1,0.9,2.1,2.1,2.1
	C328.9,271.3,329.8,270.3,329.8,269.2z"/>
<path class="st2" d="M308.5,373.2c0-1.1-0.9-2.1-2.1-2.1s-2.1,0.9-2.1,2.1c0,1.1,0.9,2.1,2.1,2.1S308.5,374.4,308.5,373.2z"/>
<path class="st2" d="M217.3,395.5c0-1.2-1-2.2-2.2-2.2s-2.2,1-2.2,2.2c0,1.2,1,2.2,2.2,2.2S217.3,396.7,217.3,395.5z"/>
<path class="st2" d="M453,397.7c0-0.5-0.4-0.9-0.9-0.9c-0.5,0-0.9,0.4-0.9,0.9c0,0.5,0.4,0.9,0.9,0.9
	C452.6,398.5,453,398.1,453,397.7z"/>
<path class="st2" d="M290.2,456.6c0-0.5-0.4-0.9-0.9-0.9c-0.5,0-0.9,0.4-0.9,0.9c0,0.5,0.4,0.9,0.9,0.9
	C289.8,457.5,290.2,457.1,290.2,456.6z"/>
<path class="st2" d="M244.2,117.9c0-1.3-1-2.3-2.3-2.3c-1.3,0-2.3,1-2.3,2.3c0,1.3,1,2.3,2.3,2.3
	C243.2,120.3,244.2,119.2,244.2,117.9z"/>
<path class="st2" d="M249.6,458c0-1.8-1.5-3.3-3.3-3.3c-1.8,0-3.3,1.5-3.3,3.3c0,1.8,1.5,3.3,3.3,3.3
	C248.1,461.3,249.6,459.9,249.6,458z"/>
<path class="st2" d="M508.8,259.5c0-0.9-0.7-1.7-1.7-1.7c-0.9,0-1.7,0.7-1.7,1.7c0,0.9,0.7,1.7,1.7,1.7
	C508,261.2,508.8,260.4,508.8,259.5z"/>
</svg>
