<?xml version="1.0" encoding="utf-8"?>
<!-- Generator: Adobe Illustrator 25.2.0, SVG Export Plug-In . SVG Version: 6.00 Build 0)  -->
<svg version="1.1" id="Layer_1" xmlns="http://www.w3.org/2000/svg" xmlns:xlink="http://www.w3.org/1999/xlink" x="0px" y="0px"
	 viewBox="0 0 800 500" style="enable-background:new 0 0 800 500;" xml:space="preserve">
<style type="text/css">
	.st0{fill-rule:evenodd;clip-rule:evenodd;fill:#671CC9;}
	.st1{fill-rule:evenodd;clip-rule:evenodd;fill:#017843;}
	.st2{fill:#FFFFFF;}
	.st3{fill-rule:evenodd;clip-rule:evenodd;fill:#039E53;}
	.st4{fill-rule:evenodd;clip-rule:evenodd;fill:#090B19;}
	.st5{fill:#24294C;}
	.st6{fill-rule:evenodd;clip-rule:evenodd;fill:#141735;}
	.st7{filter:url(#Adobe_OpacityMaskFilter);}
	.st8{fill:url(#SVGID_2_);}
	.st9{mask:url(#SVGID_1_);fill-rule:evenodd;clip-rule:evenodd;fill:#090B19;}
	.st10{fill-rule:evenodd;clip-rule:evenodd;fill:#3C219C;}
	.st11{filter:url(#Adobe_OpacityMaskFilter_1_);}
	.st12{fill:url(#SVGID_4_);}
	.st13{mask:url(#SVGID_3_);fill-rule:evenodd;clip-rule:evenodd;fill:#130152;}
	.st14{filter:url(#Adobe_OpacityMaskFilter_2_);}
	.st15{fill:url(#SVGID_6_);}
	.st16{mask:url(#SVGID_5_);fill-rule:evenodd;clip-rule:evenodd;fill:#130152;}
	.st17{filter:url(#Adobe_OpacityMaskFilter_3_);}
	.st18{fill:url(#SVGID_8_);}
	.st19{mask:url(#SVGID_7_);fill-rule:evenodd;clip-rule:evenodd;fill:#674BCC;}
	.st20{filter:url(#Adobe_OpacityMaskFilter_4_);}
	.st21{fill:url(#SVGID_10_);}
	.st22{mask:url(#SVGID_9_);fill-rule:evenodd;clip-rule:evenodd;fill:#674BCC;}
	.st23{filter:url(#Adobe_OpacityMaskFilter_5_);}
	.st24{fill:url(#SVGID_12_);}
	.st25{mask:url(#SVGID_11_);fill-rule:evenodd;clip-rule:evenodd;fill:#674BCC;}
	.st26{filter:url(#Adobe_OpacityMaskFilter_6_);}
	.st27{fill:url(#SVGID_14_);}
	.st28{mask:url(#SVGID_13_);fill-rule:evenodd;clip-rule:evenodd;fill:#003D33;}
	.st29{filter:url(#Adobe_OpacityMaskFilter_7_);}
	.st30{fill:url(#SVGID_16_);}
	.st31{mask:url(#SVGID_15_);fill-rule:evenodd;clip-rule:evenodd;fill:#130152;}
	.st32{fill:#130152;}
	.st33{fill-rule:evenodd;clip-rule:evenodd;fill:#FFFFFF;}
	.st34{fill-rule:evenodd;clip-rule:evenodd;fill:#4D4D4D;}
	.st35{fill-rule:evenodd;clip-rule:evenodd;fill:#1A1A1A;}
	.st36{fill-rule:evenodd;clip-rule:evenodd;fill:#FFC2A8;}
	.st37{fill-rule:evenodd;clip-rule:evenodd;fill:#DAF5F0;}
	.st38{fill-rule:evenodd;clip-rule:evenodd;fill:#FFBB9E;}
	.st39{filter:url(#Adobe_OpacityMaskFilter_8_);}
	.st40{fill:url(#SVGID_18_);}
	.st41{mask:url(#SVGID_17_);fill-rule:evenodd;clip-rule:evenodd;fill:#FF592B;}
	.st42{filter:url(#Adobe_OpacityMaskFilter_9_);}
	.st43{fill:url(#SVGID_20_);}
	.st44{mask:url(#SVGID_19_);fill-rule:evenodd;clip-rule:evenodd;fill:#D90804;}
	.st45{filter:url(#Adobe_OpacityMaskFilter_10_);}
	.st46{fill:url(#SVGID_22_);}
	.st47{mask:url(#SVGID_21_);fill-rule:evenodd;clip-rule:evenodd;fill:#FF592B;}
	.st48{filter:url(#Adobe_OpacityMaskFilter_11_);}
	.st49{fill:url(#SVGID_24_);}
	.st50{mask:url(#SVGID_23_);fill-rule:evenodd;clip-rule:evenodd;fill:#D90804;}
	.st51{filter:url(#Adobe_OpacityMaskFilter_12_);}
	.st52{fill:url(#SVGID_26_);}
	.st53{mask:url(#SVGID_25_);fill-rule:evenodd;clip-rule:evenodd;fill:#FFD8C4;}
	.st54{fill-rule:evenodd;clip-rule:evenodd;fill:#521919;}
	.st55{filter:url(#Adobe_OpacityMaskFilter_13_);}
	.st56{fill:url(#SVGID_28_);}
	.st57{mask:url(#SVGID_27_);fill-rule:evenodd;clip-rule:evenodd;fill:#330808;}
	.st58{filter:url(#Adobe_OpacityMaskFilter_14_);}
	.st59{fill:url(#SVGID_30_);}
	.st60{mask:url(#SVGID_29_);fill-rule:evenodd;clip-rule:evenodd;fill:#8F2828;}
	.st61{fill:#521919;}
	.st62{fill-rule:evenodd;clip-rule:evenodd;}
	.st63{fill-rule:evenodd;clip-rule:evenodd;fill:#D90804;}
	.st64{fill-rule:evenodd;clip-rule:evenodd;fill:#FF592B;}
	.st65{filter:url(#Adobe_OpacityMaskFilter_15_);}
	.st66{fill:url(#SVGID_32_);}
	.st67{mask:url(#SVGID_31_);fill-rule:evenodd;clip-rule:evenodd;fill:#130152;}
	.st68{filter:url(#Adobe_OpacityMaskFilter_16_);}
	.st69{fill:url(#SVGID_34_);}
	.st70{mask:url(#SVGID_33_);fill-rule:evenodd;clip-rule:evenodd;fill:#FFE0D1;}
	.st71{filter:url(#Adobe_OpacityMaskFilter_17_);}
	.st72{fill:url(#SVGID_36_);}
	.st73{mask:url(#SVGID_35_);fill-rule:evenodd;clip-rule:evenodd;fill:#FF592B;}
	.st74{fill:#FF592B;}
	.st75{filter:url(#Adobe_OpacityMaskFilter_18_);}
	.st76{fill:url(#SVGID_38_);}
	.st77{mask:url(#SVGID_37_);fill-rule:evenodd;clip-rule:evenodd;fill:#B3EBE1;}
	.st78{filter:url(#Adobe_OpacityMaskFilter_19_);}
	.st79{fill:url(#SVGID_40_);}
	.st80{mask:url(#SVGID_39_);fill-rule:evenodd;clip-rule:evenodd;fill:#FF592B;}
	.st81{filter:url(#Adobe_OpacityMaskFilter_20_);}
	.st82{fill:url(#SVGID_42_);}
	.st83{mask:url(#SVGID_41_);fill-rule:evenodd;clip-rule:evenodd;fill:#FFDFCF;}
</style>
<rect y="-0.5" class="st0" width="800" height="500"/>
<path class="st1" d="M278.9,401.4c-8.9,52.9,16.1,105.8,62.7,132.4c8.3,2,12.5,3,12.5,3C361.8,480,331.2,424.9,278.9,401.4z"/>
<path class="st2" d="M284.8,409.8c-0.3-0.5-0.9-0.7-1.5-0.5c-0.5,0.3-0.7,0.9-0.5,1.5l63.9,125c0.3,0.5,0.9,0.7,1.5,0.5
	c0.5-0.3,0.7-0.9,0.5-1.5L284.8,409.8z"/>
<path class="st1" d="M192.7,508.6c39.2,36.6,97.1,45,145,20.8c6.2-5.8,9.4-8.8,9.4-8.8C304,482.8,241.2,477.9,192.7,508.6z"/>
<path class="st2" d="M342.5,523.9L203,508.2c-0.6-0.1-1.1,0.4-1.2,1c-0.1,0.6,0.4,1.1,1,1.2l139.5,15.7c0.6,0.1,1.1-0.4,1.2-1
	C343.6,524.5,343.1,524,342.5,523.9z"/>
<path class="st3" d="M207.4,437.7c17.1,50.8,64.1,85.6,117.7,87.2c8.3-2.2,12.4-3.3,12.4-3.3C317.6,467.9,264.6,433.7,207.4,437.7z"
	/>
<path class="st2" d="M216.6,442.3c-0.5-0.3-1.2-0.2-1.5,0.3c-0.3,0.5-0.2,1.2,0.3,1.5l115.4,80c0.5,0.3,1.2,0.2,1.5-0.3
	c0.3-0.5,0.2-1.2-0.3-1.5L216.6,442.3z"/>
<path class="st1" d="M510.6,530.8c0,0,4.1-1.2,12.3-3.7c45-29.3,66.9-83.5,55-135.8C527,417.8,499.6,474.5,510.6,530.8z"/>
<path class="st2" d="M573.9,399.5c-0.5-0.2-1.2,0-1.4,0.6l-56.7,128.4c-0.2,0.5,0,1.2,0.6,1.4c0.5,0.2,1.2,0,1.4-0.6L574.4,401
	C574.7,400.4,574.4,399.8,573.9,399.5z"/>
<path class="st1" d="M491.1,511c0,0,2.8,3.2,8.4,9.7c45.2,28.9,103.6,26.6,146.4-5.8C600.9,479.4,537.8,477.8,491.1,511z"/>
<path class="st2" d="M635.7,513.5l-140.4,1.2c-0.6,0-1.1,0.5-1.1,1.1c0,0.6,0.5,1.1,1.1,1.1l140.4-1.2c0.6,0,1.1-0.5,1.1-1.1
	C636.8,514,636.3,513.5,635.7,513.5z"/>
<path class="st3" d="M509.7,528.7c0,0,4.1,1.1,12.4,3.3c53.6-1.5,100.6-36.3,117.7-87.2C582.6,440.8,529.6,475,509.7,528.7z"/>
<path class="st2" d="M630.6,449.4l-115.4,80c-0.5,0.3-0.6,1-0.3,1.5c0.3,0.5,1,0.6,1.5,0.3l115.4-80c0.5-0.3,0.6-1,0.3-1.5
	C631.8,449.2,631.1,449.1,630.6,449.4z"/>
<path class="st4" d="M436,437.8c-66.5-7.9-99.7-11.9-99.7-11.9c-12.3,79.1-18.5,118.7-18.5,118.7c56.4,0,84.7,0,84.7,0
	c22.6-53.5,33.9-80.3,33.9-80.3l-10.9,7L436,437.8z"/>
<path class="st5" d="M410.2,459.7c-0.4-0.1-0.9,0.1-1,0.6l-24,84.2c0,0.1,0,0.2,0,0.2h1.7l23.9-84
	C410.9,460.3,410.7,459.8,410.2,459.7z"/>
<path class="st6" d="M513.5,427.6c0,0-36.9,6.4-110.6,19.1c33.7,65.3,50.6,98,50.6,98c58.1,0,87.1,0,87.1,0s-4.7-18.4-14.1-55.2
	C524.6,468.4,520.2,447.7,513.5,427.6z"/>
<defs>
	<filter id="Adobe_OpacityMaskFilter" filterUnits="userSpaceOnUse" x="445.7" y="430.1" width="89.3" height="114.6">
		<feColorMatrix  type="matrix" values="1 0 0 0 0  0 1 0 0 0  0 0 1 0 0  0 0 0 1 0"/>
	</filter>
</defs>
<mask maskUnits="userSpaceOnUse" x="445.7" y="430.1" width="89.3" height="114.6" id="SVGID_1_">
	<g class="st7">
		
			<linearGradient id="SVGID_2_" gradientUnits="userSpaceOnUse" x1="-410.8286" y1="685.6777" x2="-304.3286" y2="619.8177" gradientTransform="matrix(1 0 0 1 836.4801 -158.2838)">
			<stop  offset="0" style="stop-color:#000000"/>
			<stop  offset="1" style="stop-color:#FFFFFF"/>
		</linearGradient>
		<rect x="445.7" y="430.1" class="st8" width="89.3" height="114.6"/>
	</g>
</mask>
<path class="st9" d="M508.3,430.1c0,0-20.9,5.7-62.6,17.1c68,9.4,34.2,75.7,51.3,97.5c0,0,12.7,0,38,0c0,0-5-19.1-15-57.2
	C519.7,475,515.8,455.8,508.3,430.1z"/>
<path class="st5" d="M507.9,492L507.9,492l-19.4-66.4c-0.1-0.4-0.6-0.7-1-0.6c-0.4,0.1-0.7,0.6-0.6,1l19.4,66.4l0,0l16.2,52.1h1.7
	c0-0.1,0-0.2,0-0.2L507.9,492z"/>
<path class="st10" d="M506.3,177.8c-3-2.9-6.3-5.4-10-7.7c-14.8-9-48.2-13.7-65-17.2c-54.6,18.6-81.9,28-81.9,28
	c-6.2,3.4-15.6,8.3-23.3,12.2c-16.9,8.6-18.8,13.1-32.3,23.1c-13.2,57.3,1.9,100.1,45.2,128.5l-17.8-0.2
	c10.1,54.3,15.1,81.5,15.1,81.5c55.7,29,121,29.6,177.2,1.7c0,0-3.6-26.9-10.8-80.7l-44-0.6c26.7-7.3,46.1-16.9,58.3-28.8
	c0,0,8.5-12.5,25.6-37.4c1.5,0.7,3.2,0.5,4.6-0.4C533,229.5,526.3,196.8,506.3,177.8z"/>
<defs>
	<filter id="Adobe_OpacityMaskFilter_1_" filterUnits="userSpaceOnUse" x="356.3" y="364.6" width="150.4" height="73.4">
		<feColorMatrix  type="matrix" values="1 0 0 0 0  0 1 0 0 0  0 0 1 0 0  0 0 0 1 0"/>
	</filter>
</defs>
<mask maskUnits="userSpaceOnUse" x="356.3" y="364.6" width="150.4" height="73.4" id="SVGID_3_">
	<g class="st11">
		
			<linearGradient id="SVGID_4_" gradientUnits="userSpaceOnUse" x1="-360.6571" y1="725.1776" x2="-286.0671" y2="627.6676" gradientTransform="matrix(1 0 0 1 747.0879 -264.9971)">
			<stop  offset="0" style="stop-color:#000000"/>
			<stop  offset="1" style="stop-color:#FFFFFF"/>
		</linearGradient>
		<rect x="356.3" y="364.6" class="st12" width="150.4" height="73.4"/>
	</g>
</mask>
<path class="st13" d="M356.3,382.6c54.1,1.1,86.5,19.5,97.3,55.3c17.9-2.9,35.6-8,53.1-15.4c-5.3-38.6-7.9-57.9-7.9-57.9
	C454.4,363.6,406.9,369.6,356.3,382.6z"/>
<defs>
	<filter id="Adobe_OpacityMaskFilter_2_" filterUnits="userSpaceOnUse" x="369.7" y="222" width="124.4" height="115.3">
		<feColorMatrix  type="matrix" values="1 0 0 0 0  0 1 0 0 0  0 0 1 0 0  0 0 0 1 0"/>
	</filter>
</defs>
<mask maskUnits="userSpaceOnUse" x="369.7" y="222" width="124.4" height="115.3" id="SVGID_5_">
	<g class="st14">
		
			<linearGradient id="SVGID_6_" gradientUnits="userSpaceOnUse" x1="-429.8192" y1="562.1766" x2="-291.3792" y2="675.7665" gradientTransform="matrix(1 0 0 1 760.5014 -365.6069)">
			<stop  offset="0" style="stop-color:#000000"/>
			<stop  offset="1" style="stop-color:#FFFFFF"/>
		</linearGradient>
		<rect x="369.7" y="222" class="st15" width="124.4" height="115.3"/>
	</g>
</mask>
<path class="st16" d="M484.2,297.9c-1.7,0.4-3.4,0.5-5.1,0.5c-7.7-16.1-14-35.3-19-57.8c-2.8-3.3-5.9-9.4-9.5-18.6
	c2.4,21.7-5.6,43.3-21.4,58.4c-15.8,15.1-37.8,21.9-59.4,18.4c32.6,33.3,64.5,45,95.6,35.1c9.8,4.5,21.5,0.5,26.5-9.1
	C496.8,315.3,493.5,303.4,484.2,297.9z"/>
<defs>
	<filter id="Adobe_OpacityMaskFilter_3_" filterUnits="userSpaceOnUse" x="311.3" y="180.8" width="85.3" height="105.5">
		<feColorMatrix  type="matrix" values="1 0 0 0 0  0 1 0 0 0  0 0 1 0 0  0 0 0 1 0"/>
	</filter>
</defs>
<mask maskUnits="userSpaceOnUse" x="311.3" y="180.8" width="85.3" height="105.5" id="SVGID_7_">
	<g class="st17">
		
			<linearGradient id="SVGID_8_" gradientUnits="userSpaceOnUse" x1="-336.4283" y1="593.1711" x2="-353.1983" y2="674.8711" gradientTransform="matrix(1 0 0 1 702.0505 -416.7057)">
			<stop  offset="0" style="stop-color:#000000"/>
			<stop  offset="1" style="stop-color:#FFFFFF"/>
		</linearGradient>
		<rect x="311.3" y="180.8" class="st18" width="85.3" height="105.5"/>
	</g>
</mask>
<path class="st19" d="M349.4,180.8c-7.7,4.3-16.1,8.7-25.1,13.2c-11.6,7.7-16.1,22.6-10.7,35.4c2.4,9.2,6.6,17.4,12.6,24.8
	c23.7,21.4,35.5,32,35.5,32c15.9-5.9,28-18.9,32.7-35.2c4.7-16.2,1.5-33.8-8.7-47.2C367.7,202.5,355.6,194.8,349.4,180.8z"/>
<defs>
	<filter id="Adobe_OpacityMaskFilter_4_" filterUnits="userSpaceOnUse" x="323.6" y="351.7" width="86.4" height="95.7">
		<feColorMatrix  type="matrix" values="1 0 0 0 0  0 1 0 0 0  0 0 1 0 0  0 0 0 1 0"/>
	</filter>
</defs>
<mask maskUnits="userSpaceOnUse" x="323.6" y="351.7" width="86.4" height="95.7" id="SVGID_9_">
	<g class="st20">
		
			<linearGradient id="SVGID_10_" gradientUnits="userSpaceOnUse" x1="-318.1397" y1="616.4622" x2="-375.5497" y2="691.8122" gradientTransform="matrix(1 0 0 1 714.3999 -255.5337)">
			<stop  offset="0" style="stop-color:#000000"/>
			<stop  offset="1" style="stop-color:#FFFFFF"/>
		</linearGradient>
		<rect x="323.6" y="351.7" class="st21" width="86.4" height="95.7"/>
	</g>
</mask>
<path class="st22" d="M349,383.8c-3.5-6.5-3.6-14.4-0.2-21c-3.1-13-12.9-14.7-25.1-5c0,0,4.2,22.7,12.6,68
	c22.8,11.9,47.8,19.2,73.4,21.5c1.6-12.7-2.1-25.5-10.3-35.4C380.5,389.3,359,402.3,349,383.8z"/>
<defs>
	<filter id="Adobe_OpacityMaskFilter_5_" filterUnits="userSpaceOnUse" x="450.8" y="177.7" width="47.9" height="120.2">
		<feColorMatrix  type="matrix" values="1 0 0 0 0  0 1 0 0 0  0 0 1 0 0  0 0 0 1 0"/>
	</filter>
</defs>
<mask maskUnits="userSpaceOnUse" x="450.8" y="177.7" width="47.9" height="120.2" id="SVGID_11_">
	<g class="st23">
		
			<linearGradient id="SVGID_12_" gradientUnits="userSpaceOnUse" x1="-340.5371" y1="586.1057" x2="-385.6971" y2="683.5956" gradientTransform="matrix(1 0 0 1 841.5788 -405.0519)">
			<stop  offset="0" style="stop-color:#000000"/>
			<stop  offset="1" style="stop-color:#FFFFFF"/>
		</linearGradient>
		<rect x="450.8" y="177.7" class="st24" width="47.9" height="120.2"/>
	</g>
</mask>
<path class="st25" d="M480.4,233.5c-29.8-25.2,0.3-40-4.5-55.9c-11.4,4.7-20.1,14.3-23.5,26.2c-3.4,11.9-1.3,24.6,5.9,34.7
	c4.3,14,6.4,21.1,6.4,21.1s4.8,12.8,14.5,38.3c12.2-6.4,19.8-19.2,19.5-33C498.3,248.3,488.8,240.6,480.4,233.5z"/>
<path class="st2" d="M460.1,240.8l-8.6,11.8c-1.4,1.9-4,2.3-5.8,0.9l-11.9-8.7c-0.7-0.5-1.2-1.2-1.5-2c0-0.5-0.1-1-0.2-1.5
	c0-0.8,0.3-1.6,0.8-2.3l8.7-11.9c1.4-1.9,4-2.3,5.8-0.9l6.4,4.7c-0.2-0.7-0.2-1.4,0-2.1l-5.4-3.9c-2.6-1.9-6.3-1.3-8.2,1.3
	l-8.7,11.9c-0.3,0.4-0.5,0.7-0.6,1.1c-0.3-0.3-0.6-0.6-1-0.9l-11.9-8.7c-2.6-1.9-6.3-1.3-8.2,1.3l-8.7,11.9
	c-0.3,0.4-0.6,0.9-0.7,1.3c-0.3-0.4-0.7-0.7-1.1-1.1l-11.9-8.7c-2.6-1.9-6.3-1.3-8.2,1.3l-8.7,11.9c-0.3,0.4-0.5,0.7-0.6,1.1
	c-0.3-0.3-0.6-0.6-1-0.9l-11.9-8.7c-2.6-1.9-6.3-1.3-8.2,1.3l-8.7,11.9c-0.3,0.4-0.6,0.9-0.7,1.3c-0.3-0.4-0.7-0.7-1.1-1.1
	l-11.9-8.7c-2.2-1.6-5.1-1.4-7.1,0.1c0.4,0.3,0.8,0.8,1.2,1.2c1.4-1.1,3.4-1.1,4.9,0l11.9,8.7c1.9,1.4,2.3,4,0.9,5.8l-8.7,11.9
	c-1.4,1.9-4,2.3-5.8,0.9l-8-5.8c-0.4,0.4-1,0.7-1.5,0.9l8.5,6.2c2.6,1.9,6.3,1.3,8.2-1.3l8.7-11.9c0.3-0.4,0.6-0.9,0.7-1.3
	c0.3,0.4,0.7,0.7,1.1,1.1l11.9,8.7c2.6,1.9,6.3,1.3,8.2-1.3l8.7-11.9c0.3-0.4,0.5-0.7,0.6-1.1c0.3,0.3,0.6,0.6,1,0.9l11.9,8.7
	c2.6,1.9,6.3,1.3,8.2-1.3l8.7-11.9c0.3-0.4,0.6-0.9,0.7-1.3c0.3,0.4,0.7,0.7,1.1,1.1l11.9,8.7c2.6,1.9,6.3,1.3,8.2-1.3l8.7-11.9
	c0.3-0.4,0.5-0.7,0.6-1.1c0.3,0.3,0.6,0.6,1,0.9l11.9,8.7c2.6,1.9,6.3,1.3,8.2-1.3l8-11c-0.3-0.5-0.5-1-0.6-1.6
	C460.2,241,460.2,240.9,460.1,240.8z M369,255l-8.7,11.9c-1.4,1.9-4,2.3-5.8,0.9l-11.9-8.7c-1.9-1.4-2.3-4-0.9-5.8l8.7-11.9
	c1.4-1.9,4-2.3,5.8-0.9l11.9,8.7c0.7,0.5,1.2,1.2,1.5,2c0,0.5,0.1,1,0.2,1.5C369.8,253.5,369.5,254.3,369,255z M399.3,250.3
	l-8.7,11.9c-1.4,1.9-4,2.3-5.8,0.9l-11.9-8.7c-0.7-0.5-1.2-1.2-1.5-2c0-0.5-0.1-1-0.2-1.5c0-0.8,0.3-1.6,0.8-2.3l8.7-11.9
	c1.4-1.9,4-2.3,5.8-0.9l11.9,8.7C400.2,245.8,400.7,248.4,399.3,250.3z M429.9,245.5l-8.7,11.9c-1.4,1.9-4,2.3-5.8,0.9l-11.9-8.7
	c-1.9-1.4-2.3-4-0.9-5.8l8.7-11.9c1.4-1.9,4-2.3,5.8-0.9l11.9,8.7c0.7,0.5,1.2,1.2,1.5,2c0,0.5,0.1,1,0.2,1.5
	C430.6,244,430.4,244.8,429.9,245.5z"/>
<defs>
	<filter id="Adobe_OpacityMaskFilter_6_" filterUnits="userSpaceOnUse" x="274.7" y="257.5" width="23.8" height="5.6">
		<feColorMatrix  type="matrix" values="1 0 0 0 0  0 1 0 0 0  0 0 1 0 0  0 0 0 1 0"/>
	</filter>
</defs>
<mask maskUnits="userSpaceOnUse" x="274.7" y="257.5" width="23.8" height="5.6" id="SVGID_13_">
	<g class="st26">
		
			<linearGradient id="SVGID_14_" gradientUnits="userSpaceOnUse" x1="-398.8547" y1="651.2163" x2="-354.1847" y2="696.9663" gradientTransform="matrix(1 0 0 1 665.4271 -439.85)">
			<stop  offset="0" style="stop-color:#000000"/>
			<stop  offset="1" style="stop-color:#FFFFFF"/>
		</linearGradient>
		<rect x="274.7" y="226.6" class="st27" width="49.2" height="36.5"/>
	</g>
</mask>
<path class="st28" d="M298.5,257.5c-15.9,3.2-23.8,4.9-23.8,4.9C283,264.2,291.7,262.4,298.5,257.5z"/>
<defs>
	<filter id="Adobe_OpacityMaskFilter_7_" filterUnits="userSpaceOnUse" x="298.5" y="226.6" width="25.4" height="30.9">
		<feColorMatrix  type="matrix" values="1 0 0 0 0  0 1 0 0 0  0 0 1 0 0  0 0 0 1 0"/>
	</filter>
</defs>
<mask maskUnits="userSpaceOnUse" x="298.5" y="226.6" width="25.4" height="30.9" id="SVGID_15_">
	<g class="st29">
		
			<linearGradient id="SVGID_16_" gradientUnits="userSpaceOnUse" x1="-398.8547" y1="651.2163" x2="-354.1847" y2="696.9663" gradientTransform="matrix(1 0 0 1 665.4271 -439.85)">
			<stop  offset="0" style="stop-color:#000000"/>
			<stop  offset="1" style="stop-color:#FFFFFF"/>
		</linearGradient>
		<rect x="274.7" y="226.6" class="st30" width="49.2" height="36.5"/>
	</g>
</mask>
<path class="st31" d="M302.3,254.3c-1.2,1.2-2.4,2.3-3.8,3.2c6.9-1.4,15.4-3.1,25.4-5.2c0,0-4.6-8.6-13.9-25.8
	C312.3,236.5,309.4,247,302.3,254.3z"/>
<path class="st32" d="M473,345.2c-0.4-0.1-0.8-0.1-1.1,0c-0.3,0.1-0.6,0.4-0.7,0.8c-4.3,11.4-10.6,21.5-18.3,30.2
	c-7.9,8.9-17.4,16.3-27.8,21.8c-10.4,5.5-21.9,9.1-33.7,10.5c-11.5,1.4-23.4,0.8-35.2-2.1c-0.4-0.1-0.8,0-1.1,0.2v0
	c-0.3,0.2-0.5,0.5-0.6,0.9c-0.1,0.4,0,0.8,0.2,1.1h0c0.2,0.3,0.5,0.5,0.9,0.6c12.2,3,24.4,3.6,36.2,2.2c12.2-1.5,23.9-5.2,34.7-10.8
	c10.7-5.6,20.5-13.2,28.6-22.4c7.9-8.9,14.3-19.3,18.8-31c0.1-0.4,0.1-0.8,0-1.1C473.6,345.6,473.4,345.4,473,345.2z"/>
<path class="st32" d="M441.5,252.1c-0.3,0-0.6,0.2-0.9,0.4c-4.4,5.1-9.4,9.5-14.9,13.1c-5.5,3.7-11.5,6.7-17.8,8.8
	c-6.3,2.1-12.8,3.4-19.5,3.8c-6.5,0.4-13.2-0.1-19.8-1.4c-6.6-1.4-12.9-3.6-18.7-6.6c-6-3-11.4-6.8-16.4-11.3
	c-4.9-4.4-9.2-9.5-12.8-15.2c-3.5-5.5-6.4-11.6-8.4-18c-0.1-0.3-0.3-0.6-0.6-0.7h0c-0.3-0.1-0.6-0.2-1-0.1c-0.3,0.1-0.6,0.3-0.7,0.6
	v0c-0.1,0.3-0.2,0.6-0.1,1c2.1,6.6,5,12.9,8.7,18.6c3.7,5.8,8.2,11.1,13.3,15.7c5.1,4.6,10.8,8.5,16.9,11.6c6,3.1,12.5,5.4,19.4,6.8
	c6.8,1.4,13.7,1.9,20.5,1.5c6.9-0.4,13.7-1.7,20.1-3.9c6.5-2.2,12.7-5.2,18.4-9.1c5.6-3.8,10.8-8.3,15.4-13.6
	c0.2-0.3,0.3-0.6,0.3-0.9c0-0.3-0.2-0.6-0.4-0.9C442.1,252.1,441.8,252,441.5,252.1z"/>
<path class="st32" d="M483.8,173.6L483.8,173.6c-0.1-0.4-0.3-0.6-0.6-0.8c-0.3-0.2-0.6-0.2-0.9-0.1h0l0,0c-3.5,0.9-6.8,2.3-9.9,4
	c-3.1,1.8-6,3.9-8.6,6.3c-2.6,2.4-4.9,5.2-6.8,8.2c-1.9,3-3.5,6.2-4.6,9.6c-1.2,3.4-1.9,6.9-2.2,10.4c-0.3,3.6-0.1,7.2,0.4,10.7
	c0.5,2.8,1.2,5.5,2.2,8.1c1,2.6,2.2,5.1,3.6,7.5c-0.4,5.6-1.3,11-2.8,16.3c-1.5,5.4-3.5,10.6-6,15.5c-2.5,5-5.6,9.7-9.1,14.1
	c-3.5,4.4-7.4,8.4-11.7,12c-4.3,3.6-9,6.8-13.9,9.4c-5,2.7-10.2,4.8-15.5,6.4c-5.4,1.6-10.9,2.7-16.5,3.2
	c-5.5,0.5-11.2,0.4-16.8-0.2h0c-0.3,0-0.7,0.1-0.9,0.3c-0.2,0.2-0.4,0.5-0.5,0.8c0,0.3,0.1,0.7,0.3,0.9c0.2,0.2,0.5,0.4,0.8,0.5
	c5.8,0.7,11.6,0.7,17.3,0.2c5.8-0.5,11.5-1.6,17-3.3c5.5-1.7,10.9-3.9,16-6.6c5.1-2.7,9.9-6,14.3-9.7c4.5-3.7,8.5-7.9,12.1-12.4
	c3.6-4.5,6.7-9.4,9.4-14.6c2.4-4.7,4.3-9.6,5.8-14.6c1.4-4.9,2.4-9.9,3-15l0.2,0.3c1.2,4.8,2.5,9.6,3.8,14.4
	c1.4,4.8,2.8,9.6,4.3,14.3c1.5,4.8,3.1,9.5,4.7,14.2c1.7,4.7,3.4,9.4,5.2,14.1l0,0c0.1,0.3,0.4,0.6,0.7,0.7c0.3,0.1,0.6,0.1,1,0l0,0
	l0,0c0.3-0.1,0.6-0.4,0.7-0.7c0.1-0.3,0.1-0.6,0-1c-1.8-4.6-3.5-9.3-5.2-14c-1.6-4.7-3.2-9.4-4.7-14.2c-1.5-4.8-2.9-9.6-4.3-14.3
	c-1.4-4.8-2.6-9.6-3.8-14.4c0-0.1-0.1-0.2-0.1-0.3c0-0.1-0.1-0.2-0.1-0.2c-0.4-0.5-0.8-1-1.1-1.6c-0.4-0.5-0.7-1.1-1.1-1.6l0,0l0,0
	l0,0h0c-1.4-2.3-2.6-4.7-3.6-7.3c-1-2.5-1.7-5.2-2.1-7.8c-0.5-3.3-0.7-6.7-0.4-10.1c0.3-3.3,1-6.6,2-9.9c1.1-3.2,2.6-6.3,4.4-9.1
	c1.8-2.8,4-5.4,6.4-7.7c2.4-2.3,5.2-4.3,8.1-5.9c2.9-1.6,6-2.9,9.3-3.8l0,0l0,0c0.3-0.1,0.6-0.3,0.7-0.6
	C483.8,174.3,483.8,173.9,483.8,173.6L483.8,173.6z"/>
<path class="st33" d="M329.8,121.4c-1.5-1.6-4.1-1.6-5.6-0.1l-29,28c-1.6,1.5-1.6,4.1-0.1,5.6l22.7,23.6c1.5,1.6,4.1,1.6,5.6,0.1
	l29-28c1.6-1.5,1.6-4.1,0.1-5.6L329.8,121.4z"/>
<path class="st34" d="M323.8,122.3c-1.5-1.6-4.1-1.6-5.6-0.1l-29,28c-1.6,1.5-1.6,4.1-0.1,5.6l22.7,23.6c1.5,1.6,4.1,1.6,5.6,0.1
	l29-28c1.6-1.5,1.6-4.1,0.1-5.6L323.8,122.3z"/>
<path class="st35" d="M323.1,125.8c-1.3-1.4-3.6-1.4-4.9-0.1l-25.4,24.5c-1.4,1.3-1.4,3.6-0.1,4.9l19.9,20.7
	c1.3,1.4,3.6,1.4,4.9,0.1l25.4-24.5c1.4-1.3,1.4-3.6,0.1-4.9L323.1,125.8z"/>
<path class="st36" d="M326.7,167.2c-7.8,5.5-11.7,8.2-11.7,8.2c-6.8-4.5-10.2-6.8-10.2-6.8s2.1-3.9,6.4-11.7
	c0.9,0.3,1.9,0.3,2.7-0.2c0.9-0.4,1.5-1.2,1.8-2.1c0,0-0.6-3.3-1.8-9.9c0,0-2.2-2.3-6.5-6.9c-1-0.9-2.5-1.3-3.8-1
	c-1.4,0.3-2.5,1.2-3,2.5c-2.7-1.3-6-0.3-7.5,2.3c-3-1.3-6.5-0.1-8.1,2.8c0,0-4.2,3.1-12.6,9.4c-2.9,1.7-3.7,4.4-2.4,8.2
	c0,0,0,10.8-0.1,32.3c-14.1,39.6-21.1,59.4-21.1,59.4c27.2,8.5,43.2,7.3,48-3.7c3.7-33.8,5.6-50.8,5.6-50.8
	c4.4-1.2,8.2-3.2,11.5-5.9c11.8-12.6,17.7-18.9,17.7-18.9c1.5-1.5,1.7-3.9,0.5-5.7C330.9,167.1,328.7,166.4,326.7,167.2z"/>
<path class="st36" d="M235.2,324c3.3,8.4,10.4,13.4,20.8,9.9c2.9-15.1-3.9-31.7-20.3-49.7C232.3,297.2,230.3,311.3,235.2,324z"/>
<path class="st33" d="M467.7,329.1L467.7,329.1C467.7,329.1,467.7,329,467.7,329.1c0-0.6-0.1-2-0.2-4.4c-2.8,1.2-4.3,2.1-4.4,2.8
	c-0.1,0-0.2,0-0.3,0l-44.4-0.6l13.2,31.4c0.1,0,0.1-0.1,0.2-0.1c0.4-0.4,1-0.4,1.5-0.3l33-26.6C467.2,330.4,467.7,329.7,467.7,329.1
	C467.7,329.2,467.7,329.2,467.7,329.1L467.7,329.1L467.7,329.1z"/>
<path class="st37" d="M462.5,323.1c0,0-14.8-0.2-44.4-0.6c9,21.4,13.5,32.1,13.5,32.1s11.5-9.2,34.4-27.7
	C468.8,324.5,467.6,323.2,462.5,323.1z"/>
<path class="st33" d="M409.2,162.1c-3.7,0-7-1.5-9.4-4c-0.8-0.8-1.5-1.6-2-2.5c-0.8-1.1-1.4-2.2-1.8-3.5c-0.4-0.7-0.7-1.4-1-2.2
	l-1.4-2.7c-0.9-1.8-1.4-3.8-1.4-5.8c-0.5-0.7-0.9-1.4-1.3-2.2c-0.1-0.2-0.2-0.3-0.2-0.5c-0.7-1.3-1.2-2.7-1.4-4.2
	c0-0.2-0.1-0.4-0.1-0.5c-0.1-0.4-0.3-0.7-0.4-1.1c-0.1-0.3-0.2-0.6-0.3-0.9c-0.2-0.7-0.4-1.3-0.6-2.1l-2.1-6.4
	c-0.5-1.1-0.8-2.2-1.1-3.4l-0.4-1.3l-0.5-1.5c-0.2-0.5-0.4-1-0.6-1.5c-0.4-1-0.7-2.1-1-3.2l-0.2-0.5c-0.7-1.4-1.1-2.9-1.3-4.4
	c-0.5-1.2-0.8-2.4-1-3.6c-1.6-4.2-0.9-8.8,1.6-12.3c-3.3,0.3-6.5,1.7-9.1,4.1c-4.6,4.4-6.1,11.1-3.7,17L350,159
	c3.3,2.4,5.5,6.3,5.5,10.7c0,4.7-2.4,8.8-6.1,11.1l-0.1,0.1c0.8,21.1,19.6,32,42.1,24.3c22.5-7.7,40.3-31,39.8-52.3l-9.4-1
	C420.6,157.7,415.4,162.1,409.2,162.1z"/>
<path class="st38" d="M394.1,113.8c0.4-5.4-1.2-10.5-6.1-12.8c-4.9-2.4-10.8-1.4-14.7,2.3c-4,3.7-5.2,9.5-3.2,14.5
	c-11.7,29.4-17.6,44.1-17.6,44.1c3.2,4,3.7,9.6,1.3,14.1c0.6,18.1,16.8,27.4,36.1,20.8c19.3-6.6,34.5-26.6,34.1-44.8
	c-8.1-0.9-12.1-1.3-12.1-1.3C402.5,140.5,395.5,127.5,394.1,113.8z"/>
<defs>
	<filter id="Adobe_OpacityMaskFilter_8_" filterUnits="userSpaceOnUse" x="353.7" y="95.1" width="39.2" height="103.9">
		<feColorMatrix  type="matrix" values="1 0 0 0 0  0 1 0 0 0  0 0 1 0 0  0 0 0 1 0"/>
	</filter>
</defs>
<mask maskUnits="userSpaceOnUse" x="353.7" y="95.1" width="39.2" height="103.9" id="SVGID_17_">
	<g class="st39">
		
			<linearGradient id="SVGID_18_" gradientUnits="userSpaceOnUse" x1="-398.985" y1="724.9099" x2="-358.3451" y2="616.8799" gradientTransform="matrix(1 0 0 1 744.5103 -503.9487)">
			<stop  offset="0" style="stop-color:#000000"/>
			<stop  offset="1" style="stop-color:#FFFFFF"/>
		</linearGradient>
		<rect x="353.7" y="95.1" class="st40" width="39.2" height="103.9"/>
	</g>
</mask>
<path class="st41" d="M354.5,165.4c1.3,3.5,1.1,7.1-0.7,10.6c0,5.8,2.2,11.4,6.1,15.7c2.9,3.1,6.6,5.3,10.7,6.3
	c3.8,0.9,7.7,1.2,11.5,0.6c3.7-0.5,7.2-1.5,10.6-2.9c1.3-0.2-2.1-32.7-5.2-88.7C389.6,78.9,381,101.2,354.5,165.4z"/>
<defs>
	<filter id="Adobe_OpacityMaskFilter_9_" filterUnits="userSpaceOnUse" x="353.7" y="121.5" width="29.9" height="56.7">
		<feColorMatrix  type="matrix" values="1 0 0 0 0  0 1 0 0 0  0 0 1 0 0  0 0 0 1 0"/>
	</filter>
</defs>
<mask maskUnits="userSpaceOnUse" x="353.7" y="121.5" width="29.9" height="56.7" id="SVGID_19_">
	<g class="st42">
		
			<linearGradient id="SVGID_20_" gradientUnits="userSpaceOnUse" x1="-390.7621" y1="674.5736" x2="-360.9035" y2="674.5736" gradientTransform="matrix(1 0 0 1 744.5103 -524.7519)">
			<stop  offset="0" style="stop-color:#000000"/>
			<stop  offset="1" style="stop-color:#FFFFFF"/>
		</linearGradient>
		<rect x="353.7" y="121.5" class="st43" width="29.9" height="56.7"/>
	</g>
</mask>
<path class="st44" d="M354.5,165.4c1.3,3.5,1.1,7.1-0.7,10.6c0,0.7,0.1,1.4,0.2,2.1c21.7-9.8,33.6-33.4,28.6-56.6
	C372.3,120.2,362.9,134.8,354.5,165.4z"/>
<path class="st36" d="M359,72.5c-15.1-7.8-33.5-5.1-45.7,6.8c-6.9,10.9-8.4,17.5-7.8,22.3c0.3,2.8,1.2,5,2.3,7.1
	c1.9,3.7,2.2,7.2,2.1,10.5c-0.2,5.6-0.9,8.4-0.2,11.5c1.6,7.9,14.4,22.7,19.4,29.7c6.8,18.1,25.8,9.2,36.4,1.1
	c20.7-16,18.3-43.3,14.9-51.8C382.9,92.9,374.1,80.3,359,72.5z"/>
<defs>
	<filter id="Adobe_OpacityMaskFilter_10_" filterUnits="userSpaceOnUse" x="342" y="85.6" width="37.5" height="70.4">
		<feColorMatrix  type="matrix" values="1 0 0 0 0  0 1 0 0 0  0 0 1 0 0  0 0 0 1 0"/>
	</filter>
</defs>
<mask maskUnits="userSpaceOnUse" x="342" y="85.6" width="37.5" height="70.4" id="SVGID_21_">
	<g class="st45">
		
			<linearGradient id="SVGID_22_" gradientUnits="userSpaceOnUse" x1="-379.967" y1="693.3179" x2="-361.857" y2="635.2179" gradientTransform="matrix(1 0 0 1 732.7641 -546.9338)">
			<stop  offset="0" style="stop-color:#000000"/>
			<stop  offset="1" style="stop-color:#FFFFFF"/>
		</linearGradient>
		<rect x="342" y="85.6" class="st46" width="37.5" height="70.4"/>
	</g>
</mask>
<path class="st47" d="M344,85.8c-12.6,49,40.3,25.7,23,70.2c8.4-11.4,12.3-23.7,11.7-36.9C383,95.1,371.4,84,344,85.8z"/>
<defs>
	<filter id="Adobe_OpacityMaskFilter_11_" filterUnits="userSpaceOnUse" x="334.5" y="102.3" width="41.1" height="22.6">
		<feColorMatrix  type="matrix" values="1 0 0 0 0  0 1 0 0 0  0 0 1 0 0  0 0 0 1 0"/>
	</filter>
</defs>
<mask maskUnits="userSpaceOnUse" x="334.5" y="102.3" width="41.1" height="22.6" id="SVGID_23_">
	<g class="st48">
		
			<linearGradient id="SVGID_24_" gradientUnits="userSpaceOnUse" x1="-390.6601" y1="693.0891" x2="-351.0201" y2="690.2891" gradientTransform="matrix(1 0 0 1 725.2693 -578.0483)">
			<stop  offset="0" style="stop-color:#000000"/>
			<stop  offset="1" style="stop-color:#FFFFFF"/>
		</linearGradient>
		<rect x="334.5" y="102.3" class="st49" width="41.1" height="22.6"/>
	</g>
</mask>
<path class="st50" d="M345.1,102.3c2.7,4.1,3,9.3,0.8,13.6c-2.2,4.4-6.6,7.2-11.4,7.5c4.4,2.1,9.6,1.9,13.8-0.5
	c4.2-2.4,7-6.8,7.4-11.7c13.3-0.3,19.9-0.5,19.9-0.5s-1.4-2.7-4.1-8.1C371.5,102.7,362.7,102.6,345.1,102.3z"/>
<defs>
	<filter id="Adobe_OpacityMaskFilter_12_" filterUnits="userSpaceOnUse" x="305.4" y="68.9" width="37.3" height="102.1">
		<feColorMatrix  type="matrix" values="1 0 0 0 0  0 1 0 0 0  0 0 1 0 0  0 0 0 1 0"/>
	</filter>
</defs>
<mask maskUnits="userSpaceOnUse" x="305.4" y="68.9" width="37.3" height="102.1" id="SVGID_25_">
	<g class="st51">
		
			<linearGradient id="SVGID_26_" gradientUnits="userSpaceOnUse" x1="-322.4744" y1="666.7135" x2="-396.4444" y2="644.5935" gradientTransform="matrix(1 0 0 1 696.1272 -531.904)">
			<stop  offset="0" style="stop-color:#000000"/>
			<stop  offset="1" style="stop-color:#FFFFFF"/>
		</linearGradient>
		<rect x="305.4" y="68.9" class="st52" width="37.3" height="102.1"/>
	</g>
</mask>
<path class="st53" d="M333.1,68.9c-7.3,1.5-14.2,5-19.8,10.4c-6.9,10.9-8.4,17.5-7.8,22.3c0.3,2.8,1.2,5,2.3,7.1
	c1.9,3.7,2.2,7.2,2.1,10.5c-0.2,5.6-0.9,8.4-0.2,11.5c1.6,7.9,14.4,22.7,19.4,29.7c2.9,7.6,7.9,10.5,13.6,10.6
	c-13.1-15.7-21-36-21-58.1C321.7,97,325.8,82,333.1,68.9z"/>
<path class="st54" d="M374,61.7c-2.4-14.4-21.2-14.6-56.4-0.5c-16.9-20.7-31.8,40.4,3.9,20.7c29.6-16.3,23.5-6,22.5,2.9
	c-1.8,15.8,25,3.4,25.5,19c6.8-3.8,14.1-3.3,18.4,3.2c4.5,7.2,6.7,10.5,7.5,5.8C402.8,74.9,391.3,58.5,374,61.7z"/>
<defs>
	<filter id="Adobe_OpacityMaskFilter_13_" filterUnits="userSpaceOnUse" x="358" y="51" width="39.6" height="63.9">
		<feColorMatrix  type="matrix" values="1 0 0 0 0  0 1 0 0 0  0 0 1 0 0  0 0 0 1 0"/>
	</filter>
</defs>
<mask maskUnits="userSpaceOnUse" x="358" y="51" width="39.6" height="63.9" id="SVGID_27_">
	<g class="st55">
		
			<linearGradient id="SVGID_28_" gradientUnits="userSpaceOnUse" x1="-426.0713" y1="650.1668" x2="-360.2913" y2="675.0068" gradientTransform="matrix(1 0 0 1 748.7994 -588.0206)">
			<stop  offset="0" style="stop-color:#000000"/>
			<stop  offset="1" style="stop-color:#FFFFFF"/>
		</linearGradient>
		<rect x="358" y="51" class="st56" width="39.6" height="63.9"/>
	</g>
</mask>
<path class="st57" d="M374,61.7c-1-6.2-5-9.7-12.1-10.7c4.6,5.3,7.5,12.3,7.5,19.9c0,9.6-4.4,18.1-11.4,23.7
	c5.8,0.8,11.2,2.2,11.4,9.1c6.8-3.8,14.1-3.3,18.4,3.2c4.5,7.2,6.7,10.5,7.5,5.8C402.8,74.9,391.3,58.5,374,61.7z"/>
<defs>
	<filter id="Adobe_OpacityMaskFilter_14_" filterUnits="userSpaceOnUse" x="299.7" y="55.2" width="34.7" height="30.6">
		<feColorMatrix  type="matrix" values="1 0 0 0 0  0 1 0 0 0  0 0 1 0 0  0 0 0 1 0"/>
	</filter>
</defs>
<mask maskUnits="userSpaceOnUse" x="299.7" y="55.2" width="34.7" height="30.6" id="SVGID_29_">
	<g class="st58">
		
			<linearGradient id="SVGID_30_" gradientUnits="userSpaceOnUse" x1="-348.522" y1="701.1707" x2="-395.972" y2="675.3506" gradientTransform="matrix(1 0 0 1 690.448 -617.1565)">
			<stop  offset="0" style="stop-color:#000000"/>
			<stop  offset="1" style="stop-color:#FFFFFF"/>
		</linearGradient>
		<rect x="299.7" y="55.2" class="st59" width="34.7" height="30.6"/>
	</g>
</mask>
<path class="st60" d="M318.1,83.5c0-0.5,0-1,0-1.5c0-11.7,6.6-21.8,16.3-26.9c-5.1,1.6-10.7,3.6-16.7,6
	C301.3,41.1,286.9,97.4,318.1,83.5z"/>
<path class="st61" d="M340.7,94.6c-3.9-1-7.9-1.1-11.8-0.4c-3.9,0.7-7.6,2.2-10.9,4.5c-0.7,0.5-0.9,1.4-0.4,2.1
	c0.5,0.7,1.4,0.9,2.1,0.4c3-2.1,6.3-3.4,9.7-4c3.5-0.6,7-0.5,10.5,0.4c0.8,0.2,1.6-0.3,1.8-1.1C342,95.6,341.6,94.8,340.7,94.6z"/>
<path class="st61" d="M311.2,101.7c-1.8,0.5-3.6,1.3-5.1,2.3c-1.6,1-3,2.3-4.2,3.7c-0.5,0.6-0.5,1.6,0.2,2.1
	c0.6,0.5,1.6,0.5,2.1-0.2c1-1.2,2.2-2.3,3.5-3.1c1.3-0.8,2.8-1.5,4.3-1.9c0.8-0.2,1.3-1.1,1.1-1.9C312.9,102,312,101.5,311.2,101.7z
	"/>
<path class="st62" d="M332.1,108.1c-1.1,0-1.9,0.9-1.9,1.9c0,1.1,0.9,1.9,1.9,1.9s1.9-0.9,1.9-1.9
	C334,108.9,333.2,108.1,332.1,108.1z"/>
<path class="st62" d="M312.2,116c-1,0-1.8,0.8-1.8,1.8c0,1,0.8,1.8,1.8,1.8c1,0,1.8-0.8,1.8-1.8C314,116.8,313.2,116,312.2,116z"/>
<path class="st2" d="M319.2,117.3L319.2,117.3L319.2,117.3l0-0.1l0,0c-0.5-3.5-2.3-6.6-4.7-8.6c-2.4-2-5.6-3.1-8.8-2.6h0l-0.1,0
	c-3.2,0.5-5.9,2.4-7.7,5.1c-1.7,2.6-2.5,6-2,9.6v0l0,0.1l0,0l0,0l0,0c0.5,3.5,2.3,6.6,4.7,8.6c2.4,2,5.6,3.1,8.8,2.6h0l0.1,0
	c3.2-0.5,5.9-2.4,7.7-5.1C318.9,124.2,319.7,120.8,319.2,117.3L319.2,117.3z M315.5,125.8c-1.5,2.2-3.7,3.8-6.3,4.2l0,0
	c-2.7,0.4-5.2-0.5-7.3-2.2c-2.1-1.7-3.6-4.3-4-7.3v0l0-0.1c-0.4-3.1,0.2-6,1.7-8.2c1.5-2.2,3.7-3.8,6.3-4.2l0,0
	c2.7-0.4,5.2,0.5,7.3,2.2c2.1,1.7,3.6,4.3,4,7.3v0l0,0.1C317.7,120.6,317,123.5,315.5,125.8z"/>
<path class="st33" d="M305.5,112.5c-1.6,0-2.9,1.3-2.9,2.9c0,1.6,1.3,2.9,2.9,2.9c1.6,0,2.9-1.3,2.9-2.9
	C308.4,113.8,307.1,112.5,305.5,112.5z"/>
<path class="st33" d="M326.3,105.6c-1.6,0-2.9,1.3-2.9,2.9c0,1.6,1.3,2.9,2.9,2.9s2.9-1.3,2.9-2.9
	C329.3,106.9,328,105.6,326.3,105.6z"/>
<path class="st63" d="M339.7,133.6c-3.4,3.4-6.5,5.8-9.3,7.3c-2.8,1.4-5.3,1.9-7.5,1.6c-0.6-0.1-1.2,0.3-1.3,0.9
	c-0.1,0.6,0.3,1.2,0.9,1.3c2.8,0.5,5.7-0.1,8.9-1.8c3.1-1.6,6.4-4.2,9.9-7.7c0.4-0.4,0.4-1.2,0-1.6
	C340.9,133.1,340.2,133.1,339.7,133.6z"/>
<path class="st64" d="M328.4,124.1c-1.2-0.8-2.7-0.9-3.9-0.2c-0.2-0.6-4.2-16.5-6.9-14c-2.6,2.3-3.5,16-3.5,17.9
	c-0.2,6.2,1.6,10.9,9.5,5.2c0.7-1.6,2-2.4,3.8-2.3c1.4-0.4,2.4-1.5,2.6-2.9C330.2,126.4,329.6,125,328.4,124.1z"/>
<path class="st63" d="M337.8,141.4c-1.7,1.7-3.3,3-4.8,3.7c-1.4,0.7-2.7,1-3.8,0.8c-0.3-0.1-0.6,0.2-0.7,0.5
	c-0.1,0.3,0.2,0.6,0.5,0.7c1.4,0.2,2.9-0.1,4.6-0.9c1.6-0.8,3.3-2.1,5.1-3.9c0.2-0.2,0.2-0.6,0-0.8
	C338.4,141.1,338,141.1,337.8,141.4z"/>
<path class="st2" d="M391.6,105.2l-10.2-3.8l0,0c-0.1,0-0.2-0.1-0.3-0.1l-34.9,0.2c-0.5-0.7-1-1.4-1.7-2c-2.5-2.5-6-4.1-9.9-4.1
	s-7.4,1.6-9.9,4.1c-2.5,2.5-4.1,6-4.1,9.9c0,1.8,0.3,3.5,0.9,5.1c-1.6-0.1-3-0.1-4.1,0.1c-1.7,0.3-2.9,0.9-3.6,1.9
	c-0.4,0.5-0.2,1.2,0.3,1.6c0.5,0.4,1.2,0.2,1.6-0.3c0.3-0.5,1-0.8,2-0.9c1.2-0.2,2.9-0.2,5,0.1c0.6,0.9,1.2,1.7,1.9,2.4
	c2.5,2.5,6,4.1,9.9,4.1s7.4-1.6,9.9-4.1c2.5-2.5,4.1-6,4.1-9.9c0-2.1-0.5-4.1-1.3-5.9l33.7-0.2l10.1,3.7c0.5,0.2,1.1-0.1,1.3-0.6
	C392.3,105.9,392.1,105.3,391.6,105.2z M343,117.9c-2.2,2.2-5.2,3.5-8.5,3.5c-3.3,0-6.3-1.3-8.5-3.5c-2.2-2.2-3.5-5.2-3.5-8.5
	c0-3.3,1.3-6.3,3.5-8.5c2.2-2.2,5.2-3.5,8.5-3.5c3.3,0,6.3,1.3,8.5,3.5c2.2,2.2,3.5,5.2,3.5,8.5C346.5,112.7,345.2,115.7,343,117.9z
	"/>
<path class="st36" d="M378.5,91c-5.5,0.4-10,6.9-10.1,14.5c-0.1,7.6,4.2,13.4,9.6,13c5.5-0.4,10-6.9,10.1-14.5
	C388.3,96.4,384,90.6,378.5,91z"/>
<path class="st64" d="M380.6,97.1c-3.3,0.3-6,4.2-6.1,8.7c-0.1,4.6,2.5,8.1,5.8,7.8c3.3-0.3,6-4.2,6.1-8.7
	C386.5,100.3,383.9,96.8,380.6,97.1z"/>
<path class="st63" d="M378.1,100c-1.9,0.1-3.5,2.4-3.5,5.1c0,2.6,1.5,4.7,3.4,4.5c1.9-0.1,3.5-2.4,3.5-5.1
	C381.5,101.9,380,99.9,378.1,100z"/>
<defs>
	<filter id="Adobe_OpacityMaskFilter_15_" filterUnits="userSpaceOnUse" x="486.9" y="179.1" width="53.8" height="102.6">
		<feColorMatrix  type="matrix" values="1 0 0 0 0  0 1 0 0 0  0 0 1 0 0  0 0 0 1 0"/>
	</filter>
</defs>
<mask maskUnits="userSpaceOnUse" x="486.9" y="179.1" width="53.8" height="102.6" id="SVGID_31_">
	<g class="st65">
		
			<linearGradient id="SVGID_32_" gradientUnits="userSpaceOnUse" x1="-427.0815" y1="626.4035" x2="-340.6315" y2="660.9135" gradientTransform="matrix(1 0 0 1 877.6715 -421.2091)">
			<stop  offset="0" style="stop-color:#000000"/>
			<stop  offset="1" style="stop-color:#FFFFFF"/>
		</linearGradient>
		<rect x="486.9" y="179.1" class="st66" width="53.8" height="102.6"/>
	</g>
</mask>
<path class="st67" d="M487.2,202.5c3.2,27.6,30.3,21.3,33,49.7c1.1,11.5-3.9,22.6-13.2,29.5c12.4-5.3,23.6-7.4,33.7-6.5
	c-7.5-25.8-15.7-64.2-32-85.9C492.2,167.3,485.2,185.5,487.2,202.5z"/>
<defs>
	<filter id="Adobe_OpacityMaskFilter_16_" filterUnits="userSpaceOnUse" x="250.8" y="162.1" width="27.7" height="92.5">
		<feColorMatrix  type="matrix" values="1 0 0 0 0  0 1 0 0 0  0 0 1 0 0  0 0 0 1 0"/>
	</filter>
</defs>
<mask maskUnits="userSpaceOnUse" x="250.8" y="162.1" width="27.7" height="92.5" id="SVGID_33_">
	<g class="st68">
		
			<linearGradient id="SVGID_34_" gradientUnits="userSpaceOnUse" x1="-326.9315" y1="663.8078" x2="-377.0916" y2="656.6578" gradientTransform="matrix(1 0 0 1 641.5413 -448.3565)">
			<stop  offset="0" style="stop-color:#000000"/>
			<stop  offset="1" style="stop-color:#FFFFFF"/>
		</linearGradient>
		<rect x="250.8" y="162.1" class="st69" width="27.7" height="92.5"/>
	</g>
</mask>
<path class="st70" d="M274.5,189.2c5.3-8.9,3.4-20.4-4.5-27.1c0,10.8-0.1,21.5-0.1,32.3c-12.8,35.9-19.1,53.9-19.1,53.9
	c0.4,4.2,0.7,6.3,0.7,6.3c10.3-1,19.4-7.3,24-16.6C286,216.2,264.6,205.6,274.5,189.2z"/>
<defs>
	<filter id="Adobe_OpacityMaskFilter_17_" filterUnits="userSpaceOnUse" x="261.2" y="197.6" width="38.9" height="66.3">
		<feColorMatrix  type="matrix" values="1 0 0 0 0  0 1 0 0 0  0 0 1 0 0  0 0 0 1 0"/>
	</filter>
</defs>
<mask maskUnits="userSpaceOnUse" x="261.2" y="197.6" width="38.9" height="66.3" id="SVGID_35_">
	<g class="st71">
		
			<linearGradient id="SVGID_36_" gradientUnits="userSpaceOnUse" x1="-402.0855" y1="643.5584" x2="-344.9555" y2="692.2184" gradientTransform="matrix(1 0 0 1 651.9478 -439.0353)">
			<stop  offset="0" style="stop-color:#000000"/>
			<stop  offset="1" style="stop-color:#FFFFFF"/>
		</linearGradient>
		<rect x="261.2" y="197.6" class="st72" width="38.9" height="66.3"/>
	</g>
</mask>
<path class="st73" d="M261.2,263.9c21.1-6.9,31.6-10.4,31.6-10.4s2.4-18.1,7.3-54.2c0,0-1.7-0.6-5.2-1.7
	C296.5,224.2,283.6,249.5,261.2,263.9z"/>
<path class="st74" d="M308.6,149.8c0-0.1-0.1-0.2-0.2-0.3l-6.6-8.1c-0.4-0.4-1-0.5-1.5-0.1c-0.4,0.4-0.5,1-0.1,1.5l6.6,8l1,2.2
	l0.7,7c0.1,0.6,0.6,1,1.1,1c0.6-0.1,1-0.6,1-1.1l-0.1-1.5c0.3,0.1,0.6,0.2,0.9,0c0.5-0.2,0.8-0.9,0.5-1.4L308.6,149.8z"/>
<path class="st74" d="M286.6,166.9c-0.4-0.4-1.1-0.4-1.5,0c-0.4,0.4-0.4,1.1,0,1.5c3.3,3.3,5.3,7.5,6,12c0.6,4.4-0.1,9-2.4,13.2
	c-0.3,0.5-0.1,1.2,0.4,1.4c0.5,0.3,1.2,0.1,1.4-0.4c2.5-4.5,3.4-9.6,2.7-14.5C292.5,175.2,290.3,170.5,286.6,166.9z"/>
<path class="st74" d="M302.5,197.5l-6.4-0.8c-0.6-0.1-1.1,0.3-1.2,0.9c-0.1,0.6,0.3,1.1,0.9,1.2l6.4,0.8c0.6,0.1,1.1-0.3,1.2-0.9
	C303.4,198.1,303,197.6,302.5,197.5z"/>
<path class="st74" d="M311.2,177.5c-4,0.3-7.7,2-10.6,4.5c-2.9,2.6-5,6-5.8,10c-0.1,0.6,0.3,1.1,0.8,1.2c0.6,0.1,1.1-0.3,1.2-0.8
	c0.7-3.5,2.5-6.6,5.1-8.8c2.5-2.3,5.8-3.7,9.4-4c0.6,0,1-0.6,1-1.1C312.3,177.9,311.8,177.4,311.2,177.5z"/>
<path class="st74" d="M308.9,160.8c-0.5-0.3-1.1-0.1-1.4,0.4c-0.2,0.3-0.4,0.5-0.7,0.7c-0.3,0.2-0.6,0.3-0.9,0.3c-0.3,0-0.7,0-1-0.2
	c-0.2-0.1-0.4-0.2-0.6-0.4l-1.4-7.4c0-0.2-0.1-0.4-0.2-0.5l-8.2-9.6c-0.4-0.4-1-0.5-1.5-0.1c-0.4,0.4-0.5,1-0.1,1.5l8,9.4l1.4,7.3
	c0,0.4-0.1,0.9-0.3,1.2c-0.2,0.4-0.6,0.7-1,0.8c-0.4,0.2-0.9,0.2-1.3,0.1c-0.4-0.1-0.7-0.3-1-0.6l-2.3-6.1c-0.1-0.2-0.2-0.3-0.3-0.4
	l0,0l-7-5.5c-0.5-0.4-1.1-0.3-1.5,0.2c-0.4,0.5-0.3,1.1,0.2,1.5l2.5,2c-1,0.1-1.9,0.2-2.9,0.2c-1.7,0-3.5-0.1-5.2-0.5
	c-0.6-0.1-1.1,0.3-1.2,0.8c-0.1,0.6,0.3,1.1,0.8,1.2c1.9,0.4,3.7,0.5,5.6,0.5c1.7,0,3.4-0.2,5.1-0.5l1.9,1.5l2.3,5.9
	c0,0.1,0.1,0.2,0.2,0.3c0.6,0.7,1.3,1.2,2.2,1.4c0.8,0.2,1.7,0.2,2.6-0.1c0.9-0.3,1.6-0.9,2-1.7c0.1-0.2,0.2-0.4,0.3-0.6l0,0
	c0.6,0.3,1.3,0.4,1.9,0.3c0.7,0,1.3-0.3,1.9-0.6c0.6-0.3,1-0.8,1.4-1.4C309.5,161.7,309.4,161.1,308.9,160.8z"/>
<path class="st33" d="M400.1,255.6c-0.8-2.4-3.4-4.3-5.7-4.4l-168.5-3.4c-2.3,0-3.6,1.8-2.8,4.2l33.8,98.9c0.8,2.4,3.4,4.3,5.7,4.4
	l168.5,3.4c2.3,0,3.6-1.8,2.8-4.2L400.1,255.6z"/>
<path class="st37" d="M396.3,258.7c-0.6-1.7-2.5-3.2-4.2-3.2l-165.9-3.4c-1.7,0-2.6,1.4-2.1,3.1l33.6,98.2c0.6,1.7,2.5,3.2,4.2,3.2
	l165.9,3.4c1.7,0,2.6-1.4,2.1-3.1L396.3,258.7z"/>
<path class="st33" d="M320.3,296.2c-5.2,0.3-8.5,4.6-7.4,9.7s6.1,9,11.3,8.8c5.2-0.3,8.5-4.6,7.4-9.7S325.5,296,320.3,296.2z"/>
<defs>
	<filter id="Adobe_OpacityMaskFilter_18_" filterUnits="userSpaceOnUse" x="257.6" y="257.6" width="167.9" height="100">
		<feColorMatrix  type="matrix" values="1 0 0 0 0  0 1 0 0 0  0 0 1 0 0  0 0 0 1 0"/>
	</filter>
</defs>
<mask maskUnits="userSpaceOnUse" x="257.6" y="257.6" width="167.9" height="100" id="SVGID_37_">
	<g class="st75">
		
			<linearGradient id="SVGID_38_" gradientUnits="userSpaceOnUse" x1="-362.571" y1="592.2104" x2="-279.991" y2="682.1804" gradientTransform="matrix(1 0 0 1 648.3407 -345.3219)">
			<stop  offset="0" style="stop-color:#000000"/>
			<stop  offset="1" style="stop-color:#FFFFFF"/>
		</linearGradient>
		<rect x="257.6" y="257.6" class="st76" width="167.9" height="100"/>
	</g>
</mask>
<path class="st77" d="M393.2,260.9c-0.6-1.7-2.4-3-4-3.1l-8.1-0.2c-3.6,27.7-18.7,53.7-43.8,70.4c-24.4,16.3-53.3,20.4-79.7,13.9
	l3.2,9.4c0.6,1.7,2.4,3,4,3.1l158.5,3.2c1.6,0,2.5-1.3,2-3L393.2,260.9z"/>
<path class="st36" d="M484.2,297.9c0.9,5.7,3,11.2,6.3,16c-12.1,7.4-62.6,25.4-84.4,32.2c-1.4-4.2-4.3-6.9-8.5-7.9
	c-3.1-0.7-11.7-3.7-14.4-2.4c-1.3,0.6-1.9,1.7-1.8,2.8c0.2,2.7,4,6,7.9,7.7c-2,2.3-4.3,4.4-6.6,6.3l-16.7,3.6l-17.2-3.4
	c-1.4-0.1-2.7,0.6-3.4,1.8c-0.7,1.2-0.6,2.7,0.2,3.9l-9.4-1.2c-1.3-0.2-2.7,0.5-3.2,1.7c-0.6,1.2-0.3,2.7,0.7,3.6
	c-1.4-0.1-2.6,0.9-2.9,2.3c-0.3,1.4,0.5,2.7,1.9,3.2l1.6,0.5c-0.7,2.1-0.2,3.5,1.5,4.3c8.8,4.6,20.2,11.8,29.7,11.5
	c4.2,0.1,27.5-5.5,31.1-6.5c21.6-2,101.3-9.3,133-20.6c10.7-3.8,16.3-6.9,19.1-12.4c6.7-13.3-2.6-50.2-6.2-64.5
	C531.9,278.3,502.8,286.2,484.2,297.9z"/>
<path class="st74" d="M398.3,349.1l-8.5-3.9c-0.6-0.3-1.3,0-1.6,0.6c-0.3,0.6,0,1.3,0.6,1.6l4,1.8l-27,5.9c-0.6,0.1-1,0.8-0.9,1.4
	c0.1,0.6,0.8,1,1.4,0.9l27-5.9c0.6-0.1,1-0.8,0.9-1.4c0-0.1-0.1-0.2-0.1-0.3l3.2,1.5c0.6,0.3,1.3,0,1.6-0.6
	C399.2,350,398.9,349.3,398.3,349.1z"/>
<path class="st74" d="M382,365.2l-16-0.4l-20-7.4c-0.6-0.2-1.3,0.1-1.5,0.7c-0.2,0.6,0.1,1.3,0.7,1.5l20.2,7.5
	c0.1,0,0.3,0.1,0.4,0.1l0,0l16.1,0.4c0.6,0,1.2-0.5,1.2-1.1C383.1,365.8,382.6,365.2,382,365.2z"/>
<path class="st74" d="M373,372l-15.5-1.7l-23.5-8.8c-0.6-0.2-1.3,0.1-1.5,0.7c-0.2,0.6,0.1,1.3,0.7,1.5l23.6,8.9
	c0.1,0,0.2,0.1,0.3,0.1l15.6,1.7c0.6,0.1,1.2-0.4,1.3-1C374.1,372.7,373.7,372.1,373,372z"/>
<path class="st74" d="M354.9,376.1l-20.2-8.7c-0.6-0.3-1.3,0-1.5,0.6c-0.3,0.6,0,1.3,0.6,1.5l20.2,8.7c0.6,0.3,1.3,0,1.5-0.6
	C355.8,377,355.5,376.3,354.9,376.1z"/>
<defs>
	<filter id="Adobe_OpacityMaskFilter_19_" filterUnits="userSpaceOnUse" x="396" y="279.9" width="150.6" height="94.8">
		<feColorMatrix  type="matrix" values="1 0 0 0 0  0 1 0 0 0  0 0 1 0 0  0 0 0 1 0"/>
	</filter>
</defs>
<mask maskUnits="userSpaceOnUse" x="396" y="279.9" width="150.6" height="94.8" id="SVGID_39_">
	<g class="st78">
		
			<linearGradient id="SVGID_40_" gradientUnits="userSpaceOnUse" x1="-390.7414" y1="654.3019" x2="-181.0414" y2="657.7819" gradientTransform="matrix(1 0 0 1 786.7803 -328.2194)">
			<stop  offset="0" style="stop-color:#000000"/>
			<stop  offset="1" style="stop-color:#FFFFFF"/>
		</linearGradient>
		<rect x="396" y="279.9" class="st79" width="150.6" height="94.8"/>
	</g>
</mask>
<path class="st80" d="M508.2,286.6c0.6,11.9,22.4,17.7,20.8,37.6c-0.6,7.4-4.7,14.3-11.2,18.6c-13.7,8.9-27.5,0.8-40.5-0.5
	c-22.3-2.3-20.9,18.3-40.9,24.9c-15.6,5.1-28.4-4.8-40.4,7.6c65.2-6.4,108.3-13.5,129.2-21.2c9.2-3.7,14.7-6.5,17.9-10.6
	c8.8-11.2-1.4-49.9-5.1-63C528.8,280.5,518.8,282.7,508.2,286.6z"/>
<defs>
	<filter id="Adobe_OpacityMaskFilter_20_" filterUnits="userSpaceOnUse" x="407.1" y="299" width="98" height="51.9">
		<feColorMatrix  type="matrix" values="1 0 0 0 0  0 1 0 0 0  0 0 1 0 0  0 0 0 1 0"/>
	</filter>
</defs>
<mask maskUnits="userSpaceOnUse" x="407.1" y="299" width="98" height="51.9" id="SVGID_41_">
	<g class="st81">
		
			<linearGradient id="SVGID_42_" gradientUnits="userSpaceOnUse" x1="-264.2368" y1="739.9312" x2="-350.8968" y2="669.5411" gradientTransform="matrix(1 0 0 1 797.8201 -351.9632)">
			<stop  offset="0" style="stop-color:#000000"/>
			<stop  offset="1" style="stop-color:#FFFFFF"/>
		</linearGradient>
		<rect x="407.1" y="299" class="st82" width="98" height="52"/>
	</g>
</mask>
<path class="st83" d="M484.4,299.1c0.9,4.9,2.8,9.6,5.5,13.9c0.3,0.5,0.2,0.9-0.4,1.4c-2.4,1.5-6,3.2-10.6,5.2
	c-13.8,5.7-25.9,10.4-36.3,14.1c-13.4,4.8-25.2,8.9-35.5,12.2c30.1,16.1,31.3-10.2,52.6-11.9c14-1.2,25.7,9.2,37.7,0.1
	c6.8-5.2,9.4-14.2,6.4-22.2C500.8,303.6,493,298.5,484.4,299.1z"/>
<path class="st74" d="M528.7,312.1c-3.8-2.5-8.1-4.2-12.7-5c-4.6-0.8-9.2-0.7-13.6,0.3c-4.4,1-8.7,2.8-12.5,5.5
	c-0.5,0.3-0.6,1-0.3,1.5c0.3,0.5,1,0.6,1.5,0.3c3.6-2.5,7.5-4.2,11.7-5.2c4.2-0.9,8.5-1,12.8-0.3c4.3,0.8,8.3,2.4,11.9,4.7
	c3.6,2.3,6.7,5.3,9.2,8.9c0.3,0.5,1,0.6,1.5,0.3c0.5-0.3,0.6-1,0.3-1.5C535.9,317.8,532.6,314.6,528.7,312.1z"/>
<path class="st33" d="M256.9,389.1c-1.6,0-2.9,1.3-2.9,2.9c0,1.6,1.3,2.9,2.9,2.9c1.6,0,2.9-1.3,2.9-2.9
	C259.8,390.4,258.5,389.1,256.9,389.1z"/>
<path class="st33" d="M247.8,378.6c-0.7,0-1.3,0.6-1.3,1.3c0,0.7,0.6,1.3,1.3,1.3c0.7,0,1.3-0.6,1.3-1.3
	C249.1,379.2,248.5,378.6,247.8,378.6z"/>
<path class="st33" d="M250.7,353.3c-1.1,0-2,0.9-2,2c0,1.1,0.9,2,2,2c1.1,0,2-0.9,2-2C252.7,354.2,251.8,353.3,250.7,353.3z"/>
<path class="st33" d="M224.5,372.3c-1.1,0-2,0.9-2,2c0,1.1,0.9,2,2,2c1.1,0,2-0.9,2-2C226.5,373.2,225.6,372.3,224.5,372.3z"/>
<path class="st33" d="M275.2,471.8c-1,0-1.8,0.8-1.8,1.8c0,1,0.8,1.8,1.8,1.8c1,0,1.8-0.8,1.8-1.8
	C277,472.6,276.2,471.8,275.2,471.8z"/>
<path class="st33" d="M378.5,428.7c-1.3,0-2.4,1.1-2.4,2.4c0,1.3,1.1,2.4,2.4,2.4c1.3,0,2.4-1.1,2.4-2.4
	C380.9,429.8,379.8,428.7,378.5,428.7z"/>
<path class="st33" d="M317.1,497.3c-1.3,0-2.4,1.1-2.4,2.4c0,1.3,1.1,2.4,2.4,2.4c1.3,0,2.4-1.1,2.4-2.4
	C319.5,498.4,318.4,497.3,317.1,497.3z"/>
<path class="st33" d="M507.3,511c-1,0-1.8,0.8-1.8,1.8c0,1,0.8,1.8,1.8,1.8c1,0,1.8-0.8,1.8-1.8C509.2,511.8,508.3,511,507.3,511z"
	/>
<path class="st33" d="M574.4,477.2c-1,0-1.8,0.8-1.8,1.8c0,1,0.8,1.8,1.8,1.8c1,0,1.8-0.8,1.8-1.8
	C576.2,478,575.4,477.2,574.4,477.2z"/>
<path class="st33" d="M591.2,366.5c-1.6,0-2.9,1.3-2.9,2.9c0,1.6,1.3,2.9,2.9,2.9s2.9-1.3,2.9-2.9
	C594.2,367.8,592.9,366.5,591.2,366.5z"/>
<path class="st33" d="M617,284.5c-2.3,0-4.2,1.9-4.2,4.2s1.9,4.2,4.2,4.2s4.2-1.9,4.2-4.2S619.3,284.5,617,284.5z"/>
<path class="st33" d="M443.7,304.3c-1.2,0-2.1,0.9-2.1,2.1c0,1.2,0.9,2.1,2.1,2.1c1.2,0,2.1-0.9,2.1-2.1
	C445.8,305.2,444.9,304.3,443.7,304.3z"/>
<path class="st33" d="M490.9,255.1c-1.2,0-2.1,0.9-2.1,2.1c0,1.2,0.9,2.1,2.1,2.1c1.2,0,2.1-0.9,2.1-2.1
	C493,256.1,492.1,255.1,490.9,255.1z"/>
<path class="st33" d="M375.6,229.8c-0.8,0-1.4,0.6-1.4,1.4c0,0.8,0.6,1.4,1.4,1.4s1.4-0.6,1.4-1.4
	C377,230.4,376.4,229.8,375.6,229.8z"/>
<path class="st33" d="M323,216.7c-1.2,0-2.1,0.9-2.1,2.1c0,1.2,0.9,2.1,2.1,2.1c1.2,0,2.1-0.9,2.1-2.1
	C325.1,217.7,324.2,216.7,323,216.7z"/>
<path class="st33" d="M561.3,485.2c-1.2,0-2.1,0.9-2.1,2.1c0,1.2,0.9,2.1,2.1,2.1c1.2,0,2.1-0.9,2.1-2.1
	C563.4,486.2,562.5,485.2,561.3,485.2z"/>
<path class="st33" d="M533.9,460.7c-1.2,0-2.1,0.9-2.1,2.1c0,1.2,0.9,2.1,2.1,2.1c1.2,0,2.1-0.9,2.1-2.1
	C536,461.7,535,460.7,533.9,460.7z"/>
<path class="st33" d="M589.3,86.5c-1.2,0-2.1,0.9-2.1,2.1s0.9,2.1,2.1,2.1c1.2,0,2.1-0.9,2.1-2.1S590.5,86.5,589.3,86.5z"/>
<path class="st33" d="M503.5,42c-1.7,0-3,1.4-3,3c0,1.7,1.4,3,3,3c1.7,0,3-1.4,3-3C506.5,43.3,505.1,42,503.5,42z"/>
<path class="st33" d="M456.9,165.4c-1.1,0-2,0.9-2,2c0,1.1,0.9,2,2,2c1.1,0,2-0.9,2-2C459,166.4,458,165.4,456.9,165.4z"/>
</svg>
