<?xml version="1.0" encoding="utf-8"?>
<!-- Generator: Adobe Illustrator 25.2.0, SVG Export Plug-In . SVG Version: 6.00 Build 0)  -->
<svg version="1.1" id="Layer_1" xmlns:svgjs="http://svgjs.com/svgjs"
	 xmlns="http://www.w3.org/2000/svg" xmlns:xlink="http://www.w3.org/1999/xlink" x="0px" y="0px" viewBox="0 0 512 512"
	 style="enable-background:new 0 0 512 512;" xml:space="preserve">
<style type="text/css">
	.st0{fill:#D4E1F4;}
	.st1{fill:#1AE5BE;}
	.st2{fill:#671CC9;}
</style>
<path class="st0" d="M95.3,364.7c0,6.9,2.8,13.6,7.6,18.5c4.8,5,11.4,7.8,18.3,7.8h24c-6.9,0-13.5-2.8-18.3-7.8
	c-4.9-4.9-7.6-11.6-7.6-18.5c0-9.9,5.5-19.3,14.4-23.7l4.5-2.3c8.9-4.3,14.1-13.4,14.1-23.3v-78.6c0-8,0.7-16,2.2-23.9h0.3l-0.3-0.1
	c8.7-45.8,41.6-83.1,84-97.8c8.6-3,14.4-11.1,14.4-20.2v-0.1c0-9.9,5.5-19,14.4-23.5c-13-6.6-28.8-1.5-35.4,11.5
	c-1.9,3.7-2.9,7.8-2.9,12v0.1c0,9.1-5.8,17.2-14.4,20.2c-42.4,14.7-75.3,52-84,97.8c-1.5,7.9-2.2,15.9-2.2,24v78.6
	c0,9.9-5.2,18.9-14.1,23.3l-4.5,2.3C100.8,345.3,95.3,354.8,95.3,364.7z"/>
<path class="st1" d="M128.2,256h253.9v9.6H128.2V256z"/>
<path class="st1" d="M130.6,208.1h249.9v9.6H130.6V208.1z"/>
<g>
	<path class="st2" d="M152.9,340.6h3.7c2.6,0,4.8-2.1,4.8-4.8s-2.1-4.8-4.8-4.8h-3.7c-2.6,0-4.8,2.1-4.8,4.8
		S150.2,340.6,152.9,340.6z"/>
	<path class="st2" d="M173.4,340.6h55.7c2.6,0,4.8-2.1,4.8-4.8s-2.1-4.8-4.8-4.8h-55.7c-2.6,0-4.8,2.1-4.8,4.8
		S170.7,340.6,173.4,340.6z"/>
	<path class="st2" d="M404.3,336.7c0,0-0.1,0-0.1-0.1l-5.1-2.3c-7.4-3.6-12.2-11-12.2-18.9v-78.6c0-57.2-35.9-108-89.4-126.4
		c-6.7-2.3-11.2-8.6-11.2-15.7c0-17.2-14-31.1-31.2-31.1c-17.2,0-31.1,14-31.1,31.2c0,7.1-4.5,13.4-11.2,15.7
		c-25.7,9.1-48,25.8-64,47.9c-16.6,22.8-25.5,50.3-25.5,78.4v36.8c0,2.6,2.1,4.8,4.8,4.8c2.6,0,4.8-2.1,4.8-4.8v-36.8
		c0-26.2,8.2-51.7,23.6-72.8c14.8-20.5,35.6-36,59.4-44.4c10.5-3.7,17.6-13.6,17.6-24.8c0-11.9,9.7-21.6,21.6-21.6
		s21.6,9.7,21.6,21.6c0,11.2,7.1,21.1,17.7,24.8c49.6,17,82.9,64.2,82.9,117.3v78.6c0,11.5,6.9,22.3,17.6,27.6c0,0,0.1,0,0.1,0.1
		l5,2.3c7,3.5,11.8,11.2,11.8,19.3c0,11.7-9.6,21.5-21.1,21.5H121.2c-11.5,0-21.2-9.8-21.2-21.5c-0.1-8.2,4.5-15.7,11.7-19.4l0.1,0
		l4.5-2.3c10.3-5.1,16.7-15.6,16.7-27.5v-8.3c0-2.6-2.1-4.8-4.8-4.8c-2.6,0-4.8,2.1-4.8,4.8v8.3c0,8.3-4.3,15.5-11.4,18.9
		c0,0,0,0-0.1,0l-4.5,2.3c-10.4,5.1-17.1,16-17.1,28c-0.1,17.1,13.7,31,30.8,31.1h89.3v6.1c0,25.6,21,47,46.6,46.6
		c25.1-0.4,45.2-20.8,45.3-45.8v-6.9h88.6c16.9,0,30.7-13.9,30.7-31.1C421.6,352.8,414.9,342,404.3,336.7L404.3,336.7z M292.7,402.6
		c0,20.1-16.3,36.3-36.3,36.3s-36.3-16.3-36.3-36.3v-6.9h72.7V402.6z"/>
</g>
</svg>
