<?xml version="1.0" encoding="utf-8"?>
<!-- Generator: Adobe Illustrator 25.2.0, SVG Export Plug-In . SVG Version: 6.00 Build 0)  -->
<svg version="1.1" id="Layer_1" xmlns:svgjs="http://svgjs.com/svgjs"
	 xmlns="http://www.w3.org/2000/svg" xmlns:xlink="http://www.w3.org/1999/xlink" x="0px" y="0px" viewBox="0 0 512 512"
	 style="enable-background:new 0 0 512 512;" xml:space="preserve">
<style type="text/css">
	.st0{fill:#D4E1F4;}
	.st1{fill:#1AE5BE;}
	.st2{fill:#671CC9;}
</style>
<path class="st0" d="M104.6,124.2H80.4c-8.9,0-16.1,7.2-16.1,16.1v231.2c0,8.9,7.2,16.1,16.1,16.1h24.2c-8.9,0-16.1-7.2-16.1-16.1
	V140.3C88.5,131.4,95.7,124.2,104.6,124.2z"/>
<g>
	<path class="st1" d="M203.7,292.1h-78.1c-15.3,0-27.8,12.4-27.8,27.8s12.4,27.8,27.8,27.8h78.1c15.3,0,27.8-12.4,27.8-27.8
		S219,292.1,203.7,292.1z M203.7,338h-78.1c-10,0-18.1-8.1-18.1-18.1s8.1-18.1,18.1-18.1h78.1c10,0,18.1,8.1,18.1,18.1
		S213.7,338,203.7,338z"/>
	<path class="st1" d="M409.4,301.8H287.8c-2.7,0-4.8,2.2-4.8,4.8c0,2.7,2.2,4.8,4.8,4.8h121.6c2.7,0,4.8-2.2,4.8-4.8
		C414.2,304,412.1,301.8,409.4,301.8z"/>
	<path class="st1" d="M409.4,327.6H287.8c-2.7,0-4.8,2.2-4.8,4.8c0,2.7,2.2,4.8,4.8,4.8h121.6c2.7,0,4.8-2.2,4.8-4.8
		C414.2,329.7,412.1,327.6,409.4,327.6z"/>
</g>
<path class="st2" d="M84,150.4h3.8c2.7,0,4.8-2.2,4.8-4.8c0-2.7-2.2-4.8-4.8-4.8H84c-2.7,0-4.8,2.2-4.8,4.8
	C79.1,148.2,81.3,150.4,84,150.4z"/>
<path class="st2" d="M105.4,150.4h57.3c2.7,0,4.8-2.2,4.8-4.8c0-2.7-2.2-4.8-4.8-4.8h-57.3c-2.7,0-4.8,2.2-4.8,4.8
	C100.6,148.2,102.7,150.4,105.4,150.4z"/>
<path class="st2" d="M431.6,119H80.4c-11.6,0-20.9,9.4-20.9,20.9v231.1c0,11.6,9.4,20.9,20.9,20.9l0,0h351.1
	c11.6,0,20.9-9.4,20.9-20.9l0,0V139.9C452.5,128.4,443.1,119,431.6,119z M442.8,371.5c0,6.2-5.1,11.7-11.3,11.7H80.4
	c-6.2,0-11.3-5.4-11.3-11.7V243h373.7V371.5z M442.8,175.4H129.6c-2.7,0-4.8,2.2-4.8,4.8c0,2.7,2.2,4.8,4.8,4.8h313.3v48.3H69.2V185
	h26.6c2.7,0,4.8-2.2,4.8-4.8c0-2.7-2.2-4.8-4.8-4.8H69.2v-35.1c0-6.4,5.2-11.6,11.7-11.7h350.7c6.2,0,11.3,5,11.3,11.3l0,0V175.4z"
	/>
</svg>
