<?xml version="1.0" encoding="utf-8"?>
<!-- Generator: Adobe Illustrator 25.2.0, SVG Export Plug-In . SVG Version: 6.00 Build 0)  -->
<svg version="1.1" id="Layer_1" xmlns:svgjs="http://svgjs.com/svgjs"
	 xmlns="http://www.w3.org/2000/svg" xmlns:xlink="http://www.w3.org/1999/xlink" x="0px" y="0px" viewBox="0 0 512 512"
	 style="enable-background:new 0 0 512 512;" xml:space="preserve">
<style type="text/css">
	.st0{fill:#D4E1F4;}
	.st1{fill:#1AE5BE;}
	.st2{fill:#671CC9;}
</style>
<g>
	<path class="st0" d="M77.4,409.9H103c-9.4-0.1-17-7.7-17-17.1V119.3c0-9.4,7.6-17.1,17-17.1H77.4c-9.4,0.1-17,7.7-17,17.1v273.5
		C60.4,402.2,68,409.8,77.4,409.9z"/>
	<path class="st1" d="M210.9,226.2c0-5.6-4.6-10.2-10.2-10.2H97c-5.6,0-10.2,4.6-10.2,10.2v32.3c0,5.6,4.6,10.2,10.2,10.2h103.7
		c5.6,0,10.2-4.6,10.2-10.2V226.2z M97,226.2h103.3l0,32.3H97L97,226.2z"/>
	<g>
		<path class="st2" d="M423.5,211.1c-2.8,0-5.1,2.3-5.1,5.1v4.1c0,2.8,2.3,5.1,5.1,5.1c2.8,0,5.1-2.3,5.1-5.1v-4.1
			C428.6,213.4,426.3,211.1,423.5,211.1C423.5,211.1,423.5,211.1,423.5,211.1z"/>
		<path class="st2" d="M423.5,233.7c-2.8,0-5.1,2.3-5.1,5.1v65.6c0,2.8,2.3,5.1,5.1,5.1c2.8,0,5.1-2.3,5.1-5.1v-65.6
			C428.6,236,426.3,233.7,423.5,233.7z"/>
		<path class="st2" d="M434.6,132.7H248.1c-2.1,0-4.1-0.5-5.9-1.5l-54.7-31.3c-3.3-1.9-7.1-2.9-11-2.9H77.4
			c-12.2,0.1-22.1,10-22.1,22.3v273.5c0,12.2,9.9,22.2,22.1,22.3h357.1c12.2-0.1,22.1-10,22.1-22.3V155
			C456.7,142.8,446.8,132.8,434.6,132.7L434.6,132.7z M446.5,183.7H144.6c-2.8,0-5.1,2.3-5.1,5.1s2.3,5.1,5.1,5.1h301.8v198.8
			c0,6.6-5.4,12-12.1,12.1h-357c-6.6,0-11.9-5.3-11.9-11.9v-199h43.4c2.8,0,5.1-2.3,5.1-5.1s-2.3-5.1-5.1-5.1H65.5v-64.5
			c0-6.6,5.4-12,12.1-12.1h98.9c2.1,0,4.1,0.6,5.9,1.6l54.7,31.2c3.3,1.9,7.1,2.9,11,2.9h186.4c6.6,0,11.9,5.3,11.9,11.9V183.7z"/>
	</g>
</g>
</svg>
