<?xml version="1.0" encoding="utf-8"?>
<!-- Generator: Adobe Illustrator 25.2.0, SVG Export Plug-In . SVG Version: 6.00 Build 0)  -->
<svg version="1.1" id="Layer_1" xmlns:svgjs="http://svgjs.com/svgjs"
	 xmlns="http://www.w3.org/2000/svg" xmlns:xlink="http://www.w3.org/1999/xlink" x="0px" y="0px" viewBox="0 0 512 512"
	 style="enable-background:new 0 0 512 512;" xml:space="preserve">
<style type="text/css">
	.st0{fill:#D4E1F4;}
	.st1{fill:#1AE5BE;}
	.st2{fill:#671CC9;}
</style>
<g>
	<path class="st0" d="M187.9,222.9c0-48.2,34-88.4,78.7-97.1c-5.9-1.1-12-1.7-18-1.7c-53.3,0-96.7,44.3-96.7,98.8
		s43.4,98.8,96.7,98.8c6,0,12.1-0.6,18-1.7C221.8,311.4,187.9,271.1,187.9,222.9L187.9,222.9z"/>
	<path class="st1" d="M77.1,197.2V258h-20c-3,0-5.4,2.4-5.4,5.4v169.3c0.1,17,14,30.7,31,30.6c16.9-0.1,30.5-13.8,30.6-30.6V263.4
		c0-3-2.4-5.4-5.4-5.4h-20v-60.8c23.8-2.6,42.3-22.1,42.3-45.7V63c0-3-2.4-5.4-5.4-5.4c-3,0-5.4,2.4-5.4,5.4v88.5
		c0,17.6-13.7,32.3-31.5,34.8V63.4c0-3-2.4-5.4-5.4-5.4s-5.4,2.4-5.4,5.4v122.9c-17.8-2.5-31.5-17.1-31.5-34.8V63
		c0-3-2.4-5.4-5.4-5.4c-3,0-5.4,2.4-5.4,5.4v88.5C34.7,175.1,53.3,194.6,77.1,197.2z M102.5,432.7c-0.1,11-9.1,19.9-20.1,19.9
		c-10.9-0.1-19.8-8.9-19.9-19.9V268.8h40V432.7z"/>
	<path class="st1" d="M471.9,283.4h-20V54c0-3-2.4-5.4-5.4-5.4h-7.9c-27.8,0-50.3,22.6-50.4,50.4v145.5c0,3,2.4,5.4,5.4,5.4h47.5
		v33.5h-20c-3,0-5.4,2.4-5.4,5.4v143.9c0.1,17,14,30.7,31,30.6c16.9-0.1,30.5-13.8,30.6-30.6V288.8
		C477.3,285.8,474.9,283.4,471.9,283.4L471.9,283.4z M399,99c0-21.8,17.7-39.6,39.6-39.6h2.5v179.7H399V99z M466.5,432.7
		c-0.1,11-9.1,19.9-20.1,19.9c-10.9-0.1-19.8-8.9-19.9-19.9V294.2h40V432.7z"/>
	<g>
		<path class="st2" d="M248.6,294.9c38.8,0,70.4-32.3,70.4-71.9S287.4,151,248.6,151s-70.4,32.3-70.4,71.9S209.8,294.9,248.6,294.9
			L248.6,294.9z M248.6,161.8c32.9,0,59.6,27.4,59.6,61.1s-26.7,61.1-59.6,61.1S189,256.7,189,222.9S215.7,161.8,248.6,161.8
			L248.6,161.8z"/>
		<path class="st2" d="M248.6,332.5c59.3,0,107.5-49.2,107.5-109.6s-48.2-109.6-107.5-109.6s-107.5,49.2-107.5,109.6
			S189.3,332.5,248.6,332.5L248.6,332.5z M248.6,124.2c53.3,0,96.7,44.3,96.7,98.8s-43.4,98.8-96.7,98.8s-96.7-44.3-96.7-98.8
			S195.3,124.2,248.6,124.2L248.6,124.2z"/>
	</g>
</g>
</svg>
