<?xml version="1.0" encoding="utf-8"?>
<!-- Generator: Adobe Illustrator 25.2.0, SVG Export Plug-In . SVG Version: 6.00 Build 0)  -->
<svg version="1.1" id="Layer_1" xmlns:svgjs="http://svgjs.com/svgjs"
	 xmlns="http://www.w3.org/2000/svg" xmlns:xlink="http://www.w3.org/1999/xlink" x="0px" y="0px" viewBox="0 0 512 512"
	 style="enable-background:new 0 0 512 512;" xml:space="preserve">
<style type="text/css">
	.st0{fill:#D4E1F4;}
	.st1{fill:#671CC9;}
	.st2{fill:#1AE5BE;}
</style>
<g>
	<path class="st0" d="M445,391.2H141.1c-23.9,0-43.3-19.4-43.3-43.3V90c0-2,0.1-4,0.4-6C76.9,87,61,105.2,61,126.8v258
		c0,23.9,19.4,43.3,43.3,43.3h303.9c21.6,0,39.8-15.9,42.9-37.3C449.1,391.1,447,391.2,445,391.2z"/>
	<path class="st1" d="M451.3,127v258c0,23.9-19.4,43.3-43.3,43.3H104c-23.9,0-43.3-19.4-43.3-43.3V127c0-23.9,19.4-43.3,43.3-43.3
		H408C431.9,83.8,451.2,103.1,451.3,127z M438.4,385V187H73.6v198c0,16.8,13.6,30.4,30.4,30.4H408
		C424.8,415.4,438.3,401.8,438.4,385z M438.4,174.1V127c0-16.8-13.6-30.4-30.4-30.4H104c-16.8,0-30.4,13.6-30.4,30.4v47.1H438.4z"/>
	<g>
		<path class="st2" d="M241.1,331.9c1.7,0,3.3-0.7,4.5-1.8l66.9-65.3c2.5-2.5,2.6-6.6,0.1-9.1c-2.5-2.6-6.6-2.6-9.1-0.1l-62.4,60.9
			l-32.6-31.9c-1.6-1.7-4-2.4-6.3-1.7c-2.3,0.6-4,2.4-4.6,4.7c-0.6,2.3,0.2,4.7,1.9,6.3l37.1,36.3
			C237.8,331.3,239.4,331.9,241.1,331.9z"/>
		<path class="st2" d="M233.6,115.5c-11.3,0-20.4,9.1-20.4,20.4c0,11.3,9.1,20.4,20.4,20.4h0.1c11.3,0,20.4-9.1,20.4-20.4
			C254,124.7,244.9,115.5,233.6,115.5L233.6,115.5z M241.1,135.9c0,4.1-3.4,7.5-7.5,7.5h0c-4.1,0-7.5-3.4-7.5-7.5
			c0-4.1,3.4-7.5,7.5-7.5h0C237.8,128.4,241.1,131.8,241.1,135.9z"/>
		<path class="st2" d="M191.3,135.8c0-11.3-9.1-20.4-20.3-20.5c-11.3,0-20.4,9.1-20.5,20.3c0,11.3,9.1,20.4,20.3,20.5h0.1
			C182.1,156.1,191.3,147,191.3,135.8z M170.9,143.2L170.9,143.2c-3.1,0-5.8-1.8-6.9-4.7c-1.2-2.8-0.5-6,1.7-8.2
			c1.4-1.4,3.3-2.2,5.3-2.2h0c4.1,0,7.5,3.4,7.5,7.5C178.4,139.9,175,143.2,170.9,143.2z"/>
		<path class="st2" d="M108.1,155.9L108.1,155.9c11.3,0,20.4-9.1,20.3-20.3c0-11.2-9.1-20.3-20.3-20.3c-11.2,0-20.3,9.1-20.3,20.3
			C87.9,146.8,96.9,155.9,108.1,155.9z M102.9,130.2c1.4-1.4,3.3-2.2,5.3-2.2h0c4.2,0,7.5,3.4,7.5,7.5c0,4.1-3.4,7.5-7.5,7.5h0
			c-3,0-5.8-1.9-6.9-4.7C100.1,135.6,100.8,132.3,102.9,130.2z"/>
	</g>
</g>
</svg>
