<?xml version="1.0" encoding="utf-8"?>
<!-- Generator: Adobe Illustrator 23.0.1, SVG Export Plug-In . SVG Version: 6.00 Build 0)  -->
<svg version="1.1" id="Layer_1" xmlns="http://www.w3.org/2000/svg" xmlns:xlink="http://www.w3.org/1999/xlink" x="0px" y="0px"
	 viewBox="0 0 197.3 197.3" style="enable-background:new 0 0 197.3 197.3;" xml:space="preserve">
<style type="text/css">
	.st0{fill:#FFFFFF;}
</style>
<image style="overflow:visible;" width="1000" height="1080" xlink:href="../../../../../../Users/21267/Desktop/lk-logo-letter-monogram-with-triangle-shape-vector-30050622.jpg"  transform="matrix(1 0 0 1 1236.252 39.4646)">
</image>
<path class="st0" d="M184.7,68.6l-56-56C112.1-4,85.2-4,68.6,12.6l-56,56C-4,85.2-4,112.1,12.6,128.7l56,56
	c16.6,16.6,43.5,16.6,60.1,0l56-56C201.3,112.1,201.3,85.2,184.7,68.6z M124.9,102.2l-8.2,8.4l-5,5.1c-4.8,4.9-12.7,5-17.6,0.2
	l-5.1-5L72.5,94.7c-3.9-3.8-3.9-10-0.1-13.9v0c3.8-3.9,10-3.9,13.9-0.1l15.2,14.9c0.7,0.7,1.8,0.7,2.5,0l7-7.1
	c3.8-3.9,10-3.9,13.9-0.1h0C128.7,92.1,128.7,98.4,124.9,102.2z"/>
</svg>
