<?xml version="1.0" encoding="utf-8"?>
<!-- Generator: Adobe Illustrator 23.0.1, SVG Export Plug-In . SVG Version: 6.00 Build 0)  -->
<svg version="1.1" id="Layer_1" xmlns="http://www.w3.org/2000/svg" xmlns:xlink="http://www.w3.org/1999/xlink" x="0px" y="0px"
	 viewBox="0 0 197.3 197.3" style="enable-background:new 0 0 197.3 197.3;" xml:space="preserve">
<style type="text/css">
	.st0{fill:#671CC9;}
	.st1{fill:#FFFFFF;}
</style>
<path class="st0" d="M184.7,128.7l-56,56c-16.6,16.6-43.5,16.6-60.1,0l-56-56C-4,112.1-4,85.2,12.6,68.6l56-56
	C85.2-4,112.1-4,128.7,12.6l56,56C201.3,85.2,201.3,112.1,184.7,128.7z"/>
<path class="st1" d="M101.5,95.6L86.2,80.7c-3.9-3.8-10.1-3.7-13.9,0.1l0,0c-3.8,3.9-3.7,10.1,0.1,13.9L89,110.9l5.1,5
	c4.9,4.8,12.8,4.7,17.6-0.2l5-5.1l8.2-8.4c3.8-3.9,3.7-10.1-0.1-13.9l0,0c-3.9-3.8-10.1-3.7-13.9,0.1l-7,7.1
	C103.3,96.3,102.2,96.3,101.5,95.6z"/>
</svg>
