<?xml version="1.0" encoding="iso-8859-1"?>
<!-- Uploaded to: SVG Repo, www.svgrepo.com, Generator: SVG Repo Mixer Tools -->
<svg fill="#000000" height="800px" width="800px" version="1.1" id="Layer_1" xmlns="http://www.w3.org/2000/svg" xmlns:xlink="http://www.w3.org/1999/xlink" 
	 viewBox="0 0 503.607 503.607" xml:space="preserve">
<g>
	<g>
		<path d="M495.213,411.279h-33.571v-66.631c2.492-0.347,5.243-0.517,8.391-0.517c13.868,0,25.18-11.312,25.18-25.18v-16.82
			c0-13.885-11.262-25.147-25.147-25.147h-67.181v-55.459c2.622-2.466,5.006-3.295,8.393-3.295c13.91,0,25.18-11.27,25.18-25.18
			v-16.787c0-13.91-11.27-25.18-25.18-25.18h-41.967v-43.197c17.588-5.343,26.499-27.373,17.328-44.67l-18.352-33.66
			c-3.181-5.834-11.558-5.834-14.738,0l-18.306,33.574c-9.211,17.37-0.311,39.4,17.282,44.753v43.199h-92.328v-43.197
			c17.588-5.343,26.499-27.373,17.328-44.67l-18.352-33.66c-3.181-5.834-11.557-5.834-14.738,0l-18.306,33.574
			c-9.211,17.37-0.311,39.4,17.282,44.753v43.199h-92.328v-43.197c17.588-5.343,26.499-27.373,17.328-44.67l-18.352-33.66
			c-3.181-5.834-11.557-5.834-14.738,0l-18.306,33.574c-9.211,17.37-0.311,39.4,17.282,44.753v43.199H92.328
			c-13.91,0-25.18,11.27-25.18,25.18v16.787c0,13.91,11.27,25.18,25.18,25.18c3.32,0,5.998,0.42,8.393,1.408v57.346H33.54
			c-13.885,0-25.147,11.262-25.147,25.147v16.82c0,13.868,11.312,25.18,25.18,25.18h8.396v67.148H8.393
			c-4.636,0-8.393,3.758-8.393,8.393v33.574c0,13.91,11.27,25.18,25.18,25.18h453.246c13.91,0,25.18-11.27,25.18-25.18v-33.574
			C503.607,415.037,499.849,411.279,495.213,411.279z M350.027,71.08l10.89-19.973l10.937,20.059
			c4.604,8.685-0.803,20.16-9.483,21.083c-0.489,0.053-0.967,0.079-1.454,0.079c-0.487,0-0.965-0.026-1.435-0.077
			C350.784,91.326,345.377,79.851,350.027,71.08z M240.913,71.08l10.89-19.973l10.937,20.059c4.604,8.685-0.803,20.16-9.483,21.083
			c-0.489,0.053-0.967,0.079-1.454,0.079c-0.487,0-0.965-0.026-1.435-0.077C241.669,91.326,236.262,79.851,240.913,71.08z
			 M131.798,71.08l10.89-19.973l10.937,20.059c4.604,8.685-0.803,20.16-9.483,21.083c-0.489,0.053-0.967,0.079-1.454,0.079
			c-0.487,0-0.965-0.026-1.435-0.077C132.554,91.326,127.147,79.851,131.798,71.08z M83.934,193.049v-16.787
			c0-4.639,3.754-8.393,8.393-8.393h318.951c4.639,0,8.393,3.754,8.393,8.393v16.787c0,4.639-3.754,8.393-8.393,8.393
			c-10.09,0-16.414,3.406-22.948,11.079c-0.08,0.087-0.162,0.17-0.24,0.262c-1.011,1.192-1.935,2.381-3,3.846
			c-0.659,0.894-1.324,1.815-2.003,2.796c-0.845,1.223-1.332,1.928-1.665,2.407c-6.952,9.999-11.25,13.185-20.505,13.185
			c-9.255,0-13.553-3.186-20.505-13.185c-0.333-0.479-0.82-1.184-1.665-2.407c-8.726-12.588-15.461-17.982-28.191-17.982
			c-15.507,0-24.884,5.864-37.693,19.415c-0.263,0.278-2.478,2.633-3.112,3.3c-7.722,8.126-11.98,10.859-17.949,10.859
			c-5.969,0-10.227-2.733-17.949-10.859c-0.634-0.667-2.849-3.022-3.112-3.3c-12.808-13.55-22.186-19.415-37.693-19.415
			c-15.969,0-24.518,6.337-34.288,20.389c-0.352,0.506-0.859,1.24-1.678,2.426c-5.874,8.474-8.727,10.759-14.395,10.759
			c-0.354,0-0.698-0.009-1.032-0.028c-5.005-0.282-7.856-2.787-13.363-10.731c-0.82-1.186-1.327-1.92-1.678-2.426
			c-0.756-1.088-1.505-2.113-2.25-3.11c-2.21-2.992-4.19-5.336-6.338-7.366c-6.9-6.758-14.461-9.913-25.7-9.913
			C87.689,201.443,83.934,197.688,83.934,193.049z M117.508,237.99c1.099,1.43,2.179,2.726,3.259,3.921
			c0.022,0.024,0.044,0.048,0.065,0.072c0.463,0.509,0.926,0.998,1.39,1.465c0.075,0.075,0.149,0.15,0.224,0.224
			c0.42,0.416,0.842,0.815,1.266,1.198c0.096,0.087,0.192,0.176,0.288,0.261c0.421,0.372,0.846,0.725,1.273,1.064
			c0.09,0.071,0.179,0.147,0.268,0.217c0.497,0.384,0.998,0.75,1.506,1.091c0.016,0.011,0.032,0.024,0.049,0.035
			c0.539,0.36,1.086,0.697,1.641,1.009c0.045,0.025,0.092,0.047,0.138,0.072c0.487,0.27,0.981,0.522,1.484,0.757
			c0.169,0.079,0.343,0.148,0.514,0.222c0.387,0.169,0.776,0.333,1.174,0.482c0.212,0.08,0.43,0.152,0.646,0.225
			c0.369,0.126,0.742,0.247,1.121,0.356c0.236,0.068,0.476,0.133,0.717,0.195c0.375,0.097,0.757,0.185,1.144,0.267
			c0.25,0.053,0.501,0.105,0.756,0.151c0.4,0.073,0.81,0.134,1.223,0.191c0.253,0.035,0.503,0.074,0.761,0.103
			c0.458,0.052,0.93,0.089,1.404,0.124c0.227,0.016,0.447,0.04,0.677,0.052c0.712,0.038,1.44,0.06,2.191,0.06
			c12.73,0,19.465-5.394,28.191-17.982c0.845-1.223,1.332-1.928,1.665-2.407c6.952-9.999,11.25-13.185,20.505-13.185
			c9.717,0,15.568,3.659,25.493,14.159c0.236,0.25,2.473,2.628,3.143,3.333c10.633,11.19,18.256,16.082,30.118,16.082
			c11.862,0,19.485-4.892,30.118-16.082c0.67-0.705,2.906-3.083,3.143-3.333c9.925-10.5,15.776-14.159,25.493-14.159
			c5.668,0,8.521,2.285,14.395,10.759c0.82,1.186,1.327,1.92,1.678,2.426c9.769,14.052,18.319,20.389,34.288,20.389
			c0.889,0,1.747-0.027,2.591-0.066c0.219-0.01,0.436-0.023,0.653-0.036c0.754-0.045,1.494-0.104,2.215-0.181
			c0.082-0.009,0.168-0.014,0.249-0.024c0.798-0.091,1.572-0.207,2.332-0.339c0.169-0.029,0.337-0.062,0.504-0.094
			c0.671-0.126,1.329-0.267,1.972-0.426c0.091-0.023,0.185-0.042,0.276-0.065c0.734-0.188,1.45-0.401,2.151-0.633
			c0.107-0.035,0.211-0.074,0.317-0.11c0.64-0.22,1.267-0.458,1.882-0.716c0.072-0.03,0.145-0.058,0.216-0.089
			c0.694-0.297,1.374-0.618,2.04-0.965c0.025-0.013,0.05-0.028,0.075-0.041c0.654-0.342,1.295-0.711,1.926-1.102
			c0.036-0.023,0.073-0.044,0.11-0.067c1.976-1.235,3.851-2.702,5.671-4.424v34.558h-268.59V237.99z M25.18,318.951v-16.82
			c0-4.614,3.746-8.36,8.36-8.36h75.575h285.377h75.575c4.614,0,8.36,3.746,8.36,8.36v16.82c0,4.597-3.796,8.393-8.393,8.393
			c-20.377,0-31.035,5.958-42.999,19.659c-0.442,0.506-1.003,1.153-1.96,2.257c-7.669,8.824-11.916,11.513-21.445,11.644
			c-0.247,0.003-0.483,0.013-0.738,0.013c-8.333-0.002-13.653-1.952-20.758-7.492c-1.64-1.279-3.375-2.749-5.264-4.431
			c-0.49-0.436-2.531-2.264-3.064-2.739c-14.905-13.268-26.411-18.911-46.458-18.911c0,0-0.001,0-0.001,0s-0.001,0-0.001,0
			c-20.047,0-31.551,5.643-46.455,18.911c-0.533,0.474-2.571,2.3-3.06,2.735c-10.079,8.974-15.768,11.927-26.025,11.927
			c-3.204,0-5.963-0.289-8.549-0.959c-5.689-1.475-10.543-4.798-17.471-10.965c-0.49-0.436-2.531-2.264-3.064-2.739
			c-1.915-1.704-3.772-3.278-5.6-4.735c-12.4-9.885-23.383-14.176-40.855-14.176c0,0-0.001,0-0.001,0c0,0-0.001,0-0.001,0
			c-31.42,0-50.361,13.788-50.361,41.967v8.393c0,3.757-4.635,8.392-8.392,8.393c-0.627,0-1.28-0.141-1.932-0.377
			c-0.077-0.028-0.153-0.047-0.23-0.078c-0.001,0-0.002-0.001-0.004-0.002c-1.698-0.679-3.372-2.048-4.557-3.64
			c-1.016-1.366-1.67-2.896-1.67-4.298v-8.393c0-22.508-31.817-41.967-58.754-41.967c0,0-0.001,0-0.001,0c-0.001,0-0.001,0-0.002,0
			H33.574C28.977,327.344,25.18,323.548,25.18,318.951z M58.757,344.979c0.132,0.025,0.263,0.047,0.395,0.074
			c0.201,0.04,0.401,0.082,0.601,0.125c0.383,0.081,0.765,0.166,1.147,0.256c0.196,0.046,0.393,0.092,0.589,0.14
			c0.404,0.099,0.806,0.204,1.209,0.313c0.168,0.045,0.336,0.089,0.504,0.135c0.504,0.141,1.007,0.289,1.509,0.443
			c0.063,0.019,0.126,0.037,0.188,0.056c0.582,0.181,1.162,0.372,1.739,0.57c0.074,0.026,0.148,0.053,0.222,0.079
			c0.486,0.17,0.971,0.345,1.452,0.526c0.155,0.058,0.308,0.119,0.462,0.179c0.403,0.155,0.804,0.314,1.202,0.477
			c0.17,0.07,0.339,0.14,0.508,0.211c0.388,0.163,0.773,0.329,1.156,0.499c0.161,0.072,0.323,0.143,0.483,0.216
			c0.407,0.184,0.809,0.373,1.21,0.565c0.127,0.061,0.255,0.12,0.382,0.182c1.067,0.521,2.11,1.066,3.122,1.634
			c0.054,0.03,0.106,0.062,0.159,0.092c0.44,0.249,0.875,0.502,1.303,0.76c0.122,0.073,0.241,0.148,0.362,0.222
			c0.36,0.22,0.715,0.442,1.065,0.667c0.132,0.085,0.263,0.171,0.394,0.257c0.339,0.223,0.674,0.448,1.003,0.675
			c0.122,0.084,0.244,0.168,0.365,0.252c0.353,0.248,0.699,0.499,1.039,0.752c0.084,0.062,0.169,0.124,0.252,0.186
			c0.86,0.648,1.676,1.31,2.442,1.982c0.043,0.038,0.083,0.076,0.126,0.114c0.327,0.29,0.646,0.582,0.954,0.876
			c0.087,0.083,0.171,0.167,0.257,0.25c0.26,0.253,0.514,0.507,0.759,0.763c0.091,0.094,0.18,0.189,0.268,0.283
			c0.236,0.252,0.463,0.504,0.683,0.757c0.079,0.091,0.159,0.182,0.236,0.273c0.235,0.277,0.458,0.555,0.673,0.834
			c0.049,0.063,0.101,0.127,0.149,0.19c0.528,0.698,0.994,1.398,1.391,2.097c0.031,0.054,0.056,0.107,0.086,0.161
			c0.159,0.287,0.308,0.574,0.443,0.861c0.043,0.091,0.082,0.183,0.122,0.274c0.112,0.251,0.216,0.502,0.309,0.752
			c0.037,0.1,0.073,0.2,0.107,0.3c0.084,0.247,0.158,0.493,0.222,0.738c0.025,0.095,0.052,0.189,0.074,0.284
			c0.063,0.269,0.111,0.537,0.15,0.803c0.009,0.065,0.024,0.131,0.031,0.196c0.041,0.337,0.064,0.671,0.064,1.003v8.393
			c0,5.283,2.01,10.43,5.269,14.679c3.488,4.55,8.409,8.068,13.829,9.625c0.03,0.009,0.06,0.02,0.091,0.028
			c0.037,0.01,0.074,0.018,0.111,0.028c1.914,0.531,3.887,0.82,5.88,0.82c0,0,0.001,0,0.001,0s0.001,0,0.001,0
			c13.029,0,25.18-12.151,25.18-25.18v-8.393c0-17.548,10.483-25.18,33.572-25.18c12.935,0,20.599,2.804,29.999,10.209
			c1.697,1.337,3.443,2.805,5.295,4.454c0.508,0.452,2.545,2.277,3.059,2.735c8.871,7.898,15.954,12.594,24.49,14.75
			c3.84,0.97,7.973,1.427,12.696,1.427c0,0,0.001,0,0.001,0s0.001,0,0.001,0c15.224,0,24.327-4.725,37.189-16.177
			c0.514-0.458,2.552-2.283,3.059-2.735c12.11-10.781,20.022-14.662,35.292-14.662c15.27,0,23.183,3.881,35.296,14.663
			c0.508,0.452,2.546,2.277,3.061,2.735c2.412,2.147,4.691,4.057,6.904,5.744c9.381,7.155,17.571,10.284,29.505,10.415
			c0.259,0.003,0.507,0.016,0.769,0.016c0.001,0,0.002,0,0.003,0c0.001,0,0.002,0,0.004,0c15.83,0,24.116-5.052,34.903-17.384
			c0.989-1.133,1.528-1.752,1.948-2.229c1.867-2.125,3.527-3.884,5.117-5.362v58.549H58.757V344.979z M486.82,453.246
			c0,4.639-3.754,8.393-8.393,8.393H25.18c-4.639,0-8.393-3.754-8.393-8.393v-25.18h33.576h402.885h33.571V453.246z"/>
	</g>
</g>
</svg>