<svg xmlns="http://www.w3.org/2000/svg" width="64" height="64" enable-background="new 0 0 64 64" viewBox="0 0 64 64" id="beach-bungalow"><path fill="#010101" d="M1.724 55.906c2.287 0 3.359.561 4.601 1.208 1.283.67 2.736 1.429 5.499 1.429 2.764 0 4.218-.759 5.501-1.429 1.242-.647 2.314-1.208 4.602-1.208 2.29 0 3.362.561 4.605 1.209 1.283.669 2.737 1.428 5.502 1.428 2.764 0 4.217-.759 5.5-1.428 1.242-.648 2.314-1.209 4.603-1.209 2.29 0 3.363.561 4.606 1.209 1.284.669 2.738 1.428 5.504 1.428s4.22-.759 5.504-1.428c1.243-.648 2.316-1.209 4.606-1.209.535 0 .97-.434.97-.969 0-.536-.435-.97-.97-.97-2.765 0-4.22.758-5.504 1.428-.744.388-1.432.741-2.352.965v-6.844h6.497c.535 0 .97-.435.97-.97V38.8c0-.535-.435-.969-.97-.969h-8.136v-19.58h5.819c.434 0 .815-.289.933-.707.118-.418-.057-.863-.427-1.09l-7.528-4.602V3.864c0-.536-.434-.97-.969-.97h-6.385c-.536 0-.97.434-.97.97v2.899L32.505.143c-.311-.19-.7-.19-1.011 0L4.813 16.454c-.37.227-.545.672-.428 1.09.118.418.499.707.934.707h5.819v19.58H3.002c-.536 0-.97.434-.97.969v9.747c0 .535.434.97.97.97h6.495v6.824c-.881-.225-1.553-.568-2.274-.945-1.283-.669-2.736-1.428-5.499-1.428-.535 0-.97.434-.97.97C.754 55.473 1.188 55.906 1.724 55.906zM13.667 56.445c-.525.098-1.119.158-1.844.158-.138 0-.258-.008-.387-.012v-7.075h2.23V56.445zM48.392 55.775c-.251-.121-.499-.248-.752-.38-1.284-.67-2.738-1.428-5.504-1.428-2.764 0-4.217.759-5.5 1.428-1.242.648-2.315 1.208-4.603 1.208-2.289 0-3.362-.56-4.605-1.208-1.282-.67-2.736-1.428-5.502-1.428-2.763 0-4.217.758-5.499 1.428-.276.145-.546.282-.82.413v-6.292h32.785V55.775zM52.562 56.594c-.106.003-.203.01-.315.01-.758 0-1.374-.065-1.915-.171v-6.916h2.23V56.594zM45.275 4.834h4.445v5.833l-4.445-2.718V4.834zM8.764 16.312L32 2.106l23.236 14.205h-3.341c-.001 0-.002 0-.002 0-.001 0-.002 0-.003 0H12.11c-.001 0-.002 0-.003 0s-.001 0-.002 0H8.764zM40.068 24.171H23.932c-.535 0-.97.434-.97.97v12.69h-9.885v-19.58h37.847v19.58h-9.886v-12.69C41.038 24.604 40.604 24.171 40.068 24.171zM39.099 26.11v11.721H24.901V26.11H39.099zM3.972 47.577V39.77h8.11c.009.001.017.006.025.006.01 0 .017-.005.026-.006h39.733c.009.001.017.006.026.006.009 0 .017-.005.025-.006h8.109v7.808H3.972zM62.276 59.425c-2.766 0-4.22.759-5.504 1.428-1.242.648-2.316 1.208-4.606 1.208s-3.363-.56-4.606-1.208c-1.284-.669-2.738-1.428-5.504-1.428-2.764 0-4.217.759-5.5 1.428-1.242.648-2.315 1.208-4.603 1.208-2.289 0-3.362-.56-4.604-1.208-1.283-.669-2.737-1.428-5.502-1.428-2.764 0-4.217.759-5.5 1.428-1.242.648-2.314 1.208-4.603 1.208-2.287 0-3.36-.56-4.602-1.208-1.282-.669-2.736-1.428-5.499-1.428-.535 0-.97.435-.97.97s.435.97.97.97c2.287 0 3.36.56 4.602 1.208C7.527 63.241 8.981 64 11.744 64s4.217-.759 5.499-1.428c1.243-.648 2.315-1.208 4.604-1.208 2.289 0 3.361.56 4.604 1.208C27.734 63.241 29.188 64 31.953 64c2.764 0 4.217-.759 5.5-1.428 1.242-.648 2.315-1.208 4.603-1.208 2.29 0 3.364.56 4.606 1.208C47.946 63.241 49.4 64 52.166 64s4.22-.759 5.504-1.428c1.242-.648 2.316-1.208 4.606-1.208.535 0 .97-.435.97-.97S62.812 59.425 62.276 59.425z"></path><path fill="#010101" d="M13.307 40.786H9.473c-.536 0-.97.435-.97.97v3.835c0 .535.434.97.97.97h3.834c.536 0 .97-.435.97-.97v-3.835C14.276 41.221 13.843 40.786 13.307 40.786zM12.337 44.621h-1.895v-1.896h1.895V44.621zM27.047 40.786h-3.835c-.535 0-.97.435-.97.97v3.835c0 .535.435.97.97.97h3.835c.536 0 .97-.435.97-.97v-3.835C28.017 41.221 27.583 40.786 27.047 40.786zM26.077 44.621h-1.896v-1.896h1.896V44.621zM40.787 40.786h-3.834c-.536 0-.97.435-.97.97v3.835c0 .535.434.97.97.97h3.834c.535 0 .97-.435.97-.97v-3.835C41.757 41.221 41.322 40.786 40.787 40.786zM39.817 44.621h-1.895v-1.896h1.895V44.621zM54.527 40.786h-3.835c-.535 0-.97.435-.97.97v3.835c0 .535.435.97.97.97h3.835c.535 0 .97-.435.97-.97v-3.835C55.497 41.221 55.063 40.786 54.527 40.786zM53.558 44.621h-1.896v-1.896h1.896V44.621z"></path></svg>